<svg width="1046" height="357" viewBox="0 0 1046 357" fill="none" xmlns="http://www.w3.org/2000/svg">
<g>
<path d="M381.19 236.58C380.58 236.42 379.93 236.33 379.31 236.35C370.15 236.57 360.98 236.75 351.82 237.17C350.8 237.22 349.6 238.56 348.95 239.6C348.57 240.21 348.87 242.06 349.27 242.2C351.37 242.94 352.93 244.35 354.53 245.76C354.77 245.97 355.22 245.92 355.56 246.02C356.59 246.32 357.62 246.64 358.66 246.95C358.6 247.22 358.54 247.49 358.47 247.77C356.37 248.08 354.27 248.39 352.17 248.7C352.21 248.89 352.24 249.07 352.28 249.26C353.9 249.17 355.51 249.08 357.13 249C357.14 249.12 357.16 249.24 357.17 249.36C354.43 249.95 351.7 250.55 348.96 251.14C348.99 251.3 349.02 251.47 349.05 251.63C351.81 251.29 354.56 250.96 357.32 250.62C357.36 250.77 357.4 250.93 357.44 251.08C354.46 251.88 351.47 252.68 348.48 253.49C349.18 253.63 349.89 253.78 350.9 253.99C349.55 254.43 348.54 254.77 347.53 255.1C347.57 255.27 347.6 255.44 347.64 255.61C351.45 254.83 355.26 254.04 359.06 253.26C359.12 253.53 359.18 253.81 359.24 254.08C354.74 255.1 350.25 256.12 345.75 257.14C352.05 257.09 358.14 256.35 363.43 252.45C365.07 251.24 366.4 249.29 368.97 250.03C369.37 250.15 370.32 249.55 370.5 249.08C371.55 246.41 374.26 245.92 376.22 244.47C378.26 242.96 380.25 241.37 382.08 239.62C383.58 238.19 383.18 237.11 381.18 236.58H381.19ZM350.18 241.19C350.15 240.39 350.46 239.6 350.71 238.47C352.21 239.18 353.05 239.59 354.49 240.27C353.31 240.96 352.54 241.56 351.62 241.88C351.3 241.99 350.18 241.44 350.17 241.19H350.18ZM355.8 244.48C355.49 244.66 354.32 244.15 354.28 243.86C354.15 242.91 354.37 241.91 354.48 240.52C356.06 241.16 356.94 241.52 358.45 242.14C357.36 243.14 356.67 243.96 355.8 244.48ZM358.85 242.36C360.75 243.27 361.81 243.78 362.87 244.29C362.87 244.64 362.89 244.99 362.89 245.33C361.7 245.5 360.51 245.66 359.32 245.83C359.19 244.91 359.07 243.98 358.85 242.36ZM360 248.28C359.79 247.72 360.44 246.96 361.45 246.58C362.46 246.21 363.44 246.36 363.65 246.92C363.86 247.48 363.21 248.24 362.2 248.62C361.19 248.99 360.21 248.84 360 248.28ZM362.88 251.17C361.87 251.54 360.89 251.39 360.68 250.83C360.47 250.27 361.12 249.51 362.13 249.13C363.14 248.76 364.12 248.91 364.33 249.47C364.54 250.03 363.89 250.79 362.88 251.17ZM366.52 248.62C365.44 248.62 364.57 247.88 364.57 246.96C364.57 246.04 365.44 245.3 366.52 245.3C367.6 245.3 368.47 246.04 368.47 246.96C368.47 247.88 367.6 248.62 366.52 248.62ZM363.9 243.14C360.25 241.42 356.55 239.81 352.36 237.92H381.05C376.98 244.42 370.61 246.3 363.9 243.14Z" fill="currentColor"/>
<path d="M350.18 241.19C350.15 240.39 350.46 239.6 350.71 238.47C352.21 239.18 353.05 239.59 354.49 240.27C353.31 240.96 352.54 241.56 351.62 241.88C351.3 241.99 350.18 241.44 350.17 241.19H350.18Z" fill="#AFC1C1"/>
<path d="M355.8 244.48C355.49 244.66 354.32 244.15 354.28 243.86C354.15 242.91 354.37 241.91 354.48 240.52C356.06 241.16 356.94 241.52 358.45 242.14C357.36 243.14 356.67 243.96 355.8 244.48Z" fill="#AFC1C1"/>
<path d="M363.9 243.14C360.25 241.42 356.55 239.81 352.36 237.92H381.05C376.98 244.42 370.61 246.3 363.9 243.14Z" fill="#AFC1C1"/>
<path d="M358.85 242.36C360.75 243.27 361.81 243.78 362.87 244.29C362.87 244.64 362.89 244.99 362.89 245.33C361.7 245.5 360.51 245.66 359.32 245.83C359.19 244.91 359.07 243.98 358.85 242.36Z" fill="#AFC1C1"/>
<path d="M360 248.28C359.79 247.72 360.44 246.96 361.45 246.58C362.46 246.21 363.44 246.36 363.65 246.92C363.86 247.48 363.21 248.24 362.2 248.62C361.19 248.99 360.21 248.84 360 248.28Z" fill="#AFC1C1"/>
<path d="M362.88 251.17C361.87 251.54 360.89 251.39 360.68 250.83C360.47 250.27 361.12 249.51 362.13 249.13C363.14 248.76 364.12 248.91 364.33 249.47C364.54 250.03 363.89 250.79 362.88 251.17Z" fill="#AFC1C1"/>
<path d="M366.52 248.62C365.44 248.62 364.57 247.88 364.57 246.96C364.57 246.04 365.44 245.3 366.52 245.3C367.6 245.3 368.47 246.04 368.47 246.96C368.47 247.88 367.6 248.62 366.52 248.62Z" fill="#AFC1C1"/>
</g>
</svg>
