<svg width="1046" height="357" viewBox="0 0 1046 357" fill="none" xmlns="http://www.w3.org/2000/svg">
<g>
<path d="M280.04 202.11C279.79 201.72 278.93 201.53 278.9 201.21C278.67 197.84 277.69 195.04 274.07 193.93C273.1 193.63 272.16 193.23 271.2 192.87C271.16 192.98 271.11 193.09 271.07 193.2C270.2 192.71 269.33 192.22 268.46 191.72C267.73 189.04 265.77 189.19 263.16 188.88C261.32 187.69 260.33 188 259.05 189.18C258.08 186.2 257.12 185.89 255.08 187.89C253.76 186.65 253.89 183.49 251.26 184.57C249.86 183.38 248.71 182.4 247.55 181.42C247.07 182.65 246.59 183.88 246.3 184.61C245.58 183.54 244.63 182.11 243.67 180.68C242.84 181.47 242.01 182.26 241.24 183C239.69 178.93 239.67 178.92 236.91 179.74C235.72 178.66 234.81 177.5 233.62 176.95C233.27 176.79 232.17 178.24 231.39 179.01C230.42 174.37 229.57 173.77 226.84 175.6C224.28 173.34 222.22 170.49 218.66 169.63C217.81 169.43 216.86 169.43 216.12 169.03C215.36 168.63 214.75 168.51 214.25 168.61C212.88 166.18 210.67 165.36 209.01 167.42C208.38 164.54 204.6 165.59 204.07 162.82C204.05 162.73 203.75 162.69 203.58 162.64C201.48 162.02 199.05 161.85 197.35 160.66C195.21 159.17 194.63 160.36 194.01 161.55C193.33 160.31 192.62 159.02 191.92 157.74C191.25 158.32 190.57 158.91 189.9 159.49C189.35 157.69 190.08 154.71 186.39 155.74C186.2 155.79 185.86 155.31 185.6 155.07C184.35 153.92 183.52 154.48 182.85 155.73C181.6 152.79 180.7 152.36 178.85 153.52C177.95 152.72 177.21 151.82 176.27 151.28C175.49 150.83 174.38 150.95 173.58 150.52C172.24 149.8 171.14 148.41 169.75 148.06C166.99 147.37 164.94 145.35 162.31 144.57C160.78 144.11 159.33 143 158.05 142.82C155.84 142.5 154 142.05 151.92 141.04C148.59 139.42 145.08 138.16 141.98 136.06C141.67 135.85 141.1 136.08 140.68 135.98C140.07 135.85 139.41 135.72 138.89 135.4C137.44 134.5 136.17 133.21 134.61 132.6C130.84 131.12 126.95 129.97 123.13 128.63C121.89 128.2 120.68 127.64 119.51 127.04C116.49 125.47 113.52 123.8 110.48 122.28C109.47 121.78 108.29 121.62 107.19 121.32C105.56 120.87 103.94 120.43 101.98 119.9C101.9 119.7 100.84 118.97 98.64 117.87C95.57 116.34 92.55 114.72 89.45 113.27C88.59 112.87 87.54 112.9 86.57 112.74C85.38 111.84 84.02 111.42 82.67 110.93C79.5 109.8 76.35 108.61 73.17 107.49C71.02 106.73 68.73 106.29 66.72 105.27C64.75 104.27 63.14 102.58 61.24 101.43C59.31 100.26 57.28 99.17 55.17 98.4C53.83 97.91 51.87 98.6 50.86 97.85C46.34 94.52 40.77 95.07 35.83 93.39C35.03 93.12 33.97 93.24 33.16 93.54C32.62 93.74 32.09 94.54 32 95.14C31.93 95.57 32.58 96.52 32.94 96.54C36.97 96.7 38.36 100.83 41.59 102.14C42.5 102.51 43.98 102.76 44.16 103.37C44.59 104.85 45.31 104.98 46.66 105.15C48.94 105.44 49.78 108.95 52.74 108.13C52.74 108.13 52.8 108.69 52.97 108.86C54.66 110.61 56.15 113.39 58.15 113.85C62.11 114.76 64.09 117.89 66.98 119.94C68.11 120.75 68.41 122.68 69.51 123.59C70.68 124.56 72.43 124.8 73.79 125.59C74.77 126.16 75.76 126.98 76.31 127.94C76.9 128.97 76.99 130.29 77.36 131.7C78.16 131.6 79.03 131.49 79.89 131.38C79.74 131.55 79.6 131.71 79.45 131.88C82.3 134.27 85.19 136.63 88 139.06C89.94 140.74 91.64 142.72 93.7 144.23C96.05 145.95 98.64 147.38 101.2 148.79C102.33 149.41 103.64 149.68 105.39 150.29C105.48 151.17 105.54 152.77 105.87 154.31C105.97 154.78 106.75 155.18 107.3 155.47C108.68 156.21 110.77 156.53 111.35 157.65C112.47 159.83 114.08 160.99 116.08 162.15C117.55 163 118.58 164.59 119.82 165.82C120.93 166.92 121.93 168.26 123.25 169.02C124.58 169.78 127.27 169.6 127.57 170.46C128.61 173.41 131.65 172.9 133.48 174.07C136.14 175.77 138.5 177.77 140.91 179.72C142.13 180.7 143.03 182.07 144.19 183.13C145.27 184.12 146.54 184.9 147.65 185.86C148.59 186.67 149.42 187.61 150.86 189.05C151.15 191.66 151.52 191.91 155.55 191.34C155.87 194.35 162.53 200.17 165.73 200.77C167.02 201.95 168.49 202.77 169.92 203.64C170.34 203.89 170.69 204.28 171.03 204.64C172.64 206.33 174.23 208.03 175.83 209.73C176.05 209.53 176.28 209.33 176.5 209.14C176.92 211.03 177.13 213.1 179.84 212.9C180.02 212.89 180.19 213.5 180.46 213.68C181.43 214.34 182.43 214.96 183.46 215.54C183.89 215.78 184.72 215.78 184.81 216.07C185.71 218.86 187.58 217.99 189.69 217.09C189.43 218.11 189.08 218.79 189.11 219.46C189.19 220.88 189.47 222.29 189.67 223.7C190.97 223.07 192.41 222.62 193.52 221.75C194.78 220.77 195.75 219.41 196.85 218.21C196.94 218.32 197.04 218.43 197.13 218.55C195.95 221.2 194.78 223.86 193.6 226.51C193.94 226.75 194.29 226.98 194.63 227.22C199.58 224.77 202.92 220.28 206.95 216.66C205.35 219.94 203.49 223.05 202.01 226.33C201.22 228.09 200.77 230.14 200.75 232.06C200.73 234.25 202.79 235.2 204.61 233.97C205.95 233.07 207.15 231.9 208.22 230.68C210.78 227.76 213.23 224.73 215.72 221.75C215.23 224.07 214.25 226.15 213.38 228.28C212.01 231.62 210.52 234.94 209.45 238.38C208.83 240.35 209.06 242.48 212.1 242.6C210.89 246.36 209.98 250.01 213.2 252.92C215.56 255.05 217.62 253.2 219.71 251.51C219.71 252.96 219.43 254.15 219.77 255.12C220.49 257.17 221.11 259.62 222.62 260.88C223.42 261.55 226.01 260.09 227.69 259.61C228.26 260.63 228.74 262.53 229.95 263.42C231.33 264.43 231.31 265.39 231.4 266.76C231.55 269.02 231.35 271.78 234.96 271.47C235.03 272.54 234.83 273.59 235.22 274.31C235.61 275.03 236.66 275.97 237.3 275.89C239.35 275.63 241.35 274.94 243.59 274.37C243.63 277.63 245.15 277.81 247 276.75C248.63 275.81 250.16 274.63 251.59 273.39C259.35 266.69 264.82 258.2 269.82 249.44C272.41 244.91 274.33 239.95 276.11 235.02C276.95 232.7 276.74 230.01 277.01 227.48C276.63 227.39 276.26 227.31 275.88 227.22C273.924 243.712 264.081 255.887 254.231 268.069C254.161 268.156 254.09 268.243 254.02 268.33C259.12 254.73 266.58 242.35 273.74 229.77C272.45 230.7 271.35 231.77 270.61 233.05C265.66 241.52 260.84 250.06 255.86 258.5C254.53 260.75 252.76 262.73 251.19 264.84C250.83 264.61 250.46 264.38 250.1 264.14C252.56 252.02 259.84 242.25 266.32 231.99C265.25 232.5 264.28 233.11 263.62 233.96C257.54 241.83 252.42 250.25 249.11 259.7C248.87 260.37 248.04 260.84 247.48 261.4C247.17 260.6 246.53 259.76 246.61 259C246.76 257.68 247.15 256.29 247.79 255.12C251.82 247.81 255.95 240.56 260.05 233.29C260.46 232.56 260.96 231.88 261.41 231.17C261.21 230.98 261 230.78 260.8 230.59C259.99 231.29 258.99 231.86 258.39 232.71C252.92 240.55 248.01 248.69 244.72 257.74C244.26 259.01 243.15 260.04 242.34 261.18C242.03 261 241.72 260.82 241.41 260.64C244.06 249.35 249.36 239.01 253.73 228.29C252.91 228.62 252.38 229.07 252.06 229.65C247.02 238.93 242.77 248.53 239.91 258.73C239.64 259.71 238.95 260.57 238.46 261.48C238.17 261.35 237.89 261.22 237.6 261.09C240.21 247.34 244.69 234.09 248.8 220.69C247.54 222.29 246.48 223.98 245.89 225.82C245.8 226.098 245.711 226.375 245.621 226.653C242.621 235.955 239.619 245.26 236.91 254.64C236.15 257.26 236.01 260.26 236.43 262.96C236.89 265.9 235.47 267.5 233.8 269.3C233.48 267.53 233.25 265.81 233.53 264.16C234.64 257.45 235.65 250.72 237.18 244.1C238.77 237.22 240.94 230.47 242.82 223.66C243.04 222.86 243 221.98 243.09 221.14C236.91 234.33 234.2 248.33 232.11 262.95C229.52 261.03 229.49 258.93 229.79 256.88C229.793 256.858 229.796 256.836 229.799 256.814C230.246 253.696 230.696 250.559 231.53 247.53C234.63 236.23 236.42 224.82 235.11 213.08C234.86 210.81 234.5 208.55 234.19 206.28L234.185 206.28C233.816 206.3 233.448 206.32 233.07 206.35C233.07 207.65 233.07 208.94 233.07 210.24C233.08 217.03 233.76 223.9 232.94 230.59C231.941 238.737 229.906 246.787 227.889 254.768C227.866 254.859 227.843 254.949 227.82 255.04C227.4 256.68 225.08 257.84 223.64 259.22C222.94 257.83 222 256.51 221.62 255.04C221.29 253.77 221.39 252.29 221.68 250.99C222.38 247.81 223.27 244.67 224.12 241.52C225.75 235.49 228.27 229.55 228.83 223.43C229.39 217.31 228 211.02 227.42 204.29C225.24 206.68 225.75 209.09 225.95 211.45C226.03 212.42 226.32 213.52 226 214.36C223.86 219.92 221.94 225.62 219.23 230.9C217.42 234.42 214.42 237.33 211.95 240.52C211.57 240.31 211.19 240.11 210.81 239.9C211.53 237.75 212.16 235.58 212.97 233.47C215.49 226.96 218.35 220.57 220.55 213.96C221.85 210.07 222.14 205.85 222.89 201.78C222.52 201.7 222.15 201.61 221.78 201.53C219.76 207.29 220.17 213.82 215.76 218.87C211.66 223.56 208.43 229.03 202.69 232.38C202.65 230.48 202.83 228.69 203.61 227.21C206.08 222.56 208.87 218.09 211.34 213.44C213.16 210.02 214.84 206.5 216.25 202.9C216.81 201.48 216.47 199.72 216.55 198.11C216.2 198.07 215.85 198.03 215.5 197.99C215.29 198.84 215.13 199.71 214.85 200.54C213.96 203.16 213.56 206.16 211.99 208.3C209.43 211.78 206.12 214.73 203.07 217.84C201.29 219.66 199.39 221.38 197.55 223.15C197.32 222.98 197.09 222.82 196.87 222.65C202.03 213.82 208.97 205.79 209.35 194.83C207.05 199.79 205.62 205.28 202.65 209.76C199.56 214.42 195 218.11 191.07 222.22C190.83 222.05 190.59 221.89 190.35 221.72C190.65 220.63 190.8 219.47 191.28 218.47C193.19 214.56 195.23 210.72 197.17 206.82C198.66 203.82 200.23 200.84 201.46 197.73C202.13 196.02 202.16 194.06 202.48 192.21C202.1 192.13 201.73 192.05 201.35 191.97C200.95 193.43 200.77 195 200.11 196.34C197.24 202.2 194.36 208.05 191.19 213.75C190.52 214.95 188.65 215.48 187.33 216.32C187.1 216.16 186.88 215.99 186.65 215.83C186.86 214.75 186.82 213.55 187.31 212.62C189.51 208.46 191.92 204.4 194.14 200.25C195.29 198.1 196.28 195.86 197.15 193.59C197.39 192.98 196.93 192.1 196.79 191.34C195.49 193.57 194.88 195.67 193.86 197.55C191.04 202.72 188.08 207.8 185.07 212.87C184.76 213.39 183.69 213.91 183.2 213.75C182.71 213.59 182.33 212.58 182.25 211.91C182.19 211.35 182.59 210.71 182.86 210.14C185.11 205.38 187.54 200.7 189.57 195.86C190.61 193.37 190.94 190.58 191.59 187.93C191.27 187.81 190.95 187.7 190.63 187.58C190.29 188.18 189.75 188.75 189.63 189.39C188.29 196.49 184.67 202.61 181.29 208.82C180.85 209.63 180.04 210.24 179.4 210.95C179.08 210.77 178.76 210.58 178.44 210.4C179.07 208.48 179.53 206.48 180.37 204.65C182.88 199.21 185.58 193.87 188.1 188.44C188.54 187.5 188.52 186.35 188.71 185.3L188.04 185.12C184.27 192.67 180.49 200.22 176.72 207.77C176.47 207.88 176.21 207.98 175.96 208.09C175.58 207.15 174.72 206.07 174.93 205.28C175.46 203.29 176.36 201.38 177.3 199.53C179.73 194.76 182.29 190.06 184.71 185.28C185.14 184.43 185.18 183.39 185.4 182.43C185.22 182.38 185.04 182.33 184.85 182.28C180.85 189.76 176.85 197.23 172.85 204.71C172.57 204.6 172.29 204.49 172.02 204.39C172.67 202.61 173.26 200.81 173.98 199.07C176.05 194.06 178.25 189.09 180.23 184.04C180.62 183.06 180.29 181.79 180.29 180.66C179.56 181 179.27 181.36 179.18 181.76C177.67 188.48 174.75 194.61 171.21 200.46C170.81 201.12 169.89 201.48 169.21 201.97C168.85 201.05 167.97 199.91 168.24 199.25C169.26 196.75 170.66 194.4 171.93 192C173.41 189.2 175.18 186.52 176.32 183.59C177.1 181.57 177.01 179.21 177.3 177.01C176.91 176.94 176.52 176.87 176.12 176.8C175.93 177.38 175.59 177.96 175.57 178.54C175.42 182.39 174.01 185.75 171.91 188.93C171.885 188.968 171.859 189.007 171.834 189.045C170.159 191.577 168.469 194.131 167.11 196.84C166.36 198.35 165.5 199.21 164.1 198.37C163.66 198.11 163.7 196.11 164.21 195.37C165.8 193.06 167.97 191.13 169.43 188.76C171.32 185.72 172.89 182.45 174.28 179.14C174.74 178.05 174.21 176.54 174.11 174.95C172.28 179.13 171.07 183.01 168.99 186.36C166.87 189.77 163.92 192.67 161.33 195.79C160.78 194.97 160.66 194.07 161.02 193.46C161.76 192.22 162.73 191.12 163.66 190C167.09 185.9 169.71 181.38 170.78 176.08C170.9 175.49 170.8 174.85 170.8 174.23C170.5 174.13 170.19 174.02 169.89 173.92C168.03 181.76 163.64 187.98 157.83 193.47C157.76 192.21 157.76 190.86 158.35 189.87C160.71 185.89 163.34 182.06 165.7 178.09C166.66 176.47 167.22 174.62 167.96 172.87C167.61 172.62 167.25 172.37 166.9 172.12C166.69 172.6 166.53 173.12 166.25 173.57C163.44 178.13 160.54 182.63 157.84 187.25C156.66 189.28 155.01 189.75 152.11 189.77C153.1 187.52 153.67 185.54 154.76 183.9C157.52 179.74 160.52 175.74 163.41 171.65C163.87 171 164.2 170.27 164.59 169.57C164.26 169.35 163.93 169.13 163.6 168.91C159.22 174.83 154.84 180.76 150.45 186.68C150.19 186.48 149.93 186.29 149.67 186.09C152.37 178.9 157.43 173.18 161.89 167.02C155.56 171.23 151.98 177.71 147.76 183.83C147.69 182.45 147.86 181.14 148.53 180.18C151.38 176.08 154.37 172.08 157.31 168.04C157.8 167.37 158.27 166.69 158.75 166.02C158.46 165.79 158.16 165.57 157.87 165.34C153.08 170.48 149.01 176.21 144.89 182.02C144.96 180.62 145.16 179.25 145.89 178.25C148.83 174.23 151.93 170.32 154.97 166.37C155.49 165.69 156 164.99 156.51 164.3C156.17 164.04 155.84 163.79 155.5 163.53C151.22 168.67 146.95 173.82 142.67 178.96C142.51 177.64 142.71 176.36 143.42 175.53C146.78 171.6 150.27 167.78 153.77 163.97C154.25 163.44 155.07 163.23 155.74 162.87C155.42 162.52 155.11 162.16 154.79 161.81C153.78 162.46 152.59 162.93 151.79 163.78C148.32 167.48 144.97 171.3 141.56 175.07C141 175.69 140.37 176.26 139.78 176.86C139.56 176.65 139.35 176.44 139.13 176.23C142.31 170.28 146.65 165.16 151.24 160.2C144.83 163.21 141.78 169.54 137.07 174.33C137.58 170.84 140.15 168.69 142.22 166.24C144.34 163.74 146.54 161.29 148.7 158.82C148.37 158.53 148.04 158.25 147.72 157.96C143.15 163 137.88 167.4 133.98 173.3C133.95 172.16 134.04 170.94 134.68 170.19C137.92 166.39 141.3 162.71 144.63 158.98C145.23 158.31 145.8 157.63 146.39 156.95C146.19 156.74 145.99 156.54 145.79 156.33C144.82 157.04 143.72 157.63 142.91 158.49C139.5 162.14 136.22 165.91 132.81 169.56C132.16 170.25 131.14 170.6 130.29 171.11L130.287 171.107C129.988 170.748 129.689 170.389 129.4 170.03C133.97 165.13 138.54 160.22 143.11 155.32C142.06 155.43 141.15 155.81 140.51 156.45C136.72 160.22 133 164.08 129.21 167.85C128.62 168.44 127.74 168.73 126.99 169.15C126.78 168.83 126.56 168.51 126.35 168.19C131.14 163.28 135.92 158.37 140.71 153.47C140.5 153.25 140.3 153.02 140.09 152.8C139.19 153.49 138.22 154.1 137.42 154.89C133.52 158.7 129.68 162.57 125.76 166.37C125.14 166.97 124.26 167.29 123.5 167.73C123.22 167.36 122.94 167 122.66 166.63C127.78 161.69 132.91 156.75 138.03 151.81C137.77 151.53 137.51 151.25 137.25 150.96C131.45 155.09 126.52 160.27 121.03 165.06C121.05 163.85 121.16 162.59 121.81 161.74C124.33 158.42 127.03 155.22 129.65 151.98C130.22 151.27 130.76 150.54 131.31 149.83C131.11 149.64 130.9 149.44 130.7 149.25C130.04 149.76 129.27 150.17 128.74 150.78C125.95 154 123.23 157.29 120.44 160.51C119.86 161.18 119.07 161.66 118.38 162.23C118.16 161.99 117.94 161.74 117.72 161.5C120.68 155.65 126.19 151.93 130.11 146.84C124.41 150.43 119.79 155.17 115.46 160.29C118.31 154.62 122.9 150.39 127.25 145.92C121.24 148.48 117.86 153.98 113.22 158.17C114.57 155.62 116.22 153.32 118.1 151.22C120.05 149.04 122.22 147.05 124.29 144.97C124.09 144.76 123.89 144.54 123.69 144.33C118.65 147.32 115.26 152.3 110.64 155.84C113.77 150.64 118.44 146.98 122.88 142.99C121.85 142.99 121 143.25 120.38 143.78C116.94 146.73 113.57 149.76 110.15 152.74C109.44 153.36 108.65 153.87 107.89 154.42C107.63 154.14 107.36 153.87 107.1 153.59C110.44 149.26 113.78 144.93 117.11 140.61C116.84 140.39 116.58 140.17 116.31 139.95C113.19 143.34 110.07 146.73 106.95 150.12C106.85 150.05 106.75 149.98 106.65 149.91C109.64 146.12 112.63 142.33 115.62 138.54C115.37 138.31 115.12 138.09 114.87 137.86C113.17 139.61 111.56 141.47 109.75 143.1C107.96 144.71 107.32 147.6 104.72 148.3C104.52 148.11 104.33 147.93 104.13 147.74C106.94 144.07 109.75 140.41 112.55 136.74C111.38 136.84 110.51 137.3 109.92 138C107.81 140.49 105.84 143.11 103.7 145.57C103.07 146.29 102.01 146.64 101.15 147.16C101.41 146.16 101.4 144.93 102 144.19C103.53 142.29 105.36 140.62 107.02 138.82C107.93 137.83 108.74 136.75 109.6 135.72C109.32 135.47 109.04 135.21 108.76 134.96C105.18 138.52 101.6 142.07 98.02 145.63C97.84 145.45 97.66 145.28 97.49 145.1C100.73 141.61 103.97 138.12 107.21 134.63C105.92 134.7 104.93 135.14 104.19 135.83C102.07 137.82 100.1 139.96 97.96 141.92C97.29 142.54 96.29 142.79 95.44 143.22C95.17 142.84 94.89 142.46 94.62 142.08C97.91 139.1 101.2 136.11 104.49 133.13L103.75 132.29L92.77 141.86L92.11 141.57C92.44 140.74 92.55 139.69 93.14 139.12C95.41 136.9 97.82 134.82 100.19 132.7C100.79 132.16 101.43 131.67 102.05 131.16C101.87 130.93 101.69 130.71 101.51 130.48C97.09 132.4 93.99 136.2 90.06 138.95C91.72 134.26 96.13 131.78 98.76 127.84C94.22 130.15 90.78 133.68 87.42 137.45C88.19 132.61 92.86 130.39 95.11 126.57C94.31 126.06 93.57 125.59 92.84 125.12C92.59 124.87 92.34 124.63 92.09 124.38C89.15 127.34 86.2 130.29 82.86 133.65C84.52 129.13 88.7 127.17 90.89 123.75C90.69 123.54 90.49 123.33 90.29 123.12C87.51 125.63 84.73 128.15 81.95 130.66L81.5 130.26C83.71 127.73 85.93 125.19 88.14 122.66C87.88 122.42 87.61 122.18 87.35 121.94C84.59 124.78 81.82 127.63 79.06 130.47C78.86 130.29 78.66 130.11 78.46 129.93C80.96 126.79 83.52 123.7 85.92 120.49C86.44 119.79 86.75 118.54 86.5 117.75C85.95 115.95 86.36 114.82 88.27 113.84C88.12 115.14 88 116.17 87.86 117.4C89.06 116.45 90 115.7 91.29 114.67C91.66 116.55 91.94 118.02 92.25 119.58C92.73 118.3 93.16 117.13 93.59 115.97C93.9 116.02 94.2 116.08 94.51 116.13V121.47C95.41 119.93 95.96 119 96.5 118.07C96.72 118.12 96.95 118.18 97.17 118.23C97.32 119.9 97.46 121.58 97.66 123.79C98.53 122.02 99.11 120.84 99.69 119.66C99.9 119.72 100.11 119.79 100.31 119.85C100.46 121.7 100.6 123.55 100.77 125.73C101.663 124.121 102.363 122.859 103.059 121.604C103.073 121.579 103.086 121.555 103.1 121.53L103.101 121.53C103.351 121.57 103.6 121.61 103.84 121.64V127.76C104.01 127.74 104.18 127.73 104.34 127.71C104.69 125.92 105.04 124.13 105.39 122.34L106.15 122.38C106.27 124.53 106.4 126.68 106.52 128.83C106.63 128.81 106.75 128.78 106.86 128.76L108.52 123.06C108.82 123.14 109.12 123.22 109.42 123.3C109.64 125.95 109.86 128.61 110.07 131.26C110.2 131.26 110.34 131.25 110.47 131.24C110.77 128.89 111.08 126.54 111.38 124.19C111.74 124.19 112.11 124.19 112.47 124.2C112.64 127.35 112.8 130.51 112.97 133.66C113.04 133.67 113.11 133.69 113.19 133.7C113.66 131.35 114.13 129.01 114.6 126.66C114.93 126.73 115.26 126.8 115.59 126.87V134.79C115.71 134.8 115.83 134.81 115.95 134.82C116.49 132.82 117.04 130.81 117.58 128.81C117.83 128.87 118.08 128.93 118.33 128.99V135.94C118.43 135.96 118.54 135.98 118.64 136C119.34 133.7 120.05 131.4 120.75 129.1C121 129.15 121.26 129.21 121.51 129.26V136.21C121.61 136.21 121.71 136.21 121.81 136.21C122.38 134.32 122.96 132.44 123.53 130.55C123.9 130.64 124.28 130.72 124.65 130.81C124.53 132.19 124.39 133.57 124.29 134.95C124.19 136.43 124.13 137.91 124.05 139.4C124.23 139.43 124.41 139.46 124.59 139.49C125.25 137.33 125.9 135.17 126.56 133.01C126.89 133.09 127.23 133.17 127.56 133.25L126.5 142.01C126.69 142.04 126.88 142.08 127.07 142.11C127.73 139.3 128.4 136.5 129.06 133.69C129.3 133.73 129.53 133.77 129.77 133.8C129.47 136.7 129.17 139.59 128.87 142.49C129.13 142.53 129.38 142.57 129.64 142.6C130.31 139.84 130.98 137.07 131.65 134.31C131.78 134.34 131.91 134.37 132.04 134.39V143.91C132.23 143.94 132.42 143.96 132.61 143.99C133.07 140.78 133.53 137.56 133.99 134.35C136.83 138.31 135.08 142.83 136.54 146.99C136.86 143.76 137.18 140.53 137.5 137.3C137.67 137.3 137.83 137.3 138 137.31V148.54C139.88 144.81 138.45 140.71 141.33 137.16C142.32 142.03 142.04 146.07 139.81 150.44C141.74 149.48 143.03 148.84 144.75 147.98C144.66 149.22 144.61 149.87 144.56 150.52C147.107 150.613 148.53 151.557 148.83 153.35C151.53 152.883 153.013 153.773 153.28 156.02C154.15 155.88 155.02 155.62 155.87 155.64C156.52 155.66 157.71 156.04 157.71 156.27C157.74 159.41 159.74 158.95 161.7 158.33C161.88 159.34 162.01 160.11 162.17 161.02C162.75 160.87 163.18 160.79 163.59 160.64C165.4 160.01 167.22 159.28 166.42 162.58C166.37 162.8 167.7 163.75 167.95 163.6C170.89 161.88 171.04 163.78 170.81 165.96C175.183 164.867 177.203 165.847 176.87 168.9C178.27 168.74 179.72 168.58 181.16 168.41C180.98 169.38 180.81 170.35 180.56 171.72C181.76 171.23 182.88 170.77 184.51 170.11C183.98 171.47 183.64 172.31 183.17 173.5C185.21 173.37 186.99 173.25 188.79 173.14C188.62 174.23 188.47 175.17 188.24 176.6C190.08 175.33 191.56 174.3 193.04 173.27C193.22 173.48 193.41 173.69 193.59 173.9C192.99 175.17 192.4 176.44 191.55 178.25C193.66 177.1 195.12 176.3 196.57 175.5C196.78 175.75 196.98 175.99 197.19 176.24C196.42 177.61 195.66 178.98 194.89 180.35C195.03 180.44 195.16 180.53 195.3 180.61C196.93 179.66 198.56 178.7 200.71 177.45C200.17 179.74 199.84 181.13 199.52 182.52C199.73 182.57 199.93 182.61 200.14 182.66C201.11 181.6 202.08 180.53 203.04 179.47C203.17 179.57 203.29 179.67 203.42 179.77C203.19 181.04 202.96 182.32 202.73 183.59C202.91 183.65 203.09 183.72 203.27 183.78L206.56 180.08L207.14 180.43C206.59 182.05 206.03 183.66 205.48 185.28C205.72 185.41 205.97 185.54 206.21 185.67C207.52 184.28 208.83 182.9 210.13 181.51C210.3 181.66 210.48 181.81 210.65 181.96C209.8 183.39 208.96 184.82 208.11 186.25C209.58 185.92 210.42 185.04 211.43 184.52C212.14 184.15 213.1 184.27 213.95 184.17C214.03 184.91 214.21 185.65 214.18 186.38C214.15 187.06 213.88 187.74 213.6 188.92C215.2 187.74 216.37 186.88 217.54 186.01C217.72 186.14 217.9 186.26 218.09 186.39C217.78 187.51 217.46 188.63 216.97 190.36C218.01 189.79 218.61 189.53 219.13 189.16C219.71 188.73 220.22 188.2 221.31 187.21C220.53 189.53 220.02 191.05 219.51 192.57C219.69 192.67 219.87 192.76 220.05 192.86C220.053 192.857 220.056 192.854 220.059 192.852C221.336 191.664 222.613 190.477 223.88 189.28C224.06 189.43 224.24 189.57 224.43 189.72C224.33 191.68 224.22 193.64 224.12 195.59C224.38 195.79 224.64 195.98 224.9 196.18C225.39 195.41 225.8 194.58 226.38 193.88C226.96 193.17 227.71 192.59 228.38 191.95C228.54 192.06 228.71 192.17 228.87 192.28C228.54 193.91 228.21 195.54 227.88 197.18C228.14 197.23 228.4 197.27 228.65 197.32C230.1 195.87 231.54 194.41 232.99 192.96C233.23 193.12 233.46 193.28 233.7 193.44C233.52 195.09 233.34 196.74 233.16 198.39L233.162 198.39C233.381 198.43 233.601 198.47 233.81 198.51C234.78 197.39 235.76 196.27 236.73 195.14C236.94 195.24 237.15 195.35 237.37 195.45C236.91 196.93 236.45 198.42 235.99 199.9C236.17 200.03 236.35 200.16 236.53 200.29C238.21 198.79 239.89 197.29 242.11 195.32V201.66C243.36 199.78 244.11 198.64 244.87 197.5C245.1 197.56 245.33 197.63 245.56 197.69C245.53 198.48 245.53 199.28 245.44 200.06C245.35 200.86 245.18 201.65 245.04 202.45C245.27 202.52 245.5 202.59 245.73 202.66C247.22 201.3 248.7 199.93 250.13 198.63C252.28 200.66 247.47 202.19 250.21 204.09C251.83 202.41 253.38 200.8 254.94 199.19C255.21 199.42 255.49 199.65 255.76 199.89C255.759 199.893 255.757 199.896 255.756 199.899C255.237 200.996 254.719 202.093 254.18 203.25C257.22 205.42 257.2 200.89 259.43 201.08C259.01 202.18 258.61 203.23 258.21 204.27C258.37 204.47 258.53 204.66 258.69 204.86C259.99 204.07 261.28 203.28 262.7 202.42C262.29 203.39 261.94 204.23 261.59 205.08C261.74 205.23 261.88 205.38 262.03 205.52C263.8 204.52 265.58 203.53 267.69 202.34C267.57 203.79 267.49 204.79 267.34 206.49C269.15 205 270.48 203.9 271.82 202.8C271.99 203.36 272.17 203.97 272.36 204.58C272.63 204.59 272.89 204.6 273.16 204.61C273.28 203.68 273.62 202.73 273.48 201.84C273.19 199.97 272.66 198.13 272.23 196.28C272.57 196.21 272.92 196.14 273.26 196.08C274.74 198.55 274 201.44 274.19 203.42C275.21 204.47 275.78 205.05 276.65 205.95C277.31 205.09 278.05 204.13 278.92 203.01C279.5 203.87 280.03 204.67 280.57 205.47C280.572 205.469 280.575 205.468 280.577 205.466C280.855 205.318 281.132 205.169 281.4 205.02C280.91 204.06 280.48 203.07 279.9 202.16L280.04 202.11ZM252.42 265.97C251.82 268.08 251.69 270.37 250.58 271.99C249.44 273.65 247.35 274.65 245.68 275.94C245.42 275.65 245.16 275.36 244.9 275.07C246.54 271.45 247.18 267.08 252.42 265.97ZM245.68 262.96C246.53 262.92 247.49 262.88 248.46 262.83C248.69 266.48 244.68 272.54 240.91 273.46C240.933 273.41 240.956 273.359 240.979 273.309C242.661 269.611 244.151 266.334 245.68 262.96ZM237.94 265.75C238.26 261.45 242.73 264.22 244.18 261.9C242.8 266.57 241.17 270.99 237.51 274.22C237.15 274.12 236.78 274.01 236.42 273.91C236.95 271.19 237.73 268.49 237.94 265.75ZM212.98 246.69C213.62 243.6 214.78 240.36 216.6 237.82C220.76 232.02 224.22 225.95 226.4 219.16C226.49 218.87 226.68 218.62 226.83 218.35C227.07 218.4 227.3 218.44 227.54 218.49C227.26 221.3 227.36 224.21 226.62 226.9C224.81 233.43 222.64 239.85 220.55 246.3C220.22 247.31 219.59 248.25 218.97 249.14C217.97 250.58 216.96 253.03 214.99 251.77C213.7 250.95 212.66 248.25 212.98 246.7V246.69ZM85.18 133.97C85.18 133.97 91.99 126.06 92.2 126.48C92.41 126.91 93.39 127.2 93.39 127.2C93.39 127.2 86.62 134.63 86.5 135.39C86.37 136.14 85 134.18 85 134.18L85.18 133.97ZM84.12 112.43C84.43 112.69 85.04 113 85 113.18C84.81 114.07 84.52 114.96 84.11 115.78C83.95 116.08 83.36 116.16 82.47 116.58C82.67 115.57 82.69 115.03 82.89 114.58C83.23 113.83 83.7 113.14 84.12 112.43ZM82.8 112.43L81.03 116.38L79.26 115.16L80.97 111.46L82.8 112.43ZM79.61 110.95C79.61 110.95 78.29 114.18 77.74 113.92C77.19 113.66 75.31 113.5 75.31 113.5L77.22 109.79L79.61 110.94V110.95ZM73.65 108.78C73.65 108.78 75.44 108.71 76.16 109.28C76.88 109.85 74.39 112.78 74.39 112.78H74.09L72.63 111.46L73.65 108.78ZM71.4 107.72C72.29 107.72 72.76 108.27 72.8 108.78C72.84 109.29 71.99 111.27 71.99 111.27L70.59 110.32C70.59 110.32 70.51 107.72 71.4 107.72ZM69.25 107C69.74 107.13 70.41 107.33 70.41 107.33C70.41 107.33 70.08 109.99 69.79 110.03C69.49 110.07 68.46 109.29 68.46 109.29C68.46 109.29 68.77 106.88 69.26 107H69.25ZM66.19 105.98L67.95 106.28L67.07 108.51C67.07 108.51 65.18 108.78 64.8 108.78C64.42 108.78 66.18 105.97 66.18 105.97L66.19 105.98ZM33.49 95.55C32.68 95.21 33.49 94.61 33.49 94.61C33.49 94.61 35.06 93.89 37.15 94.61C37.28 95.38 36.51 96.48 37.15 97.55C37.79 98.62 35.32 95.46 33.49 95.55ZM38.13 98.23C37.7 97.2 38.13 94.83 38.13 94.83L40.34 95.38C40.34 95.38 38.72 99.64 38.13 98.23ZM41.07 101.08C41.07 101.08 39.75 99.91 39.41 99.32C39.07 98.73 40.81 95.37 40.81 95.37C40.81 95.37 43.15 95.54 43.19 95.84C43.23 96.14 41.06 101.07 41.06 101.07L41.07 101.08ZM44.56 101.34C44.56 101.34 43.62 101.85 42.18 101.63C42.18 101.63 43.54 96.24 44.35 96.07C45.16 95.9 47.37 96.75 47.37 96.75L44.56 101.35V101.34ZM46.39 103.54C45.67 103.45 45.28 102.49 45.28 102.49C44.83 101.8 48.51 97.17 48.51 97.17C48.51 97.17 50.3 98.06 50.25 98.57C50.21 99.08 47.1 103.63 46.38 103.54H46.39ZM48.05 103.73C49.09 102.31 50.13 100.9 51.5 99.02C52.18 102.47 50.15 103.13 48.69 104.22C48.48 104.06 48.26 103.89 48.05 103.73ZM51.41 107.32C48.52 106.14 54.86 99.33 54.86 99.33C54.86 99.33 56.01 99.16 57.37 100.18C56.22 102.22 54.39 108.01 51.41 107.32ZM55.71 110.27C55.41 110.4 54.39 108.91 54.31 108.5L58.52 101.07C58.52 101.07 60.09 101.37 61.29 102.56C58.69 102.69 56.01 110.13 55.72 110.26L55.71 110.27ZM57.5 111.84C57.5 111.84 57.4983 111.839 57.495 111.837C57.439 111.798 56.926 111.444 56.52 111C58.82 102.45 63.31 103.6 63.31 103.6C63.31 103.6 64.9 105.94 62.09 106.45C59.3658 106.944 57.6003 111.555 57.495 111.837C57.4917 111.845 57.49 111.85 57.49 111.85L57.5 111.84ZM63.31 107.33C62.72 110.2 60.47 111.01 58.75 112.28C59 109.81 59.84 107.82 63.31 107.33ZM67.09 109.29C65.07 111.2 63.54 112.64 61.68 114.4C61.65 111.32 63.27 109.79 67.09 109.29ZM63.54 115.51C65.04 113.68 66.55 111.85 68.05 110.03C68.32 110.23 68.59 110.43 68.86 110.63C68.48 113.4 66.06 114.49 64.3 116.13C64.05 115.92 63.79 115.72 63.54 115.51ZM67.09 118.28C66.78 118.28 64.94 117.37 65.71 116.59C65.71 116.59 70.24 112.06 70.42 111.47C70.6 110.87 71.33 111.81 71.41 112.11C71.5 112.41 67.4 118.28 67.09 118.28ZM72.78 112.38C73.86 114.2 71.8 117.27 67.78 119.13C69.43 116.9 71.08 114.68 72.78 112.38ZM70.3 122.81C69.96 122.47 69.61 122.13 69.27 121.79C71.27 119.36 73.21 116.87 75.34 114.56C75.66 114.21 76.85 114.66 77.24 114.7C74.88 117.45 72.6 120.13 70.31 122.81H70.3ZM74.14 124.36C73.73 121.02 76.91 117.36 80.03 116.39C80.23 116.57 80.42 116.74 80.62 116.92L74.14 124.36ZM76.31 125.41C76.12 125.24 75.93 125.07 75.74 124.9C77.82 122.39 79.9 119.89 81.98 117.38C82.26 117.63 82.54 117.89 82.82 118.14C82.8151 118.145 82.8102 118.151 82.8053 118.156C80.6402 120.571 78.4751 122.985 76.32 125.4L76.31 125.41ZM77.97 127.63C79.19 123.24 82.48 120.62 85.5 117.77C85.71 117.97 85.92 118.16 86.13 118.36L77.97 127.63ZM142.62 146.62C143.07 144.2 143.48 141.92 143.9 139.65C145.51 144.13 145.1 146.16 142.62 146.62ZM148.32 149.24C147.74 148.8 146.9 148.49 146.64 147.91C145.57 145.57 146.07 143.3 147.42 140.46C149.29 143.34 148.6 146.05 148.32 149.24ZM151.54 151.09C151.1 151.06 150.33 150.71 150.32 150.47C150.23 147.82 150.26 145.17 150.26 142.51C150.82 142.51 151.38 142.51 151.94 142.51C152.04 145.06 152.16 147.61 152.2 150.17C152.2 150.5 151.75 151.12 151.54 151.1V151.09ZM154.98 152.22C153.24 150.86 153.14 146.62 154.98 143.85V152.22ZM158.28 153.71C157.39 153.75 156.64 153.79 155.65 153.84C156.139 150.47 156.597 147.319 157.056 144.168C157.057 144.159 157.059 144.149 157.06 144.14L158.31 144.25C159.94 147.29 158.29 150.4 158.28 153.7V153.71ZM160.15 156.73C158.06 152.73 160.38 149.18 160.88 145.05C163.47 147.14 162.66 155.59 160.15 156.73ZM164.75 158.91C162.52 155.61 162.67 150.28 164.96 146.9C166.94 148.3 166.9 156.22 164.75 158.91ZM168.94 161.09C168.937 161.086 168.935 161.082 168.932 161.077C166.21 156.732 166.313 152.537 169.19 149.07C171.38 150.71 170.33 152.72 169.95 154.67C169.561 156.706 169.291 158.772 168.932 161.077C168.931 161.082 168.931 161.086 168.93 161.09H168.94ZM173.1 162.91C172.27 162.21 171.36 161.44 170.25 160.5C170.88 157.67 171.53 154.72 172.19 151.77L173.34 151.68C173.62 152.3 174.18 152.94 174.13 153.54C173.87 156.67 173.46 159.79 173.11 162.92L173.1 162.91ZM178.02 163.7C178.017 163.699 178.013 163.699 178.01 163.698C176.725 163.459 175.796 163.289 174.39 163.04C174.39 163.038 174.391 163.036 174.391 163.034C174.811 159.816 175.23 156.598 175.72 152.77C180.179 156.339 177.101 160.119 178.01 163.698L178.01 163.7H178.02ZM181.28 164.53C181.14 165.23 180.56 165.85 179.81 166.14V153.93C181.24 154.82 182.05 155.32 182.85 155.82C182.34 158.73 181.87 161.64 181.27 164.53H181.28ZM184.25 168.61C182.11 167.31 182.19 160.67 184.4 156.71C185.78 157.77 185.69 165.1 184.25 168.61ZM189.33 167.94C189.42 170.36 188.56 171.45 185.64 171.59C186.14 166.81 186.62 162.12 187.11 157.42C187.41 157.36 187.71 157.3 188.02 157.25C188.64 158.02 189.27 158.78 189.89 159.56C189.68 162.36 189.23 165.16 189.33 167.95V167.94ZM190.24 172.21C190.58 167.89 190.9 163.92 191.26 159.31C194.32 164.59 193.92 171.16 190.24 172.21ZM196.12 173.81C192.7 169.74 194.85 165.71 196.02 161.66C198.1 165.69 195.35 169.75 196.12 173.81ZM201.31 166.28C200.82 167.91 200.71 169.65 200.47 171.34C200.25 172.9 200.07 174.46 199.81 176.58C197.4 173.69 197.45 165.94 199.45 162.19C201.22 163.05 201.93 164.22 201.31 166.27V166.28ZM204.1 177.65C203.82 177.78 203.54 177.91 203.26 178.04C202.66 177.23 201.48 176.38 201.54 175.62C201.84 171.89 202.48 168.18 202.99 164.47C203.41 164.5 203.83 164.53 204.25 164.56C205.58 168.92 203.04 173.28 204.1 177.65ZM208.56 178.28C207.26 178.4 206.33 178.48 204.92 178.61C205.42 174.58 205.89 170.75 206.36 166.92C206.69 166.92 207.03 166.92 207.36 166.92C210.13 170.35 207.15 174.46 208.56 178.28ZM211.43 179.9C211.357 179.896 211.281 179.892 211.202 179.888C210.658 179.86 209.985 179.825 209.19 179.79C209.64 175.58 210.25 171.81 210.7 167.65C210.7 166.98 212.85 168.31 213.6 168.99C213.2 169.35 212.93 169.92 212.79 170.68C212.23 173.68 211.89 176.72 211.43 179.91V179.9ZM216.58 183.72C216.577 183.718 216.573 183.716 216.57 183.714C215.404 183.027 214.436 182.448 212.99 181.59C213.28 178.284 213.586 174.706 213.894 171.111C213.926 170.737 213.958 170.364 213.99 169.99C214.48 169.94 214.98 169.9 215.47 169.85C215.84 170.64 216.5 171.41 216.52 172.21C216.63 176.008 216.57 179.806 216.57 183.714V183.72H216.58ZM218.61 184.27H218.05V171.06C218.52 171.06 218.99 171.06 219.47 171.06C219.18 175.47 218.9 179.87 218.61 184.28V184.27ZM222.97 185.89H219.77C220.12 181.22 220.46 176.65 220.81 172.09C221.19 172.07 221.56 172.06 221.94 172.04C224.7 176.33 221.19 181.19 222.97 185.89ZM225.93 187.77C225.71 187.9 225.5 188.02 225.28 188.15C224.73 187.66 223.71 187.17 223.72 186.68C223.75 182.76 223.97 178.83 224.55 174.91C227.94 179.02 224.58 183.56 225.93 187.77ZM231.34 179.08C231.02 182.77 230.71 186.46 230.38 190.31H226.67C227.17 185.6 227.66 180.91 228.23 175.48C228.53 175.827 228.805 176.144 229.06 176.437C230.016 177.541 230.684 178.312 231.34 179.07V179.08ZM231.69 190.75C232.01 187.08 232.38 182.87 232.75 178.66C233.09 178.63 233.44 178.6 233.78 178.57C237.92 182.82 235.11 188.55 236.87 193.62C235.04 192.61 233.69 191.85 231.69 190.75ZM241.5 193C241.45 193.77 240.33 194.46 239.58 195.33C237.19 192.31 236.74 183.77 238.8 180.11C239.75 182.34 240.86 184.1 241.23 186.01C241.68 188.28 241.66 190.68 241.5 193ZM243.21 183.06C243.55 183.01 243.89 182.96 244.22 182.92C244.935 185.606 245.65 188.301 246.296 190.735C246.355 190.956 246.413 191.174 246.47 191.39C245.25 192.45 244.23 193.34 242.7 194.68C242.88 190.63 243.04 186.85 243.21 183.06ZM248.15 198.18C248.145 198.174 248.139 198.169 248.134 198.163C247.149 197.118 246.163 196.072 244.87 194.7C245.49 194.33 246.13 193.95 246.78 193.56C246.784 193.569 246.789 193.578 246.793 193.587C247.499 195.028 248.204 196.469 248.91 197.9L248.907 197.901C248.658 197.991 248.409 198.08 248.15 198.18ZM248.21 183.89C251.88 187.94 251.39 193.42 253.12 198.14C246.99 194.86 248.72 189.01 248.21 183.89ZM255.89 197.69C255.3 197.26 254.32 196.93 254.17 196.38C253.26 193.12 252.54 189.82 251.76 186.52C256.33 189.04 254.93 193.55 256.43 197.04C256.25 197.26 256.07 197.47 255.9 197.69H255.89ZM259.33 199.11L258.09 199.14C257.61 195.7 257.14 192.26 256.61 188.44C257.78 188.87 258.41 189.1 259.01 189.31C259.09 192.57 260.16 195.88 259.33 199.1V199.11ZM261.11 201.02V189.67C262.61 190.21 263.507 193.71 263.8 200.17C263.04 200.41 262.28 200.65 261.11 201.01V201.02ZM267.37 194.63C267.2 196.6 267.32 198.6 267.32 200.69C266.74 200.92 266 201.21 264.94 201.64C264.77 197.68 264.78 194.89 264.59 190.51C264.59 190.39 264.69 190.22 264.77 190.09C265.04 190.14 266.69 189.89 268.18 192.4C267.83 193.14 267.45 193.87 267.38 194.63H267.37ZM269.13 202.53C268.91 199.48 268.7 196.43 268.45 192.89C271.61 195.2 271.99 199.78 269.13 202.53ZM275.68 197.89C275.92 197.81 276.16 197.72 276.4 197.64C276.95 199.09 277.51 200.54 278.31 202.65C274.6 201.56 276.14 199.4 275.68 197.89Z" fill="currentColor"/>
<path d="M275.88 227.22C276.26 227.31 276.63 227.39 277.01 227.48L282.5 205.52L281.4 205.02C281.132 205.169 280.855 205.318 280.577 205.466L280.57 205.47C280.03 204.67 279.5 203.87 278.92 203.01C278.05 204.13 277.31 205.09 276.65 205.95C275.78 205.05 275.21 204.47 274.19 203.42C274 201.44 274.74 198.55 273.26 196.08C272.92 196.14 272.57 196.21 272.23 196.28C272.66 198.13 273.19 199.97 273.48 201.84C273.62 202.73 273.28 203.68 273.16 204.61C272.89 204.6 272.63 204.59 272.36 204.58C272.17 203.97 271.99 203.36 271.82 202.8C270.48 203.9 269.15 205 267.34 206.49C267.49 204.79 267.57 203.79 267.69 202.34C265.58 203.53 263.8 204.52 262.03 205.52C261.88 205.38 261.74 205.23 261.59 205.08C261.94 204.23 262.29 203.39 262.7 202.42C261.28 203.28 259.99 204.07 258.69 204.86C258.53 204.66 258.37 204.47 258.21 204.27C258.61 203.23 259.01 202.18 259.43 201.08C257.2 200.89 257.22 205.42 254.18 203.25C254.719 202.093 255.237 200.996 255.756 199.899L255.76 199.89C255.49 199.65 255.21 199.42 254.94 199.19C253.38 200.8 251.83 202.41 250.21 204.09C247.47 202.19 252.28 200.66 250.13 198.63C248.7 199.93 247.22 201.3 245.73 202.66L245.04 202.45C245.18 201.65 245.35 200.86 245.44 200.06C245.53 199.28 245.53 198.48 245.56 197.69C245.33 197.63 245.1 197.56 244.87 197.5C244.11 198.64 243.36 199.78 242.11 201.66V195.32C239.89 197.29 238.21 198.79 236.53 200.29L235.99 199.9C236.45 198.42 236.91 196.93 237.37 195.45C237.15 195.35 236.94 195.24 236.73 195.14C235.76 196.27 234.78 197.39 233.81 198.51C233.601 198.47 233.381 198.43 233.162 198.39L233.16 198.39L233.7 193.44C233.46 193.28 233.23 193.12 232.99 192.96C231.54 194.41 230.1 195.87 228.65 197.32C228.4 197.27 228.14 197.23 227.88 197.18C228.21 195.54 228.54 193.91 228.87 192.28C228.71 192.17 228.54 192.06 228.38 191.95C227.71 192.59 226.96 193.17 226.38 193.88C225.8 194.58 225.39 195.41 224.9 196.18C224.64 195.98 224.38 195.79 224.12 195.59C224.22 193.64 224.33 191.68 224.43 189.72C224.24 189.57 224.06 189.43 223.88 189.28C222.613 190.477 221.336 191.664 220.059 192.852L220.05 192.86C219.87 192.76 219.69 192.67 219.51 192.57C220.02 191.05 220.53 189.53 221.31 187.21C220.22 188.2 219.71 188.73 219.13 189.16C218.61 189.53 218.01 189.79 216.97 190.36C217.46 188.63 217.78 187.51 218.09 186.39C217.9 186.26 217.72 186.14 217.54 186.01C216.37 186.88 215.2 187.74 213.6 188.92C213.88 187.74 214.15 187.06 214.18 186.38C214.21 185.65 214.03 184.91 213.95 184.17C213.1 184.27 212.14 184.15 211.43 184.52C210.42 185.04 209.58 185.92 208.11 186.25C208.96 184.82 209.8 183.39 210.65 181.96C210.48 181.81 210.3 181.66 210.13 181.51C208.83 182.9 207.52 184.28 206.21 185.67C205.97 185.54 205.72 185.41 205.48 185.28C206.03 183.66 206.59 182.05 207.14 180.43L206.56 180.08L203.27 183.78C203.09 183.72 202.91 183.65 202.73 183.59C202.96 182.32 203.19 181.04 203.42 179.77C203.29 179.67 203.17 179.57 203.04 179.47C202.08 180.53 201.11 181.6 200.14 182.66C199.93 182.61 199.73 182.57 199.52 182.52C199.84 181.13 200.17 179.74 200.71 177.45C198.56 178.7 196.93 179.66 195.3 180.61C195.16 180.53 195.03 180.44 194.89 180.35C195.66 178.98 196.42 177.61 197.19 176.24C196.98 175.99 196.78 175.75 196.57 175.5C195.12 176.3 193.66 177.1 191.55 178.25C192.4 176.44 192.99 175.17 193.59 173.9C193.41 173.69 193.22 173.48 193.04 173.27C191.56 174.3 190.08 175.33 188.24 176.6C188.47 175.17 188.62 174.23 188.79 173.14C186.99 173.25 185.21 173.37 183.17 173.5C183.64 172.31 183.98 171.47 184.51 170.11C182.88 170.77 181.76 171.23 180.56 171.72C180.81 170.35 180.98 169.38 181.16 168.41C179.72 168.58 178.27 168.74 176.87 168.9C177.203 165.847 175.183 164.867 170.81 165.96C171.04 163.78 170.89 161.88 167.95 163.6C167.7 163.75 166.37 162.8 166.42 162.58C167.22 159.28 165.4 160.01 163.59 160.64C163.18 160.79 162.75 160.87 162.17 161.02C162.01 160.11 161.88 159.34 161.7 158.33C159.74 158.95 157.74 159.41 157.71 156.27C157.71 156.04 156.52 155.66 155.87 155.64C155.02 155.62 154.15 155.88 153.28 156.02C153.013 153.773 151.53 152.883 148.83 153.35C148.53 151.557 147.107 150.613 144.56 150.52C144.61 149.87 144.66 149.22 144.75 147.98C143.03 148.84 141.74 149.48 139.81 150.44C142.04 146.07 142.32 142.03 141.33 137.16C138.45 140.71 139.88 144.81 138 148.54V137.31C137.83 137.3 137.67 137.3 137.5 137.3L136.54 146.99C135.08 142.83 136.83 138.31 133.99 134.35C133.53 137.56 133.07 140.78 132.61 143.99C132.42 143.96 132.23 143.94 132.04 143.91V134.39C131.91 134.37 131.78 134.34 131.65 134.31C130.98 137.07 130.31 139.84 129.64 142.6C129.38 142.57 129.13 142.53 128.87 142.49C129.17 139.59 129.47 136.7 129.77 133.8C129.53 133.77 129.3 133.73 129.06 133.69C128.4 136.5 127.73 139.3 127.07 142.11C126.88 142.08 126.69 142.04 126.5 142.01L127.56 133.25C127.23 133.17 126.89 133.09 126.56 133.01C125.9 135.17 125.25 137.33 124.59 139.49L124.05 139.4C124.13 137.91 124.19 136.43 124.29 134.95C124.39 133.57 124.53 132.19 124.65 130.81C124.28 130.72 123.9 130.64 123.53 130.55C122.96 132.44 122.38 134.32 121.81 136.21H121.51V129.26C121.26 129.21 121 129.15 120.75 129.1C120.05 131.4 119.34 133.7 118.64 136C118.54 135.98 118.43 135.96 118.33 135.94V128.99L117.58 128.81C117.04 130.81 116.49 132.82 115.95 134.82L115.59 134.79V126.87L114.6 126.66C114.13 129.01 113.66 131.35 113.19 133.7C113.11 133.69 113.04 133.67 112.97 133.66C112.8 130.51 112.64 127.35 112.47 124.2C112.11 124.19 111.74 124.19 111.38 124.19C111.08 126.54 110.77 128.89 110.47 131.24C110.34 131.25 110.2 131.26 110.07 131.26C109.86 128.61 109.64 125.95 109.42 123.3L108.52 123.06L106.86 128.76C106.75 128.78 106.63 128.81 106.52 128.83C106.4 126.68 106.27 124.53 106.15 122.38L105.39 122.34L104.34 127.71C104.18 127.73 104.01 127.74 103.84 127.76V121.64C103.6 121.61 103.351 121.57 103.101 121.53L103.1 121.53L103.059 121.604C102.363 122.859 101.663 124.121 100.77 125.73C100.6 123.55 100.46 121.7 100.31 119.85C100.11 119.79 99.9 119.72 99.69 119.66L97.66 123.79C97.46 121.58 97.32 119.9 97.17 118.23C96.95 118.18 96.72 118.12 96.5 118.07C95.96 119 95.41 119.93 94.51 121.47V116.13C94.2 116.08 93.9 116.02 93.59 115.97C93.16 117.13 92.73 118.3 92.25 119.58C91.94 118.02 91.66 116.55 91.29 114.67C90 115.7 89.06 116.45 87.86 117.4C88 116.17 88.12 115.14 88.27 113.84C86.36 114.82 85.95 115.95 86.5 117.75C86.75 118.54 86.44 119.79 85.92 120.49C83.52 123.7 80.96 126.79 78.46 129.93L79.06 130.47L87.35 121.94C87.61 122.18 87.88 122.42 88.14 122.66C85.93 125.19 83.71 127.73 81.5 130.26L81.95 130.66C84.73 128.15 87.51 125.63 90.29 123.12L90.89 123.75C88.7 127.17 84.52 129.13 82.86 133.65C86.2 130.29 89.15 127.34 92.09 124.38C92.34 124.63 92.59 124.87 92.84 125.12C93.57 125.59 94.31 126.06 95.11 126.57C92.86 130.39 88.19 132.61 87.42 137.45C90.78 133.68 94.22 130.15 98.76 127.84C96.13 131.78 91.72 134.26 90.06 138.95C93.99 136.2 97.09 132.4 101.51 130.48C101.69 130.71 101.87 130.93 102.05 131.16C101.43 131.67 100.79 132.16 100.19 132.7C97.82 134.82 95.41 136.9 93.14 139.12C92.55 139.69 92.44 140.74 92.11 141.57L92.77 141.86L103.75 132.29L104.49 133.13C101.2 136.11 97.91 139.1 94.62 142.08C94.89 142.46 95.17 142.84 95.44 143.22C96.29 142.79 97.29 142.54 97.96 141.92C100.1 139.96 102.07 137.82 104.19 135.83C104.93 135.14 105.92 134.7 107.21 134.63L97.49 145.1C97.66 145.28 97.84 145.45 98.02 145.63C101.6 142.07 105.18 138.52 108.76 134.96C109.04 135.21 109.32 135.47 109.6 135.72C108.74 136.75 107.93 137.83 107.02 138.82C105.36 140.62 103.53 142.29 102 144.19C101.4 144.93 101.41 146.16 101.15 147.16C102.01 146.64 103.07 146.29 103.7 145.57C105.84 143.11 107.81 140.49 109.92 138C110.51 137.3 111.38 136.84 112.55 136.74C109.75 140.41 106.94 144.07 104.13 147.74C104.33 147.93 104.52 148.11 104.72 148.3C107.32 147.6 107.96 144.71 109.75 143.1C111.56 141.47 113.17 139.61 114.87 137.86C115.12 138.09 115.37 138.31 115.62 138.54L106.65 149.91L106.95 150.12L116.31 139.95C116.58 140.17 116.84 140.39 117.11 140.61C113.78 144.93 110.44 149.26 107.1 153.59C107.36 153.87 107.63 154.14 107.89 154.42C108.65 153.87 109.44 153.36 110.15 152.74C113.57 149.76 116.94 146.73 120.38 143.78C121 143.25 121.85 142.99 122.88 142.99C118.44 146.98 113.77 150.64 110.64 155.84C115.26 152.3 118.65 147.32 123.69 144.33C123.89 144.54 124.09 144.76 124.29 144.97C122.22 147.05 120.05 149.04 118.1 151.22C116.22 153.32 114.57 155.62 113.22 158.17C117.86 153.98 121.24 148.48 127.25 145.92C122.9 150.39 118.31 154.62 115.46 160.29C119.79 155.17 124.41 150.43 130.11 146.84C126.19 151.93 120.68 155.65 117.72 161.5C117.94 161.74 118.16 161.99 118.38 162.23C119.07 161.66 119.86 161.18 120.44 160.51C123.23 157.29 125.95 154 128.74 150.78C129.27 150.17 130.04 149.76 130.7 149.25C130.9 149.44 131.11 149.64 131.31 149.83C130.76 150.54 130.22 151.27 129.65 151.98C127.03 155.22 124.33 158.42 121.81 161.74C121.16 162.59 121.05 163.85 121.03 165.06C126.52 160.27 131.45 155.09 137.25 150.96C137.51 151.25 137.77 151.53 138.03 151.81C132.91 156.75 127.78 161.69 122.66 166.63C122.94 167 123.22 167.36 123.5 167.73C124.26 167.29 125.14 166.97 125.76 166.37C129.68 162.57 133.52 158.7 137.42 154.89C138.22 154.1 139.19 153.49 140.09 152.8C140.3 153.02 140.5 153.25 140.71 153.47C135.92 158.37 131.14 163.28 126.35 168.19C126.56 168.51 126.78 168.83 126.99 169.15C127.74 168.73 128.62 168.44 129.21 167.85C133 164.08 136.72 160.22 140.51 156.45C141.15 155.81 142.06 155.43 143.11 155.32C138.54 160.22 133.97 165.13 129.4 170.03C129.689 170.389 129.988 170.748 130.287 171.107L130.29 171.11C131.14 170.6 132.16 170.25 132.81 169.56C136.22 165.91 139.5 162.14 142.91 158.49C143.72 157.63 144.82 157.04 145.79 156.33C145.99 156.54 146.19 156.74 146.39 156.95C145.8 157.63 145.23 158.31 144.63 158.98C141.3 162.71 137.92 166.39 134.68 170.19C134.04 170.94 133.95 172.16 133.98 173.3C137.88 167.4 143.15 163 147.72 157.96C148.04 158.25 148.37 158.53 148.7 158.82C146.54 161.29 144.34 163.74 142.22 166.24C140.15 168.69 137.58 170.84 137.07 174.33C141.78 169.54 144.83 163.21 151.24 160.2C146.65 165.16 142.31 170.28 139.13 176.23C139.35 176.44 139.56 176.65 139.78 176.86C140.37 176.26 141 175.69 141.56 175.07C144.97 171.3 148.32 167.48 151.79 163.78C152.59 162.93 153.78 162.46 154.79 161.81C155.11 162.16 155.42 162.52 155.74 162.87C155.07 163.23 154.25 163.44 153.77 163.97C150.27 167.78 146.78 171.6 143.42 175.53C142.71 176.36 142.51 177.64 142.67 178.96C146.95 173.82 151.22 168.67 155.5 163.53C155.84 163.79 156.17 164.04 156.51 164.3C156 164.99 155.49 165.69 154.97 166.37C151.93 170.32 148.83 174.23 145.89 178.25C145.16 179.25 144.96 180.62 144.89 182.02C149.01 176.21 153.08 170.48 157.87 165.34C158.16 165.57 158.46 165.79 158.75 166.02C158.27 166.69 157.8 167.37 157.31 168.04C154.37 172.08 151.38 176.08 148.53 180.18C147.86 181.14 147.69 182.45 147.76 183.83C151.98 177.71 155.56 171.23 161.89 167.02C157.43 173.18 152.37 178.9 149.67 186.09C149.93 186.29 150.19 186.48 150.45 186.68C154.84 180.76 159.22 174.83 163.6 168.91L164.59 169.57C164.2 170.27 163.87 171 163.41 171.65C160.52 175.74 157.52 179.74 154.76 183.9C153.67 185.54 153.1 187.52 152.11 189.77C155.01 189.75 156.66 189.28 157.84 187.25C160.54 182.63 163.44 178.13 166.25 173.57C166.53 173.12 166.69 172.6 166.9 172.12C167.25 172.37 167.61 172.62 167.96 172.87C167.22 174.62 166.66 176.47 165.7 178.09C163.34 182.06 160.71 185.89 158.35 189.87C157.76 190.86 157.76 192.21 157.83 193.47C163.64 187.98 168.03 181.76 169.89 173.92C170.19 174.02 170.5 174.13 170.8 174.23C170.8 174.85 170.9 175.49 170.78 176.08C169.71 181.38 167.09 185.9 163.66 190C162.73 191.12 161.76 192.22 161.02 193.46C160.66 194.07 160.78 194.97 161.33 195.79C163.92 192.67 166.87 189.77 168.99 186.36C171.07 183.01 172.28 179.13 174.11 174.95C174.21 176.54 174.74 178.05 174.28 179.14C172.89 182.45 171.32 185.72 169.43 188.76C167.97 191.13 165.8 193.06 164.21 195.37C163.7 196.11 163.66 198.11 164.1 198.37C165.5 199.21 166.36 198.35 167.11 196.84C168.469 194.131 170.159 191.577 171.834 189.045L171.91 188.93C174.01 185.75 175.42 182.39 175.57 178.54C175.59 177.96 175.93 177.38 176.12 176.8C176.52 176.87 176.91 176.94 177.3 177.01C177.01 179.21 177.1 181.57 176.32 183.59C175.18 186.52 173.41 189.2 171.93 192C170.66 194.4 169.26 196.75 168.24 199.25C167.97 199.91 168.85 201.05 169.21 201.97C169.89 201.48 170.81 201.12 171.21 200.46C174.75 194.61 177.67 188.48 179.18 181.76C179.27 181.36 179.56 181 180.29 180.66C180.29 181.79 180.62 183.06 180.23 184.04C178.25 189.09 176.05 194.06 173.98 199.07C173.26 200.81 172.67 202.61 172.02 204.39C172.29 204.49 172.57 204.6 172.85 204.71C176.85 197.23 180.85 189.76 184.85 182.28C185.04 182.33 185.22 182.38 185.4 182.43C185.18 183.39 185.14 184.43 184.71 185.28C182.29 190.06 179.73 194.76 177.3 199.53C176.36 201.38 175.46 203.29 174.93 205.28C174.72 206.07 175.58 207.15 175.96 208.09C176.21 207.98 176.47 207.88 176.72 207.77C180.49 200.22 184.27 192.67 188.04 185.12L188.71 185.3C188.52 186.35 188.54 187.5 188.1 188.44C185.58 193.87 182.88 199.21 180.37 204.65C179.53 206.48 179.07 208.48 178.44 210.4C178.76 210.58 179.08 210.77 179.4 210.95C180.04 210.24 180.85 209.63 181.29 208.82C184.67 202.61 188.29 196.49 189.63 189.39C189.75 188.75 190.29 188.18 190.63 187.58C190.95 187.7 191.27 187.81 191.59 187.93C190.94 190.58 190.61 193.37 189.57 195.86C187.54 200.7 185.11 205.38 182.86 210.14C182.59 210.71 182.19 211.35 182.25 211.91C182.33 212.58 182.71 213.59 183.2 213.75C183.69 213.91 184.76 213.39 185.07 212.87C188.08 207.8 191.04 202.72 193.86 197.55C194.88 195.67 195.49 193.57 196.79 191.34C196.93 192.1 197.39 192.98 197.15 193.59C196.28 195.86 195.29 198.1 194.14 200.25C191.92 204.4 189.51 208.46 187.31 212.62C186.82 213.55 186.86 214.75 186.65 215.83C186.88 215.99 187.1 216.16 187.33 216.32C188.65 215.48 190.52 214.95 191.19 213.75C194.36 208.05 197.24 202.2 200.11 196.34C200.77 195 200.95 193.43 201.35 191.97C201.73 192.05 202.1 192.13 202.48 192.21C202.16 194.06 202.13 196.02 201.46 197.73C200.23 200.84 198.66 203.82 197.17 206.82C195.23 210.72 193.19 214.56 191.28 218.47C190.8 219.47 190.65 220.63 190.35 221.72C190.59 221.89 190.83 222.05 191.07 222.22C195 218.11 199.56 214.42 202.65 209.76C205.62 205.28 207.05 199.79 209.35 194.83C208.97 205.79 202.03 213.82 196.87 222.65C197.09 222.82 197.32 222.98 197.55 223.15C199.39 221.38 201.29 219.66 203.07 217.84C206.12 214.73 209.43 211.78 211.99 208.3C213.56 206.16 213.96 203.16 214.85 200.54C215.13 199.71 215.29 198.84 215.5 197.99L216.55 198.11C216.47 199.72 216.81 201.48 216.25 202.9C214.84 206.5 213.16 210.02 211.34 213.44C208.87 218.09 206.08 222.56 203.61 227.21C202.83 228.69 202.65 230.48 202.69 232.38C208.43 229.03 211.66 223.56 215.76 218.87C220.17 213.82 219.76 207.29 221.78 201.53C222.15 201.61 222.52 201.7 222.89 201.78C222.14 205.85 221.85 210.07 220.55 213.96C218.35 220.57 215.49 226.96 212.97 233.47C212.16 235.58 211.53 237.75 210.81 239.9C211.19 240.11 211.57 240.31 211.95 240.52C214.42 237.33 217.42 234.42 219.23 230.9C221.94 225.62 223.86 219.92 226 214.36C226.32 213.52 226.03 212.42 225.95 211.45C225.75 209.09 225.24 206.68 227.42 204.29C228 211.02 229.39 217.31 228.83 223.43C228.27 229.55 225.75 235.49 224.12 241.52C223.27 244.67 222.38 247.81 221.68 250.99C221.39 252.29 221.29 253.77 221.62 255.04C222 256.51 222.94 257.83 223.64 259.22C225.08 257.84 227.4 256.68 227.82 255.04L227.889 254.768C229.906 246.787 231.941 238.737 232.94 230.59C233.76 223.9 233.08 217.03 233.07 210.24V206.35C233.448 206.32 233.816 206.3 234.185 206.28L234.19 206.28C234.5 208.55 234.86 210.81 235.11 213.08C236.42 224.82 234.63 236.23 231.53 247.53C230.696 250.559 230.246 253.696 229.799 256.814L229.79 256.88C229.49 258.93 229.52 261.03 232.11 262.95C234.2 248.33 236.91 234.33 243.09 221.14C243 221.98 243.04 222.86 242.82 223.66C240.94 230.47 238.77 237.22 237.18 244.1C235.65 250.72 234.64 257.45 233.53 264.16C233.25 265.81 233.48 267.53 233.8 269.3C235.47 267.5 236.89 265.9 236.43 262.96C236.01 260.26 236.15 257.26 236.91 254.64C239.619 245.26 242.621 235.955 245.621 226.653L245.89 225.82C246.48 223.98 247.54 222.29 248.8 220.69C244.69 234.09 240.21 247.34 237.6 261.09C237.89 261.22 238.17 261.35 238.46 261.48C238.95 260.57 239.64 259.71 239.91 258.73C242.77 248.53 247.02 238.93 252.06 229.65C252.38 229.07 252.91 228.62 253.73 228.29C249.36 239.01 244.06 249.35 241.41 260.64L242.34 261.18C243.15 260.04 244.26 259.01 244.72 257.74C248.01 248.69 252.92 240.55 258.39 232.71C258.99 231.86 259.99 231.29 260.8 230.59C261 230.78 261.21 230.98 261.41 231.17C260.96 231.88 260.46 232.56 260.05 233.29C255.95 240.56 251.82 247.81 247.79 255.12C247.15 256.29 246.76 257.68 246.61 259C246.53 259.76 247.17 260.6 247.48 261.4C248.04 260.84 248.87 260.37 249.11 259.7C252.42 250.25 257.54 241.83 263.62 233.96C264.28 233.11 265.25 232.5 266.32 231.99C259.84 242.25 252.56 252.02 250.1 264.14C250.46 264.38 250.83 264.61 251.19 264.84C252.76 262.73 254.53 260.75 255.86 258.5C260.84 250.06 265.66 241.52 270.61 233.05C271.35 231.77 272.45 230.7 273.74 229.77C266.58 242.35 259.12 254.73 254.02 268.33L254.231 268.069C264.081 255.887 273.924 243.712 275.88 227.22Z" fill="#AFC1C1"/>
<path d="M212.98 246.69C213.62 243.6 214.78 240.36 216.6 237.82C220.76 232.02 224.22 225.95 226.4 219.16C226.49 218.87 226.68 218.62 226.83 218.35C227.07 218.4 227.3 218.44 227.54 218.49C227.26 221.3 227.36 224.21 226.62 226.9C224.81 233.43 222.64 239.85 220.55 246.3C220.22 247.31 219.59 248.25 218.97 249.14C217.97 250.58 216.96 253.03 214.99 251.77C213.7 250.95 212.66 248.25 212.98 246.7V246.69Z" fill="#AFC1C1"/>
<path d="M85.18 133.97C85.18 133.97 91.99 126.06 92.2 126.48C92.41 126.91 93.39 127.2 93.39 127.2C93.39 127.2 86.62 134.63 86.5 135.39C86.37 136.14 85 134.18 85 134.18L85.18 133.97Z" fill="#AFC1C1"/>
<path d="M77.97 127.63C79.19 123.24 82.48 120.62 85.5 117.77C85.71 117.97 85.92 118.16 86.13 118.36L77.97 127.63Z" fill="#AFC1C1"/>
<path d="M76.31 125.41L75.74 124.9C77.82 122.39 79.9 119.89 81.98 117.38C82.26 117.63 82.54 117.89 82.82 118.14L82.8053 118.156C80.6402 120.571 78.4751 122.985 76.32 125.4L76.31 125.41Z" fill="#AFC1C1"/>
<path d="M74.14 124.36C73.73 121.02 76.91 117.36 80.03 116.39C80.23 116.57 80.42 116.74 80.62 116.92L74.14 124.36Z" fill="#AFC1C1"/>
<path d="M82.8 112.43L81.03 116.38L79.26 115.16L80.97 111.46L82.8 112.43Z" fill="#AFC1C1"/>
<path d="M84.12 112.43C84.43 112.69 85.04 113 85 113.18C84.81 114.07 84.52 114.96 84.11 115.78C83.95 116.08 83.36 116.16 82.47 116.58C82.67 115.57 82.69 115.03 82.89 114.58C83.23 113.83 83.7 113.14 84.12 112.43Z" fill="#AFC1C1"/>
<path d="M79.61 110.95C79.61 110.95 78.29 114.18 77.74 113.92C77.19 113.66 75.31 113.5 75.31 113.5L77.22 109.79L79.61 110.94V110.95Z" fill="#AFC1C1"/>
<path d="M70.3 122.81C69.96 122.47 69.61 122.13 69.27 121.79C71.27 119.36 73.21 116.87 75.34 114.56C75.66 114.21 76.85 114.66 77.24 114.7C74.88 117.45 72.6 120.13 70.31 122.81H70.3Z" fill="#AFC1C1"/>
<path d="M72.78 112.38C73.86 114.2 71.8 117.27 67.78 119.13C69.43 116.9 71.08 114.68 72.78 112.38Z" fill="#AFC1C1"/>
<path d="M67.09 118.28C66.78 118.28 64.94 117.37 65.71 116.59C65.71 116.59 70.24 112.06 70.42 111.47C70.6 110.87 71.33 111.81 71.41 112.11C71.5 112.41 67.4 118.28 67.09 118.28Z" fill="#AFC1C1"/>
<path d="M56.52 111C56.926 111.444 57.439 111.798 57.495 111.837C57.6003 111.555 59.3658 106.944 62.09 106.45C64.9 105.94 63.31 103.6 63.31 103.6C63.31 103.6 58.82 102.45 56.52 111Z" fill="#AFC1C1"/>
<path d="M55.71 110.27C55.41 110.4 54.39 108.91 54.31 108.5L58.52 101.07C58.52 101.07 60.09 101.37 61.29 102.56C58.69 102.69 56.01 110.13 55.72 110.26L55.71 110.27Z" fill="#AFC1C1"/>
<path d="M51.41 107.32C48.52 106.14 54.86 99.33 54.86 99.33C54.86 99.33 56.01 99.16 57.37 100.18C56.22 102.22 54.39 108.01 51.41 107.32Z" fill="#AFC1C1"/>
<path d="M33.49 95.55C32.68 95.21 33.49 94.61 33.49 94.61C33.49 94.61 35.06 93.89 37.15 94.61C37.28 95.38 36.51 96.48 37.15 97.55C37.79 98.62 35.32 95.46 33.49 95.55Z" fill="#AFC1C1"/>
<path d="M38.13 98.23C37.7 97.2 38.13 94.83 38.13 94.83L40.34 95.38C40.34 95.38 38.72 99.64 38.13 98.23Z" fill="#AFC1C1"/>
<path d="M41.07 101.08C41.07 101.08 39.75 99.91 39.41 99.32C39.07 98.73 40.81 95.37 40.81 95.37C40.81 95.37 43.15 95.54 43.19 95.84C43.23 96.14 41.06 101.07 41.06 101.07L41.07 101.08Z" fill="#AFC1C1"/>
<path d="M44.56 101.34C44.56 101.34 43.62 101.85 42.18 101.63C42.18 101.63 43.54 96.24 44.35 96.07C45.16 95.9 47.37 96.75 47.37 96.75L44.56 101.35V101.34Z" fill="#AFC1C1"/>
<path d="M46.39 103.54C45.67 103.45 45.28 102.49 45.28 102.49C44.83 101.8 48.51 97.17 48.51 97.17C48.51 97.17 50.3 98.06 50.25 98.57C50.21 99.08 47.1 103.63 46.38 103.54H46.39Z" fill="#AFC1C1"/>
<path d="M48.05 103.73C49.09 102.31 50.13 100.9 51.5 99.02C52.18 102.47 50.15 103.13 48.69 104.22C48.48 104.06 48.26 103.89 48.05 103.73Z" fill="#AFC1C1"/>
<path d="M63.31 107.33C62.72 110.2 60.47 111.01 58.75 112.28C59 109.81 59.84 107.82 63.31 107.33Z" fill="#AFC1C1"/>
<path d="M67.09 109.29C65.07 111.2 63.54 112.64 61.68 114.4C61.65 111.32 63.27 109.79 67.09 109.29Z" fill="#AFC1C1"/>
<path d="M63.54 115.51C65.04 113.68 66.55 111.85 68.05 110.03L68.86 110.63C68.48 113.4 66.06 114.49 64.3 116.13C64.05 115.92 63.79 115.72 63.54 115.51Z" fill="#AFC1C1"/>
<path d="M66.19 105.98L67.95 106.28L67.07 108.51C67.07 108.51 65.18 108.78 64.8 108.78C64.42 108.78 66.18 105.97 66.18 105.97L66.19 105.98Z" fill="#AFC1C1"/>
<path d="M69.25 107C69.74 107.13 70.41 107.33 70.41 107.33C70.41 107.33 70.08 109.99 69.79 110.03C69.49 110.07 68.46 109.29 68.46 109.29C68.46 109.29 68.77 106.88 69.26 107H69.25Z" fill="#AFC1C1"/>
<path d="M71.4 107.72C72.29 107.72 72.76 108.27 72.8 108.78C72.84 109.29 71.99 111.27 71.99 111.27L70.59 110.32C70.59 110.32 70.51 107.72 71.4 107.72Z" fill="#AFC1C1"/>
<path d="M73.65 108.78C73.65 108.78 75.44 108.71 76.16 109.28C76.88 109.85 74.39 112.78 74.39 112.78H74.09L72.63 111.46L73.65 108.78Z" fill="#AFC1C1"/>
<path d="M142.62 146.62C143.07 144.2 143.48 141.92 143.9 139.65C145.51 144.13 145.1 146.16 142.62 146.62Z" fill="#AFC1C1"/>
<path d="M148.32 149.24C147.74 148.8 146.9 148.49 146.64 147.91C145.57 145.57 146.07 143.3 147.42 140.46C149.29 143.34 148.6 146.05 148.32 149.24Z" fill="#AFC1C1"/>
<path d="M151.54 151.09C151.1 151.06 150.33 150.71 150.32 150.47C150.23 147.82 150.26 145.17 150.26 142.51H151.94C152.04 145.06 152.16 147.61 152.2 150.17C152.2 150.5 151.75 151.12 151.54 151.1V151.09Z" fill="#AFC1C1"/>
<path d="M154.98 152.22C153.24 150.86 153.14 146.62 154.98 143.85V152.22Z" fill="#AFC1C1"/>
<path d="M158.28 153.71C157.39 153.75 156.64 153.79 155.65 153.84C156.139 150.47 156.597 147.319 157.056 144.168L157.06 144.14L158.31 144.25C159.94 147.29 158.29 150.4 158.28 153.7V153.71Z" fill="#AFC1C1"/>
<path d="M160.15 156.73C158.06 152.73 160.38 149.18 160.88 145.05C163.47 147.14 162.66 155.59 160.15 156.73Z" fill="#AFC1C1"/>
<path d="M164.75 158.91C162.52 155.61 162.67 150.28 164.96 146.9C166.94 148.3 166.9 156.22 164.75 158.91Z" fill="#AFC1C1"/>
<path d="M169.19 149.07C166.313 152.537 166.21 156.732 168.932 161.077C169.291 158.772 169.561 156.706 169.95 154.67C170.33 152.72 171.38 150.71 169.19 149.07Z" fill="#AFC1C1"/>
<path d="M173.1 162.91C172.27 162.21 171.36 161.44 170.25 160.5C170.88 157.67 171.53 154.72 172.19 151.77L173.34 151.68C173.62 152.3 174.18 152.94 174.13 153.54C173.87 156.67 173.46 159.79 173.11 162.92L173.1 162.91Z" fill="#AFC1C1"/>
<path d="M174.39 163.04C175.796 163.289 176.725 163.459 178.01 163.698C177.101 160.119 180.179 156.339 175.72 152.77C175.23 156.598 174.811 159.816 174.391 163.034L174.39 163.04Z" fill="#AFC1C1"/>
<path d="M181.28 164.53C181.14 165.23 180.56 165.85 179.81 166.14V153.93C181.24 154.82 182.05 155.32 182.85 155.82C182.34 158.73 181.87 161.64 181.27 164.53H181.28Z" fill="#AFC1C1"/>
<path d="M184.25 168.61C182.11 167.31 182.19 160.67 184.4 156.71C185.78 157.77 185.69 165.1 184.25 168.61Z" fill="#AFC1C1"/>
<path d="M189.33 167.94C189.42 170.36 188.56 171.45 185.64 171.59C186.14 166.81 186.62 162.12 187.11 157.42C187.41 157.36 187.71 157.3 188.02 157.25C188.64 158.02 189.27 158.78 189.89 159.56C189.68 162.36 189.23 165.16 189.33 167.95V167.94Z" fill="#AFC1C1"/>
<path d="M190.24 172.21C190.58 167.89 190.9 163.92 191.26 159.31C194.32 164.59 193.92 171.16 190.24 172.21Z" fill="#AFC1C1"/>
<path d="M196.12 173.81C192.7 169.74 194.85 165.71 196.02 161.66C198.1 165.69 195.35 169.75 196.12 173.81Z" fill="#AFC1C1"/>
<path d="M201.31 166.28C200.82 167.91 200.71 169.65 200.47 171.34C200.25 172.9 200.07 174.46 199.81 176.58C197.4 173.69 197.45 165.94 199.45 162.19C201.22 163.05 201.93 164.22 201.31 166.27V166.28Z" fill="#AFC1C1"/>
<path d="M204.1 177.65L203.26 178.04C202.66 177.23 201.48 176.38 201.54 175.62C201.84 171.89 202.48 168.18 202.99 164.47L204.25 164.56C205.58 168.92 203.04 173.28 204.1 177.65Z" fill="#AFC1C1"/>
<path d="M208.56 178.28C207.26 178.4 206.33 178.48 204.92 178.61C205.42 174.58 205.89 170.75 206.36 166.92H207.36C210.13 170.35 207.15 174.46 208.56 178.28Z" fill="#AFC1C1"/>
<path d="M211.43 179.9L211.202 179.888C210.658 179.86 209.985 179.825 209.19 179.79C209.64 175.58 210.25 171.81 210.7 167.65C210.7 166.98 212.85 168.31 213.6 168.99C213.2 169.35 212.93 169.92 212.79 170.68C212.23 173.68 211.89 176.72 211.43 179.91V179.9Z" fill="#AFC1C1"/>
<path d="M212.99 181.59C214.436 182.448 215.404 183.027 216.57 183.714C216.57 179.806 216.63 176.008 216.52 172.21C216.5 171.41 215.84 170.64 215.47 169.85C214.98 169.9 214.48 169.94 213.99 169.99L213.894 171.111C213.586 174.706 213.28 178.284 212.99 181.59Z" fill="#AFC1C1"/>
<path d="M218.61 184.27H218.05V171.06H219.47C219.18 175.47 218.9 179.87 218.61 184.28V184.27Z" fill="#AFC1C1"/>
<path d="M222.97 185.89H219.77C220.12 181.22 220.46 176.65 220.81 172.09C221.19 172.07 221.56 172.06 221.94 172.04C224.7 176.33 221.19 181.19 222.97 185.89Z" fill="#AFC1C1"/>
<path d="M225.93 187.77C225.71 187.9 225.5 188.02 225.28 188.15C224.73 187.66 223.71 187.17 223.72 186.68C223.75 182.76 223.97 178.83 224.55 174.91C227.94 179.02 224.58 183.56 225.93 187.77Z" fill="#AFC1C1"/>
<path d="M231.34 179.08C231.02 182.77 230.71 186.46 230.38 190.31H226.67C227.17 185.6 227.66 180.91 228.23 175.48L229.06 176.437C230.016 177.541 230.684 178.312 231.34 179.07V179.08Z" fill="#AFC1C1"/>
<path d="M231.69 190.75C232.01 187.08 232.38 182.87 232.75 178.66C233.09 178.63 233.44 178.6 233.78 178.57C237.92 182.82 235.11 188.55 236.87 193.62C235.04 192.61 233.69 191.85 231.69 190.75Z" fill="#AFC1C1"/>
<path d="M241.5 193C241.45 193.77 240.33 194.46 239.58 195.33C237.19 192.31 236.74 183.77 238.8 180.11C239.75 182.34 240.86 184.1 241.23 186.01C241.68 188.28 241.66 190.68 241.5 193Z" fill="#AFC1C1"/>
<path d="M243.21 183.06C243.55 183.01 243.89 182.96 244.22 182.92C244.935 185.606 245.65 188.301 246.296 190.735L246.47 191.39C245.25 192.45 244.23 193.34 242.7 194.68C242.88 190.63 243.04 186.85 243.21 183.06Z" fill="#AFC1C1"/>
<path d="M248.15 198.18L248.134 198.163C247.149 197.118 246.163 196.072 244.87 194.7C245.49 194.33 246.13 193.95 246.78 193.56L246.793 193.587C247.499 195.028 248.204 196.469 248.91 197.9L248.907 197.901C248.658 197.991 248.409 198.08 248.15 198.18Z" fill="#AFC1C1"/>
<path d="M248.21 183.89C251.88 187.94 251.39 193.42 253.12 198.14C246.99 194.86 248.72 189.01 248.21 183.89Z" fill="#AFC1C1"/>
<path d="M255.89 197.69C255.3 197.26 254.32 196.93 254.17 196.38C253.26 193.12 252.54 189.82 251.76 186.52C256.33 189.04 254.93 193.55 256.43 197.04C256.25 197.26 256.07 197.47 255.9 197.69H255.89Z" fill="#AFC1C1"/>
<path d="M259.33 199.11L258.09 199.14C257.61 195.7 257.14 192.26 256.61 188.44C257.78 188.87 258.41 189.1 259.01 189.31C259.09 192.57 260.16 195.88 259.33 199.1V199.11Z" fill="#AFC1C1"/>
<path d="M261.11 201.01V189.67C262.61 190.21 263.507 193.71 263.8 200.17C263.04 200.41 262.28 200.65 261.11 201.01Z" fill="#AFC1C1"/>
<path d="M267.37 194.63C267.2 196.6 267.32 198.6 267.32 200.69C266.74 200.92 266 201.21 264.94 201.64C264.77 197.68 264.78 194.89 264.59 190.51C264.59 190.39 264.69 190.22 264.77 190.09C265.04 190.14 266.69 189.89 268.18 192.4C267.83 193.14 267.45 193.87 267.38 194.63H267.37Z" fill="#AFC1C1"/>
<path d="M269.13 202.53C268.91 199.48 268.7 196.43 268.45 192.89C271.61 195.2 271.99 199.78 269.13 202.53Z" fill="#AFC1C1"/>
<path d="M275.68 197.89C275.92 197.81 276.16 197.72 276.4 197.64C276.95 199.09 277.51 200.54 278.31 202.65C274.6 201.56 276.14 199.4 275.68 197.89Z" fill="#AFC1C1"/>
<path d="M237.94 265.75C238.26 261.45 242.73 264.22 244.18 261.9C242.8 266.57 241.17 270.99 237.51 274.22C237.15 274.12 236.78 274.01 236.42 273.91C236.95 271.19 237.73 268.49 237.94 265.75Z" fill="#AFC1C1"/>
<path d="M245.68 262.96C246.53 262.92 247.49 262.88 248.46 262.83C248.69 266.48 244.68 272.54 240.91 273.46L240.979 273.309C242.661 269.611 244.151 266.334 245.68 262.96Z" fill="#AFC1C1"/>
<path d="M252.42 265.97C251.82 268.08 251.69 270.37 250.58 271.99C249.44 273.65 247.35 274.65 245.68 275.94L244.9 275.07C246.54 271.45 247.18 267.08 252.42 265.97Z" fill="#AFC1C1"/>
</g>
</svg>
