<svg width="1046" height="357" viewBox="0 0 1046 357" fill="none" xmlns="http://www.w3.org/2000/svg">
<g>
<path d="M497.65 243.19C497.46 242.17 495.56 240.88 494.33 240.79C491.75 240.6 489.12 241.11 486.3 241.36C486.03 241.03 485.64 240.42 485.12 239.94C484.53 239.39 483.88 238.86 483.16 238.5C475.85 234.84 468.33 234.76 460.72 237.4C458.48 238.18 456.62 239.48 457.02 242.4C452.04 242.74 447.25 243.06 442.47 243.39C442.47 243.46 442.49 243.54 442.5 243.61H459.19C455.49 247.48 450.7 244.32 447.02 246.7H456.96C456.96 246.96 456.97 247.21 456.98 247.47C453.67 247.8 450.36 248.12 447.05 248.45L447.08 248.8H460.23C460.25 249.06 460.26 249.32 460.28 249.58C454.98 250.11 449.68 250.64 444.38 251.17C444.4 251.37 444.41 251.56 444.43 251.76C450.07 251.43 455.71 251.1 461.36 250.77C461.36 250.96 461.38 251.15 461.38 251.33L447.05 253.22C447.08 253.45 447.1 253.67 447.13 253.9C452.39 253.37 457.65 252.85 463.7 252.24C462.9 253.08 462.63 253.62 462.23 253.74C460.76 254.19 459.25 254.51 457.75 254.85C453.06 255.9 448.36 256.94 443.67 257.99C446.29 258.16 448.76 257.56 451.26 257.31C456.7 256.78 461.8 254.05 467.46 254.91C468.15 255.02 468.95 254.43 469.7 254.16C470.57 253.85 471.47 253.62 472.29 253.21C474.83 251.91 479.07 254.02 479.76 249.45C484.02 249.02 488.08 248.68 492.12 248.17C493.35 248.01 494.78 247.66 495.63 246.87C496.65 245.93 497.86 244.28 497.65 243.19ZM458.42 241.45C460.69 235.6 479.44 235.48 484.79 242.03C480.5 243.54 476.52 245.17 471.74 244.04C467.42 243.02 462.74 243.6 458.42 241.45ZM471.4 246.3C470.65 246.74 469.85 247.59 469.15 247.52C468.42 247.44 467.79 246.47 467.12 245.88C467.22 245.64 467.32 245.39 467.42 245.15L471.07 245.32C471.18 245.65 471.29 245.97 471.4 246.3ZM458.3 246.97C459.82 244.03 462.43 243.54 466.44 245.81C463.39 246.56 461.18 248.68 458.3 246.97ZM462.46 250.27C462.33 249.84 462.2 249.4 462.07 248.97C463.7 248.45 465.33 247.92 466.95 247.4C467.07 247.87 467.19 248.34 467.31 248.81C465.69 249.3 464.07 249.78 462.46 250.27ZM464.84 253.4C464.77 253.05 464.69 252.7 464.62 252.35L464.624 252.347C465.552 251.628 466.482 250.908 467.96 249.75C468.23 251.24 468.4 252.22 468.57 253.19C467.32 253.26 466.08 253.33 464.83 253.4H464.84ZM472.7 251.7C471.98 252.42 470.68 252.29 469.79 251.4C468.9 250.51 468.77 249.21 469.49 248.49C470.21 247.77 471.51 247.9 472.4 248.79C473.29 249.68 473.42 250.98 472.7 251.7ZM476.38 251.21C474.98 250.29 473.5 249.14 472.76 247.71C472.31 246.84 473.39 245.68 474.82 246.48C476.06 247.17 477.27 247.93 479.08 249C477.98 249.93 476.64 251.39 476.38 251.22V251.21ZM491.64 246.65C488.95 247.04 486.27 247.54 483.56 247.65C481.63 247.72 479.67 247.22 477.72 246.98C477.72 246.52 477.73 246.05 477.74 245.59C482.15 244.32 486.51 242.79 490.99 241.94C492.57 241.64 495.95 242.96 495.97 243.61C496.04 246.02 493.63 246.37 491.63 246.66L491.64 246.65Z" fill="currentColor"/>
<path d="M458.3 246.97C459.82 244.03 462.43 243.54 466.44 245.81C463.39 246.56 461.18 248.68 458.3 246.97Z" fill="#AFC1C1"/>
<path d="M458.42 241.45C460.69 235.6 479.44 235.48 484.79 242.03C480.5 243.54 476.52 245.17 471.74 244.04C467.42 243.02 462.74 243.6 458.42 241.45Z" fill="#AFC1C1"/>
<path d="M471.4 246.3C470.65 246.74 469.85 247.59 469.15 247.52C468.42 247.44 467.79 246.47 467.12 245.88C467.22 245.64 467.32 245.39 467.42 245.15L471.07 245.32C471.18 245.65 471.29 245.97 471.4 246.3Z" fill="#AFC1C1"/>
<path d="M472.7 251.7C471.98 252.42 470.68 252.29 469.79 251.4C468.9 250.51 468.77 249.21 469.49 248.49C470.21 247.77 471.51 247.9 472.4 248.79C473.29 249.68 473.42 250.98 472.7 251.7Z" fill="#AFC1C1"/>
<path d="M464.62 252.35C464.69 252.7 464.77 253.05 464.84 253.4C466.087 253.33 467.323 253.26 468.57 253.19C468.4 252.22 468.23 251.24 467.96 249.75C466.482 250.908 465.552 251.628 464.624 252.347L464.62 252.35Z" fill="#AFC1C1"/>
<path d="M462.46 250.27C462.33 249.84 462.2 249.4 462.07 248.97C463.7 248.45 465.33 247.92 466.95 247.4L467.31 248.81C465.69 249.3 464.07 249.78 462.46 250.27Z" fill="#AFC1C1"/>
<path d="M476.38 251.21C474.98 250.29 473.5 249.14 472.76 247.71C472.31 246.84 473.39 245.68 474.82 246.48C476.06 247.17 477.27 247.93 479.08 249C477.98 249.93 476.64 251.39 476.38 251.22V251.21Z" fill="#AFC1C1"/>
<path d="M491.64 246.65C488.95 247.04 486.27 247.54 483.56 247.65C481.63 247.72 479.67 247.22 477.72 246.98C477.72 246.52 477.73 246.05 477.74 245.59C482.15 244.32 486.51 242.79 490.99 241.94C492.57 241.64 495.95 242.96 495.97 243.61C496.04 246.02 493.63 246.37 491.63 246.66L491.64 246.65Z" fill="#AFC1C1"/>
</g>
</svg>
