<svg width="1046" height="357" viewBox="0 0 1046 357" fill="none" xmlns="http://www.w3.org/2000/svg">
<g>
<path d="M945.93 242.7C945.32 241.81 944.68 240.93 944.06 240.05C943.21 240.72 942.33 241.36 941.52 242.07C940.88 242.63 940.32 243.28 939.73 243.89C939.24 243.16 938.54 242.49 938.3 241.69C937.7 239.67 936.62 239.44 935.12 240.66C934.58 241.1 934.27 241.82 933.73 242.6C931.43 239.21 929.66 240.9 927.99 242.6C925.78 239.22 925.33 239.22 922.59 241.94C920.86 241.29 919.22 240.05 918.12 240.42C916.57 240.94 915.41 242.66 914.1 243.85C911.4 240.68 911.15 240.64 908.08 243.07C905.65 239.89 904.96 239.78 901.63 242.12C900.29 240.8 898.97 240.51 897.58 242.19C897.28 242.55 896.41 242.75 895.95 242.59C891.84 241.15 887.7 239.79 884.74 236.25C880.41 231.08 878.13 230.68 872.35 233.99C868.74 236.06 865.4 236.49 861.71 233.89C858.04 231.29 854.68 231.75 851.32 234.8C849.78 236.2 848.33 237.72 847 239.31C844.05 242.85 845.99 246.89 846.02 250.72C846.02 251.03 846.43 251.32 846.55 251.66C846.72 252.15 846.93 252.69 846.9 253.19C846.5 259.23 848.66 261.59 854.71 261.98C855.85 262.05 857.18 262.59 858.02 263.35C861.89 266.88 866.38 267.79 871.41 267.15C878.28 266.27 884.54 263.7 890.53 260.39C895.02 257.9 899.5 257.28 904.32 259.45C912.85 263.31 921.1 262.36 929.06 257.71C930.31 256.98 931.52 256.16 932.81 255.5C933.5 255.15 934.35 254.83 935.08 254.91C941.04 255.61 947.13 250.8 947.73 245.48C946.91 244.2 946.45 243.44 945.95 242.72L945.93 242.7ZM936.52 241.12C937.49 240.21 937.86 243.25 938.43 243.84C939 244.43 934.66 244.2 934.66 244.2C934.66 244.2 935.54 242.03 936.51 241.12H936.52ZM930.9 241.69C932.11 241.69 933.07 244.63 933.07 244.63H928.67C928.67 244.63 929.69 241.69 930.9 241.69ZM925.09 241.12L927.52 244.82L922.09 245.57L925.09 241.12ZM918.65 242.16C918.92 242.28 919.19 242.4 919.46 242.52C919.52 243.54 919.57 244.56 919.65 245.88C918.35 245.94 917.23 245.99 915.44 246.07C916.75 244.48 917.7 243.32 918.65 242.16ZM910.75 242.46C912.45 241.5 913.35 246.07 913.35 246.07L908.46 245.57C908.46 245.57 909.06 243.42 910.76 242.46H910.75ZM904.95 241.45C906.61 241.16 907.3 245.68 907.3 245.68L901.75 244.53C901.75 244.53 903.3 241.74 904.96 241.45H904.95ZM899.75 242.11L901.12 244.12L898.16 242.97L899.76 242.11H899.75ZM936.35 253.62C938.22 251.95 939.74 250.59 941.26 249.23C941.13 249.04 941.01 248.85 940.88 248.66C939.71 249.25 938.52 249.79 937.39 250.43C933.43 252.64 929.52 254.95 925.54 257.11C919.01 260.66 912.26 260.61 905.61 257.65C899.75 255.05 894.44 255.96 888.98 258.91C882.82 262.24 876.36 264.93 869.21 265.3C864.91 265.52 861.91 264.41 859.15 261.52C863.17 260.66 866.66 259.35 868.92 255.69C867.84 256.15 866.71 256.52 865.69 257.09C861.83 259.22 857.68 259.94 853.34 259.7C850.06 259.52 848.16 257.11 848.59 253.82C848.65 253.37 848.89 252.77 848.69 252.49C846.88 249.92 847.48 247.03 847.53 244.23C847.55 243.14 847.53 241.76 848.13 241.02C849.92 238.87 851.89 236.85 854.02 235.04C855.93 233.42 858.28 233.75 860.08 235.21C864.75 239 869.22 238.09 873.9 235.26C878.02 232.77 880.07 233.47 883.28 237.1C885.09 239.15 887.35 241.08 889.8 242.24C900.29 247.23 911.34 248.9 922.92 247.39C929.57 246.53 936.28 246.18 942.96 245.62C943.83 245.55 944.72 245.62 945.64 245.62C944.95 249.53 940.88 253.13 936.34 253.64L936.35 253.62ZM941.12 243.84L943.8 241.69L945.65 244.11L941.11 243.83L941.12 243.84Z" fill="currentColor"/>
<path d="M936.35 253.62C938.22 251.95 939.74 250.59 941.26 249.23C941.13 249.04 941.01 248.85 940.88 248.66C939.71 249.25 938.52 249.79 937.39 250.43C933.43 252.64 929.52 254.95 925.54 257.11C919.01 260.66 912.26 260.61 905.61 257.65C899.75 255.05 894.44 255.96 888.98 258.91C882.82 262.24 876.36 264.93 869.21 265.3C864.91 265.52 861.91 264.41 859.15 261.52C863.17 260.66 866.66 259.35 868.92 255.69C867.84 256.15 866.71 256.52 865.69 257.09C861.83 259.22 857.68 259.94 853.34 259.7C850.06 259.52 848.16 257.11 848.59 253.82C848.65 253.37 848.89 252.77 848.69 252.49C846.88 249.92 847.48 247.03 847.53 244.23C847.55 243.14 847.53 241.76 848.13 241.02C849.92 238.87 851.89 236.85 854.02 235.04C855.93 233.42 858.28 233.75 860.08 235.21C864.75 239 869.22 238.09 873.9 235.26C878.02 232.77 880.07 233.47 883.28 237.1C885.09 239.15 887.35 241.08 889.8 242.24C900.29 247.23 911.34 248.9 922.92 247.39C929.57 246.53 936.28 246.18 942.96 245.62C943.83 245.55 944.72 245.62 945.64 245.62C944.95 249.53 940.88 253.13 936.34 253.64L936.35 253.62Z" fill="#AFC1C1"/>
<path d="M899.31 250.1C906.45 250.45 913.6 250.8 921.23 251.18C913.51 252.65 906.3 253.6 899.31 250.1Z" fill="currentColor"/>
</g>
</svg>
