<svg width="1046" height="357" viewBox="0 0 1046 357" fill="none" xmlns="http://www.w3.org/2000/svg">
<g>
<path d="M926.64 215.2C933.157 215.2 938.44 209.774 938.44 203.08C938.44 196.386 933.157 190.96 926.64 190.96C920.123 190.96 914.84 196.386 914.84 203.08C914.84 209.774 920.123 215.2 926.64 215.2Z" fill="#C9B444"/>
<path d="M923.25 210.19C925.818 210.19 927.9 207.24 927.9 203.6C927.9 199.96 925.818 197.01 923.25 197.01C920.682 197.01 918.6 199.96 918.6 203.6C918.6 207.24 920.682 210.19 923.25 210.19Z" fill="black"/>
<path d="M922.33 202.94C923.335 202.94 924.15 202.161 924.15 201.2C924.15 200.239 923.335 199.46 922.33 199.46C921.325 199.46 920.51 200.239 920.51 201.2C920.51 202.161 921.325 202.94 922.33 202.94Z" fill="white"/>
</g>
</svg>
