<svg width="1046" height="357" viewBox="0 0 1046 357" fill="none" xmlns="http://www.w3.org/2000/svg">
<path d="M701.35 94.96C705.61 99.59 710.84 102.65 716.72 104.83C724 107.52 731.56 109.05 739.16 110.12C753.17 112.09 767.02 114.93 780.91 117.56C807.65 122.62 834.02 129.27 860.49 135.55C880.52 140.3 900.67 144.55 920.23 151.1C935.13 156.09 949.61 162.15 964.03 168.36C981.7 175.97 999.9 182.24 1017.79 189.31C1018.53 189.6 1019.39 189.7 1019.9 190.44C1019.82 191.76 1018.67 191.97 1017.8 192.27C1013 193.94 1008.07 195.21 1002.98 195.34C989.29 195.67 975.85 193.93 963.04 189C947.58 183.05 931.65 180.59 915.14 181.15C911.34 181.28 907.55 181.75 903.75 181.7C892.14 181.55 880.53 182 868.9 181.34C861.41 180.92 853.87 181 846.33 181.61C840.57 182.07 834.75 181.9 829.02 182.85C813.71 185.38 800.63 191.78 791.3 204.67C791.38 200.49 792.07 196.38 792.98 192.32C793.82 188.59 795.23 185.05 796.87 181.6C797.8 179.65 797.26 179.02 795.15 179.06C793.15 179.09 792.36 180.49 791.38 181.78C786.59 184.14 783.07 187.89 779.87 192.07C777.04 195.76 774.72 199.87 771.19 203.01C770.54 200.28 770.08 197.52 770.07 194.69C770.05 190.33 770.63 186.03 771.11 181.71C771.22 180.7 771.82 179.22 769.83 179.04C768.15 178.89 766.99 179.25 766.81 181.21C766.69 182.46 766.37 183.7 766.15 184.94C764.79 185.26 764.14 186.35 763.43 187.39C760.41 191.79 758.37 196.71 755.9 201.4C755.43 202.3 755.26 203.58 753.78 203.51C753.58 201.17 753.33 198.83 753.2 196.48C752.93 191.65 753.86 186.94 754.67 182.21C754.85 181.15 755.68 179.55 753.79 179.05C752.03 178.58 750.88 179.22 750.54 181.2C750.35 182.33 749.81 183.4 749.43 184.5C748.75 184.69 748.41 185.22 748.18 185.82C746.24 190.96 743.48 195.76 741.72 200.98C741.32 202.17 741.24 203.72 739.56 204.08C739.48 203.63 739.43 203.18 739.32 202.74C737.97 197.28 736.79 191.8 736.86 186.14C736.88 184.25 737.2 182.36 737.36 180.46C737.45 179.41 736.91 178.97 735.9 179.01C735.08 179.04 734.24 178.93 734.09 180.12C733.95 181.19 733.68 182.25 733.47 183.32C731.23 184.87 730.81 187.46 729.85 189.73C728.15 193.78 727.46 198.24 724.83 201.9C722.87 195.48 721.95 188.88 721.65 182.21C721.55 180.05 720.93 179.26 718.9 179.43C718.33 177.49 716.55 177.3 715.15 177.47C708.7 178.24 702.22 179.06 696.09 181.37C681.69 186.82 667.39 192.55 652.57 196.85C637 201.36 621.11 204.39 605.1 206.66C594.38 208.18 583.73 210.18 572.95 211.31C564.77 212.16 556.6 213.04 548.38 213.36C547.09 213.41 545.49 213.54 545.16 212.03C544.81 210.44 546.49 210.14 547.59 209.62C548.16 209.35 548.8 209.23 549.39 209.01C560.38 205.01 571.71 202.21 583.04 199.41C610.4 192.67 637.3 184.36 663.93 175.17C665.81 174.52 667.71 173.8 669.4 172.78C670.69 172 673.08 171.36 672.51 169.63C672.13 168.49 669.68 169.04 668.23 169.24C659.65 170.43 651.03 171.47 642.54 173.13C621.31 177.29 600.43 182.9 579.77 189.32C568.96 192.68 558.52 197.15 547.59 200.19C535.22 203.62 522.87 207.16 510.03 208.38C499.15 209.41 488.26 210.43 477.35 211.09C466.07 211.78 454.85 213.22 443.57 213.79C432.94 214.33 422.35 215.88 411.63 215.09C406.03 214.68 400.45 214.31 394.94 213.23C389.56 212.18 385.31 210.04 383.43 203.98C381.43 197.51 376.18 194.59 370.08 196.03C362.44 197.83 355.24 200.89 349.32 206.29C344.14 211.01 338.23 213.63 331.1 213.37C322.87 213.07 314.68 211.98 306.41 212.2C303.16 212.29 299.87 211.98 296.67 211.58C286 210.23 275.3 209.27 264.59 208.5C257.35 207.98 250.2 206.96 243.21 205.18C233.39 202.67 223.65 199.84 213.96 196.9C202.1 193.3 189.94 190.67 178.65 185.27C174.21 183.15 169.57 181.18 164.49 180.9C158.22 178.33 152.72 174.46 147.16 170.68C145.09 169.27 143.84 167.4 143.39 164.93C142.87 162.06 141.42 159.74 139.35 157.68C131.79 150.2 122.98 144.42 113.84 139.17C100.68 131.62 87.36 124.35 75.23 115.15C73.12 113.55 71.02 111.86 69.53 109.48C70.86 108.85 71.8 109.31 72.73 109.61C82.57 112.82 92.41 116.02 102.24 119.27C112.42 122.64 122.84 124.38 133.58 123.85C140.16 125.94 146.31 129.09 152.62 131.83C173.38 140.84 193.4 151.38 213.56 161.62C223.37 166.61 233.62 170.57 243.71 174.9C255.72 180.05 267.74 185.22 279.57 190.78C285.56 193.59 291.38 194.26 297.73 192.57C305.69 190.46 313.7 188.5 321.86 187.17C321.77 186.29 320.87 186.69 320.65 186.17C321.83 186.13 323 186.12 324.18 186.03C333.24 185.37 341.32 182.91 346.04 174.21C346.56 173.26 347.29 172.43 347.84 171.49C348.75 169.94 349.7 169.62 350.93 171.17C352.18 172.75 353.92 173.34 355.8 172.92C362.5 171.4 369.29 171.54 376.09 171.4C380.64 171.31 384.77 169.7 388.19 166.56C397.49 165.85 406.28 162.99 415.02 160.02C438.21 152.13 461.53 144.75 485.49 139.49C506.39 134.91 527.44 131.2 548.62 128.16C555.61 127.16 562.57 125.91 569.36 123.91C571.06 123.88 572.82 124.1 574.47 123.77C589.13 120.85 603.93 118.81 618.72 116.74C619.9 116.57 622.09 116.99 622.03 115.34C621.99 114.14 619.96 113.74 618.51 113.49C612.35 112.43 606.19 111.37 600.06 110.17C598.78 109.92 596.77 110.29 596.39 109.03C596.03 107.84 597.75 106.86 598.7 105.92C603.51 101.15 608.01 96.12 610.09 89.52C613.82 77.66 617.61 65.82 620.1 53.62C620.99 49.27 621.88 44.91 622.93 40.59C624.02 36.13 625.43 35.73 628.67 38.85C629.97 40.11 631.24 41.44 632.28 42.91C635.85 47.95 639.3 53.07 642.83 58.14C647.09 64.27 651.57 70.2 657.43 74.95C666.06 81.94 676.07 86.52 685.99 91.21C690.83 93.5 695.77 95.68 701.38 94.97L701.35 94.96Z" fill="#649ABB"/>
<path d="M164.46 180.91C169.54 181.19 174.17 183.16 178.62 185.28C189.91 190.68 202.08 193.31 213.93 196.91C223.63 199.85 233.37 202.68 243.18 205.19C250.17 206.98 257.32 208 264.56 208.51C275.27 209.28 285.98 210.24 296.64 211.59C299.84 211.99 303.14 212.3 306.38 212.21C314.65 211.99 322.84 213.08 331.07 213.38C338.2 213.64 344.11 211.02 349.29 206.3C355.21 200.9 362.41 197.84 370.05 196.04C376.16 194.6 381.4 197.52 383.4 203.99C385.28 210.05 389.52 212.19 394.91 213.24C400.41 214.31 406 214.69 411.6 215.1C422.32 215.89 432.9 214.34 443.54 213.8C454.82 213.23 466.03 211.78 477.32 211.1C488.23 210.44 499.12 209.41 510 208.39C522.84 207.18 535.19 203.64 547.56 200.2C558.49 197.17 568.93 192.69 579.74 189.33C600.39 182.91 621.27 177.3 642.51 173.14C651 171.48 659.62 170.44 668.2 169.25C669.65 169.05 672.1 168.49 672.48 169.64C673.05 171.36 670.66 172.01 669.37 172.79C667.68 173.81 665.78 174.53 663.9 175.18C637.27 184.37 610.37 192.68 583.01 199.42C571.67 202.21 560.35 205.02 549.36 209.02C548.76 209.24 548.13 209.36 547.56 209.63C546.46 210.15 544.77 210.45 545.13 212.04C545.47 213.55 547.07 213.42 548.35 213.37C556.57 213.05 564.74 212.17 572.92 211.32C583.71 210.19 594.35 208.19 605.07 206.67C621.08 204.4 636.97 201.37 652.54 196.86C667.36 192.57 681.66 186.83 696.06 181.38C702.19 179.06 708.67 178.25 715.12 177.48C716.52 177.31 718.3 177.5 718.87 179.44C717.49 179.74 717.73 180.84 717.69 181.82C717.46 187.3 718.75 192.56 719.87 197.85C721.76 206.75 724.66 215.26 729.31 223.13C729.87 224.07 730.5 225.35 731.75 224.65C733.21 223.83 731.83 222.74 731.46 221.9C728.65 215.43 725.98 208.92 724.8 201.91C727.43 198.24 728.12 193.78 729.82 189.74C730.77 187.47 731.2 184.88 733.44 183.33C733.31 196.78 737.11 209.31 742.29 221.53C742.76 222.65 743.36 223.63 744.65 223.11C746.17 222.5 744.96 221.37 744.72 220.62C742.97 215.12 740.96 209.7 739.54 204.09C741.22 203.73 741.3 202.18 741.7 200.99C743.46 195.76 746.21 190.97 748.16 185.83C748.39 185.22 748.73 184.7 749.41 184.51C750.13 185.17 749.94 186.04 749.82 186.81C748.78 193.4 749.07 199.97 750.49 206.45C751.55 211.29 752.79 216.1 754.57 220.75C755.1 222.15 755.97 222.22 757.1 222.06C758.12 221.92 757.81 221.26 757.62 220.64C755.93 215.02 754.91 209.25 753.75 203.52C755.22 203.6 755.39 202.31 755.87 201.41C758.35 196.72 760.38 191.8 763.4 187.4C764.12 186.36 764.77 185.27 766.12 184.95C766.17 189.61 765.37 194.23 766.15 198.95C767.38 206.36 769.89 213.23 773.54 219.74C774.2 220.92 775.38 221.5 776.53 220.87C777.85 220.14 776.67 219.11 776.32 218.32C774.11 213.38 772.17 208.36 771.16 203.03C774.69 199.89 777.02 195.79 779.84 192.09C783.04 187.91 786.56 184.16 791.35 181.8C790.23 186.87 788.32 191.73 787.72 196.97C786.89 204.27 786.52 211.48 787.95 218.75C788.32 220.66 789.32 220.53 790.61 220.47C792.18 220.39 792.08 219.13 791.79 218.28C791.04 216.09 791.34 213.81 790.97 211.58C790.6 209.35 790.29 206.94 791.27 204.68C800.59 191.79 813.68 185.39 828.99 182.86C834.72 181.91 840.54 182.08 846.3 181.62C853.84 181.01 861.39 180.93 868.87 181.35C880.5 182.01 892.1 181.57 903.72 181.71C907.52 181.76 911.31 181.28 915.11 181.16C931.62 180.6 947.55 183.06 963.01 189.01C975.83 193.94 989.26 195.69 1002.95 195.35C1008.04 195.23 1012.97 193.95 1017.77 192.28C1018.64 191.98 1019.8 191.77 1019.87 190.45C1027.1 193.75 1034.12 197.3 1036.61 205.74C1037.49 208.72 1036.41 210.88 1033.59 212.41C1032.86 212.41 1032.1 212.24 1031.42 212.41C1020.49 215.3 1009.25 214.43 998.15 214.87C988.92 215.24 979.64 215.47 970.39 214.53C964.31 213.91 958.51 215.88 952.77 217.39C941.86 220.27 930.95 220.02 919.93 218.56C914.1 217.79 908.21 216.65 902.39 216.88C894.12 217.19 885.87 217.12 877.62 217.12C873.54 217.12 869.45 216.57 865.4 216.8C857.37 217.26 849.33 217.74 841.33 218.78C832.81 219.89 824.27 220.79 815.73 221.69C806.92 222.62 798.1 223.5 789.27 224.27C783.41 224.78 777.52 225.06 771.65 225.45C761.43 226.12 751.24 226.67 740.97 226.09C725.13 225.19 709.26 224.85 693.4 224.37C690.42 224.28 687.43 224.73 684.45 224.84C676.39 225.14 668.42 226.31 660.43 227.3C651.1 228.46 641.8 230.03 632.43 230.7C621.22 231.5 609.96 231.65 598.72 231.85C574.02 232.3 549.33 231.74 524.65 230.86C519.94 230.69 515.23 230.7 510.52 230.44C498.39 229.76 486.23 229.44 474.08 229.27C466.01 229.16 457.93 229.69 449.86 229.7C446.22 229.7 442.6 230.03 439.01 230.42C429.01 231.51 418.96 231.92 408.93 232.33C398.61 232.76 388.27 232.93 377.94 233.39C364 234.01 350.09 235.54 336.11 235.24C335.32 235.22 334.46 235.03 333.78 235.68C332.86 235.87 331.97 235.35 331.14 235.4C329.47 235.49 327.75 233.8 326.15 235.51C321.62 235.02 317.08 235.22 312.55 235.54C311.76 235.22 311.02 235.31 310.31 235.76C308.28 235.64 306.34 236.25 304.36 236.55C303.91 236.39 303.55 236.55 303.21 236.85C295.75 237.75 289.77 241.26 284.93 246.95C277.66 255.49 272.45 265.37 266.53 274.8C265.2 276.92 264.16 279.26 262.31 281.04C258.62 280.82 255.12 281.72 251.66 282.83C241.75 286.02 232.85 291.37 223.59 295.95C221.97 296.75 220.09 298.31 218.34 296.71C216.76 295.28 217.63 293.15 217.87 291.3C217.88 291.21 217.93 291.13 217.96 291.04C219.85 284.42 221.67 277.78 223.66 271.19C225.93 263.68 226.84 256 225.23 248.37C222.21 234.06 214.55 222.16 204.93 211.37C196.25 201.63 185.55 194.49 174.8 187.38C171.41 185.14 167.91 183.07 164.46 180.92V180.91ZM942.42 202.64C943.06 195.74 935.37 188.33 927.82 188.17C917.96 187.96 913.76 195.13 913.67 203.47C913.57 212.76 918.82 217.77 927.64 218.16C934.94 218.48 942.46 210.93 942.42 202.64Z" fill="#47748F"/>
<path d="M333.77 235.67C334.45 235.02 335.31 235.21 336.1 235.23C350.08 235.53 363.99 234.01 377.93 233.38C388.26 232.92 398.59 232.74 408.92 232.32C418.95 231.91 429 231.5 439 230.41C442.58 230.02 446.2 229.7 449.85 229.69C457.92 229.68 466 229.15 474.07 229.26C486.22 229.42 498.38 229.75 510.51 230.43C515.23 230.7 519.93 230.68 524.64 230.85C549.32 231.74 574.01 232.29 598.71 231.84C609.95 231.64 621.22 231.49 632.42 230.69C641.78 230.03 651.09 228.45 660.42 227.29C668.41 226.3 676.38 225.13 684.44 224.83C687.43 224.72 690.42 224.27 693.39 224.36C709.25 224.84 725.12 225.19 740.96 226.08C751.23 226.66 761.42 226.11 771.64 225.44C777.51 225.05 783.4 224.78 789.26 224.26C798.09 223.49 806.91 222.61 815.72 221.68C824.26 220.78 832.81 219.88 841.32 218.77C849.32 217.73 857.36 217.25 865.39 216.79C869.44 216.56 873.54 217.11 877.61 217.11C885.87 217.11 894.12 217.19 902.38 216.87C908.2 216.65 914.09 217.78 919.92 218.55C930.95 220.01 941.85 220.26 952.76 217.38C958.5 215.86 964.3 213.9 970.38 214.52C979.63 215.46 988.91 215.23 998.14 214.86C1009.24 214.42 1020.47 215.29 1031.41 212.4C1032.09 212.22 1032.86 212.39 1033.58 212.4C1033.37 213.65 1032.29 214.07 1031.42 214.68C1022.76 220.77 1013.17 225 1003.32 228.71C996.97 231.1 990.64 233.55 984.21 235.68C974.53 238.88 964.57 240.47 954.34 240.05C953.47 238.27 951.8 238.97 950.48 238.94C937.79 238.7 925.1 238.67 912.44 239.6C907.04 240 901.68 240.9 896.3 241.57C895.44 241.68 894.54 241.9 894.58 242.91C894.62 243.94 895.47 244.39 896.47 244.46C897.01 244.49 897.56 244.52 898.1 244.51C911.77 244.36 925.43 244.53 939.09 245.02C939.81 245.05 940.59 244.87 941.26 245.07C945.16 246.24 948.92 245.25 952.68 244.4C952.08 247.86 949.53 249.78 946.93 251.62C937.21 258.53 926.13 262.18 914.63 264.57C902.43 267.1 890.2 269.53 877.91 271.54C867.85 273.19 857.74 274.58 847.51 275.14C838.59 275.63 829.7 276.86 820.8 277.76C819.97 276.93 818.92 277.27 817.96 277.24C811.89 277.08 805.85 277.99 799.77 277.72C794.98 277.5 790.15 277.34 785.39 277.43C777.7 277.57 770.03 277.95 762.35 277.21C750.96 277.06 739.62 276.39 728.29 275.15C721.29 274.39 714.24 274.21 707.2 273.76C709.83 272.54 712.59 271.56 715.05 270.06C721.34 266.24 721.21 258.82 714.89 255.15C713.56 254.38 712.13 253.75 710.69 253.21C706.84 251.78 705.2 252.67 704.66 256.7C704.28 259.55 702.99 261.84 701.2 263.95C698.59 267.03 695.49 269.53 692.01 271.57C684.7 275.84 676.98 279.28 669.21 282.56C656.16 288.07 642.49 291.92 629.37 297.23C619.19 301.35 609.22 305.99 598.62 309C593.8 310.37 588.96 311.93 583.39 311.54C584.6 309.71 586 308.61 587.43 307.55C593.64 302.96 599.83 298.35 606.11 293.85C610.21 290.91 613.18 286.8 617.05 283.66C622.85 278.95 629.58 275.64 635.73 271.46C638.38 269.66 640.88 267.73 642.92 265.26C643.65 264.37 644.79 263.3 643.88 262.16C642.97 261.03 641.63 261.85 640.67 262.44C637.19 264.58 633.78 266.83 630.34 269.04C620.01 267.88 609.66 266.92 599.32 265.94C587.97 264.86 576.75 262.96 565.42 261.78C551.93 260.37 538.36 259.77 524.92 257.99C520.08 257.35 515.17 257.4 510.38 256.41C509.98 256.25 509.58 256.01 509.16 255.93C499.16 254.12 489.07 252.76 479.26 249.99C477 249.58 474.76 249.86 472.52 250.19C464.8 251.31 457.05 252.04 449.24 252.06C446.98 252.06 444.45 252.06 442.79 250.41C439.47 247.13 435.42 245.97 431.04 245.38C429.39 245.16 427.85 243.89 426.08 244.88C420.62 244.46 415.22 243.56 409.75 243.16C403.92 242.74 398.11 242.04 392.25 242.28C387.24 241.41 382.85 243.49 378.37 245.18C372.28 247.47 366.42 250.44 359.91 251.5C356.53 252.05 355.79 251.55 356.17 248.35C356.68 244.07 354.74 241.45 351.11 239.69C349.22 238.77 347.2 238.28 345.15 237.89C341.35 237.16 337.56 236.41 333.76 235.67H333.77Z" fill="#8DBEBE"/>
<path d="M164.46 180.91C167.91 183.06 171.41 185.13 174.8 187.37C185.55 194.48 196.25 201.62 204.93 211.36C214.55 222.16 222.21 234.06 225.23 248.36C226.84 255.99 225.93 263.68 223.66 271.18C221.67 277.77 219.86 284.41 217.96 291.03C217.94 291.12 217.89 291.2 217.87 291.29C217.63 293.14 216.76 295.27 218.34 296.7C220.1 298.29 221.97 296.74 223.59 295.94C232.85 291.36 241.75 286.01 251.66 282.82C255.12 281.71 258.62 280.8 262.31 281.03C258.16 288.3 253.27 295.07 247.79 301.37C242.55 307.4 236.95 313.13 231.73 319.18C227.32 324.29 221.68 328.1 216.32 332.15C207.59 338.75 198.04 343.95 188.02 348.32C186.42 349.02 184.74 349.41 183.04 349.63C179.03 350.14 176.93 347.91 177.82 343.93C178.82 339.42 180.01 334.96 181.2 330.5C185.31 315.07 190.63 300.05 196.2 285.09C198.91 277.82 200.42 270.18 201.42 262.38C202.39 254.88 201.51 248.35 196.66 242.55C193.92 239.28 191.11 236.08 187.87 233.25C177.39 224.1 165.93 216.18 155.29 207.22C130.48 186.33 105.64 165.45 80.8 144.6C75.44 140.1 70.05 135.64 64.96 130.84C62.36 128.39 59.4 127.77 55.93 128.61C51.23 129.76 45.82 127.03 43.38 122.7C41.77 119.84 39.61 117.35 37.43 114.92C34.34 111.47 31.23 108.01 27.89 104.81C21.59 98.79 16.65 91.7399 11.95 84.4899C10.59 82.3999 9.27 80.09 10.84 77.67C12.45 75.18 15.19 75.57 17.55 76.16C27.23 78.58 36.89 81.1799 46.09 85.0799C74.4 97.0699 102.8 108.85 130.54 122.13C131.59 122.63 132.77 122.9 133.56 123.86C122.81 124.38 112.4 122.64 102.22 119.28C92.39 116.03 82.55 112.83 72.71 109.62C71.78 109.32 70.85 108.86 69.51 109.49C71 111.87 73.1 113.55 75.21 115.16C87.33 124.36 100.66 131.63 113.82 139.18C122.97 144.43 131.77 150.21 139.33 157.69C141.41 159.74 142.85 162.07 143.37 164.94C143.81 167.4 145.06 169.28 147.14 170.69C152.7 174.47 158.2 178.34 164.47 180.91H164.46ZM69.01 109.06L69.1 108.93H68.93L69.01 109.06Z" fill="#222B32"/>
<path d="M701.35 94.96C695.74 95.67 690.8 93.49 685.96 91.2C676.03 86.51 666.02 81.93 657.4 74.94C651.54 70.2 647.06 64.26 642.8 58.13C639.27 53.06 635.82 47.94 632.25 42.9C631.21 41.43 629.94 40.09 628.64 38.84C625.41 35.72 623.99 36.1199 622.9 40.5799C621.85 44.8999 620.96 49.2499 620.07 53.6099C617.57 65.8099 613.79 77.66 610.06 89.51C607.99 96.11 603.48 101.14 598.67 105.91C597.73 106.85 596 107.83 596.36 109.02C596.74 110.28 598.75 109.91 600.03 110.16C606.16 111.36 612.32 112.43 618.48 113.48C619.93 113.73 621.96 114.12 622 115.33C622.05 116.98 619.87 116.56 618.69 116.73C603.9 118.81 589.1 120.84 574.44 123.76C572.79 124.09 571.04 123.87 569.33 123.9C569.13 123.13 568.37 123.6 568.01 123.32C567.4 122.83 566.65 122.39 566.62 121.43C566.58 120.33 567.59 120.48 568.15 120.22C586.1 111.71 598.27 98.4399 602.44 78.6099C603.11 75.3999 603.28 72.0899 603.69 68.8299C604.49 66.1299 604.29 63.38 604.12 60.62C604.76 47.18 603.97 33.74 604.29 20.29C605.01 19.86 604.76 19.23 604.66 18.62C604.73 17.18 604.8 15.7399 604.87 14.2999C605.31 13.5999 605.32 12.85 605.17 12.07C605.99 7.04997 606.03 6.87997 611.18 7.16997C618.6 7.57997 624.87 11.19 630.9 15.07C641.69 22 650.74 30.93 659.01 40.65C670.43 54.07 680.78 68.34 691.5 82.31C694.75 86.55 698.06 90.75 701.35 94.97V94.96Z" fill="#222B32"/>
<path d="M630.35 269.03C633.79 266.82 637.2 264.58 640.68 262.43C641.64 261.84 642.98 261.02 643.89 262.15C644.81 263.29 643.66 264.36 642.93 265.25C640.89 267.73 638.4 269.65 635.74 271.45C629.58 275.63 622.85 278.94 617.06 283.65C613.19 286.79 610.22 290.9 606.12 293.84C599.85 298.34 593.66 302.96 587.44 307.54C586.01 308.59 584.61 309.7 583.4 311.53C588.97 311.93 593.81 310.36 598.63 308.99C609.22 305.99 619.2 301.34 629.38 297.22C642.5 291.91 656.17 288.06 669.22 282.55C677 279.26 684.72 275.83 692.02 271.56C695.5 269.53 698.6 267.03 701.21 263.94C703 261.83 704.29 259.53 704.67 256.69C705.21 252.65 706.85 251.77 710.7 253.2C712.14 253.73 713.57 254.36 714.9 255.14C721.22 258.81 721.35 266.24 715.06 270.05C712.6 271.54 709.83 272.53 707.21 273.75C705.39 273.47 703.85 274.35 702.25 274.95C678.84 283.79 655.52 292.88 632 301.41C612.57 308.46 593.47 316.4 573.95 323.19C567.53 325.43 561 327.21 554.09 327.48C552.22 327.55 550.47 327.91 548.69 327.11C545.82 325.83 544.97 323.35 546.69 320.67C548.17 318.35 550.21 316.5 552.36 314.82C557.23 311.01 562.32 307.49 567.86 304.72C580.45 298.43 592.54 291.23 604.79 284.33C612.46 280.01 620.09 275.63 627.73 271.26C628.73 270.69 629.88 270.25 630.33 269.02L630.35 269.03Z" fill="#242E34"/>
<path d="M762.38 277.19C770.06 277.93 777.73 277.55 785.42 277.41C790.18 277.32 795.01 277.48 799.8 277.7C805.88 277.97 811.92 277.06 817.99 277.22C818.95 277.25 820.01 276.91 820.83 277.74C819.87 281.99 818.87 286.22 816.55 290C812.46 290.89 809.03 293.07 805.88 295.68C801.17 299.59 795.97 302.67 790.43 305.15C785.27 307.46 780.48 307.78 776.21 302.89C774.07 300.44 771.39 298.2 767.77 297.91C766.6 291.46 765.64 284.96 762.51 279.05C762.24 278.55 762.42 277.81 762.38 277.19V277.19Z" fill="#607F7F"/>
<path d="M767.77 297.91C771.38 298.2 774.07 300.44 776.21 302.89C780.48 307.78 785.27 307.46 790.43 305.15C795.98 302.67 801.18 299.59 805.88 295.68C809.03 293.07 812.46 290.88 816.55 290C816.72 290.88 816.2 291.57 815.85 292.29C809.17 306.13 799.48 317.42 786.87 326.18C783.21 328.72 779.09 330.37 774.81 331.58C772.2 332.32 769.55 330.59 768.93 327.79C768.22 324.58 768.43 321.3 768.48 318.04C768.97 317.69 768.95 317.35 768.48 317.02C768.48 316.09 768.48 315.16 768.48 314.23C768.97 313.89 768.98 313.55 768.48 313.21C768.3 308.11 768.6 302.99 767.75 297.92L767.77 297.91Z" fill="#232C33"/>
<path d="M333.77 235.67C337.57 236.41 341.36 237.16 345.16 237.89C347.21 238.28 349.22 238.78 351.12 239.69C354.75 241.45 356.69 244.07 356.18 248.35C355.8 251.54 356.55 252.04 359.92 251.5C366.43 250.44 372.29 247.47 378.38 245.18C382.86 243.49 387.25 241.41 392.26 242.28C386.71 245.16 381.73 248.94 376.59 252.46C367.72 258.53 357.92 261.86 347.28 263.11C343.66 263.53 340.19 263.84 336.67 262.61C332.6 261.18 331.91 258.64 334.93 255.51C337.09 253.27 339.85 251.8 342.26 249.88C344.8 247.86 345.04 245.63 342.46 243.83C337.43 240.31 332.4 236.65 326.13 235.51C327.73 233.8 329.46 235.48 331.12 235.39C331.94 235.35 332.84 235.86 333.76 235.67H333.77Z" fill="#242E34"/>
<path d="M388.17 166.56C384.75 169.7 380.61 171.3 376.07 171.4C369.27 171.54 362.48 171.4 355.78 172.92C353.9 173.34 352.16 172.75 350.91 171.17C349.68 169.62 348.73 169.95 347.82 171.49C347.27 172.43 346.53 173.26 346.02 174.21C341.3 182.91 333.21 185.37 324.16 186.03C322.99 186.12 321.81 186.12 320.63 186.17C318.33 185.52 320.04 184.77 320.69 184.4C322.41 183.4 324.26 182.64 325.99 181.67C333.97 177.22 339.6 170.66 343.13 162.28C344.16 159.84 345.65 158.81 348.48 158.7C357.23 158.37 365.56 160.29 373.77 162.86C378.52 164.35 383.41 165.17 388.18 166.56H388.17Z" fill="#232D34"/>
<path d="M479.28 249.98C489.09 252.75 499.18 254.11 509.18 255.92C509.6 256 509.99 256.24 510.4 256.4C508.39 256.31 507.09 257.66 505.67 258.76C501.82 261.76 498.13 264.98 493.95 267.53C488.35 270.95 484.76 270.74 480.01 266.34C476.95 263.5 473.59 261.14 470.07 258.96C470.75 257.44 472.37 257.07 473.52 256.13C475.72 254.33 478.29 252.9 479.29 249.98H479.28Z" fill="#618181"/>
<path d="M479.28 249.98C478.28 252.9 475.71 254.33 473.51 256.13C472.36 257.07 470.74 257.45 470.06 258.96C467.09 258.16 464.36 259.46 461.59 260.06C455.92 261.28 450.15 261.87 444.46 262.92C443.67 263.07 442.83 263.04 442.02 262.99C436.81 262.64 435.57 261.02 437.63 256.84C438.91 254.25 438.06 252.06 435.73 250.42C432.69 248.28 429.65 246.13 426.1 244.88C427.87 243.88 429.41 245.15 431.06 245.38C435.44 245.97 439.5 247.13 442.81 250.41C444.47 252.05 447 252.06 449.26 252.06C457.07 252.04 464.82 251.31 472.54 250.19C474.78 249.87 477.02 249.59 479.28 249.99V249.98Z" fill="#242E34"/>
<path d="M952.71 244.38C948.94 245.23 945.19 246.22 941.29 245.05C940.62 244.85 939.85 245.03 939.12 245C925.46 244.51 911.79 244.34 898.13 244.49C897.59 244.49 897.04 244.47 896.5 244.44C895.5 244.38 894.65 243.93 894.61 242.89C894.57 241.88 895.47 241.66 896.33 241.55C901.71 240.88 907.07 239.98 912.47 239.58C925.13 238.65 937.82 238.68 950.51 238.92C951.82 238.95 953.49 238.25 954.37 240.03C952.51 239.98 951.13 240.19 952.63 242.55C952.92 242.99 952.7 243.76 952.72 244.38H952.71Z" fill="#010202"/>
<path d="M604.12 60.62C604.3 63.37 604.49 66.12 603.69 68.83C603.12 66.06 602.44 63.28 604.12 60.62Z" fill="#D8D9DB"/>
<path d="M605.17 12.0699C605.31 12.8499 605.3 13.5999 604.87 14.2999C604.1 13.4399 603.92 12.6599 605.17 12.0699Z" fill="#D8D9DB"/>
<path d="M310.3 235.75C311.01 235.3 311.75 235.2 312.54 235.53C311.88 236.51 311.12 236.44 310.3 235.75Z" fill="#D8D9DB"/>
<path d="M604.66 18.62C604.77 19.23 605.01 19.87 604.29 20.29C603.52 19.54 603.57 18.97 604.66 18.62Z" fill="#D8D9DB"/>
<path d="M303.21 236.84C303.54 236.54 303.91 236.38 304.36 236.54C304.12 237.18 303.8 237.51 303.21 236.84Z" fill="#D8D9DB"/>
<path d="M768.49 313.21C768.98 313.56 768.97 313.9 768.49 314.23C768.49 313.89 768.49 313.55 768.49 313.21Z" fill="#325266"/>
<path d="M768.49 317.02C768.97 317.36 768.99 317.7 768.49 318.04C768.49 317.7 768.49 317.36 768.49 317.02Z" fill="#325266"/>
<path d="M791.28 204.65C790.3 206.91 790.62 209.32 790.98 211.55C791.35 213.77 791.05 216.06 791.8 218.25C792.09 219.09 792.19 220.36 790.62 220.44C789.34 220.5 788.34 220.63 787.96 218.72C786.54 211.45 786.9 204.24 787.73 196.94C788.33 191.7 790.23 186.84 791.36 181.77C792.33 180.48 793.12 179.08 795.13 179.05C797.24 179.02 797.77 179.64 796.85 181.59C795.22 185.03 793.8 188.57 792.96 192.31C792.05 196.38 791.36 200.48 791.28 204.66V204.65Z" fill="#325266"/>
<path d="M771.17 202.99C772.18 208.33 774.12 213.34 776.33 218.28C776.68 219.07 777.86 220.11 776.54 220.83C775.4 221.46 774.21 220.88 773.55 219.7C769.9 213.2 767.4 206.32 766.16 198.91C765.37 194.19 766.18 189.57 766.13 184.91C766.36 183.67 766.68 182.43 766.79 181.18C766.97 179.22 768.12 178.86 769.81 179.01C771.8 179.19 771.2 180.66 771.09 181.68C770.6 186 770.03 190.3 770.05 194.66C770.06 197.49 770.52 200.24 771.17 202.98V202.99Z" fill="#325266"/>
<path d="M724.82 201.89C726 208.9 728.67 215.41 731.48 221.88C731.84 222.72 733.23 223.8 731.77 224.63C730.51 225.34 729.88 224.05 729.33 223.11C724.68 215.25 721.78 206.73 719.89 197.83C718.77 192.54 717.47 187.27 717.71 181.8C717.75 180.82 717.51 179.73 718.89 179.42C720.93 179.24 721.55 180.04 721.64 182.19C721.94 188.86 722.87 195.46 724.82 201.88V201.89Z" fill="#325266"/>
<path d="M753.76 203.49C754.92 209.23 755.94 215 757.63 220.61C757.82 221.23 758.13 221.89 757.11 222.03C755.98 222.19 755.11 222.12 754.58 220.72C752.8 216.06 751.56 211.26 750.5 206.42C749.08 199.94 748.79 193.37 749.83 186.78C749.95 186.01 750.14 185.14 749.42 184.48C749.8 183.38 750.34 182.31 750.53 181.18C750.86 179.2 752.02 178.56 753.78 179.03C755.66 179.53 754.84 181.13 754.66 182.19C753.85 186.92 752.92 191.63 753.19 196.46C753.32 198.81 753.57 201.14 753.77 203.49H753.76Z" fill="#325266"/>
<path d="M739.55 204.06C740.97 209.67 742.97 215.09 744.73 220.59C744.97 221.33 746.18 222.47 744.66 223.08C743.37 223.6 742.78 222.62 742.3 221.5C737.12 209.28 733.32 196.74 733.45 183.3C733.66 182.23 733.93 181.18 734.07 180.1C734.22 178.91 735.06 179.02 735.88 178.99C736.9 178.95 737.43 179.4 737.34 180.44C737.18 182.33 736.86 184.22 736.84 186.12C736.78 191.78 737.95 197.27 739.3 202.72C739.41 203.16 739.46 203.61 739.54 204.06H739.55Z" fill="#325266"/>
<path d="M942.42 202.64C942.46 210.93 934.94 218.48 927.64 218.16C918.82 217.77 913.57 212.76 913.67 203.47C913.76 195.14 917.96 187.97 927.82 188.17C935.37 188.33 943.06 195.75 942.42 202.64Z" fill="#47748F"/>
<path d="M69 109.05L68.93 108.91L69.09 108.92L69 109.05Z" fill="#649ABB"/>
<path d="M927.58 218.82C936.124 218.82 943.05 211.764 943.05 203.06C943.05 194.356 936.124 187.3 927.58 187.3C919.036 187.3 912.11 194.356 912.11 203.06C912.11 211.764 919.036 218.82 927.58 218.82Z" fill="url(#paint0_radial_38_55)"/>
<path d="M927.64 215.2C934.157 215.2 939.44 209.774 939.44 203.08C939.44 196.386 934.157 190.96 927.64 190.96C921.123 190.96 915.84 196.386 915.84 203.08C915.84 209.774 921.123 215.2 927.64 215.2Z" fill="url(#paint1_linear_38_55)"/>
<path d="M924.25 210.19C926.818 210.19 928.9 207.24 928.9 203.6C928.9 199.96 926.818 197.01 924.25 197.01C921.682 197.01 919.6 199.96 919.6 203.6C919.6 207.24 921.682 210.19 924.25 210.19Z" fill="black"/>
<path d="M923.33 202.94C924.335 202.94 925.15 202.161 925.15 201.2C925.15 200.239 924.335 199.46 923.33 199.46C922.325 199.46 921.51 200.239 921.51 201.2C921.51 202.161 922.325 202.94 923.33 202.94Z" fill="white"/>
<defs>
<radialGradient id="paint0_radial_38_55" cx="0" cy="0" r="1" gradientUnits="userSpaceOnUse" gradientTransform="translate(927.58 203.06) scale(15.62 15.62)">
<stop stop-color="#1B2F38"/>
<stop offset="0.68" stop-color="#1B2F38"/>
<stop offset="0.8" stop-color="#1B2F38"/>
<stop offset="0.92" stop-color="#365A6E"/>
<stop offset="1" stop-color="#47748F"/>
</radialGradient>
<linearGradient id="paint1_linear_38_55" x1="927.64" y1="214.28" x2="927.64" y2="191.77" gradientUnits="userSpaceOnUse">
<stop stop-color="#C9B444"/>
<stop offset="1"/>
</linearGradient>
</defs>
</svg>
