<svg width="1046" height="357" viewBox="0 0 1046 357" fill="none" xmlns="http://www.w3.org/2000/svg">
<g>
<path d="M746.96 203.67C748.32 192.51 749.64 181.68 751 170.48C748.21 176.67 745.51 182.67 742.8 188.66C742.55 188.6 742.31 188.53 742.06 188.47V179.47H736.81L736.74 178.71C737.6 178.71 738.47 178.64 739.32 178.73C740.19 178.82 741.04 179.07 742.01 179.27C744.02 172.381 745.781 165.607 750.453 160.21C750.731 159.888 751.02 159.572 751.32 159.26C747.39 166.29 744.45 173.64 743.56 181.72C747.329 174.419 750.296 166.641 756.379 160.79C756.704 160.478 757.037 160.171 757.38 159.87C746.47 187.45 745.38 214.2 762.11 239.79L762.114 239.789C762.502 239.719 762.891 239.65 763.27 239.57C762.14 236.23 761.39 232.69 759.79 229.6C755.87 222.02 754.35 213.91 753.28 205.59C751.43 191.2 753.28 177.36 758.96 164.04C759.515 162.729 760.283 161.503 761.041 160.21C761.225 159.895 761.41 159.575 761.59 159.25C763.34 160.41 763.24 161.44 762.68 162.98C761.09 167.4 759.75 171.92 758.4 176.42C758.13 177.31 758.23 178.3 758.35 179.29C761.12 173.2 763.44 166.93 767.79 161.8C768.08 161.93 768.36 162.05 768.65 162.18C768.24 163.14 767.84 164.11 767.42 165.07C764.84 170.85 762.24 176.62 759.72 182.43C759.45 183.06 759.68 183.9 759.68 184.54C758.99 186.3 758.25 188.16 757.51 190.03C757.14 189.96 756.77 189.9 756.4 189.83V181.49C756.08 181.47 755.76 181.45 755.43 181.43C755.01 184.7 754.59 187.97 754.14 191.5C756.06 191.71 757.64 191.88 759.22 192.05C759.22 192.2 759.22 192.36 759.23 192.51C758.07 192.51 756.89 192.42 755.75 192.55C755.27 192.61 754.84 193.13 754.39 193.44C754.85 193.74 755.28 194.23 755.77 194.3C756.75 194.44 757.76 194.34 758.8 194.72C757.44 194.92 756.08 195.13 754.56 195.36V199.58C755.64 199.7 756.6 199.8 757.72 199.93C756.56 200.13 755.58 200.3 754.59 200.47L754.61 201.25C756.86 201.35 759.11 201.45 761.35 201.56C761.35 201.66 761.35 201.76 761.35 201.86C759.29 201.98 757.23 202.1 755.05 202.22V205.53C757.47 205.65 759.88 205.78 762.29 205.9C762.29 205.99 762.29 206.07 762.29 206.16H755.31C755.39 207.34 755.46 208.29 755.54 209.53H762.46C762.46 209.64 762.46 209.74 762.46 209.85C760.32 209.96 758.18 210.07 755.73 210.19C756.07 212.29 756.35 214.04 756.63 215.75H764.6C761.68 216.14 759.43 216.44 757.18 216.74C756.84 218.95 757.68 219.75 759.87 219.55C761.94 219.36 764.04 219.51 766.15 219.7C763.55 219.99 760.95 220.27 758.17 220.58C758.08 222.14 758.41 223.04 760.38 222.8C761.66 222.64 763 222.94 764.3 223.53C762.66 223.63 761.02 223.73 759.09 223.84C760.51 227.57 763.69 225.05 765.6 226.23C764.11 226.38 762.53 226.54 760.93 226.71C760.87 229.98 762.93 229.83 764.98 229.77C766.88 229.72 768.79 229.76 770.72 230.15C768.05 230.35 765.38 230.56 762.74 230.76C762.72 233.06 763.65 233.84 765.75 233.66C767.91 233.48 770.1 233.62 772.29 233.87C769.46 234.15 766.62 234.43 763.81 234.7C763.88 239.01 764.21 239.34 768.15 239.43C769.69 239.46 771.23 239.6 772.77 240H765.5C765.61 241.16 765.7 242.09 765.85 243.64C764.62 243.14 763.58 243.01 763.03 242.43C761.23 240.54 759.11 238.72 758.01 236.44C755.23 230.65 752.74 224.7 750.54 218.67C749.74 216.48 748.96 215.49 746.63 215.93C745.49 216.14 744.3 216.07 743.05 216.13C743.26 219.81 746.23 217.53 747.56 218.61C746.43 218.67 745.27 218.73 744.11 218.79C744.18 223.72 744.99 224.58 750.55 225.12C748.61 225.25 747.29 225.33 745.98 225.42C745.83 225.68 745.68 225.94 745.53 226.2C746.68 227.07 747.84 227.93 748.69 228.58C748.72 228.58 748.04 228.72 747.06 228.94C748.34 232.5 749.56 235.89 750.77 239.28L749.8 239.9C749.02 239.19 748.11 238.57 747.48 237.74C741.95 230.54 738.53 222.28 735.68 213.75C735.42 212.98 735.12 212.22 734.85 211.45C733.863 208.683 731.77 207.833 728.57 208.9C729.5 209.25 730.44 209.59 731.26 209.9C730.7 209.97 729.91 210.06 729.14 210.15C728.51 213.51 728.8 213.77 733.95 214.18C732.64 214.37 731.59 214.53 730.47 214.7C730.92 218.01 733.53 216.14 734.98 216.92C734.04 217.15 733.08 217.39 732.01 217.66C732.13 220.32 733.34 221.54 735.98 221.35C735.1 221.48 734.23 221.6 733.35 221.73C733.29 222.02 733.23 222.31 733.17 222.6L737.24 223.64C737.18 223.44 737.12 223.24 737.06 223.04C735.78 223.81 733.81 224.31 733.4 225.41C732.92 226.68 733.58 228.56 734.14 230.02C734.85 231.87 736.02 233.54 736.85 235.36C737.13 235.98 736.96 236.81 737 237.54C736.28 237.34 735.29 237.37 734.88 236.9C732.2 233.84 729.24 230.92 727.12 227.5C722.14 219.47 720.38 210.38 719.37 201.1C719.03 197.98 718.57 194.71 717.31 191.89C714.23 185 714.22 178.35 717.68 171.72C719.99 167.3 722.46 162.97 724.91 158.62C725.33 157.87 726.01 157.26 726.57 156.59C726.78 156.72 726.98 156.84 727.19 156.97C726.75 157.75 726.27 158.51 725.88 159.31C722.96 165.24 719.94 171.12 717.2 177.13C715.84 180.11 715.73 183.46 717.12 186.42C720.45 193.56 720.91 201.29 722.24 208.85C723.74 217.37 726.91 225.2 732.68 232.18C731.14 225.59 731.45 219.1 728.06 213.02C725.54 208.5 725.38 202.66 724.15 197.41C723.26 193.62 722.47 189.81 721.38 186.08C720.11 181.75 719.88 177.74 722.28 173.57C725.27 168.39 727.74 162.91 730.47 157.58C730.61 157.299 730.829 157.059 731.13 156.859C731.387 156.688 731.703 156.545 732.08 156.43C731.76 157.7 731.44 158.96 731.13 160.21C734.824 162.435 735.483 158.283 737.636 156.92C737.902 156.752 738.19 156.626 738.51 156.56C734.98 162.08 731.57 167.4 728.16 172.73C728.45 172.93 728.73 173.12 729.02 173.32C733.31 167.46 737.05 161.12 742.79 156.51C742.98 156.65 743.17 156.78 743.36 156.92C743.05 157.49 742.81 158.13 742.4 158.62C740.97 160.39 739.61 162.23 738 163.82C731.22 170.56 730.33 179.07 731.09 187.84C732.43 203.27 738.16 217.38 744.93 231.12C745.32 231.91 745.86 232.63 746.53 233.26C744.7 227.41 742.78 221.58 741.06 215.7C738.76 207.88 736.24 200.09 734.48 192.14C731.91 180.54 734.77 170.01 742.28 160.79C742.698 160.279 743.191 159.829 743.818 159.5C744.135 159.333 744.487 159.197 744.88 159.1C742.55 162.8 740.22 166.5 737.71 170.5C738.85 170.75 739.57 170.91 740.3 171.07C736.99 171.09 736.39 173.33 736.28 176.07C737.35 176.38 738.45 176.69 739.54 177.01C739.53 177.11 739.51 177.22 739.5 177.32H735.96C735.7 178.59 735.47 179.71 735.2 181.07C736.64 181.19 737.88 181.29 739.11 181.39C739.12 181.46 739.14 181.54 739.15 181.61C737.97 181.79 736.79 181.98 735.44 182.19V185.37C736.57 185.31 737.6 185.26 738.62 185.2C738.64 185.34 738.66 185.49 738.68 185.63C737.65 185.84 736.63 186.05 735.6 186.26C735.453 187.74 737.157 188.473 740.71 188.46C738.76 188.89 737.46 189.17 736 189.49C735.6 191.16 735.78 192.13 738.05 191.89C740.29 191.65 742.58 191.84 743.95 191.84C742.08 192.06 739.32 192.37 736.56 192.69C736.64 194.057 738.43 194.833 741.93 195.02C740.25 195.34 738.73 195.63 737.26 195.91C737.03 198.87 739.18 197.98 740.7 198.28C739.79 198.55 739 198.79 738.03 199.09C738.27 200.05 738.48 200.9 738.72 201.82C739.4 201.71 740.01 201.62 740.69 201.51C740.66 201.7 740.67 201.86 740.61 201.94C740.16 202.46 739.7 202.97 739.23 203.48C739.86 203.74 740.51 204.24 741.13 204.21C743.21 204.12 745.28 203.83 746.95 203.66L746.96 203.67ZM723.89 189.29C724.24 191.82 725.27 192.16 729.88 190.81C729.33 190.08 728.65 189.34 727.88 189.24C726.55 189.07 725.18 189.3 723.82 189.37C725.67 189.04 727.51 188.71 729.5 188.36C729.41 187.45 729.29 186.24 729.18 185.06H722.68C723.11 188.44 726.06 186.15 727.45 187.69C726.24 187.69 725.25 187.59 724.3 187.76C724.09 187.8 724.03 188.75 723.9 189.29H723.89ZM747.67 203.9C744.87 204.45 742.42 204.92 739.98 205.4C739.98 205.62 739.99 205.84 740 206.06C740.81 206.21 741.61 206.35 742.62 206.54C741.72 206.73 741.06 206.87 740.34 207.03C740.63 207.98 740.86 208.74 741.13 209.63H745.98C745.98 209.68 745.98 209.74 745.98 209.79C744.5 210.03 743.03 210.26 740.79 210.62C743.42 214.09 746.34 211.58 748.95 212.7C748.48 209.48 748.1 206.84 747.68 203.91L747.67 203.9ZM733.29 207.54C732.7 205.47 732.2 203.71 731.69 201.92H726.76C726.26 204.81 729.03 203.73 730.25 204.77C729.22 205 728.47 205.17 727.55 205.37C728.75 208.23 731.07 207.12 733.29 207.54ZM721.65 180.47C721.69 180.88 721.74 181.29 721.78 181.69H729.22C729.43 179.63 729.62 177.74 729.82 175.85C729.62 175.79 729.42 175.72 729.22 175.66C728.4 177.05 727.59 178.45 726.74 179.9C725.18 180.07 723.42 180.27 721.66 180.47H721.65ZM749.34 215.91C749.193 213.41 746.73 212.683 741.95 213.73C743.94 216.76 746.81 215.12 749.34 215.91ZM727.63 171.72C723.55 171.28 724.02 174.67 722.52 176.72H726.15C726.66 175.01 727.11 173.49 727.63 171.72ZM726.32 194.3C726.28 194.42 726.23 194.54 726.19 194.65C726.44 194.73 726.7 194.8 726.95 194.89C727.02 194.92 727.08 194.97 726.9 194.86C726.43 195.37 725.94 195.9 725.45 196.42C726.12 196.79 726.76 197.36 727.48 197.49C728.49 197.68 729.55 197.54 730.69 197.54C730.47 196.31 730.31 195.35 730.12 194.3H726.32ZM725.79 198.08C725.75 198.31 725.72 198.54 725.68 198.77C726.74 199 727.8 199.23 729.09 199.51C727.81 199.76 726.86 199.95 725.91 200.14C725.97 200.38 726.04 200.62 726.11 200.86C727.8 201.02 729.5 201.19 731.51 201.38C731.22 200.14 730.99 199.15 730.74 198.08H725.79ZM725.83 170.84C729.86 171.04 728.96 167.15 730.62 165.43C729.56 165.46 728.39 165.59 727.97 166.22C727.08 167.55 726.59 169.13 725.83 170.84ZM729.49 182.33C726.62 182.62 724.38 182.84 722.13 183.06C722.13 183.32 722.13 183.58 722.13 183.85C724.34 184.07 726.55 184.33 728.77 184.43C728.94 184.43 729.17 183.31 729.49 182.33ZM729.13 164.38C731.77 165.2 732.52 163.57 733.21 161.72C730.74 160.96 729.5 161.9 729.13 164.38Z" fill="currentColor"/>
<path d="M796 165.07C794.42 168.26 792.83 171.45 791.25 174.64C791.37 174.69 791.49 174.74 791.61 174.79C794.54 171.13 797.46 167.47 800.39 163.81C800.72 164.05 801.06 164.29 801.39 164.53C800.87 165.38 800.47 166.33 799.82 167.07C790.51 177.74 786.32 190.37 786.11 204.31C786.01 210.99 785.92 217.86 787.31 224.33C789.7 235.43 796.45 243.67 806.83 248.72C810.15 250.33 813.34 250.74 816.66 248.75C818.82 247.46 821.09 246.34 823.31 245.15L823.02 244.48C820.57 245.38 818.09 246.2 815.68 247.19C812.92 248.33 810.43 248.33 807.64 246.91C802.18 244.15 797.92 240.38 795.11 234.88C791.43 227.68 787.26 220.62 787.98 212.13C788.5 206 789.55 199.93 790.21 193.81C791.4 182.75 797.44 174.45 805.14 167.07C805.552 166.671 806.008 166.321 806.544 166.04C806.814 165.898 807.105 165.774 807.42 165.67C802.88 171.66 797.55 177.07 794.42 184.35C795.97 184.44 797.26 184.52 798.6 184.6C797.01 185.62 794.11 183.45 793.56 187.11C795.14 187.43 796.61 187.72 798 188C796.29 189.05 792.47 186.39 792.7 191.34C795.26 191.48 797.74 191.61 800.23 191.74V192.1H792.33C792.06 193.38 791.83 194.42 791.54 195.81H801.24C801.24 195.98 801.24 196.15 801.25 196.32C798.73 196.49 796.2 196.7 793.68 196.82C790.92 196.94 790.89 196.94 791.22 200.12H799.53C799.53 200.33 799.53 200.55 799.54 200.76C797.55 200.76 795.56 200.74 793.57 200.76C791.343 200.78 790.357 202.093 790.61 204.7C795.58 204.12 800.55 203.54 805.52 202.97C805.55 203.19 805.57 203.41 805.6 203.62C800.51 204.35 795.42 205.08 789.97 205.86C789.9 206.88 789.82 208.08 789.7 209.81C793.89 209.39 797.8 209 801.72 208.61C801.74 208.75 801.76 208.89 801.78 209.03C797.9 209.64 794.02 210.25 789.91 210.89V214.06C792.85 213.7 795.75 213.35 798.64 212.99C798.66 213.1 798.69 213.22 798.71 213.33C796.24 213.81 793.75 214.21 791.33 214.84C790.68 215.01 790.21 215.91 789.66 216.47C789.85 216.67 790.04 216.86 790.24 217.06C793.97 216.56 797.7 216.06 801.42 215.56C801.49 215.79 801.56 216.01 801.63 216.24C797.99 217.73 794.36 219.22 790.72 220.71C790.61 220.93 790.5 221.15 790.38 221.38C791.19 221.7 792.08 222.4 792.8 222.27C795.8 221.7 798.75 220.87 801.71 220.14C801.8 220.34 801.89 220.55 801.97 220.75C798.85 222.11 795.73 223.47 792.34 224.96C792.68 225.92 793.02 226.87 793.42 227.99C797.14 226.76 800.62 225.6 804.11 224.44C804.17 224.58 804.24 224.73 804.3 224.87C801.1 226.48 797.91 228.08 794.71 229.69C794.97 230.877 796.09 231.513 798.07 231.6C797.29 231.92 796.56 232.22 795.3 232.74C796.77 234.17 798 235.36 799.22 236.55C799.36 236.37 799.5 236.19 799.63 236.01V238.91C800.77 238.83 801.92 238.76 803.46 238.66C802.32 239.11 801.52 239.43 800.72 239.74C800.75 239.95 800.77 240.16 800.8 240.36C803.61 239.96 806.43 239.57 809.24 239.17C809.28 239.28 809.32 239.38 809.36 239.49C807.17 240.17 804.98 240.85 802.85 241.51C806.13 245.62 811.31 247 816.27 245.12C818.64 244.22 821.06 243.44 823.51 242.81C824.25 242.62 825.17 243.13 826.01 243.33C825.72 244.11 825.62 245.08 825.1 245.64C819.2 251.95 810.27 252.96 803.09 248.54C788.05 239.27 783.37 225.19 784.07 208.48C784.44 199.66 785.68 191.09 788.54 182.6C790.15 177.8 790.59 172.55 793.11 167.98C793.77 166.79 794.66 165.73 795.45 164.61C795.63 164.76 795.81 164.9 795.98 165.05L796 165.07ZM796.55 217.7C791.64 217.31 790.53 217.75 790.76 219.73C792.72 219.04 794.64 218.37 796.55 217.7Z" fill="currentColor"/>
<path d="M777.61 211.51C776.23 211.61 774.89 211.72 773.4 211.83C773.48 212.87 773.54 213.75 773.61 214.78C774.56 214.91 775.43 215.03 776.04 215.12C775.37 215.62 774.55 216.23 773.73 216.84C773.86 217.13 774 217.41 774.13 217.7C775.08 217.7 776.04 217.76 776.99 217.68C777.87 217.61 778.74 217.4 779.69 217.62C778.05 218.03 776.4 218.45 774.77 218.86C775.163 220.673 776.95 221.707 780.13 221.96C778.9 222.24 777.66 222.52 776.36 222.81C776.73 226.36 779.13 224.39 781.41 224.35C779.88 225.11 778.88 225.6 777.89 226.09C777.93 226.29 777.98 226.5 778.02 226.7L781.92 226.02C781.96 226.11 781.99 226.2 782.03 226.29C780.98 226.7 779.93 227.12 778.88 227.53C779.227 228.703 780.787 229.33 783.56 229.41C782.27 229.83 781.19 230.19 780.12 230.54C780.13 230.7 780.15 230.85 780.16 231.01H784.79C783.17 231.53 782.12 231.86 781.07 232.2C780.89 235.17 783.17 233.87 784.79 234.28C783.85 234.71 783.15 235.03 782.44 235.35C782.933 237.21 784.587 237.917 787.4 237.47C786.1 238.11 785.27 238.52 783.63 239.33C785.26 240.36 786.54 241 787.6 241.9C788.27 242.46 788.46 243.6 789.13 244.14C791.24 245.86 793.53 247.35 795.65 249.07C796.26 249.56 796.5 250.51 796.91 251.24C796.11 251.43 795.27 251.89 794.51 251.78C788.03 250.85 782.76 247.78 779.52 242.05C773.85 232.03 768.44 221.91 765.38 210.64C760.99 194.43 762.04 178.91 769.81 163.94C770.21 163.17 770.68 162.43 771.12 161.67L771.123 161.671C771.342 161.751 771.561 161.83 771.77 161.91C771.47 162.82 771.22 163.74 770.87 164.63C767.11 174.02 763.54 183.51 764.32 193.84C765.28 206.55 768.72 218.63 774.83 229.88C776.69 233.31 778.44 236.8 780.36 240.2C782.47 243.94 785.41 246.85 789.44 248.51C790.39 248.9 791.41 249.13 792.59 249.49C792.46 249.04 792.46 248.91 792.41 248.87C781.17 242.24 776.86 230.61 773.17 219.43C769.5 208.3 766.45 196.59 767.99 184.46C768.99 176.63 771.42 169.27 775.37 162.42C775.82 161.64 776.24 160.84 776.67 160.05C777.05 160.34 777.43 160.63 777.82 160.92C775.73 165.69 773.65 170.46 771.47 175.43C772.45 175.71 773.01 175.87 772.97 175.86C772.27 176.54 771.4 177.39 770.12 178.64C771.66 178.96 772.42 179.13 773.55 179.36C772 180.2 769.27 179.71 770.41 182.75C770.96 182.84 771.64 182.95 772.07 183.02C771.3 183.66 770.37 184.43 769.45 185.2C769.62 185.45 769.78 185.71 769.95 185.96C771.29 186.07 772.63 186.18 773.97 186.28C773.97 186.33 773.97 186.37 773.97 186.42C772.65 186.51 771.32 186.59 769.83 186.69C769.76 187.56 769.71 188.33 769.62 189.47C772.99 189.69 776.21 189.91 779.43 190.12C779.43 190.21 779.43 190.3 779.43 190.38H769.78V193.59H780.43C780.43 193.8 780.43 194.01 780.43 194.22H769.95C769.81 194.51 769.66 194.8 769.52 195.09C770.25 195.59 770.94 196.43 771.73 196.53C774.23 196.86 776.77 196.93 779.29 197.51H770.27V200.67C772.5 200.78 774.73 200.89 777.48 201.02C774.93 201.33 772.88 201.57 770.7 201.84C770.37 205.51 773.64 203.5 775.2 204.73C773.87 204.83 772.85 204.91 771.75 204.99C771.46 206.88 772.23 207.37 773.98 207.3C776.11 207.21 778.25 207.44 780.37 208.01H772.53C772.4 212.45 775.85 210.47 777.61 211.5V211.51Z" fill="currentColor"/>
<path d="M789.96 163.42L789.959 163.422C786.08 171.781 782.21 180.14 778.35 188.47C774.907 183.823 777.518 168.695 782.199 163.94C782.454 163.682 782.714 163.454 782.98 163.26C779.73 169.73 777.6 176.42 778.77 183.82C781.632 177.063 784.221 170.175 789 164.509C789.31 164.141 789.63 163.779 789.959 163.422L789.961 163.42C789.964 163.416 789.967 163.413 789.97 163.41L789.961 163.42L789.96 163.42Z" fill="currentColor"/>
<path d="M810.37 174.24C813.34 171.51 816.3 168.77 819.27 166.04C819.36 166.12 819.45 166.21 819.54 166.29C815.31 171.4 811.07 176.5 806.74 181.72C805.838 178.111 810.871 168.582 815.249 165C815.967 164.413 816.667 163.985 817.32 163.77C815.68 165.7 814.27 167.13 813.14 168.76C811.98 170.43 811.09 172.3 810.08 174.08L810.36 174.24H810.37Z" fill="currentColor"/>
<path d="M713.47 164.52C714.41 161.02 715.08 157.4 718.3 154.88C717.53 156.61 716.77 158.35 716 160.08C716.13 160.15 716.26 160.23 716.39 160.3C718.26 158.86 720.14 157.42 722.01 155.98C722.23 156.23 723.28 155.73 723.5 155.98C720.67 158.75 717.01 162.27 714.17 165.05C713.94 164.87 713.7 164.69 713.47 164.51V164.52Z" fill="currentColor"/>
<path d="M767.79 161.8C768.08 161.93 768.36 162.05 768.65 162.18L769 161.67H771.12L771.123 161.671C771.342 161.751 771.561 161.83 771.77 161.91L774.5 161.67L776.67 160.05C777.05 160.34 777.43 160.63 777.82 160.92L778.5 162.42L782.199 163.94C782.454 163.682 782.714 163.454 782.98 163.26L786.5 161.67L789 162.42V164.509C789.31 164.141 789.63 163.779 789.959 163.422L789.96 163.42L789.961 163.42L789.97 163.41C789.967 163.413 789.964 163.416 789.961 163.42L790.5 163.26L795 164L795.45 164.61C795.63 164.76 795.81 164.9 795.98 165.05L796 165.07L797 164L800.39 163.81C800.72 164.05 801.06 164.29 801.39 164.53L806.544 166.04C806.814 165.898 807.105 165.774 807.42 165.67L815.249 165C815.967 164.413 816.667 163.985 817.32 163.77L819.27 166.04C819.36 166.12 819.45 166.21 819.54 166.29L820.5 164.5L815.249 160.5L719 152L718.3 154.88L722.01 155.98C722.23 156.23 723.28 155.73 723.5 155.98L726.57 156.59C726.78 156.72 726.98 156.84 727.19 156.97L727.97 156.43L731.13 156.859C731.387 156.688 731.703 156.545 732.08 156.43L737.636 156.92C737.902 156.752 738.19 156.626 738.51 156.56L740.5 155.5L742.79 156.51C742.98 156.65 743.17 156.78 743.36 156.92L743.818 159.5C744.135 159.333 744.487 159.197 744.88 159.1L748 158L750.5 158.62L750.453 160.21C750.731 159.888 751.02 159.572 751.32 159.26L752 158.5L756.5 159.25L756.379 160.79C756.704 160.478 757.037 160.171 757.38 159.87L757.5 159.5L761.041 160.21C761.225 159.895 761.41 159.575 761.59 159.25L767.79 161.8Z" fill="currentColor"/>
<path d="M810.37 174.24C813.34 171.51 816.3 168.77 819.27 166.04L817.32 163.77C815.68 165.7 814.27 167.13 813.14 168.76C811.98 170.43 811.09 172.3 810.08 174.08L810.36 174.24H810.37Z" fill="#AFC1C1"/>
<path d="M801.39 164.53C800.87 165.38 800.47 166.33 799.82 167.07C790.51 177.74 786.32 190.37 786.11 204.31C786.01 210.99 785.92 217.86 787.31 224.33C789.7 235.43 796.45 243.67 806.83 248.72C810.15 250.33 813.34 250.74 816.66 248.75C818.82 247.46 821.09 246.34 823.31 245.15L823.02 244.48C820.57 245.38 818.09 246.2 815.68 247.19C812.92 248.33 810.43 248.33 807.64 246.91C802.18 244.15 797.92 240.38 795.11 234.88C791.43 227.68 787.26 220.62 787.98 212.13C788.5 206 789.55 199.93 790.21 193.81C791.4 182.75 797.44 174.45 805.14 167.07C805.552 166.671 806.008 166.321 806.544 166.04L801.39 164.53Z" fill="#AFC1C1"/>
<path d="M796 165.07C794.42 168.26 792.83 171.45 791.25 174.64L791.61 174.79C794.54 171.13 797.46 167.47 800.39 163.81L797 164L796 165.07Z" fill="#AFC1C1"/>
<path d="M782.98 163.26C779.73 169.73 777.6 176.42 778.77 183.82C781.632 177.063 784.221 170.175 789 164.509V162.42L786.5 161.67L782.98 163.26Z" fill="#AFC1C1"/>
<path d="M771.77 161.91C771.47 162.82 771.22 163.74 770.87 164.63C767.11 174.02 763.54 183.51 764.32 193.84C765.28 206.55 768.72 218.63 774.83 229.88C776.69 233.31 778.44 236.8 780.36 240.2C782.47 243.94 785.41 246.85 789.44 248.51C790.39 248.9 791.41 249.13 792.59 249.49C792.46 249.04 792.46 248.91 792.41 248.87C781.17 242.24 776.86 230.61 773.17 219.43C769.5 208.3 766.45 196.59 767.99 184.46C768.99 176.63 771.42 169.27 775.37 162.42C775.82 161.64 776.24 160.84 776.67 160.05L774.5 161.67L771.77 161.91Z" fill="#AFC1C1"/>
<path d="M761.59 159.25C763.34 160.41 763.24 161.44 762.68 162.98C761.09 167.4 759.75 171.92 758.4 176.42C758.13 177.31 758.23 178.3 758.35 179.29C761.12 173.2 763.44 166.93 767.79 161.8L761.59 159.25Z" fill="#AFC1C1"/>
<path d="M757.38 159.87C746.47 187.45 745.38 214.2 762.11 239.79L762.114 239.789C762.502 239.719 762.891 239.65 763.27 239.57C762.14 236.23 761.39 232.69 759.79 229.6C755.87 222.02 754.35 213.91 753.28 205.59C751.43 191.2 753.28 177.36 758.96 164.04C759.515 162.729 760.283 161.503 761.041 160.21L757.5 159.5L757.38 159.87Z" fill="#AFC1C1"/>
<path d="M751.32 159.26C747.39 166.29 744.45 173.64 743.56 181.72C747.329 174.419 750.296 166.641 756.379 160.79L756.5 159.25L752 158.5L751.32 159.26Z" fill="#AFC1C1"/>
<path d="M743.36 156.92C743.05 157.49 742.81 158.13 742.4 158.62C740.97 160.39 739.61 162.23 738 163.82C731.22 170.56 730.33 179.07 731.09 187.84C732.43 203.27 738.16 217.38 744.93 231.12C745.32 231.91 745.86 232.63 746.53 233.26C744.7 227.41 742.78 221.58 741.06 215.7C738.76 207.88 736.24 200.09 734.48 192.14C731.91 180.54 734.77 170.01 742.28 160.79C742.698 160.279 743.191 159.829 743.818 159.5L743.36 156.92Z" fill="#AFC1C1"/>
<path d="M727.19 156.97C726.75 157.75 726.27 158.51 725.88 159.31C722.96 165.24 719.94 171.12 717.2 177.13C715.84 180.11 715.73 183.46 717.12 186.42C720.45 193.56 720.91 201.29 722.24 208.85C723.74 217.37 726.91 225.2 732.68 232.18C731.14 225.59 731.45 219.1 728.06 213.02C725.54 208.5 725.38 202.66 724.15 197.41C723.26 193.62 722.47 189.81 721.38 186.08C720.11 181.75 719.88 177.74 722.28 173.57C725.27 168.39 727.74 162.91 730.47 157.58C730.61 157.299 730.829 157.059 731.13 156.859L727.97 156.43L727.19 156.97Z" fill="#AFC1C1"/>
<path d="M718.3 154.88C717.53 156.61 716.77 158.35 716 160.08C716.13 160.15 716.26 160.23 716.39 160.3C718.26 158.86 720.14 157.42 722.01 155.98L718.3 154.88Z" fill="#AFC1C1"/>
</g>
</svg>
