<svg width="1046" height="357" viewBox="0 0 1046 357" fill="none" xmlns="http://www.w3.org/2000/svg">
<g>
<path d="M374.89 168.74C372.18 166.35 369.06 164.5 365.34 164.79C362.35 165.02 359.74 164.26 356.99 163.37C354.56 162.58 351.91 162.46 349.36 162.04C349.32 162.31 349.29 162.57 349.25 162.84C351.51 163.34 353.77 163.84 356.03 164.34C355.99 164.58 355.95 164.81 355.91 165.05H353.78C354.28 165.57 354.7 166.01 355.6 166.96C353.12 166.52 351.34 166.19 349.56 165.87C349.55 165.98 349.54 166.08 349.53 166.19C350.44 166.54 351.34 166.9 352.25 167.25C352.2 167.51 352.14 167.76 352.09 168.02H346.97C346.97 168.16 346.97 168.3 346.97 168.45C348.51 168.77 350.04 169.09 352.23 169.55C349.25 169.81 346.96 170.02 344.67 170.22C344.68 170.4 344.7 170.57 344.71 170.75C346.25 170.85 347.79 170.96 349.33 171.06C349.33 171.25 349.33 171.44 349.32 171.63C348 171.98 346.68 172.33 345.36 172.67L345.42 173.04C346.79 173.1 348.17 173.17 349.54 173.23C349.58 173.51 349.62 173.79 349.66 174.08C347.39 174.51 345.12 174.94 342.84 175.38C342.86 175.54 342.87 175.7 342.89 175.86H347.71C347.71 175.97 347.71 176.09 347.71 176.2C345.71 176.58 343.71 176.95 341.71 177.33C341.74 177.54 341.77 177.74 341.81 177.95C348.3 177.53 354.82 177.32 361.28 176.6C365.48 176.13 369.63 175.01 373.75 173.95C377.4 173.01 377.76 171.27 374.9 168.75L374.89 168.74ZM357 165.61C357.16 165.09 358.12 164.94 359.14 165.26C360.16 165.58 360.84 166.26 360.68 166.78C360.52 167.3 359.56 167.45 358.54 167.13C357.52 166.81 356.84 166.13 357 165.61ZM353.85 168.08C354.01 167.56 354.97 167.41 355.99 167.73C357.01 168.05 357.69 168.73 357.53 169.25C357.37 169.77 356.41 169.92 355.39 169.6C354.37 169.28 353.69 168.6 353.85 168.08ZM353.9 170.57C354.96 170.57 355.83 171.01 355.83 171.55C355.83 172.09 354.97 172.53 353.9 172.53C352.83 172.53 351.97 172.09 351.97 171.55C351.97 171.01 352.83 170.57 353.9 170.57ZM352.66 175.64C351.6 175.64 350.73 175.2 350.73 174.66C350.73 174.12 351.59 173.68 352.66 173.68C353.73 173.68 354.59 174.12 354.59 174.66C354.59 175.2 353.73 175.64 352.66 175.64ZM354.59 176.52L354.591 176.518C357.431 171.738 359.061 166.69 364.62 166.08C369.08 165.6 372.62 168.11 375.95 171.83C369.083 174.719 362.127 174.89 354.591 176.518C354.588 176.518 354.584 176.519 354.58 176.52H354.59Z" fill="currentColor"/>
<path d="M364.62 166.08C359.061 166.69 357.431 171.738 354.591 176.518C362.127 174.89 369.083 174.719 375.95 171.83C372.62 168.11 369.08 165.6 364.62 166.08Z" fill="#AFC1C1"/>
<path d="M352.66 175.64C351.6 175.64 350.73 175.2 350.73 174.66C350.73 174.12 351.59 173.68 352.66 173.68C353.73 173.68 354.59 174.12 354.59 174.66C354.59 175.2 353.73 175.64 352.66 175.64Z" fill="#AFC1C1"/>
<path d="M353.9 170.57C354.96 170.57 355.83 171.01 355.83 171.55C355.83 172.09 354.97 172.53 353.9 172.53C352.83 172.53 351.97 172.09 351.97 171.55C351.97 171.01 352.83 170.57 353.9 170.57Z" fill="#AFC1C1"/>
<path d="M353.85 168.08C354.01 167.56 354.97 167.41 355.99 167.73C357.01 168.05 357.69 168.73 357.53 169.25C357.37 169.77 356.41 169.92 355.39 169.6C354.37 169.28 353.69 168.6 353.85 168.08Z" fill="#AFC1C1"/>
<path d="M357 165.61C357.16 165.09 358.12 164.94 359.14 165.26C360.16 165.58 360.84 166.26 360.68 166.78C360.52 167.3 359.56 167.45 358.54 167.13C357.52 166.81 356.84 166.13 357 165.61Z" fill="#AFC1C1"/>
</g>
</svg>
