<svg width="1046" height="357" viewBox="0 0 1046 357" fill="none" xmlns="http://www.w3.org/2000/svg">
<g>
<path d="M701.38 152.44C702.24 151.65 702.86 151.18 703.35 150.61C705.59 148.01 709.98 147.08 712.44 148.72C714.8 150.3 714.79 153.33 713.4 157.13C710.77 164.35 708.47 171.69 706.32 179.06C705.9 180.49 706.72 182.33 707.12 183.94C707.73 186.45 708.51 188.91 709.13 191.42C709.58 193.25 709.49 195.33 710.33 196.92C713.56 203.01 716.81 209.12 720.55 214.91C725.3 222.26 732.06 227.1 740.62 229.4C742.21 229.83 743.7 230.94 744.99 232.02C747.46 234.09 750.15 235.36 753.4 235.35C757.23 235.33 760.49 236.74 763.21 239.39C766.17 242.29 769.51 244.36 773.54 245.68C775.97 246.48 778.3 248.4 780 250.4C783.13 254.08 781.23 258.66 776.47 258.92C773.35 259.09 770.17 258.38 767.05 257.93C763.28 257.38 759.56 256.4 755.78 256.14C753.65 255.99 751.33 256.64 749.29 257.41C746.45 258.49 743.85 260.21 741 261.26C739.86 261.68 738.05 261.52 737.02 260.87C729.78 256.32 722.37 252.29 714.2 249.5C708.58 247.58 703.95 243.92 702.96 237.36C702.79 236.22 702.78 234.94 703.13 233.86C704.4 229.97 703.46 226.55 701.39 223.24C700.57 221.94 699.87 220.55 699.24 219.14C698.88 218.33 698.32 217.16 698.64 216.59C700.17 213.83 698.69 211.51 697.88 209.08C694.17 197.99 693.2 187.03 698.44 176C700.61 171.44 701.86 166.45 703.59 161.68C704.43 159.38 704.38 157.3 702.79 155.28C702.14 154.46 701.83 153.37 701.38 152.42V152.44ZM775.29 257.38C776.23 256.97 778.47 256.71 779.18 255.52C780.37 253.54 778.99 251.49 777.3 250.07C776.06 249.03 774.76 247.71 773.29 247.37C768.44 246.26 764.84 243.36 761.41 240.05C759.23 237.95 756.58 236.78 753.54 236.9C749.97 237.05 747.01 235.79 744.3 233.59C743.05 232.58 741.68 231.41 740.19 231.04C731 228.74 723.91 223.47 718.86 215.65C715.13 209.87 711.89 203.75 708.73 197.63C707.78 195.8 707.91 193.42 707.43 191.32C706.93 189.15 706.24 187.03 705.72 184.86C705.27 182.97 704.34 180.94 704.67 179.17C705.53 174.56 706.82 170.02 708.22 165.53C709.4 161.73 711.15 158.1 712.24 154.27C712.57 153.12 711.67 150.51 711.06 150.42C709.25 150.14 707.13 150.42 705.46 151.19C703.81 151.96 704.46 153.68 704.88 155.28C705.41 157.28 705.94 159.59 705.45 161.5C704.36 165.79 702.65 169.92 701.16 174.1C699.2 179.62 696.17 184.8 696.28 190.95C696.4 197.27 697.43 203.37 699.61 209.32C700.34 211.31 701.18 213.72 700.67 215.59C700.17 217.45 700.57 218.62 701.32 220.02C702.35 221.94 703.7 223.77 704.3 225.81C704.94 228 705.51 230.55 705 232.66C703.81 237.51 705.02 241.36 708.74 244.33C710.97 246.11 713.5 247.72 716.16 248.68C722.42 250.94 728.46 253.44 733.9 257.39C738.42 260.68 741.62 260.71 746.07 257.21C749.96 254.15 754.04 253.72 758.62 254.56C763.88 255.52 769.16 256.34 775.29 257.36V257.38Z" fill="currentColor"/>
<path d="M702.1 194.11C704.18 202.74 706.27 211.37 708.35 220C705.5 217.47 701.06 200.59 702.1 194.11Z" fill="currentColor"/>
<path d="M755.06 246.32C759.16 247.84 763.26 249.36 767.35 250.88C762.57 251.24 758.58 249.35 754.76 246.97C754.86 246.75 754.96 246.54 755.05 246.32H755.06Z" fill="currentColor"/>
<path fill-rule="evenodd" clip-rule="evenodd" d="M775.29 257.38C776.23 256.97 778.47 256.71 779.18 255.52C780.37 253.54 778.99 251.49 777.3 250.07C776.06 249.03 774.76 247.71 773.29 247.37C768.44 246.26 764.84 243.36 761.41 240.05C759.23 237.95 756.58 236.78 753.54 236.9C749.97 237.05 747.01 235.79 744.3 233.59C743.05 232.58 741.68 231.41 740.19 231.04C731 228.74 723.91 223.47 718.86 215.65C715.13 209.87 711.89 203.75 708.73 197.63C707.78 195.8 707.91 193.42 707.43 191.32C706.93 189.15 706.24 187.03 705.72 184.86C705.27 182.97 704.34 180.94 704.67 179.17C705.53 174.56 706.82 170.02 708.22 165.53C709.4 161.73 711.15 158.1 712.24 154.27C712.57 153.12 711.67 150.51 711.06 150.42C709.25 150.14 707.13 150.42 705.46 151.19C703.81 151.96 704.46 153.68 704.88 155.28C705.41 157.28 705.94 159.59 705.45 161.5C704.36 165.79 702.65 169.92 701.16 174.1C699.2 179.62 696.17 184.8 696.28 190.95C696.4 197.27 697.43 203.37 699.61 209.32C700.34 211.31 701.18 213.72 700.67 215.59C700.17 217.45 700.57 218.62 701.32 220.02C702.35 221.94 703.7 223.77 704.3 225.81C704.94 228 705.51 230.55 705 232.66C703.81 237.51 705.02 241.36 708.74 244.33C710.97 246.11 713.5 247.72 716.16 248.68C722.42 250.94 728.46 253.44 733.9 257.39C738.42 260.68 741.62 260.71 746.07 257.21C749.96 254.15 754.04 253.72 758.62 254.56C763.88 255.52 769.16 256.34 775.29 257.36V257.38ZM702.1 194.11C704.18 202.74 706.27 211.37 708.35 220C705.5 217.47 701.06 200.59 702.1 194.11ZM767.35 250.88C763.26 249.36 759.16 247.84 755.06 246.32H755.05C754.96 246.54 754.86 246.75 754.76 246.97C758.58 249.35 762.57 251.24 767.35 250.88Z" fill="#AFC1C1"/>
</g>
</svg>
