<svg width="1046" height="357" viewBox="0 0 1046 357" fill="none" xmlns="http://www.w3.org/2000/svg">
<g>
<path d="M1027.61 202.65C1024.5 200.17 1021.23 197.79 1017.72 195.95C999.74 186.49 980.85 179.26 961.22 174.05C951.33 171.43 941.26 169.46 931.31 167.05C930.17 166.77 928.89 165.8 928.27 164.78C923.05 156.2 908.43 154.83 901.76 162.37C899.17 165.29 896.53 168.17 893.82 170.99C892.01 172.88 889.94 173.69 887.2 172.71C884.37 171.7 881.49 171.79 878.98 173.9C874.88 177.35 870.73 180.74 866.66 184.23C866.19 184.63 865.72 185.56 865.88 186.03C866.04 186.51 866.95 186.92 867.59 187.03C869.55 187.37 871.58 187.39 873.51 187.85C876.9 188.66 878.18 191.79 876.52 194.86C874.41 198.75 871.23 200.67 866.7 200.29C862.94 199.97 859.24 200.69 856.56 203.36C851.81 208.1 847.3 213.11 842.93 218.21C840.62 220.91 840.05 224.07 842.7 227.02C840.11 231.98 840.5 237.54 843.73 241.03C844.27 241.62 845.24 241.81 846.02 242.19C845.978 242.126 845.937 242.063 845.896 242C845.845 241.921 845.794 241.843 845.744 241.765C841.869 235.74 841.448 232.295 844.35 227.78C845.93 227.98 847.51 228.19 849.65 228.46C848.943 232.269 848.279 235.892 847.61 239.5C847.55 239.823 847.49 240.147 847.43 240.47C847.597 240.317 847.756 240.16 847.908 240C848.551 239.326 849.065 238.598 849.47 237.833C849.737 237.33 849.956 236.81 850.134 236.28C850.722 234.523 850.849 232.649 850.71 230.84C850.37 226.39 852.81 224.72 856.14 223.21C867.67 217.98 879.59 213.97 891.92 211.12C895.17 210.37 898.13 210.62 901.15 212.09C904.28 213.62 907.52 215.63 910.84 215.9C916.1 216.32 920.41 218.03 924.48 221.24C930.87 226.28 936.31 226.13 942.8 221.11C943.88 220.28 945 219.46 945.91 218.46C947.37 216.84 948.99 216.39 951.04 217.09C953.61 217.97 956.22 218.72 958.8 219.57C961.91 220.6 964.98 221.23 967.91 218.91C971.65 222.52 975.26 219.94 979.75 218.35C978.92 220.82 978.76 222.9 977.68 224.2C975.86 226.38 973.64 228.39 971.23 229.9C967.84 232.03 964.4 231.43 961.62 228.48C959.63 226.37 957.79 226.38 955.67 228.02C952.97 230.12 949.92 230.76 946.67 229.87C937.38 227.32 928.17 228.57 918.88 230.01C910.94 231.24 903.14 233.72 894.91 232.83C891.04 232.41 887.1 232.55 883.2 232.53C882.277 232.53 881.354 232.798 880.437 233C880.291 233.032 880.145 233.063 880 233.09C880.02 233.36 880.03 233.62 880.05 233.89C880.367 233.912 880.684 233.934 881 233.956C883.56 234.134 886.097 234.311 888.42 234.48C889.18 237.01 888.27 239.7 891.25 241.66C891.03 238.96 890.86 236.87 890.68 234.68C894.6 234.68 898.13 234.71 901.66 234.67C902.97 234.66 904.15 234.52 904.58 236.28C904.67 236.64 906.12 236.97 906.82 236.79C907.71 236.56 908.47 235.81 909.3 235.28C910.85 238.46 911.21 238.45 915.58 235.27C919.44 240.09 920 233.72 922.29 233.26C923.87 237.27 924.3 237.38 927.73 234.68C928.69 233.93 929.64 233.17 930.75 232.31C931 233.19 931.14 233.71 931.3 234.22C932.3 237.51 933.24 237.8 936.08 235.66C937.06 234.92 938 234.14 938.84 233.47C941.53 238.63 943.09 232.79 944.67 233C945.42 234.37 945.86 236.21 946.69 236.41C947.67 236.64 948.99 235.47 950.15 234.87C950.38 234.75 950.52 234.47 950.74 234.31C952.96 232.62 955.13 230.86 957.45 229.32C957.97 228.98 959.23 229.09 959.75 229.5C966.06 234.47 970.96 234.22 976.82 228.72C979.94 225.79 981.32 222.24 981.06 218.62C985.77 217.19 990.05 215.89 994.5 214.53C996.36 217 999.42 217.81 1002.69 217.74C1011.93 217.55 1019.93 213.83 1027.32 208.61C1030.05 206.68 1030.25 204.76 1027.65 202.68L1027.61 202.65ZM906.68 236.1L904.89 234.75L908.46 234.23L906.67 236.1H906.68ZM911.7 236.61L910.76 234.23L914.84 232.79L911.7 236.61ZM919.84 233.56C919.39 234.11 918.96 234.68 918.52 235.24C918.29 235.18 918.06 235.12 917.83 235.06C917.71 234.19 917.59 233.32 917.44 232.17C918.86 231.96 919.9 231.81 921.5 231.57C920.76 232.45 920.3 233 919.85 233.56H919.84ZM924.89 234.75C924.59 233.45 924.37 232.48 924.07 231.18C925.97 230.91 927.69 230.67 929.41 230.43C929.45 230.62 929.49 230.81 929.54 231C928.09 232.17 926.64 233.33 924.89 234.75ZM933.65 235.15C933.16 233.22 932.83 231.93 932.45 230.41H939.21C937.2 232.13 935.63 233.46 933.65 235.15ZM941.06 234.75L939.78 232.79L940.46 230.44L943.35 231.17L941.05 234.76L941.06 234.75ZM947.27 235.24C947.27 235.24 945.48 234.39 946.84 232.01C946.84 232.01 949.99 233.03 951.95 232.01C953.91 230.99 947.27 235.24 947.27 235.24ZM966.41 218.12C964.46 218.12 962.42 218.49 960.57 218.04C957.26 217.24 954.07 215.95 950.86 214.87C953.01 212.44 954.53 212.33 957.47 213.77C958.94 214.49 960.79 214.39 962.41 214.86C963.91 215.3 965.34 216.01 966.8 216.6C966.67 217.11 966.54 217.62 966.42 218.13L966.41 218.12ZM1025.69 207.31C1019.14 211.73 1012.13 215.07 1004.19 215.95C1001.15 216.29 998.29 215.63 995.98 213.2C995.36 212.54 993.74 212.35 992.75 212.61C988.84 213.63 985 214.9 981.14 216.12C978.9 216.83 976.65 217.53 974.44 218.36C972.07 219.25 970.18 218.9 968.81 216.65C967.13 213.9 964.67 212.84 961.47 212.86C957.17 212.89 955.66 210.72 957.2 206.75C957.96 204.8 957.66 203.36 956.05 202.22C954.17 200.9 953.51 199.14 953.31 196.9C952.94 192.66 951.41 191.43 947.09 191.48C945.91 191.49 944.72 191.56 943.57 191.78C939.56 192.54 935.76 192.74 932.03 190.36C928.68 188.22 924.97 188.61 921.3 190.06C916.32 192.02 915.95 191.78 913.97 186.74C913.73 186.12 913.34 185.57 912.65 184.32C911.31 187.82 912.98 189.96 914.15 192.5C913.15 193.45 912.08 194.46 910.55 195.91C910.55 194.57 910.78 193.77 910.49 193.27C910.17 192.7 909.42 192.13 908.79 192.03C907.61 191.83 906.38 191.97 904.64 191.97C904.64 192.01 904.26 193.21 904.64 193.52C905.5 194.23 906.71 194.51 908.14 195.12C909.27 198.58 910.48 198.86 913.73 195.87C918.77 191.24 926.76 190.32 932.91 193.34C934.69 194.21 936.89 194.43 938.92 194.55C940.52 194.64 942.14 194.07 943.77 193.89C950.82 193.12 950.94 193.27 951.38 199.13C951.48 200.55 952.66 202.2 953.82 203.17C955.94 204.93 955.25 206.15 953.37 207.01C949.83 208.63 946.23 210.19 942.53 211.39C938.24 212.78 933.83 213.88 929.43 214.89C924.93 215.92 921.6 213.69 918.55 210.68C917.22 209.36 915.67 208.2 914.04 207.28C913.21 206.81 911.99 207.05 910.6 206.94C914.21 209.93 917.11 212.69 920.37 214.95C924.96 218.14 929.93 218.23 935.14 216.14C941.03 213.78 947.04 211.75 953.02 209.62C953.52 209.44 954.13 209.6 954.91 209.6C954.68 210.17 954.65 210.49 954.49 210.6C950.78 213.15 947.05 215.67 943.34 218.21C942.97 218.47 942.65 218.8 942.3 219.09C936.14 224.14 932.08 224.36 925.7 219.53C921.34 216.22 916.63 214.35 911.12 214.38C909.92 214.38 908.53 213.98 907.55 213.29C901.44 208.95 895.05 207.93 887.73 210.1C877.28 213.2 866.75 216 856.96 220.9C854.33 222.22 852.11 224.35 849.47 225.62C848.24 226.21 846.35 225.94 844.97 225.46C844.18 225.19 843.24 223.62 843.37 222.79C843.61 221.27 844.31 219.61 845.32 218.45C849.26 213.93 853.32 209.51 857.49 205.2C859.73 202.88 862.72 201.95 865.93 202.03C868.88 202.11 871.54 201.57 874.31 200.3C878.42 198.42 882.96 198.29 885.81 203.89C886.36 204.98 887.06 205.99 887.82 207.24C889.73 202.74 884.7 197.84 878.12 197.39C878.66 195.8 879.19 194.25 879.85 192.32C890.67 195.31 899.88 188.37 910.19 187.38C906.37 186.32 902.74 187.14 899.14 188.15C896.35 188.93 893.61 190.13 890.77 190.44C887.22 190.83 883.59 190.52 880 190.48C879.68 190.48 879.14 190.31 879.06 190.09C877.56 185.93 873.86 185.77 870.36 185.22C870.1 185.18 869.86 185.04 869.1 184.76C873.01 181.51 876.49 178.3 880.32 175.6C881.75 174.59 883.99 174.62 885.88 174.43C886.82 174.34 887.83 174.8 888.78 175.08C893.6 176.48 898.02 175.86 902.3 173.08C905.41 171.06 908.83 169.51 912.32 167.64C911.58 167.54 910.38 166.99 909.56 167.34C906.65 168.58 903.9 170.18 901.03 171.53C898.92 172.53 896.73 173.36 894.58 174.27C894.48 174.03 894.38 173.78 894.28 173.54C897.92 169.54 901.55 165.55 905.19 161.55C905.25 161.48 905.32 161.42 905.39 161.37C909.85 157.78 922.38 159.7 925.34 164.6C926.82 167.06 928.24 168.44 931.49 168.93C938.72 170.03 945.82 172.08 952.94 173.88C974.39 179.31 995.17 186.6 1014.88 196.73C1018.73 198.71 1022.25 201.34 1025.87 203.75C1027.64 204.93 1027.44 206.16 1025.71 207.33L1025.69 207.31Z" fill="currentColor"/>
<path d="M1025.69 207.31C1019.14 211.73 1012.13 215.07 1004.19 215.95C1001.15 216.29 998.29 215.63 995.98 213.2C995.36 212.54 993.74 212.35 992.75 212.61C988.84 213.63 985 214.9 981.14 216.12C978.9 216.83 976.65 217.53 974.44 218.36C972.07 219.25 970.18 218.9 968.81 216.65C967.13 213.9 964.67 212.84 961.47 212.86C957.17 212.89 955.66 210.72 957.2 206.75C957.96 204.8 957.66 203.36 956.05 202.22C954.17 200.9 953.51 199.14 953.31 196.9C952.94 192.66 951.41 191.43 947.09 191.48C945.91 191.49 944.72 191.56 943.57 191.78C939.56 192.54 935.76 192.74 932.03 190.36C928.68 188.22 924.97 188.61 921.3 190.06C916.32 192.02 915.95 191.78 913.97 186.74C913.73 186.12 913.34 185.57 912.65 184.32C911.31 187.82 912.98 189.96 914.15 192.5C913.15 193.45 912.08 194.46 910.55 195.91C910.55 194.57 910.78 193.77 910.49 193.27C910.17 192.7 909.42 192.13 908.79 192.03C907.61 191.83 906.38 191.97 904.64 191.97C904.64 192.01 904.26 193.21 904.64 193.52C905.5 194.23 906.71 194.51 908.14 195.12C909.27 198.58 910.48 198.86 913.73 195.87C918.77 191.24 926.76 190.32 932.91 193.34C934.69 194.21 936.89 194.43 938.92 194.55C940.52 194.64 942.14 194.07 943.77 193.89C950.82 193.12 950.94 193.27 951.38 199.13C951.48 200.55 952.66 202.2 953.82 203.17C955.94 204.93 955.25 206.15 953.37 207.01C949.83 208.63 946.23 210.19 942.53 211.39C938.24 212.78 933.83 213.88 929.43 214.89C924.93 215.92 921.6 213.69 918.55 210.68C917.22 209.36 915.67 208.2 914.04 207.28C913.21 206.81 911.99 207.05 910.6 206.94C914.21 209.93 917.11 212.69 920.37 214.95C924.96 218.14 929.93 218.23 935.14 216.14C941.03 213.78 947.04 211.75 953.02 209.62C953.52 209.44 954.13 209.6 954.91 209.6C954.68 210.17 954.65 210.49 954.49 210.6C950.78 213.15 947.05 215.67 943.34 218.21C942.97 218.47 942.65 218.8 942.3 219.09C936.14 224.14 932.08 224.36 925.7 219.53C921.34 216.22 916.63 214.35 911.12 214.38C909.92 214.38 908.53 213.98 907.55 213.29C901.44 208.95 895.05 207.93 887.73 210.1C877.28 213.2 866.75 216 856.96 220.9C854.33 222.22 852.11 224.35 849.47 225.62C848.24 226.21 846.35 225.94 844.97 225.46C844.18 225.19 843.24 223.62 843.37 222.79C843.61 221.27 844.31 219.61 845.32 218.45C849.26 213.93 853.32 209.51 857.49 205.2C859.73 202.88 862.72 201.95 865.93 202.03C868.88 202.11 871.54 201.57 874.31 200.3C878.42 198.42 882.96 198.29 885.81 203.89C886.36 204.98 887.06 205.99 887.82 207.24C889.73 202.74 884.7 197.84 878.12 197.39C878.66 195.8 879.19 194.25 879.85 192.32C890.67 195.31 899.88 188.37 910.19 187.38C906.37 186.32 902.74 187.14 899.14 188.15C896.35 188.93 893.61 190.13 890.77 190.44C887.22 190.83 883.59 190.52 880 190.48C879.68 190.48 879.14 190.31 879.06 190.09C877.56 185.93 873.86 185.77 870.36 185.22C870.1 185.18 869.86 185.04 869.1 184.76C873.01 181.51 876.49 178.3 880.32 175.6C881.75 174.59 883.99 174.62 885.88 174.43C886.82 174.34 887.83 174.8 888.78 175.08C893.6 176.48 898.02 175.86 902.3 173.08C905.41 171.06 908.83 169.51 912.32 167.64C911.58 167.54 910.38 166.99 909.56 167.34C906.65 168.58 903.9 170.18 901.03 171.53C898.92 172.53 896.73 173.36 894.58 174.27C894.48 174.03 894.38 173.78 894.28 173.54C897.92 169.54 901.55 165.55 905.19 161.55C905.25 161.48 905.32 161.42 905.39 161.37C909.85 157.78 922.38 159.7 925.34 164.6C926.82 167.06 928.24 168.44 931.49 168.93C938.72 170.03 945.82 172.08 952.94 173.88C974.39 179.31 995.17 186.6 1014.88 196.73C1018.73 198.71 1022.25 201.34 1025.87 203.75C1027.64 204.93 1027.44 206.16 1025.71 207.33L1025.69 207.31Z" fill="#AFC1C1"/>
<path d="M966.41 218.12C964.46 218.12 962.42 218.49 960.57 218.04C957.26 217.24 954.07 215.95 950.86 214.87C953.01 212.44 954.53 212.33 957.47 213.77C958.94 214.49 960.79 214.39 962.41 214.86C963.91 215.3 965.34 216.01 966.8 216.6C966.67 217.11 966.54 217.62 966.42 218.13L966.41 218.12Z" fill="#AFC1C1"/>
<path d="M849.65 228.46C847.51 228.19 845.93 227.98 844.35 227.78C841.448 232.295 841.869 235.74 845.744 241.765L847.61 239.5C848.279 235.892 848.943 232.269 849.65 228.46Z" fill="#AFC1C1"/>
<path d="M856.14 223.21C852.81 224.72 850.37 226.39 850.71 230.84C850.849 232.649 850.722 234.523 850.134 236.28L856.14 232.79L856.881 233.209L858 233L864.088 236.14L869.995 236.252L876 233L878.12 232.17L880.437 233C881.354 232.798 882.277 232.53 883.2 232.53C887.1 232.55 891.04 232.41 894.91 232.83C903.14 233.72 910.94 231.24 918.88 230.01C928.17 228.57 937.38 227.32 946.67 229.87C949.92 230.76 952.97 230.12 955.67 228.02C957.79 226.38 959.63 226.37 961.62 228.48C964.4 231.43 967.84 232.03 971.23 229.9C973.64 228.39 975.86 226.38 977.68 224.2C978.76 222.9 978.92 220.82 979.75 218.35C975.26 219.94 971.65 222.52 967.91 218.91C964.98 221.23 961.91 220.6 958.8 219.57C956.22 218.72 953.61 217.97 951.04 217.09C948.99 216.39 947.37 216.84 945.91 218.46C945 219.46 943.88 220.28 942.8 221.11C936.31 226.13 930.87 226.28 924.48 221.24C920.41 218.03 916.1 216.32 910.84 215.9C907.52 215.63 904.28 213.62 901.15 212.09C898.13 210.62 895.17 210.37 891.92 211.12C879.59 213.97 867.67 217.98 856.14 223.21Z" fill="#AFC1C1"/>
<path d="M903.42 227.24C908.11 224.37 913.39 224.35 918.65 224.28L918.81 225.03C913.76 226.02 908.71 227.01 903.66 228.01C903.58 227.75 903.5 227.5 903.42 227.24Z" fill="currentColor"/>
<path d="M910.43 220.15C907.33 220.7 904.23 221.26 901.12 221.81C903.73 218.83 907.08 219.34 910.35 219.43C910.38 219.67 910.4 219.91 910.43 220.15Z" fill="currentColor"/>
<path d="M883.01 223.02C881.65 224.53 880.28 226.04 878.89 227.58C877.97 225.85 879.52 223.96 883.01 223.02Z" fill="currentColor"/>
<path d="M968.05 182.27C972.18 187.85 978.06 190.33 984.38 191.82C988.25 192.73 992.23 193.28 996.19 193.68C1002.49 194.32 1008.17 196.52 1013.32 200.08C1015.83 201.81 1015.65 203.52 1012.96 205.01C1012.02 205.54 1010.98 205.92 1009.95 206.27C1008.94 206.62 1007.9 206.84 1006.09 207.33C1008.96 207.88 1011.1 208.28 1013.23 208.69C1013.2 208.94 1013.17 209.19 1013.15 209.44C1009.4 209.71 1005.53 209.71 1002.06 208.15C998.63 206.61 995.49 204.38 992.34 202.27C989.63 200.46 987.05 198.44 984.48 196.43C982.02 194.5 979.34 194.41 976.5 195.2C973.27 196.1 970.04 197.01 966.81 197.91C960.97 199.52 954.1 193.86 952.85 188.32C954.33 189.57 955.47 190.23 956.21 191.2C960.02 196.16 964.74 197.16 970.46 194.93C973.03 193.93 975.74 193.28 978.51 192.44C968.46 186.94 966.8 185.39 968.05 182.27ZM985.17 194.37C989.91 197.76 993.87 200.95 998.17 203.58C1002.69 206.34 1009.31 205.48 1012.52 202.25C1004.87 195.51 995.1 196.05 985.17 194.37Z" fill="currentColor"/>
<path d="M969.71 211.03C969.71 206.05 973.94 202.16 979.68 202.16C983.77 202.16 987.53 203.58 990.75 206.1C993.54 208.28 993.21 210.9 989.98 212.45C988.37 213.23 986.6 213.76 984.85 214.16C981.36 214.95 977.83 215.59 974.31 216.24C971.5 216.76 969.71 214.7 969.71 211.03ZM980.03 203.46C979.94 203.68 979.84 203.91 979.75 204.13C974.32 204.15 970.54 208.29 971.93 212.6C972.52 214.43 973.42 214.65 975.2 214.11C977.84 213.3 980.61 212.92 983.32 212.32C985.08 211.93 986.9 211.67 988.56 211.03C990.98 210.11 991.25 208.67 989.07 207.45C986.2 205.85 983.05 204.77 980.02 203.46H980.03Z" fill="currentColor"/>
<path d="M927.48 175.38C930.6 174.26 933.97 173.6 936.96 175.36C939.39 176.78 941.7 177.05 944.22 176.55C948.62 175.67 952.32 176.26 955.51 179.93C956.79 181.41 959.22 181.95 961.19 182.76C962.39 183.25 963.71 183.45 964.9 184.06C960.89 185.04 957 184.86 954.18 181.65C951.49 178.6 948.63 177.44 944.58 178.31C941.6 178.95 938.51 178.93 935.73 176.86C934.79 176.16 933.13 176.34 931.79 176.26C930.38 176.17 928.95 176.24 927.53 176.24C927.51 175.96 927.49 175.67 927.48 175.39V175.38Z" fill="currentColor"/>
<path d="M934.69 183.24C936.94 181.31 943.03 181.73 946.99 184.49C942.43 184.03 938.58 183.64 934.69 183.24Z" fill="currentColor"/>
</g>
</svg>
