<svg width="1046" height="357" viewBox="0 0 1046 357" fill="none" xmlns="http://www.w3.org/2000/svg">
<g>
<path d="M728.99 239.49C731.13 239.04 733.42 237.66 734.43 240.87C738.99 239.93 742.74 241.75 744.3 245.81C744.58 246.54 744.28 248 743.71 248.46C738.97 252.28 733.91 255.43 727.75 256.68C723.88 257.47 720.08 258.84 716.4 260.32C711.39 262.33 706.49 264.64 701.6 266.94C692.99 270.98 684.52 275.32 675.83 279.17C664.07 284.38 652.25 289.49 640.29 294.21C624.79 300.33 609.17 306.18 593.49 311.84C583.26 315.53 572.85 318.71 562.49 322.04C560.88 322.56 559.13 322.77 557.43 322.86C556.75 322.9 555.51 322.33 555.45 321.9C555.35 321.18 555.82 320.21 556.34 319.61C556.98 318.88 557.9 318.37 558.75 317.86C576.91 306.89 595.05 295.89 613.25 285C618.55 281.83 624.07 279.04 629.41 275.95C630.67 275.22 631.56 273.89 632.71 272.94C634.16 271.73 635.59 270.46 637.2 269.5C641.12 267.15 645.48 265.56 648.62 261.89C649.9 260.4 652.01 259.46 653.91 258.68C662.38 255.19 670.88 251.77 679.44 248.51C681.76 247.63 684.33 247.42 686.77 246.86C687.34 246.73 687.87 246.45 688.4 246.2C692.95 244.02 697.47 241.78 702.06 239.69C702.79 239.36 704.17 239.33 704.68 239.79C706.69 241.62 708.43 240.46 710.28 239.68C711.53 239.15 712.79 238.58 714.09 238.24C715.02 238 716.53 237.66 716.95 238.12C718.84 240.18 720.45 238.7 722.2 238.09C724.76 237.19 727.19 237.09 729 239.52L728.99 239.49ZM632.43 277.61C633.39 276.98 634.28 276.21 635.31 275.75C640.55 273.42 645.83 271.16 651.09 268.88C650.09 268.64 649.18 268.69 648.38 269.01C643.76 270.86 639.08 272.61 634.58 274.72C631.96 275.95 629.63 277.78 627.17 279.34C625.94 280.01 624.72 280.7 623.47 281.35C619.02 283.67 614.52 285.9 610.13 288.34C608.53 289.23 607.19 290.6 605.73 291.75C605.331 291.89 604.942 292.029 604.543 292.169L604.54 292.17C601.72 293.92 598.88 295.64 596.08 297.42C594.75 298.26 593.49 299.22 592.2 300.12C591.79 300.46 591.43 300.87 590.98 301.11C585.95 303.8 580.88 306.41 575.89 309.17C573.06 310.73 570.36 312.52 567.6 314.2C567.77 314.54 567.93 314.88 568.1 315.22C598.91 302.34 629.72 289.47 660.54 276.59C660.45 276.24 660.36 275.89 660.27 275.53C658.53 275.79 656.64 275.7 655.08 276.37C635.65 284.65 616.27 293.04 596.87 301.39C592.33 303.34 587.78 305.26 583.24 307.2C583.63 306.54 584.17 306.24 584.73 306C608.37 295.83 632.02 285.65 655.67 275.5C657.12 274.88 658.59 274.38 657.49 272.51C655.34 273.38 653.28 274.22 651.22 275.05C652.15 274.47 653.07 273.88 654.23 273.16C653.36 272.47 652.57 271.85 651.78 271.22L651.818 271.174L651.824 271.167L653.33 269.36C653.21 269.2 653.09 269.03 652.97 268.87C646.13 271.78 639.28 274.7 632.44 277.61H632.43ZM558.05 320.31C556.73 320.92 556.83 321.55 558.21 321.62C559.35 321.68 560.56 321.38 561.67 321.02C572.78 317.38 583.9 313.75 594.97 309.97C598.62 308.72 602.13 307.06 605.71 305.58C596.76 308.01 588.07 311.1 579.3 313.95C572.25 316.24 565.11 318.22 558 320.34C561.86 319.05 565.68 317.64 569.58 316.5C602.16 306.98 632.81 292.69 663.48 278.58C662.6 276.77 661.32 276.78 659.54 277.58C656.07 279.15 652.49 280.46 648.98 281.92C622.94 292.76 596.92 303.64 570.87 314.44C567.2 315.96 563.39 317.13 559.69 318.58C559.02 318.84 558.58 319.72 558.04 320.31H558.05ZM700.85 251.76C703.9 253.89 706.2 255.62 708.65 257.11C709.33 257.52 710.68 257.6 711.3 257.19C714.77 254.89 718.12 252.4 721.51 249.97C723.88 248.28 724.92 246.15 723.83 243.35C714.85 242.32 707.86 246.17 700.85 251.75V251.76ZM740.46 249.85C740.458 249.848 740.455 249.845 740.452 249.843C738.848 248.357 738.159 247.459 737.25 246.94C736.35 246.42 735.19 245.94 734.22 246.05C731.5 246.35 728.82 246.97 726.85 247.33C721.55 251.5 716.58 255.42 711.61 259.33C711.8 259.63 711.99 259.94 712.18 260.24C713.13 259.93 714.09 259.64 715.03 259.31C718.87 258 722.74 256.75 726.55 255.33C730.988 253.671 735.376 251.862 740.452 249.843C740.455 249.842 740.458 249.841 740.46 249.84V249.85ZM690.72 264.42C688.98 264.08 686.97 264.28 685.97 263.36C684.58 262.08 683.67 262.36 682.45 263.12C677.06 266.46 671.63 269.75 666.31 273.21C665.12 273.99 664.33 275.39 662.94 276.97C668.01 276.77 687.07 267.9 690.71 264.42H690.72ZM619.85 299.09C619.97 299.38 620.08 299.67 620.2 299.97C635.58 294.12 650.96 288.27 666.34 282.42C666.16 282.18 665.98 281.94 665.8 281.7C665.799 281.694 665.799 281.688 665.799 281.682C665.709 280.598 665.62 279.514 665.53 278.5C650.32 285.36 635.08 292.23 619.85 299.09ZM666.79 279.8C667.02 280.17 667.26 280.53 667.49 280.9C678.16 277.2 688.17 271.96 698.9 267.2C698.08 266.69 697.87 266.44 697.65 266.44C695.44 266.42 693.23 266.39 691.03 266.47C690.45 266.49 689.86 266.79 689.32 267.07C683.01 270.25 676.68 273.39 670.44 276.69C669.06 277.42 668 278.75 666.79 279.8ZM680.03 259.47C678.92 260.17 678.05 260.78 677.12 261.3C672.22 264.03 667.28 266.69 662.4 269.48C660.78 270.4 658.79 271.4 659.79 273.76C659.9 274.01 662.74 273.54 663.96 272.81C669.58 269.51 675.07 266 680.57 262.6C680.41 261.65 680.23 260.62 680.03 259.48V259.47ZM712.48 242.46C711.2 242.28 709.67 241.57 708.53 241.98C703.19 243.9 697.95 246.11 692.69 248.25C692.09 248.5 691.56 248.94 690.28 249.73C694.14 250.76 697.48 252.01 700.38 250.51C704.55 248.35 708.27 245.32 712.47 242.46H712.48ZM673.91 257.88C668.26 261.08 662.7 264.13 657.26 267.4C655.97 268.17 655.13 269.69 654.08 270.86C654.35 271.15 654.62 271.45 654.9 271.74C654.909 271.735 654.917 271.73 654.926 271.725C661.857 267.76 668.789 263.795 675.7 259.83C675.3 259.39 674.76 258.8 673.91 257.87V257.88ZM671.3 257.69L671.298 257.685C671.219 257.447 671.139 257.208 671.06 256.98C668.93 257.08 666.51 256.55 664.74 257.4C660.67 259.36 656.91 261.96 653.05 264.34C651.87 265.07 650.75 265.92 649.61 266.71C649.75 266.95 649.88 267.19 650.02 267.42C657.99 266.12 664 260.5 671.29 257.69H671.3ZM676.01 257.78C681.28 260 684.53 256.02 689.15 254.36C687.68 253.03 686.53 252 685.27 250.86C682.15 253.13 678.17 254.11 676.01 257.77V257.78ZM687.34 262.26C693.09 263.94 696.86 259.84 701.93 257.78C695.28 255.26 691.57 259.53 687.34 262.26ZM686.25 248.21C686.11 247.93 685.97 247.66 685.83 247.38C679.82 249.8 673.82 252.22 667.81 254.64C667.92 254.91 668.03 255.19 668.14 255.46C675.14 255.49 680.61 251.62 686.25 248.21ZM694.39 256.48C693.21 254.21 691.51 254.3 689.93 255.13C687.62 256.34 685.44 257.8 683.26 259.24C682.67 259.63 682.28 260.32 681.52 261.19C687.13 261.93 690 257.42 694.38 256.48H694.39ZM704.79 260.32C701.66 258.95 694.37 262.07 692.67 265.52C697.77 266.16 701.12 262.97 704.79 260.32ZM634.18 272.59C634.33 272.93 634.49 273.26 634.64 273.6C638.8 271.91 642.97 270.25 647.09 268.47C647.59 268.25 647.8 267.37 648.14 266.79C647.95 266.58 647.77 266.37 647.58 266.16C642.37 266.74 638.54 270.22 634.18 272.59ZM704.65 241.59C700.87 239.94 690.97 244.18 689.48 247.98C694.57 245.84 699.35 243.82 704.65 241.59ZM700.55 265.31C700.68 265.54 700.81 265.76 700.94 265.99C703.96 264.49 707 263.04 709.96 261.44C710.33 261.24 710.28 260.28 710.42 259.67C709.71 259.51 708.73 258.97 708.34 259.25C705.68 261.18 703.14 263.28 700.56 265.32L700.55 265.31ZM648.13 264.22C648.27 264.48 648.42 264.74 648.56 264.99C652.68 262.69 656.81 260.38 660.93 258.08C660.82 257.87 660.71 257.67 660.59 257.46C656.26 259.39 651.29 260.1 648.12 264.21L648.13 264.22ZM725.18 242.19C726.17 244.64 726.88 246.03 728.81 245.04C729.33 244.77 729.4 243.64 729.67 242.9C728.38 242.7 727.09 242.49 725.18 242.19ZM700 252.86C699.94 252.62 699.89 252.38 699.83 252.14C698.43 252.14 697.02 252.03 695.64 252.2C695.17 252.26 694.78 253.02 694.35 253.46C694.84 253.81 695.44 254.54 695.82 254.44C697.25 254.06 698.62 253.41 700 252.87V252.86ZM739.22 244.78C738.99 245.23 738.76 245.69 738.54 246.14C739.8 246.77 741.06 247.4 742.32 248.03C742.53 247.5 742.97 246.54 742.9 246.51C741.71 245.87 740.46 245.34 739.22 244.78ZM739.95 243.55L739.91 242.67C738.21 242.03 736.45 240.91 734.83 244.1C736.8 243.89 738.37 243.72 739.95 243.55Z" fill="currentColor"/>
<path d="M605.73 291.75C619.76 285.38 633.79 279.01 647.82 272.66C649.115 272.077 650.489 271.659 651.824 271.167C651.839 271.161 651.855 271.156 651.87 271.15C651.853 271.158 651.835 271.166 651.818 271.174C642.525 275.506 633.253 279.878 623.94 284.16C617.71 287.03 611.44 289.79 605.18 292.59C605.04 292.65 604.81 292.67 604.7 292.6C604.602 292.541 604.59 292.319 604.543 292.169C604.542 292.166 604.541 292.163 604.54 292.16L605.73 291.74L605.73 291.75Z" fill="currentColor"/>
<path d="M594.51 299.85C595.24 299.37 595.92 298.77 596.71 298.42C613.97 290.87 631.24 283.35 648.52 275.84C649.42 275.45 650.4 275.25 651.34 274.96C646.13 277.42 640.99 280.02 635.7 282.3C622 288.22 608.25 294.01 594.51 299.85Z" fill="currentColor"/>
<path d="M558.05 320.31C556.73 320.92 556.83 321.55 558.21 321.62C559.35 321.68 560.56 321.38 561.67 321.02C572.78 317.38 583.9 313.75 594.97 309.97C598.62 308.72 602.13 307.06 605.71 305.58C596.76 308.01 588.07 311.1 579.3 313.95C572.25 316.24 565.11 318.22 558 320.34C561.86 319.05 565.68 317.64 569.58 316.5C602.16 306.98 632.81 292.69 663.48 278.58C662.6 276.77 661.32 276.78 659.54 277.58C656.07 279.15 652.49 280.46 648.98 281.92C622.94 292.76 596.92 303.64 570.87 314.44C567.2 315.96 563.39 317.13 559.69 318.58C559.02 318.84 558.58 319.72 558.04 320.31H558.05Z" fill="#AFC1C1"/>
<path fill-rule="evenodd" clip-rule="evenodd" d="M604.543 292.169L604.54 292.17C601.72 293.92 598.88 295.64 596.08 297.42C594.75 298.26 593.49 299.22 592.2 300.12C591.79 300.46 591.43 300.87 590.98 301.11C585.95 303.8 580.88 306.41 575.89 309.17C573.06 310.73 570.36 312.52 567.6 314.2C567.77 314.54 567.93 314.88 568.1 315.22C598.91 302.34 629.72 289.47 660.54 276.59C660.45 276.24 660.36 275.89 660.27 275.53C658.53 275.79 656.64 275.7 655.08 276.37C635.65 284.65 616.27 293.04 596.87 301.39C592.33 303.34 587.78 305.26 583.24 307.2C583.63 306.54 584.17 306.24 584.73 306C608.37 295.83 632.02 285.65 655.67 275.5C657.12 274.88 658.59 274.38 657.49 272.51C655.34 273.38 653.28 274.22 651.22 275.05C652.15 274.47 653.07 273.88 654.23 273.16C653.36 272.47 652.57 271.85 651.78 271.22L651.818 271.174C642.525 275.506 633.253 279.878 623.94 284.16C617.71 287.03 611.44 289.79 605.18 292.59C605.04 292.65 604.81 292.67 604.7 292.6C604.602 292.541 604.59 292.319 604.543 292.169ZM596.71 298.42C595.92 298.77 595.24 299.37 594.51 299.85C608.25 294.01 622 288.22 635.7 282.3C640.99 280.02 646.13 277.42 651.34 274.96C650.4 275.25 649.42 275.45 648.52 275.84C631.24 283.35 613.97 290.87 596.71 298.42Z" fill="#AFC1C1"/>
<path d="M619.85 299.09C619.97 299.38 620.08 299.67 620.2 299.97L666.34 282.42L665.8 281.7L665.799 281.682C665.709 280.598 665.62 279.514 665.53 278.5C650.32 285.36 635.08 292.23 619.85 299.09Z" fill="#AFC1C1"/>
<path d="M666.79 279.8C667.02 280.17 667.26 280.53 667.49 280.9C678.16 277.2 688.17 271.96 698.9 267.2C698.08 266.69 697.87 266.44 697.65 266.44C695.44 266.42 693.23 266.39 691.03 266.47C690.45 266.49 689.86 266.79 689.32 267.07C683.01 270.25 676.68 273.39 670.44 276.69C669.06 277.42 668 278.75 666.79 279.8Z" fill="#AFC1C1"/>
<path d="M690.72 264.42C688.98 264.08 686.97 264.28 685.97 263.36C684.58 262.08 683.67 262.36 682.45 263.12C677.06 266.46 671.63 269.75 666.31 273.21C665.12 273.99 664.33 275.39 662.94 276.97C668.01 276.77 687.07 267.9 690.71 264.42H690.72Z" fill="#AFC1C1"/>
<path d="M680.03 259.47C678.92 260.17 678.05 260.78 677.12 261.3C672.22 264.03 667.28 266.69 662.4 269.48C660.78 270.4 658.79 271.4 659.79 273.76C659.9 274.01 662.74 273.54 663.96 272.81C669.58 269.51 675.07 266 680.57 262.6C680.41 261.65 680.23 260.62 680.03 259.48V259.47Z" fill="#AFC1C1"/>
<path d="M673.91 257.88C668.26 261.08 662.7 264.13 657.26 267.4C655.97 268.17 655.13 269.69 654.08 270.86C654.35 271.15 654.62 271.45 654.9 271.74L654.926 271.725C661.857 267.76 668.789 263.795 675.7 259.83C675.3 259.39 674.76 258.8 673.91 257.87V257.88Z" fill="#AFC1C1"/>
<path d="M671.3 257.69L671.298 257.685C671.219 257.447 671.139 257.208 671.06 256.98C668.93 257.08 666.51 256.55 664.74 257.4C660.67 259.36 656.91 261.96 653.05 264.34C651.87 265.07 650.75 265.92 649.61 266.71C649.75 266.95 649.88 267.19 650.02 267.42C657.99 266.12 664 260.5 671.29 257.69H671.3Z" fill="#AFC1C1"/>
<path d="M648.13 264.22C648.27 264.48 648.42 264.74 648.56 264.99C652.68 262.69 656.81 260.38 660.93 258.08C660.82 257.87 660.71 257.67 660.59 257.46C656.26 259.39 651.29 260.1 648.12 264.21L648.13 264.22Z" fill="#AFC1C1"/>
<path d="M634.18 272.59C634.33 272.93 634.49 273.26 634.64 273.6C638.8 271.91 642.97 270.25 647.09 268.47C647.59 268.25 647.8 267.37 648.14 266.79C647.95 266.58 647.77 266.37 647.58 266.16C642.37 266.74 638.54 270.22 634.18 272.59Z" fill="#AFC1C1"/>
<path d="M632.43 277.61C633.39 276.98 634.28 276.21 635.31 275.75C640.55 273.42 645.83 271.16 651.09 268.88C650.09 268.64 649.18 268.69 648.38 269.01C643.76 270.86 639.08 272.61 634.58 274.72C631.96 275.95 629.63 277.78 627.17 279.34C625.94 280.01 624.72 280.7 623.47 281.35C619.02 283.67 614.52 285.9 610.13 288.34C608.53 289.23 607.19 290.6 605.73 291.75C619.76 285.38 633.79 279.01 647.82 272.66C649.115 272.077 650.489 271.659 651.824 271.167L653.33 269.36C653.21 269.2 653.09 269.03 652.97 268.87C646.13 271.78 639.28 274.7 632.44 277.61H632.43Z" fill="#AFC1C1"/>
<path d="M676.01 257.78C681.28 260 684.53 256.02 689.15 254.36C687.68 253.03 686.53 252 685.27 250.86C682.15 253.13 678.17 254.11 676.01 257.77V257.78Z" fill="#AFC1C1"/>
<path d="M686.25 248.21C686.11 247.93 685.97 247.66 685.83 247.38C679.82 249.8 673.82 252.22 667.81 254.64C667.92 254.91 668.03 255.19 668.14 255.46C675.14 255.49 680.61 251.62 686.25 248.21Z" fill="#AFC1C1"/>
<path d="M694.39 256.48C693.21 254.21 691.51 254.3 689.93 255.13C687.62 256.34 685.44 257.8 683.26 259.24C682.67 259.63 682.28 260.32 681.52 261.19C687.13 261.93 690 257.42 694.38 256.48H694.39Z" fill="#AFC1C1"/>
<path d="M687.34 262.26C693.09 263.94 696.86 259.84 701.93 257.78C695.28 255.26 691.57 259.53 687.34 262.26Z" fill="#AFC1C1"/>
<path d="M704.79 260.32C701.66 258.95 694.37 262.07 692.67 265.52C697.77 266.16 701.12 262.97 704.79 260.32Z" fill="#AFC1C1"/>
<path d="M700.55 265.31C700.68 265.54 700.81 265.76 700.94 265.99C703.96 264.49 707 263.04 709.96 261.44C710.33 261.24 710.28 260.28 710.42 259.67C709.71 259.51 708.73 258.97 708.34 259.25C705.68 261.18 703.14 263.28 700.56 265.32L700.55 265.31Z" fill="#AFC1C1"/>
<path d="M740.452 249.843C738.848 248.357 738.159 247.459 737.25 246.94C736.35 246.42 735.19 245.94 734.22 246.05C731.5 246.35 728.82 246.97 726.85 247.33C721.55 251.5 716.58 255.42 711.61 259.33C711.8 259.63 711.99 259.94 712.18 260.24C713.13 259.93 714.09 259.64 715.03 259.31C718.87 258 722.74 256.75 726.55 255.33C730.988 253.671 735.376 251.862 740.452 249.843Z" fill="#AFC1C1"/>
<path d="M700.85 251.76C703.9 253.89 706.2 255.62 708.65 257.11C709.33 257.52 710.68 257.6 711.3 257.19C714.77 254.89 718.12 252.4 721.51 249.97C723.88 248.28 724.92 246.15 723.83 243.35C714.85 242.32 707.86 246.17 700.85 251.75V251.76Z" fill="#AFC1C1"/>
<path d="M712.48 242.46C711.2 242.28 709.67 241.57 708.53 241.98C703.19 243.9 697.95 246.11 692.69 248.25C692.09 248.5 691.56 248.94 690.28 249.73C694.14 250.76 697.48 252.01 700.38 250.51C704.55 248.35 708.27 245.32 712.47 242.46H712.48Z" fill="#AFC1C1"/>
<path d="M704.65 241.59C700.87 239.94 690.97 244.18 689.48 247.98C694.57 245.84 699.35 243.82 704.65 241.59Z" fill="#AFC1C1"/>
<path d="M700 252.86C699.94 252.62 699.89 252.38 699.83 252.14C698.43 252.14 697.02 252.03 695.64 252.2C695.17 252.26 694.78 253.02 694.35 253.46C694.84 253.81 695.44 254.54 695.82 254.44C697.25 254.06 698.62 253.41 700 252.87V252.86Z" fill="#AFC1C1"/>
<path d="M725.18 242.19C726.17 244.64 726.88 246.03 728.81 245.04C729.33 244.77 729.4 243.64 729.67 242.9C728.38 242.7 727.09 242.49 725.18 242.19Z" fill="#AFC1C1"/>
<path d="M739.95 243.55L739.91 242.67C738.21 242.03 736.45 240.91 734.83 244.1C736.8 243.89 738.37 243.72 739.95 243.55Z" fill="#AFC1C1"/>
<path d="M739.22 244.78C738.99 245.23 738.76 245.69 738.54 246.14L742.32 248.03C742.53 247.5 742.97 246.54 742.9 246.51C741.71 245.87 740.46 245.34 739.22 244.78Z" fill="#AFC1C1"/>
</g>
</svg>
