<svg width="1046" height="357" viewBox="0 0 1046 357" fill="none" xmlns="http://www.w3.org/2000/svg">
<g>
<path d="M610.42 134.99C609.68 130.93 609.54 126.59 608.02 122.81C606.54 119.13 603.65 116.02 601.08 112.22C603.92 112.02 605.28 112.76 606.61 114.41C611.47 120.39 610.56 127.49 610.84 134.38C610.85 134.64 610.48 134.91 610.42 134.99Z" fill="#AFC1C1"/>
<path d="M613.81 133.26C611.75 126.07 613.18 117.88 607.69 111.58C612.11 113.02 613.62 116.61 614.02 120.47C614.46 124.67 614.12 128.95 613.81 133.26Z" fill="#AFC1C1"/>
<path d="M617.12 131.01C617.1 131.51 616.84 132 616.69 132.5L615.82 132.41C615.82 130.67 615.76 128.94 615.83 127.2C616.03 122.54 615.78 117.98 613.3 113.83C613.07 113.45 612.79 112.96 612.85 112.57C613 111.63 613.34 110.72 613.6 109.8C614.32 110.36 615.55 110.82 615.67 111.49C616.38 115.26 617 119.07 617.31 122.9C617.53 125.58 617.23 128.3 617.11 131L617.12 131.01Z" fill="#AFC1C1"/>
<path d="M619.99 127.14C619.95 128.83 619.68 130.51 619.14 132.22C617.68 124.59 620.76 116.53 616.48 109.18C616.89 109.04 617.31 108.89 617.72 108.75C618.54 110.1 619.99 111.43 620.06 112.82C620.31 117.58 620.1 122.37 619.99 127.14Z" fill="#AFC1C1"/>
<path d="M622.78 131.49C622.742 131.49 622.703 131.49 622.665 131.49C622.397 131.49 622.127 131.489 621.85 131.48V108.7H623.08C623.84 113.446 623.498 118.172 623.156 122.899C622.949 125.761 622.742 128.623 622.78 131.49Z" fill="#AFC1C1"/>
<path d="M626.31 128.27C626.25 129.37 625.75 130.45 624.9 131.45C623.48 123.81 626.02 116.34 624.87 108.1C628.72 111.64 626.38 115.09 626.51 118.26C626.64 121.59 626.48 124.94 626.31 128.27Z" fill="#AFC1C1"/>
<path d="M629.66 129.55C626.98 126.68 627.61 113.87 629.99 108.05H631.05C630.59 115.22 630.12 122.38 629.66 129.55Z" fill="#AFC1C1"/>
<path fill-rule="evenodd" clip-rule="evenodd" d="M685.668 93.3623C685.669 93.3682 685.669 93.3741 685.67 93.38L685.63 93.35C685.643 93.3541 685.656 93.3582 685.668 93.3623ZM683.217 90.3552C683.297 90.4874 683.378 90.6195 683.459 90.7517L683.46 90.7536C683.379 90.6208 683.298 90.488 683.217 90.3552ZM656.816 51.599C656.814 51.596 656.812 51.593 656.81 51.59H656.83C656.825 51.5934 656.821 51.5967 656.816 51.6001L656.816 51.599ZM649.194 41.7772C649.193 41.7748 649.191 41.7724 649.19 41.77H649.21C649.205 41.7724 649.199 41.7748 649.194 41.7772ZM642.981 34.7429L642.98 34.74H642.99C642.987 34.741 642.984 34.7419 642.981 34.7429ZM631.373 25.564L631.37 25.56H631.38C631.378 25.5615 631.375 25.5625 631.373 25.564ZM622.702 20.9142L622.7 20.91H622.71C622.707 20.9114 622.705 20.9128 622.702 20.9142ZM645.429 102.542L645.44 102.54L645.43 102.55C645.43 102.547 645.429 102.545 645.429 102.542ZM621.321 71.7251C621.317 71.7234 621.314 71.7217 621.31 71.72L621.32 71.7C621.32 71.7084 621.321 71.7167 621.321 71.7251ZM604.318 102.954L604.31 102.95H604.32L604.318 102.954ZM670.666 99.401C670.649 99.4023 670.632 99.4037 670.615 99.405C670.598 99.4064 670.582 99.4077 670.565 99.409C670.599 99.4063 670.632 99.4037 670.666 99.401Z" fill="#AFC1C1"/>
<path d="M633.95 127.16C633.86 127.93 633.27 128.65 632.91 129.39C632.56 129.29 632.21 129.19 631.87 129.09C631.21 121.68 631.8 114.35 633.49 107.11C633.8 107.04 634.12 106.97 634.43 106.91C634.86 107.98 635.72 109.08 635.65 110.12C635.23 115.81 634.61 121.49 633.96 127.16H633.95Z" fill="#AFC1C1"/>
<path d="M637.36 129.35C637.33 129.48 637.09 129.56 636.94 129.66C636.59 129.62 636.24 129.59 635.89 129.55C635.61 121.13 636.36 112.8 638.35 104.57C638.67 104.55 639 104.52 639.32 104.5C639.47 105.7 639.85 106.92 639.74 108.1C639.11 114.66 638.35 121.22 637.63 127.77C637.57 128.3 637.49 128.82 637.36 129.34V129.35Z" fill="#AFC1C1"/>
<path d="M642.96 128.16C640.99 120.86 642.32 113.85 645.02 106.99C645.1 106.79 645.44 106.7 646.11 106.28C645.501 114.266 644.912 121.923 644.293 129.967L644.293 129.969L644.293 129.976L644.29 130.01C643.82 129.37 643.15 128.83 642.97 128.16H642.96Z" fill="#AFC1C1"/>
<path d="M641.33 128.65C641.43 129.29 640.73 130.05 640.4 130.76C639.87 130.25 638.91 129.76 638.88 129.22C638.47 122.05 639.1 114.97 641.36 108.1C641.51 107.65 641.98 107.31 642.31 106.92C642.57 107.01 642.84 107.1 643.1 107.19L643.097 107.201C642.798 108.437 642.499 109.674 642.19 110.91C640.72 116.76 640.41 122.66 641.34 128.64L641.33 128.65Z" fill="#AFC1C1"/>
<path d="M649.41 106.47C648.75 114.64 648.15 122.13 647.51 130.08C644.75 126.4 645.93 111.47 649.41 106.47Z" fill="#AFC1C1"/>
<path d="M652.68 106.69C651.99 114.63 651.34 122.15 650.69 129.62C647.89 127.17 649.01 110.45 652.68 106.69Z" fill="#AFC1C1"/>
<path d="M654.3 124.23C654.15 125.28 654.5 126.39 654.42 127.46C654.35 128.4 653.98 129.31 653.75 130.24C653.4 130.17 653.04 130.1 652.69 130.03C651.91 122.35 652.24 114.77 654.71 107.37L655.7 107.13C655.98 107.9 656.57 108.72 656.47 109.44C655.82 114.38 654.98 119.29 654.3 124.22V124.23Z" fill="#AFC1C1"/>
<path d="M655.72 126.79C655.46 119.76 656.58 112.93 659.19 106.38C659.24 106.26 659.49 106.21 660.31 105.78C660.31 107.26 660.43 108.36 660.29 109.43C659.5 115.6 658.65 121.76 657.75 128.4C656.92 128.86 655.78 128.45 655.71 126.79H655.72Z" fill="#AFC1C1"/>
<path d="M662.28 129.09C662.02 129.26 661.76 129.42 661.5 129.59C660.99 128.92 660.1 128.28 660.04 127.57C659.85 125.17 659.74 122.72 659.98 120.32C660.39 116.27 661.07 112.24 661.7 108.22C661.85 107.3 662.27 106.41 662.57 105.51H663.27C663.47 106.18 663.99 106.96 663.81 107.51C661.51 114.57 661.97 121.83 662.27 129.09H662.28Z" fill="#AFC1C1"/>
<path d="M665.19 127.65C665.13 128.12 664.66 128.55 664.38 128.99C664.09 128.99 663.79 128.97 663.5 128.97C663.5 124.41 663.29 119.83 663.58 115.29C663.75 112.73 664.63 110.18 665.45 107.71C665.71 106.91 666.8 106.39 667.66 105.59C666.8 113.37 666.02 120.52 665.18 127.65H665.19Z" fill="#AFC1C1"/>
<path d="M669.75 129.39C667.92 129.82 667.02 129.2 666.87 127.16C666.34 119.85 667.49 112.83 670.47 106.06L669.75 129.39Z" fill="#AFC1C1"/>
<path d="M671.99 134.22L671.24 134.31L673.5 136H686.19L685.95 131.55C685.53 122.83 689.54 114.5 688.31 105.72C685.56 114.48 684.86 123.49 684.52 132.6C682.44 123.49 684.53 114.39 685.08 105.3C684.73 105.26 684.38 105.21 684.03 105.17C683.5 108.25 682.82 111.32 682.47 114.43C682.11 117.67 681.92 120.94 681.93 124.2C681.94 127.45 682.31 130.69 682.52 133.94C682.28 134.05 682.03 134.15 681.79 134.26C681.44 133.66 680.77 133.06 680.77 132.46C680.78 126.38 680.92 120.31 681 114.23C681.03 111.45 681 108.67 681 105.82C679.23 107.53 678.89 109 678.49 119.23C678.31 123.9 678.46 128.58 678.46 133.87C677.89 132.96 677.18 132.32 677.12 131.63L677.079 131.135C676.682 126.34 676.286 121.545 676.16 116.74C676.1 114.13 676.66 111.5 676.83 108.88C676.9 107.86 676.68 106.83 676.2 105.82C673.41 114.93 674.87 124.2 675.21 133.56C673.51 131.97 673.05 129 673.03 120.3C673.02 115.81 673.03 111.33 672.83 106.84C670.32 115.86 670.22 124.99 671.99 134.22Z" fill="#AFC1C1"/>
<path d="M688.79 103.34C687.58 100.41 686.65 98.17 685.5 95.41C689.24 96.38 690.18 98.8 688.79 103.34Z" fill="#AFC1C1"/>
<path d="M682 102.71C679.51 99.81 678.17 96.89 677.97 93.14C681.16 95.28 683.2 99.92 682 102.71Z" fill="#AFC1C1"/>
<path d="M673.88 92.19C676.84 95.09 677.79 98.91 678.71 102.73C675.12 100.07 673.99 96.35 673.88 92.19Z" fill="#AFC1C1"/>
<path d="M674.14 102.32C671.37 98.88 670.27 94.74 669.52 90.45C669.86 90.34 670.19 90.23 670.53 90.12L675 101.97C674.71 102.09 674.42 102.2 674.14 102.32Z" fill="#AFC1C1"/>
<path d="M666.29 90.37C667.64 93.06 669 95.74 670.35 98.43C667.32 97.97 665.59 94.42 666.29 90.37Z" fill="#AFC1C1"/>
<path d="M671.19 103.77L670.05 99.45C670.223 99.4364 670.394 99.4227 670.565 99.409L670.615 99.405L670.666 99.401L670.72 99.3966L671.18 99.36C671.61 100.77 672.05 102.19 672.48 103.6C672.05 103.66 671.62 103.72 671.19 103.77Z" fill="#AFC1C1"/>
<path d="M669.81 105C669.38 105.09 668.95 105.17 668.52 105.26L667.38 98.9C667.76 98.85 668.13 98.81 668.51 98.76C668.94 100.84 669.38 102.92 669.81 105Z" fill="#AFC1C1"/>
<path d="M686.18 102.35C683.66 100.44 682.73 97.72 682.37 94.72L682.373 94.7186C682.622 94.5891 682.871 94.4595 683.13 94.33C684.35 96.88 685.56 99.43 686.78 101.97C686.58 102.1 686.39 102.22 686.19 102.35H686.18Z" fill="#AFC1C1"/>
<path d="M661.67 91.25C662.02 91.11 662.36 90.96 662.71 90.82C664.02 93.26 665.93 95.46 665.72 98.47C665.39 98.6 665.06 98.73 664.74 98.86C663.72 96.32 662.69 93.79 661.67 91.25Z" fill="#AFC1C1"/>
<path d="M652.7 90.5C654.57 91.8 656.09 96.81 655.48 99.2C652.75 97.33 651.41 93.36 652.7 90.5Z" fill="#AFC1C1"/>
<path d="M657.9 98.7C657.08 95.98 656.25 93.26 655.43 90.53L656.75 90.14C657.54 92.87 658.32 95.61 659.11 98.34L657.91 98.7H657.9Z" fill="#AFC1C1"/>
<path d="M661.76 98.75C659.75 96.2 658.64 93.36 658.99 90.05C659.34 89.95 659.68 89.85 660.03 89.75C660.88 92.67 661.73 95.58 662.59 98.5C662.32 98.58 662.04 98.67 661.77 98.75H661.76Z" fill="#AFC1C1"/>
<path d="M661.15 104.52C661.49 104.53 661.84 104.55 662.18 104.56C662.1 102.923 662.03 101.287 661.95 99.65C661.53 99.63 661.12 99.61 660.7 99.59C660.85 101.23 661 102.88 661.15 104.52Z" fill="#AFC1C1"/>
<path d="M665.05 99.8C665.41 101.69 665.77 103.57 666.14 105.46C665.79 105.52 665.44 105.57 665.09 105.63C664.63 103.77 664.17 101.91 663.7 100.05C664.15 99.97 664.6 99.88 665.04 99.8H665.05Z" fill="#AFC1C1"/>
<path d="M657.61 106.02C657.08 103.73 656.69 102.01 656.21 99.93C658.49 100.92 658.84 102.62 657.61 106.02Z" fill="#AFC1C1"/>
<path fill-rule="evenodd" clip-rule="evenodd" d="M622.78 131.49C622.742 131.49 622.703 131.49 622.665 131.49C622.397 131.49 622.127 131.489 621.85 131.48V108.7H623.08C623.84 113.446 623.498 118.172 623.156 122.899" fill="#AFC1C1"/>
<path fill-rule="evenodd" clip-rule="evenodd" d="M685.51 91.79C684.79 87.51 683.89 83.6 678.81 81.98C677.08 81.43 675.23 79.8 674.22 77.5C672.14 72.78 670.1 67.82 666.92 63.86C664.06 60.3 661.98 56.23 659.08 52.85C655.71 48.93 652.22 45.19 649.14 40.99C647.76 39.1 646.13 37.14 644.55 35.27C643.84 34.44 642.52 33.26 641.83 33.46C640.16 33.95 640.07 32.77 639.42 32.01C638.63 31.09 637.47 29.41 636.9 29.58C635.22 30.06 635.24 28.82 634.56 28.13C633.27 26.83 631.85 25.64 630.37 24.56C629.71 24.08 628.65 24.15 627.97 23.68C626.41 22.61 625.03 21.3 623.47 20.22C622.87 19.8 622.01 19.75 621.27 19.52C621.06 20.25 620.67 20.99 620.67 21.72C620.67 22.85 620.94 23.98 621.13 25.34C620.63 24.98 620.37 24.67 620.05 24.58C619.01 24.28 617.94 24.05 616.88 23.8C616.63 24.96 616.1 26.14 616.2 27.26C616.32 28.57 617 29.83 617.28 30.66C613.41 37.54 618.91 42.57 619.81 48.01C619.24 48.8 618.19 49.64 618.33 50.16C619.44 54.38 620.78 58.55 622.09 62.85C619.03 64.39 621.15 67.09 621.78 69.62C618.75 70.63 619.57 72.9 620.08 75.03C615.98 74.47 615.93 74.66 618.12 80.28C616.79 80.54 615.4 80.81 614.01 81.09C614.44 82.43 614.87 83.77 615.12 84.55C614.35 85.83 613.71 86.89 613.07 87.95C612.27 88.67 611.05 89.73 611.24 90.39C611.58 91.57 612.77 92.51 613.68 93.64C611.71 94.1 608.65 91.52 608.71 95.86C607.2 96.05 605.65 96.19 606.46 98.46C606.59 98.81 606.35 99.48 606.05 99.76C604.63 101.13 603.15 102.44 601.67 103.74C600.73 104.56 599.74 105.31 598.78 106.11C598.13 106.65 596.95 107.25 596.98 107.77C597.03 108.59 597.78 109.48 598.45 110.12C599 110.66 599.86 110.89 600.58 111.25C600.38 111.38 600.17 111.51 599.97 111.64C600.93 113.37 601.61 115.33 602.89 116.77C606.29 120.58 608.37 124.87 608.64 129.97C608.76 132.1 608.66 134.24 608.66 137.16C610.52 136.11 611.63 135.12 612.9 134.83C618.34 133.58 623.88 132.73 629.27 131.33C631.55 130.74 633.49 130.5 635.8 131.2C637.69 131.78 639.84 131.59 641.87 131.57C644.69 131.54 647.52 131.43 650.33 131.18C652.02 131.03 654.17 132.3 655.29 129.84C655.35 129.71 655.96 129.8 656.31 129.83C658.52 129.99 660.75 130.02 662.92 130.37C664.62 130.64 666.48 128.89 668 130.8C668.57 130.34 669.13 129.87 669.7 129.41V129.43C670.21 131.06 670.72 132.68 671.24 134.31L671.99 134.22C670.22 124.99 670.32 115.86 672.83 106.84C673.03 111.33 673.02 115.81 673.03 120.3C673.05 129 673.51 131.97 675.21 133.56C674.87 124.2 673.41 114.93 676.2 105.82C676.68 106.83 676.9 107.86 676.83 108.88C676.66 111.5 676.1 114.13 676.16 116.74C676.286 121.545 676.682 126.34 677.079 131.135L677.12 131.63C677.18 132.32 677.89 132.96 678.46 133.87C678.46 128.58 678.31 123.9 678.49 119.23C678.89 109 679.23 107.53 681 105.82C681 108.67 681.03 111.45 681 114.23C680.92 120.31 680.78 126.38 680.77 132.46C680.77 133.06 681.44 133.66 681.79 134.26C682.03 134.15 682.28 134.05 682.52 133.94C682.31 130.69 681.94 127.45 681.93 124.2C681.92 120.94 682.11 117.67 682.47 114.43C682.82 111.32 683.5 108.25 684.03 105.17C684.38 105.21 684.73 105.26 685.08 105.3C684.53 114.39 682.44 123.49 684.52 132.6C684.86 123.49 685.56 114.48 688.31 105.72C689.54 114.5 685.53 122.83 685.95 131.55C686.71 128.42 687.39 125.26 687.63 122.07C688.06 116.34 691.11 110.9 689.54 104.94C689.45 104.61 689.85 104.14 690.04 103.74C692.334 98.9921 690.659 94.9706 685.668 93.3623L685.67 93.38L685.63 93.35L685.668 93.3623C685.62 92.8573 685.599 92.3139 685.51 91.79ZM684.49 90.16C683.22 88.03 681.96 85.89 680.69 83.76V83.75C680.31 83.96 679.94 84.17 679.56 84.38C680.785 86.3718 682.001 88.3635 683.217 90.3552L683.459 90.7517L683.46 90.7536L683.47 90.77C683.81 90.57 684.15 90.36 684.49 90.16ZM677.27 83.03C677.77 86.5 678.86 89.71 682.26 91.51C680.593 88.6947 678.936 85.8694 677.278 83.0442L677.276 83.0406L677.27 83.03ZM678.3 89.75C675.53 88.69 666.93 70.69 666.7 65.65C670.48 73.5 674.26 81.35 678.3 89.75ZM679.25 91.42C679.39 91.04 679.54 90.65 679.68 90.27C676.23 92.58 675.3 90.04 673.9 88.45C673.07 88.88 672.29 89.28 671.25 89.82C673.13 90.6 674.82 91.31 676.82 92.14C677.46 91.95 678.36 91.69 679.25 91.42ZM660.45 57.54C664.57 66.73 668.55 75.97 672.52 85.23C672.81 85.9 672.52 86.82 672.51 87.62C671.79 87.23 670.81 87.01 670.4 86.41C669.48 85.08 668.72 83.61 668.11 82.11C664.69 73.71 661.34 65.29 657.97 56.87C657.34 55.29 656.77 53.67 656.18 52.07C656.395 51.9134 656.601 51.7567 656.816 51.6001L656.816 51.599L656.81 51.59H656.83L656.816 51.6001C658.045 53.5763 659.502 55.4436 660.45 57.54ZM666.29 90.37C667.64 93.06 669 95.74 670.35 98.43C667.32 97.97 665.59 94.42 666.29 90.37ZM668.52 105.26C668.95 105.17 669.38 105.09 669.81 105C669.38 102.92 668.94 100.84 668.51 98.76C668.13 98.81 667.76 98.85 667.38 98.9L668.52 105.26ZM653.65 50.28C658.42 61.81 663.04 73.41 667.64 85.01C667.94 85.78 667.57 86.82 667.51 87.73C667.15 87.81 666.79 87.89 666.43 87.96C665.55 86.45 664.4 85.03 663.85 83.41C661.73 77.16 660.04 70.76 657.73 64.59C655.25 57.99 652.25 51.58 649.5 45.08C649.09 44.11 648.81 43.09 648.47 42.1C648.715 41.9924 648.95 41.8848 649.194 41.7772L649.19 41.77H649.21L649.194 41.7772C650.693 44.6046 652.431 47.3325 653.65 50.28ZM658.99 90.05C658.64 93.36 659.75 96.2 661.76 98.75H661.77C662.04 98.67 662.32 98.58 662.59 98.5C661.73 95.58 660.88 92.67 660.03 89.75C659.68 89.85 659.34 89.95 658.99 90.05ZM662.18 104.56C661.84 104.55 661.49 104.53 661.15 104.52C661 102.88 660.85 101.23 660.7 99.59C661.12 99.61 661.53 99.63 661.95 99.65C662.03 101.287 662.1 102.923 662.18 104.56V104.565V104.57V104.565V104.56ZM655.43 90.53C656.25 93.26 657.08 95.98 657.9 98.7H657.91L659.11 98.34C658.32 95.61 657.54 92.87 656.75 90.14L655.43 90.53ZM657.61 106.02C657.08 103.73 656.69 102.01 656.21 99.93C658.49 100.92 658.84 102.62 657.61 106.02ZM652.7 90.5C654.57 91.8 656.09 96.81 655.48 99.2C652.75 97.33 651.41 93.36 652.7 90.5ZM652.13 104.36C652.56 104.27 652.99 104.19 653.42 104.1C652.99 102.02 652.55 99.94 652.12 97.86C651.74 97.91 651.37 97.95 650.99 98L652.13 104.36ZM662.71 90.82C662.36 90.96 662.02 91.11 661.67 91.25C662.69 93.79 663.72 96.32 664.74 98.86C665.06 98.73 665.39 98.6 665.72 98.47C665.93 95.46 664.02 93.26 662.71 90.82ZM666.14 105.46C665.77 103.57 665.41 101.69 665.05 99.8H665.04C664.6 99.88 664.15 99.97 663.7 100.05C664.17 101.91 664.63 103.77 665.09 105.63C665.44 105.57 665.79 105.52 666.14 105.46ZM663.32 87.81C662.49 86.92 661.43 86.21 660.98 85.22C659.82 82.67 658.94 79.99 657.93 77.38C654.06 67.43 650.16 57.49 646.3 47.53C644.93 43.99 643.63 40.42 642.34 36.84C642.14 36.29 642.16 35.66 642.08 35.06C642.377 34.9511 642.684 34.8421 642.981 34.7429L642.98 34.74H642.99L642.981 34.7429C651.521 51.602 658.38 69.1511 663.32 87.81ZM659.99 87.73C653.8 68.08 645.6 49.51 637.95 30.72C637.54 30.86 637.12 31 636.71 31.14C637.24 33.02 637.66 34.94 638.3 36.78C642.66 49.35 646.99 61.93 651.51 74.44C653.01 78.59 654.96 82.59 656.84 86.6C657.49 87.99 658.65 88.83 659.99 87.73ZM634.66 30.58C638.97 42.4 643.04 54.31 647.32 66.14C649.72 72.77 652.38 79.31 654.92 85.9C655.17 86.55 655.41 87.2 655.81 88.29C652.883 88.1619 652.268 86.3541 651.676 84.6173L651.65 84.54C647.89 73.67 644.27 62.75 640.39 51.92C637.95 45.1 635.14 38.42 632.51 31.66C631.8 29.83 631.16 27.97 630.48 26.12C630.778 25.9315 631.075 25.7524 631.373 25.564L631.37 25.56H631.38C631.378 25.5615 631.375 25.5625 631.373 25.564C632.492 27.2325 633.991 28.7515 634.66 30.58ZM629.91 28.82C629.23 27.38 628.29 26.07 627.48 24.7C627.25 24.79 627.02 24.87 626.79 24.96C626.9 25.47 626.93 26 627.11 26.49C628.8 31.17 630.55 35.84 632.22 40.54C637.45 55.23 642.62 69.94 647.9 84.62C648.42 86.04 649.54 87.24 650.38 88.54C650.65 88.37 650.93 88.2 651.21 88.03C651.05 87.47 650.91 86.89 650.71 86.34C648.68 80.62 646.51 74.94 644.64 69.16C640.22 55.54 636.01 41.83 629.91 28.82ZM647.66 103.78C647.49 101.13 647.32 98.47 647.12 95.35C649.42 97.19 649.68 100.18 647.66 103.78ZM625.55 26.51C629.81 38.56 633.88 50.67 638.16 62.71C640.83 70.22 643.76 77.65 646.57 85.11C646.88 85.93 647.19 86.74 647.61 87.85C644.49 87.68 643.21 85.65 642.33 83.54C640.59 79.36 639.01 75.1 637.58 70.81C632.73 56.28 627.97 41.73 623.21 27.17C622.6 25.3 622.24 23.34 621.77 21.42L621.771 21.4194C622.078 21.251 622.385 21.0826 622.702 20.9142L622.7 20.91H622.71L622.702 20.9142C623.662 22.7727 624.861 24.5615 625.55 26.51ZM644.39 102.75L643 96.05L643.008 96.0482C643.455 95.9488 643.903 95.8494 644.34 95.75C644.7 98.0175 645.059 100.275 645.429 102.542L645.44 102.54L645.43 102.55L645.429 102.542L644.39 102.75ZM618.03 24.99C617.73 25.13 617.43 25.26 617.13 25.4C617.73 27.28 618.11 29.27 618.97 31.03C624.06 41.46 629.26 51.82 632.57 63.02C634.49 69.53 636.66 75.97 638.85 82.4C639.36 83.9 640.41 85.21 641.21 86.61C639.09 79.26 636.59 72.19 634.19 65.09C631.78 57.96 629.51 50.8 627.12 43.67C625.62 39.21 624.11 34.75 622.43 30.35C621.58 28.11 620.34 26.02 618.03 24.99ZM641.19 102.75L642.21 102.54C641.82 100.36 641.44 98.18 641.05 96C640.64 96.08 640.22 96.17 639.81 96.25C640.27 98.42 640.73 100.58 641.19 102.75ZM616.93 33.68C617.05 34.89 616.91 36.19 617.32 37.29H617.34C618.85 41.37 620.42 45.43 622.18 49.4C625.78 57.52 629.64 65.53 633.15 73.68C634.69 77.25 635.6 81.08 636.91 84.75C637.21 85.62 637.96 86.32 638.51 87.1C638.65 86.95 638.79 86.81 638.93 86.66C636.85 80.67 634.62 74.73 632.72 68.68C629.47 58.37 626.39 48.02 621.09 38.52C620.09 36.73 618.9 35.04 617.8 33.31C617.51 33.44 617.22 33.56 616.93 33.68ZM637.68 102.35C637.15 100.06 636.76 98.34 636.28 96.26C638.56 97.25 638.91 98.95 637.68 102.35ZM635.01 86.25C633.59 75.88 623.81 53.28 619.62 50.18C619.67 54.45 621.31 57.78 623.4 60.84C627.83 67.34 631.14 74.31 633.14 81.93C633.54 83.43 634.38 84.81 635.01 86.25ZM633.3 95.56L634.06 94.83V94.82C632.78 93.48 631.51 92.13 630.23 90.79C629.97 91.05 629.7 91.3 629.44 91.56C630.73 92.89 632.01 94.23 633.3 95.56ZM626.22 68.25C625.56 66.72 624.01 65.57 622.43 63.75H622.42C621.72 67.24 631.84 86.8 633.71 87.42C633.05 85.82 632.25 84.01 631.55 82.17C629.78 77.53 628.18 72.81 626.22 68.25ZM623.97 73.04C625.56 75.67 626.92 78.44 628.24 81.21C629.2 83.24 629.95 85.37 630.8 87.45C630.69 87.57 630.57 87.69 630.46 87.81C629.93 87.23 629.3 86.72 628.88 86.07C626.37 82.2 623.84 78.34 621.47 74.38C621.064 73.7063 621.345 72.63 621.321 71.7251L621.31 71.72L621.32 71.7L621.321 71.7251C622.23 72.1515 623.532 72.3328 623.97 73.04ZM616.83 76.11C621.36 76.9 628.71 86.43 627.41 90.14C623.8 85.36 620.52 81.01 616.83 76.11ZM614.57 81.81C619.71 81.43 626.67 88.71 625.2 93.44C621.5 89.39 618.16 85.73 614.57 81.81ZM623.33 95.13C623.6 94.84 623.86 94.56 624.13 94.27C620.79 92.38 619.88 87.85 616.07 86.48C615.83 86.74 615.6 87 615.36 87.26C618.02 89.88 620.67 92.51 623.33 95.13ZM613.02 89.05C612.79 89.39 612.56 89.74 612.33 90.08C613.36 91.3 614.38 92.54 615.42 93.75C616.47 94.98 617.41 96.38 618.67 97.33C619.28 97.79 620.53 97.4 621.49 97.4C621.27 96.56 621.26 95.57 620.78 94.92C619.93 93.78 618.9 92.7 617.75 91.86C616.27 90.79 614.6 89.98 613.02 89.05ZM617.62 100.56C615.37 98.75 613.11 96.95 610.37 94.75C615.3 95.3 617.51 96.93 617.62 100.56ZM614.36 100.05C612.41 98.82 610.32 97.82 608.29 96.73C608.04 97.11 607.78 97.48 607.53 97.85C608.72 100.22 610.68 101.79 613.25 102.57C613.79 102.74 614.53 102.27 615.17 102.09C614.91 101.39 614.86 100.37 614.36 100.05ZM610.4 104.48C609.13 103.51 607.87 102.54 606.39 101.4C608.73 100.58 610.42 101.71 610.4 104.48ZM608.12 104.81C607.87 105.23 607.62 105.65 607.38 106.07L603.75 104.09L604.318 102.954L604.31 102.95H604.32L604.318 102.954L608.12 104.81ZM606.4 106.99L601.18 105.13L600.4 106.27L605.38 108.25L606.4 106.99ZM598.77 107.15C598.61 107.7 598.45 108.24 598.29 108.79C600.35 109.3 602.4 109.82 604.46 110.33C604.57 109.96 604.67 109.58 604.78 109.21C602.77 108.52 600.77 107.84 598.77 107.15ZM608.02 122.81C609.54 126.59 609.68 130.93 610.42 134.99C610.48 134.91 610.85 134.64 610.84 134.38C610.56 127.49 611.47 120.39 606.61 114.41C605.28 112.76 603.92 112.02 601.08 112.22C603.65 116.02 606.54 119.13 608.02 122.81ZM607.69 111.58C613.18 117.88 611.75 126.07 613.81 133.26C614.12 128.95 614.46 124.67 614.02 120.47C613.62 116.61 612.11 113.02 607.69 111.58ZM616.69 132.5C616.84 132 617.1 131.51 617.12 131.01L617.11 131C617.23 128.3 617.53 125.58 617.31 122.9C617 119.07 616.38 115.26 615.67 111.49C615.55 110.82 614.32 110.36 613.6 109.8C613.34 110.72 613 111.63 612.85 112.57C612.79 112.96 613.07 113.45 613.3 113.83C615.78 117.98 616.03 122.54 615.83 127.2C615.76 128.94 615.82 130.67 615.82 132.41L616.69 132.5ZM619.14 132.22C619.68 130.51 619.95 128.83 619.99 127.14C620.1 122.37 620.31 117.58 620.06 112.82C619.99 111.43 618.54 110.1 617.72 108.75C617.31 108.89 616.89 109.04 616.48 109.18C620.76 116.53 617.68 124.59 619.14 132.22ZM621.85 108.7V131.48C622.127 131.489 622.397 131.49 622.665 131.49L622.78 131.49C622.742 128.623 622.949 125.761 623.156 122.899C623.498 118.172 623.84 113.446 623.08 108.7H621.85ZM624.9 104.31C623.89 102.82 622.87 101.34 621.86 99.85C621.55 100.07 621.241 100.28 620.931 100.489L620.93 100.49C621.94 101.97 622.96 103.46 623.98 104.94C624.29 104.73 624.59 104.52 624.9 104.31ZM624.9 131.45C625.75 130.45 626.25 129.37 626.31 128.27C626.48 124.94 626.64 121.59 626.51 118.26C626.38 115.09 628.72 111.64 624.87 108.1C626.02 116.34 623.48 123.81 624.9 131.45ZM627.65 105.13C626.27 102.6 624.9 100.06 623.34 97.19C626.58 98.24 628.14 100.87 627.65 105.13ZM629.99 108.05C627.61 113.87 626.98 126.68 629.66 129.55C630.12 122.38 630.59 115.22 631.05 108.05H629.99ZM632.91 129.39C633.27 128.65 633.86 127.93 633.95 127.16H633.96C634.61 121.49 635.23 115.81 635.65 110.12C635.72 109.08 634.86 107.98 634.43 106.91C634.12 106.97 633.8 107.04 633.49 107.11C631.8 114.35 631.21 121.68 631.87 129.09C632.21 129.19 632.56 129.29 632.91 129.39ZM636.94 129.66C637.09 129.56 637.33 129.48 637.36 129.35V129.34C637.49 128.82 637.57 128.3 637.63 127.77C638.35 121.22 639.11 114.66 639.74 108.1C639.85 106.92 639.47 105.7 639.32 104.5C639 104.52 638.67 104.55 638.35 104.57C636.36 112.8 635.61 121.13 635.89 129.55C636.24 129.59 636.59 129.62 636.94 129.66ZM640.4 130.76C640.73 130.05 641.43 129.29 641.33 128.65L641.34 128.64C640.41 122.66 640.72 116.76 642.19 110.91C642.499 109.674 642.798 108.437 643.097 107.201L643.1 107.19C642.84 107.1 642.57 107.01 642.31 106.92C641.98 107.31 641.51 107.65 641.36 108.1C639.1 114.97 638.47 122.05 638.88 129.22C638.91 129.76 639.87 130.25 640.4 130.76ZM645.02 106.99C642.32 113.85 640.99 120.86 642.96 128.16H642.97C643.15 128.83 643.82 129.37 644.29 130.01L644.293 129.976L644.293 129.969L644.293 129.967C644.912 121.923 645.501 114.266 646.11 106.28C645.44 106.7 645.1 106.79 645.02 106.99ZM649.41 106.47C648.75 114.64 648.15 122.13 647.51 130.08C644.75 126.4 645.93 111.47 649.41 106.47ZM652.68 106.69C651.99 114.63 651.34 122.15 650.69 129.62C647.89 127.17 649.01 110.45 652.68 106.69ZM654.42 127.46C654.5 126.39 654.15 125.28 654.3 124.23V124.22C654.98 119.29 655.82 114.38 656.47 109.44C656.57 108.72 655.98 107.9 655.7 107.13L654.71 107.37C652.24 114.77 651.91 122.35 652.69 130.03C653.04 130.1 653.4 130.17 653.75 130.24C653.98 129.31 654.35 128.4 654.42 127.46ZM659.19 106.38C656.58 112.93 655.46 119.76 655.72 126.79H655.71C655.78 128.45 656.92 128.86 657.75 128.4C658.65 121.76 659.5 115.6 660.29 109.43C660.43 108.36 660.31 107.26 660.31 105.78C659.49 106.21 659.24 106.26 659.19 106.38ZM661.5 129.59C661.76 129.42 662.02 129.26 662.28 129.09H662.27C661.97 121.83 661.51 114.57 663.81 107.51C663.99 106.96 663.47 106.18 663.27 105.51H662.57C662.27 106.41 661.85 107.3 661.7 108.22C661.07 112.24 660.39 116.27 659.98 120.32C659.74 122.72 659.85 125.17 660.04 127.57C660.1 128.28 660.99 128.92 661.5 129.59ZM664.38 128.99C664.66 128.55 665.13 128.12 665.19 127.65H665.18C666.02 120.52 666.8 113.37 667.66 105.59C666.8 106.39 665.71 106.91 665.45 107.71C664.63 110.18 663.75 112.73 663.58 115.29C663.29 119.83 663.5 124.41 663.5 128.97C663.79 128.97 664.09 128.99 664.38 128.99ZM666.87 127.16C667.02 129.2 667.92 129.82 669.75 129.39L670.47 106.06C667.49 112.83 666.34 119.85 666.87 127.16ZM670.05 99.45L671.19 103.77C671.62 103.72 672.05 103.66 672.48 103.6C672.05 102.19 671.61 100.77 671.18 99.36L670.72 99.3966L670.666 99.401L670.615 99.405L670.565 99.409C670.394 99.4227 670.223 99.4364 670.05 99.45ZM669.52 90.45C670.27 94.74 671.37 98.88 674.14 102.32C674.42 102.2 674.71 102.09 675 101.97L670.53 90.12C670.19 90.23 669.86 90.34 669.52 90.45ZM673.88 92.19C676.84 95.09 677.79 98.91 678.71 102.73C675.12 100.07 673.99 96.35 673.88 92.19ZM682 102.71C679.51 99.81 678.17 96.89 677.97 93.14C681.16 95.28 683.2 99.92 682 102.71ZM682.37 94.72C682.73 97.72 683.66 100.44 686.18 102.35H686.19C686.39 102.22 686.58 102.1 686.78 101.97C685.56 99.43 684.35 96.88 683.13 94.33C682.871 94.4595 682.622 94.5891 682.373 94.7186L682.37 94.72ZM688.79 103.34C687.58 100.41 686.65 98.17 685.5 95.41C689.24 96.38 690.18 98.8 688.79 103.34Z" fill="currentColor"/>
<path d="M638.16 62.71C633.88 50.67 629.81 38.56 625.55 26.51C624.861 24.5615 623.662 22.7727 622.702 20.9142C622.385 21.0826 622.078 21.251 621.771 21.4194L621.77 21.42C622.24 23.34 622.6 25.3 623.21 27.17C627.97 41.73 632.73 56.28 637.58 70.81C639.01 75.1 640.59 79.36 642.33 83.54C643.21 85.65 644.49 87.68 647.61 87.85C647.19 86.74 646.88 85.93 646.57 85.11C643.76 77.65 640.83 70.22 638.16 62.71Z" fill="#AFC1C1"/>
<path d="M627.48 24.7C628.29 26.07 629.23 27.38 629.91 28.82C636.01 41.83 640.22 55.54 644.64 69.16C646.51 74.94 648.68 80.62 650.71 86.34C650.91 86.89 651.05 87.47 651.21 88.03C650.93 88.2 650.65 88.37 650.38 88.54C649.54 87.24 648.42 86.04 647.9 84.62C642.62 69.94 637.45 55.23 632.22 40.54C630.55 35.84 628.8 31.17 627.11 26.49C626.93 26 626.9 25.47 626.79 24.96C627.02 24.87 627.25 24.79 627.48 24.7Z" fill="#AFC1C1"/>
<path d="M647.32 66.14C643.04 54.31 638.97 42.4 634.66 30.58C633.991 28.7515 632.492 27.2325 631.373 25.564C631.075 25.7524 630.778 25.9315 630.48 26.12C631.16 27.97 631.8 29.83 632.51 31.66C635.14 38.42 637.95 45.1 640.39 51.92C644.27 62.75 647.89 73.67 651.65 84.54L651.676 84.6173C652.268 86.3541 652.883 88.1619 655.81 88.29C655.41 87.2 655.17 86.55 654.92 85.9C652.38 79.31 649.72 72.77 647.32 66.14Z" fill="#AFC1C1"/>
<path d="M637.95 30.72C645.6 49.51 653.8 68.08 659.99 87.73C658.65 88.83 657.49 87.99 656.84 86.6C654.96 82.59 653.01 78.59 651.51 74.44C646.99 61.93 642.66 49.35 638.3 36.78C637.66 34.94 637.24 33.02 636.71 31.14C637.12 31 637.54 30.86 637.95 30.72Z" fill="#AFC1C1"/>
<path d="M660.98 85.22C661.43 86.21 662.49 86.92 663.32 87.81C658.38 69.1511 651.521 51.602 642.981 34.7429C642.684 34.8421 642.377 34.9511 642.08 35.06C642.16 35.66 642.14 36.29 642.34 36.84C643.63 40.42 644.93 43.99 646.3 47.53C650.16 57.49 654.06 67.43 657.93 77.38C658.94 79.99 659.82 82.67 660.98 85.22Z" fill="#AFC1C1"/>
<path d="M667.64 85.01C663.04 73.41 658.42 61.81 653.65 50.28C652.431 47.3325 650.693 44.6046 649.194 41.7772C648.95 41.8848 648.715 41.9924 648.47 42.1C648.81 43.09 649.09 44.11 649.5 45.08C652.25 51.58 655.25 57.99 657.73 64.59C660.04 70.76 661.73 77.16 663.85 83.41C664.4 85.03 665.55 86.45 666.43 87.96C666.79 87.89 667.15 87.81 667.51 87.73C667.57 86.82 667.94 85.78 667.64 85.01Z" fill="#AFC1C1"/>
<path d="M672.52 85.23C668.55 75.97 664.57 66.73 660.45 57.54C659.502 55.4436 658.045 53.5763 656.816 51.6001C656.601 51.7567 656.395 51.9134 656.18 52.07C656.77 53.67 657.34 55.29 657.97 56.87C661.34 65.29 664.69 73.71 668.11 82.11C668.72 83.61 669.48 85.08 670.4 86.41C670.81 87.01 671.79 87.23 672.51 87.62C672.52 86.82 672.81 85.9 672.52 85.23Z" fill="#AFC1C1"/>
<path d="M678.3 89.75C675.53 88.69 666.93 70.69 666.7 65.65C670.48 73.5 674.26 81.35 678.3 89.75Z" fill="#AFC1C1"/>
<path d="M679.68 90.27C679.54 90.65 679.39 91.04 679.25 91.42C678.36 91.69 677.46 91.95 676.82 92.14C674.82 91.31 673.13 90.6 671.25 89.82C672.29 89.28 673.07 88.88 673.9 88.45C675.3 90.04 676.23 92.58 679.68 90.27Z" fill="#AFC1C1"/>
<path d="M682.26 91.51C678.86 89.71 677.77 86.5 677.27 83.03L677.276 83.0406L677.278 83.0442C678.936 85.8694 680.593 88.6947 682.26 91.51Z" fill="#AFC1C1"/>
<path d="M680.69 83.76C681.96 85.89 683.22 88.03 684.49 90.16C684.15 90.36 683.81 90.57 683.47 90.77L683.46 90.7536L683.459 90.7517L683.217 90.3552C682.001 88.3635 680.785 86.3718 679.56 84.38C679.94 84.17 680.31 83.96 680.69 83.75V83.76Z" fill="#AFC1C1"/>
<path d="M653.42 104.1C652.99 104.19 652.56 104.27 652.13 104.36L650.99 98C651.37 97.95 651.74 97.91 652.12 97.86C652.55 99.94 652.99 102.02 653.42 104.1Z" fill="#AFC1C1"/>
<path d="M647.66 103.78C647.49 101.13 647.32 98.47 647.12 95.35C649.42 97.19 649.68 100.18 647.66 103.78Z" fill="#AFC1C1"/>
<path d="M643 96.05L644.39 102.75L645.429 102.542C645.059 100.275 644.7 98.0175 644.34 95.75C643.903 95.8494 643.455 95.9488 643.008 96.0482L643 96.05Z" fill="#AFC1C1"/>
<path d="M642.21 102.54L641.19 102.75C640.73 100.58 640.27 98.42 639.81 96.25C640.22 96.17 640.64 96.08 641.05 96C641.44 98.18 641.82 100.36 642.21 102.54Z" fill="#AFC1C1"/>
<path d="M637.68 102.35C637.15 100.06 636.76 98.34 636.28 96.26C638.56 97.25 638.91 98.95 637.68 102.35Z" fill="#AFC1C1"/>
<path d="M634.06 94.83L633.3 95.56C632.01 94.23 630.73 92.89 629.44 91.56C629.7 91.3 629.97 91.05 630.23 90.79C631.51 92.13 632.78 93.48 634.06 94.82V94.83Z" fill="#AFC1C1"/>
<path d="M627.65 105.13C626.27 102.6 624.9 100.06 623.34 97.19C626.58 98.24 628.14 100.87 627.65 105.13Z" fill="#AFC1C1"/>
<path d="M621.86 99.85C622.87 101.34 623.89 102.82 624.9 104.31C624.59 104.52 624.29 104.73 623.98 104.94C622.96 103.46 621.94 101.97 620.93 100.49L620.931 100.489C621.241 100.28 621.55 100.07 621.86 99.85Z" fill="#AFC1C1"/>
<path d="M598.29 108.79C598.45 108.24 598.61 107.7 598.77 107.15C600.77 107.84 602.77 108.52 604.78 109.21C604.67 109.58 604.57 109.96 604.46 110.33C602.4 109.82 600.35 109.3 598.29 108.79Z" fill="#AFC1C1"/>
<path d="M601.18 105.13L606.4 106.99L605.38 108.25L600.4 106.27L601.18 105.13Z" fill="#AFC1C1"/>
<path d="M607.38 106.07C607.62 105.65 607.87 105.23 608.12 104.81L604.318 102.954L603.75 104.09L607.38 106.07Z" fill="#AFC1C1"/>
<path d="M610.4 104.48C609.13 103.51 607.87 102.54 606.39 101.4C608.73 100.58 610.42 101.71 610.4 104.48Z" fill="#AFC1C1"/>
<path d="M608.29 96.73C610.32 97.82 612.41 98.82 614.36 100.05C614.86 100.37 614.91 101.39 615.17 102.09C614.53 102.27 613.79 102.74 613.25 102.57C610.68 101.79 608.72 100.22 607.53 97.85C607.78 97.48 608.04 97.11 608.29 96.73Z" fill="#AFC1C1"/>
<path d="M617.62 100.56C615.37 98.75 613.11 96.95 610.37 94.75C615.3 95.3 617.51 96.93 617.62 100.56Z" fill="#AFC1C1"/>
<path d="M612.33 90.08C612.56 89.74 612.79 89.39 613.02 89.05C614.6 89.98 616.27 90.79 617.75 91.86C618.9 92.7 619.93 93.78 620.78 94.92C621.26 95.57 621.27 96.56 621.49 97.4C620.53 97.4 619.28 97.79 618.67 97.33C617.41 96.38 616.47 94.98 615.42 93.75C614.38 92.54 613.36 91.3 612.33 90.08Z" fill="#AFC1C1"/>
<path d="M624.13 94.27C623.86 94.56 623.6 94.84 623.33 95.13C620.67 92.51 618.02 89.88 615.36 87.26C615.6 87 615.83 86.74 616.07 86.48C619.88 87.85 620.79 92.38 624.13 94.27Z" fill="#AFC1C1"/>
<path d="M614.57 81.81C619.71 81.43 626.67 88.71 625.2 93.44C621.5 89.39 618.16 85.73 614.57 81.81Z" fill="#AFC1C1"/>
<path d="M616.83 76.11C621.36 76.9 628.71 86.43 627.41 90.14C623.8 85.36 620.52 81.01 616.83 76.11Z" fill="#AFC1C1"/>
<path d="M628.24 81.21C626.92 78.44 625.56 75.67 623.97 73.04C623.532 72.3328 622.23 72.1515 621.321 71.7251C621.345 72.63 621.064 73.7063 621.47 74.38C623.84 78.34 626.37 82.2 628.88 86.07C629.3 86.72 629.93 87.23 630.46 87.81C630.57 87.69 630.69 87.57 630.8 87.45C629.95 85.37 629.2 83.24 628.24 81.21Z" fill="#AFC1C1"/>
<path d="M622.43 63.75C624.01 65.57 625.56 66.72 626.22 68.25C628.18 72.81 629.78 77.53 631.55 82.17C632.25 84.01 633.05 85.82 633.71 87.42C631.84 86.8 621.72 67.24 622.42 63.75H622.43Z" fill="#AFC1C1"/>
<path d="M619.62 50.18C623.81 53.28 633.59 75.88 635.01 86.25C634.38 84.81 633.54 83.43 633.14 81.93C631.14 74.31 627.83 67.34 623.4 60.84C621.31 57.78 619.67 54.45 619.62 50.18Z" fill="#AFC1C1"/>
<path d="M617.32 37.29C616.91 36.19 617.05 34.89 616.93 33.68C617.22 33.56 617.51 33.44 617.8 33.31C618.9 35.04 620.09 36.73 621.09 38.52C626.39 48.02 629.47 58.37 632.72 68.68C634.62 74.73 636.85 80.67 638.93 86.66C638.79 86.81 638.65 86.95 638.51 87.1C637.96 86.32 637.21 85.62 636.91 84.75C635.6 81.08 634.69 77.25 633.15 73.68C629.64 65.53 625.78 57.52 622.18 49.4C620.42 45.43 618.85 41.37 617.34 37.29H617.32Z" fill="#AFC1C1"/>
<path d="M617.13 25.4C617.43 25.26 617.73 25.13 618.03 24.99C620.34 26.02 621.58 28.11 622.43 30.35C624.11 34.75 625.62 39.21 627.12 43.67C629.51 50.8 631.78 57.96 634.19 65.09C636.59 72.19 639.09 79.26 641.21 86.61C640.41 85.21 639.36 83.9 638.85 82.4C636.66 75.97 634.49 69.53 632.57 63.02C629.26 51.82 624.06 41.46 618.97 31.03C618.11 29.27 617.73 27.28 617.13 25.4Z" fill="#AFC1C1"/>
</g>
</svg>
