<svg width="1046" height="357" viewBox="0 0 1046 357" fill="none" xmlns="http://www.w3.org/2000/svg">
<path d="M303.33 238.1C295.74 239.13 289.96 243.05 285.21 248.96C279.39 256.2 274.68 264.13 269.9 272.05C260.7 287.3 250.06 301.36 237.91 314.52C227.64 325.63 216.1 334.62 203.28 342.22C198.47 345.08 193.23 347.22 188.15 349.61C187.19 350.06 186.07 350.27 185.01 350.38C180.18 350.87 178.61 349.34 179.15 344.55C179.39 342.4 179.77 340.23 180.41 338.17C183.46 328.31 185.73 318.24 189.11 308.46C193.54 295.64 199.26 283.22 201.6 269.72C202.09 266.87 202.58 264.02 203.02 261.16C204.25 253.07 200.64 246.73 195.57 240.98C189.66 234.28 182.66 228.8 175.61 223.37C161.39 212.43 147.47 201.15 133.99 189.28C124.61 181.02 114.83 173.22 105.24 165.2C97.18 158.46 89.12 151.71 81.1 144.93C75.98 140.6 70.92 136.21 65.86 131.81C63.36 129.64 60.67 129.11 57.32 129.51C52.1 130.14 47.47 129.04 44.44 123.79C40.98 117.79 36.14 112.8 31.12 108.05C24.36 101.65 18.7 94.37 13.79 86.49C13.03 85.26 12.16 84.04 11.72 82.69C10.8 79.9 12.22 77.52 15.11 77.04C17.26 76.69 19.39 77.04 21.55 77.63C38.2 82.21 54.14 88.61 69.86 95.73C79.76 100.21 90 103.9 99.85 108.54C110.02 113.33 120.27 117.93 130.57 122.44C156.33 133.72 181.94 145.31 206.8 158.46C227.35 169.33 249.13 177.42 270.24 187.02C274.7 189.05 279.21 190.94 283.69 192.9C287.45 194.55 291.16 194.8 295.32 194.04C303.51 192.53 311.41 189.69 319.73 188.87C321.49 189.26 322.94 188.77 324.66 187.14C322.98 187.05 321.93 186.99 320.88 186.93C321.4 185.05 323.19 184.75 324.59 184.02C333.25 179.51 339.89 173.02 343.74 163.99C345.18 160.62 347.37 159.65 350.9 159.56C359.23 159.34 367.01 161.7 374.87 163.83C378.89 164.92 382.89 166.06 386.95 166.99C389.81 167.65 392.65 167.27 395.55 166.67C408.73 163.93 421.26 159.08 434 154.91C460.88 146.11 488.27 139.42 516.13 134.49C532.69 131.56 549.42 129.7 565.84 125.98C567.42 125.62 568.96 125.09 570.55 124.64C569.97 123.31 568.28 124.25 567.87 123.15C567.32 121.67 568.75 121.39 569.62 120.95C574 118.74 578.06 116.04 582.01 113.14C595.44 103.28 602.09 89.64 604.15 73.52C606.43 55.63 604.65 37.64 605.29 19.7C605.39 16.77 605.82 13.94 606.39 11.1C606.77 9.21002 607.88 8.30002 609.8 8.29002C612.16 8.28002 614.45 8.35 616.78 9.02C627.39 12.05 635.82 18.56 643.92 25.62C655.18 35.44 664.46 47.04 673.5 58.84C682.53 70.63 691.66 82.36 700.65 94.18C706.85 102.33 715.62 106.27 725.13 108.17C745.69 112.29 766.42 115.55 787 119.56C802.98 122.67 818.86 126.27 834.68 130.18C854.53 135.09 874.48 139.58 894.36 144.39C915.38 149.48 935.65 156.82 955.45 165.41C973.25 173.14 991.37 180.02 1009.52 186.84C1014.79 188.82 1019.99 190.9 1024.99 193.52C1028.79 195.5 1032.07 198.19 1034.47 201.55C1039.52 208.6 1037.87 211.46 1032.53 215.19C1025.06 220.4 1017.03 224.61 1008.5 227.78C998.49 231.5 988.69 235.82 978.32 238.49C975 239.35 971.58 239.8 968.21 240.44C963.83 240.71 959.34 239.52 955.07 241.39C954.14 241.49 953.01 241.68 953.11 242.8C953.62 248.83 949.27 251.28 945.17 254.04C934.85 260.99 923.1 264.02 911.17 266.41C897.88 269.07 884.57 271.71 871.17 273.73C863.15 274.94 855.04 275.86 846.9 276.33C839.33 276.76 831.78 277.75 824.22 278.38C822.32 278.54 821.46 279.21 820.92 281.16C816.62 296.63 808.03 309.45 796.22 320.17C791.24 324.68 786.04 328.95 779.46 331.04C778.26 331.42 777.04 331.85 775.8 331.97C771 332.44 769.03 330.79 768.92 325.92C768.77 319.39 768.9 312.85 768.82 306.31C768.72 298.26 766.99 290.52 764.36 282.94C763.29 279.86 761.62 278.59 758.09 278.26C746.57 277.16 735 277.04 723.47 275.62C714.07 274.46 704.76 274.87 695.28 278.78C676.71 286.45 657.63 292.94 638.85 300.16C620.41 307.24 601.88 314.08 583.4 321.07C575.25 324.15 567 326.87 558.39 328.32C555.54 328.8 552.59 329.07 549.78 328.02C546.51 326.8 545.71 324.6 547.53 321.63C548.47 320.1 549.57 318.54 550.95 317.44C556.47 313.02 562.19 308.87 568.52 305.62C588.54 295.35 607.78 283.68 627.47 272.81C628.54 272.22 629.47 271.38 631.09 270.21C626.73 269.66 623.1 269.05 619.43 268.77C606.99 267.83 594.61 266.42 582.26 264.59C574.22 263.4 566.06 262.95 557.98 262.02C545.05 260.53 532.02 260.11 519.14 258.03C513.48 257.12 508.1 257.44 503.55 261.92C500.87 264.56 497.61 266.68 494.41 268.73C490.21 271.43 485.93 271.75 481.91 268.14C480.29 266.69 478.59 265.33 476.93 263.94C473.13 260.77 469.19 259.2 463.93 260.61C457.67 262.28 451.14 262.99 444.72 264.09C443.27 264.34 441.85 264.13 440.45 263.57C438.31 262.73 437.34 261.58 437.92 259.01C439.26 253.03 438.98 253.19 434.26 249.65C429.97 246.42 425.01 245.22 420.02 244.93C412.79 244.52 405.62 243.03 398.34 243.5C396.81 242.23 395.3 242.15 393.81 243.56C390.42 244.09 387.96 246.37 385.3 248.2C376.92 253.98 368.49 259.62 358.42 262.14C353.13 263.46 347.82 264.47 342.34 264.28C341.43 264.25 340.48 264.34 339.63 264.1C337.35 263.46 334.88 262.79 334.22 260.13C333.64 257.78 335.66 256.53 337.12 255.27C338.89 253.74 340.96 252.55 342.81 251.1C345.44 249.03 345.79 246.65 343.23 244.83C338.7 241.61 334.39 237.8 328.53 237.02C322.31 235.31 316.08 235.45 309.86 237.02C308.8 237.09 307.73 237.16 306.67 237.23C305.43 237.06 304.22 237.02 303.32 238.12L303.33 238.1Z" fill="#AFC1C1"/>
</svg>
