<?xml version="1.0" encoding="UTF-8"?>
<svg xmlns="http://www.w3.org/2000/svg" viewBox="0 0 1920 1080">
  <defs>
    <style>
      .cls-1 {
        fill: #818e9a;
      }

      .cls-2 {
        fill: #7cc1b9;
      }

      .cls-3 {
        fill: #475563;
      }

      .cls-4 {
        fill: #8eb1c7;
      }

      .cls-5 {
        fill: #6a7175;
      }

      .cls-6 {
        fill: #465360;
      }

      .cls-7 {
        fill: #6c99b0;
      }

      .cls-8 {
        fill: #416981;
      }

      .cls-9 {
        fill: #465562;
      }

      .cls-10 {
        fill: #e1e9ea;
      }

      .cls-11 {
        fill: #475562;
      }

      .cls-12 {
        fill: #6f9393;
      }

      .cls-13 {
        fill: #416465;
      }

      .cls-14 {
        fill: #77a5ac;
      }

      .cls-15 {
        fill: #6e96ae;
      }

      .cls-16 {
        fill: #86d1c8;
      }

      .cls-17 {
        fill: #526676;
      }

      .cls-18 {
        fill: #5d908d;
      }

      .cls-19 {
        fill: #5d7180;
      }

      .cls-20 {
        fill: #395b6f;
      }

      .cls-21 {
        fill: #80aaa5;
      }

      .cls-22 {
        fill: #596673;
      }

      .cls-23 {
        fill: #8dbebe;
      }

      .cls-24 {
        fill: #2d3939;
      }

      .cls-25 {
        fill: #446d87;
      }

      .cls-26 {
        fill: #8fded3;
      }

      .cls-27 {
        fill: #051d1b;
      }

      .cls-28 {
        fill: #d4e8f6;
      }

      .cls-29 {
        fill: #0f1f22;
      }

      .cls-30 {
        fill: #7d8a95;
      }

      .cls-31 {
        fill: #4e3100;
      }

      .cls-32 {
        fill: #80a7bf;
      }

      .cls-33 {
        fill: #465b6b;
      }

      .cls-34 {
        fill: #b2dcfa;
      }

      .cls-35 {
        fill: #47748e;
      }

      .cls-36 {
        fill: #385658;
      }

      .cls-37 {
        fill: #4c6465;
      }
    </style>
  </defs>
  <g id="Calque_1" data-name="Calque 1">
    <path class="cls-31" d="M811.74,613.26s3.4-4.26,14.47-12.77c16.51,26.89,74.72,53.11,77.45-8.51,.85-33.02-12.6-42.55-37.11-41.02l-1.02-4.43s-28.6,22.81-34.55,24.68c11.06,1.53,25.19-15.32,33.7-14.81,33.53-3.4,44.6,55.32,12.6,59.74-14.8-1.15-29.11-29.28-29.11-29.28l13.96-18.38s5.28-3.4-21.28-6.3c-6.81-19.74-19.57-50.04-40.34-38.64s8.34,55.83,8.34,55.83c0,0-3.06,35.91,2.89,33.87Z"/>
  </g>
  <g id="Calque_4" data-name="Calque 4">
    <path class="cls-31" d="M1213.78,545.75s1.77,5.16,3.02,19.06c-31.55-.49-48.14,8.47-52.48,25.07-4.34,16.6-48.56,35.32-36.71,13.81l4.28,1.51s-3.92-36.37-2.3-42.4c-7.23,8.52-.58,29.48-5.58,36.39-15.11,30.13,40.57,25.02,52.18,.33,11.61-24.7,40.32-8.87,40.32-8.87l8.03,21.64s.04,6.28,16.73-14.58c20.32,4.84,52.74,10.32,54.25-13.33s-51.59-22.9-51.59-22.9c0,0-28.67-21.85-30.14-15.72Z"/>
  </g>
  <g id="Calque_5" data-name="Calque 5">
    <path class="cls-31" d="M995.6,532.91s2,5.07,3.88,18.9c-31.54,.95-83.24,38.41-31.14,71.42,28.22,17.16,43.18,10.24,54.04-11.79l4.35,1.32s-5.56-36.15-4.23-42.25c-6.83,8.84,.76,29.47-3.92,36.6-13.73,30.78-70.17,11.17-58.1-18.79,8.36-12.27,39.88-10.69,39.88-10.69l9.01,21.25s.33,6.27,16.05-15.33c20.52,3.91,53.15,7.91,53.58-15.78s-52.58-20.53-52.58-20.53c0,0-29.63-20.52-30.82-14.34Z"/>
  </g>
  <g id="Calque_3" data-name="Calque 3">
    <path class="cls-31" d="M1738.5,152.33c-4.54-3.02-9.5-5.54-14.96-6.67-19.48-4-38.87-8.55-57.9-14.21-13.84-4.12-27.88-5.64-42.03-6.63-12.92-.91-25.92-.57-38.85-1.25-8.25-.43-16.45-1.72-24.67-2.62-10.04-1.09-20.06-2.8-30.12-3.1-14.6-.44-29.19-1.54-43.76-1.84-20.94-.43-41.77-2.91-62.74-2.44-8.78,.2-17.56,.02-26.39-.67-21.26-1.64-42.48,.84-63.7,2-15.37,.84-30.68,2.86-46.05,3.62-12.1,.6-24.15,1.63-36.08,3.44-18.69,2.84-37.35,4.26-56.29,3.97-12.07-.19-22.91-3.2-33.38-8.54-25.5-13.03-49.2-28.59-70.44-48.03-16-14.63-34.28-26.24-53.94-35.53-9.81-4.5-19.85-8.41-30.35-10.97-6.91-1.68-13.88-1.41-20.69,.69-6.76,2.08-10.27,7.22-9.89,14.31,.29,5.37,1.53,10.55,3.94,15.36,12.83,25.61,23.9,51.93,31.98,79.45-.59,.46-.82,1.09-.48,1.74,2.47,4.75,1.87,9.59,.62,14.52-3.98,15.68-11.61,29.63-20.34,43.05-2.04,3.14-4.95,4.92-8.81,5.92-12.19,3.18-24.31,6.65-36.32,10.45-35.61,11.26-70.36,25.06-106.19,35.76-34.77,10.38-69.09,22.23-105.23,27.43-10.32,1.48-19.56,1.01-28.45-5.03-10.68-7.27-22.06-13.42-33.77-18.91-7.53-4.79-16.04-7.4-24.59-8.79-16.54-2.69-22.11,2.19-23.33,19.07-1.13,15.64-6.04,29.47-17.7,40.51-5.43,5.14-9.94,11.1-14.11,17.31-6.8,1.29-13.22,4.06-20.15,4.96-3.11,.4-6.65-.11-9.27,2.44-.97-.1-1.97-.5-2.86,.26-.66,.12-1.32,.25-1.98,.37-6.78,.79-13.51,1.78-20.11,3.62-.34,.19-.68,.38-1.02,.57-1.17,.11-2.34,.22-3.51,.33-1.36,.07-2.82,.24-3.58,1.42-1.97,3.05-4.56,2.58-7.4,1.72-31.45-9.58-62.93-19-92.58-33.57-12.82-6.31-25.81-12.3-38.83-18.17-22.4-10.11-44.97-19.85-67.31-30.1-7.76-3.56-15.6-6.94-22.77-11.93-6.32-4.4-13.99-6.82-20.91-10.4-19.58-10.15-38.84-20.87-56.93-33.56-.6-.56-1.15-1.21-1.82-1.68-20.15-14.19-39.67-29.21-58.85-44.68-11.14-8.98-22.72-17.43-34.78-25.13-9.7-6.19-20.37-8.79-31.94-6.8-2.67,.46-4.98,1.29-5.09,4.44-.32,8.95-.72,17.58,4.83,25.85,10.29,15.32,18.96,31.69,29.32,47.01,6.95,10.29,11.26,21.66,13.89,33.9,1.92,8.94,8.79,11.99,17.66,9.42,2.38-.69,4.73-1.61,6.96-2.69,3.8-1.84,7.82-2.75,11.92-3.49,2.81-.5,4.38-.31,4.77,3.42,.98,9.37,5.13,17.47,11.51,24.41,4.17,4.53,8.3,9.1,12.54,13.57,44.92,47.37,93.98,90.02,146.66,128.54,10.63,7.77,20.23,16.73,29.41,26.21,6.75,6.97,7.36,14.67,5.87,23.49-3.3,19.52-10.03,37.86-17.89,55.91-3.85,8.84-6.89,17.98-5.85,28.01,1,9.62,4.76,12.77,14.17,10.61,16.31-3.76,30.82-11.53,44.24-21.24,17.34-12.55,31.6-28.55,46.96-43.3,3.58-3.44,7.36-6.74,10.08-10.98,1.29-3.09,5.04-4.38,5.73-7.9,4.38-2.7,6.84-7.14,9.86-11.03,12.28-15.81,25.71-30.57,40.41-44.14,4.9-4.52,10.41-7.64,17.82-7.45,12.46,.31,25.04,.4,37.39-1.02,17.9-2.06,33.61,3.07,47.74,12.98,15.92,11.16,29.04,23.98,26.42,46.64-1.5,12.96,6.08,17.05,18.51,12.29,18.83-7.21,33.71-19.79,47.03-34.46,3.28-3.61,5.46-7.92,6.2-12.84,.45-.17,1.13-.2,1.33-.53,7.01-11.31,17.88-13.96,30.27-14.55,12.21-.58,24.33-2.97,36.54-3.52,8.71-.39,17.44-2.52,26.21-.58-6.92,4.77-9.65,8.98-6.97,14.16,5.06,9.77,6.83,19.05,1.57,29.37-1.82,3.58,1.24,6.38,4.85,5.25,15.67-4.92,31.56-9.32,45.62-18.25,2.33-1.48,3.97-1.26,6.2,.38,6.85,5.01,14.16,9.31,21.55,13.5,17.31,9.81,21.87,9.55,36.88-3.35,14.74-12.67,24.28-30.1,38.82-42.98,.39-.34,.26-1.27,.37-1.92,15.45-2.99,31.19-3.55,46.75-5.7,19.82-2.75,39.71-5.02,59.39-8.75,9.26-1.76,18.49-3.67,27.74-5.51h0c.32-.11,.64-.22,.95-.33,.99-.7,1.99-1.35,3.02-1.96-1.03,.6-2.04,1.26-3.02,1.96-.32,.11-.64,.22-.95,.33,0,0,0,0,0,0-10.38,8.11-22.55,13.98-30.35,25.32-6.7,9.74-14.14,18.94-22.27,27.56-3.02,3.2-4.95,7.09-6.85,10.97-1.24,2.55-1.12,5.19,1.23,7.27,8.21,7.27,17.02,8.31,26.59,2.82,16.78-9.63,32.25-21.21,47.83-32.6,5.22-3.81,10.55-7.56,14.97-12.38,3.8-1.45,6.42-4.56,9.65-6.82,24.08-16.81,49.01-32.32,73.86-47.94,3.03-1.91,5.6-4.81,9.51-5.13-1.82,7.15,2.78,11.35,7.49,15.01,7.66,5.96,16.38,10.24,25.53,13.39,7.51,2.58,12.35,7.64,15.33,14.7,7.59,17.95,8.75,37.01,6.95,55.89-1.17,12.24-1.81,24.5-2.49,36.72-.85,15.23,9.52,21.34,22.72,13.83,17.66-10.04,32.71-23.36,42.73-41.08,16.13-28.52,31.29-57.6,41.84-88.79,6.38-18.87,13.08-37.66,15.04-57.69,14.12-.7,28.09-3.21,41.6-6.76,26.61-6.99,53.6-12.44,79.9-20.77,22.91-7.25,46.52-12.23,69.5-19.35,7.93-2.46,15.8-5.2,22.85-9.72,7.05-4.52,7.81-8.89,2.73-15.3-1.69-2.13-.17-2.5,1.28-3.01,3.75-1.34,7.45-2.92,11.3-3.88,22.16-5.49,43.82-12.55,64.03-23.18,13.48-7.09,26.51-15.18,35.75-28,7.62-10.57,6.9-20.81-2.87-27.31Zm-616.63,221.59c-1.1,.45-2.18,.95-3.23,1.5,1.05-.55,2.13-1.06,3.23-1.5Z"/>
  </g>
  <g id="Calque_2" data-name="Calque 2">
    <g>
      <path class="cls-34" d="M310.22,720.19c13.69,6.42,27.24,13.26,40.42,20.54,40.33,22.27,83.84,37.59,124.85,58.32,31.51,15.92,65.19,26.3,98.98,36.21,2.13,.62,3.79,1.02,5.11-1.25,2.12-3.67,6.77-1.46,9.44-3.94,2.23,1.24,4.19-.57,6.3-.56,2,.2,3.92-.31,5.87-.59l1.69-.97c2.41,.38,4.65-.59,6.98-.88,9.02-2.05,18.04-4.09,27.07-6.14,3.17,1.29,1.05,3.38,.73,5.14-.39,2.16-3.33,4.56-1.2,6.28,2.21,1.78,4.5-1.08,6.56-2.24,4.78-2.69,9.45-5.55,13.85-8.84,3.91-2.93,8.35-4.68,13.18-5.6,5.9-1.13,11.54-3.12,16.97-5.66,1.6-.75,3.27-1.27,2.07-4.01-1.06-2.42,1.44-3.82,3.23-4.9,4.99-3.01,9.52-6.67,14.4-9.82,2.99-1.93,5.33-4.44,6.66-7.84,1.74-4.47,1.06-6.59-3.12-9.13-1.86-1.13-3.94-1.75-5.92-2.62-3.47-1.53-4.29-3.7-2.66-7.18,1.14-2.42,2.86-4.47,4.63-6.46,1.22-1.38,2.78-1.95,4.49-1.19,7.87,3.48,15.89,4.53,24.24,1.86,.87-.28,1.99-.29,2.86,.39,6.53,2.97,12.59,6.82,18.46,10.85,8.66,5.96,17.77,6.62,27.96,5.18,27.87-3.94,54.68-11.91,81.54-19.87,43.01-12.76,85.14-28.11,127.65-42.37,11.48-3.85,23.04-7.79,34.87-10.1,9.28-1.81,13.71-7.56,17.95-14.76,6.85-11.63,12.16-23.88,16.28-36.68,9.68-9.4,11.68-21.48,8.88-33.55-1.62-6.98-5.4-13.5-4.96-21.08,.06-1.08-.71-2.19-1.03-3.3-2.17-7.51-1.49-8.35,5.7-11.05,14.41-5.42,24.43-15.69,26.12-33.12,.17-1.75-.61-4.15,2.3-4.61,14.67,7.62,28.25,17.02,40.37,28.07,21.62,19.7,45.59,35.69,71.64,48.76,10.2,5.12,20.74,8,32.44,8.22,19.11,.36,37.93-1.11,56.78-3.96,12.09-1.83,24.31-2.84,36.58-3.42,15.2-.72,30.33-2.82,45.53-3.61,21.21-1.11,42.44-3.65,63.69-1.99,9.49,.74,18.93,.8,28.38,.67,20.29-.27,40.46,2.01,60.73,2.42,14.4,.29,28.81,1.4,43.25,1.83,10.22,.31,20.4,2.05,30.61,3.1,9.05,.93,18.09,2.13,27.16,2.63,12.43,.68,24.91,.65,37.35,1.18,17.62,.76,34.64,4.71,51.59,9.43,15.62,4.35,31.57,7.52,47.31,11.46,7.14,1.79,13.94,4.63,18.98,10.32,3.71,4.18,5.42,9,3.2,14.58-5.05,2.18-7.38,1.36-11.15-3.91-1.31-2.61-3.79-3.56-6.33-4.45-13.64-4.81-27.84-5-41.89-3.74-12.22,1.1-24.2-.31-36.25-1-23.58-1.36-46.79-.17-69.2,8.07-2.4,1.81-5.46,1.03-8.07,2.03-27.58,4.62-55.16,9.26-82.61,14.54-22.7,4.37-45.38,9.36-67.17,17.27-11.4,4.14-20.23,11.96-26.45,22.57-1.27,2.17-1.97,5.73-6,4.61-2.21-2.64-1.94-5.85-2.13-8.97-.26-4.24,.73-8.56-.74-12.7-2.23-.24-2.63,1.77-3.52,3-4.78,6.64-8.52,13.84-11.47,21.47-.89,2.3-1.7,5.1-5.24,3.09-1.59-7.02-1.39-14.21-1.96-21.33-.14-1.7,1.12-3.82-1.13-5.05-4.49,6.72-7.31,14.26-11.13,21.28-1.16,2.13-2,5.14-5.6,4.4-3.43-4.84-2.06-10.6-3.09-15.9-.24-1.23,1.15-3.26-1.46-3.53-4.26,4.63-5.86,10.16-5.83,16.3,.01,2.62,.25,5.27-.41,7.84-.45,1.78-1.15,3.5-3.48,3.49-2.79-1.07-3.05-3.73-3.63-6.07-1.08-4.35-2.51-8.57-4.38-12.62-.64-1.39-.97-3.39-3.35-2.82-3.67,2.64-4.71,6.26-4.83,10.67-.12,4.22,1.7,8.85-1.73,12.65-1.89,.28-2.69-1.04-3.25-2.41-1.72-4.24-4.25-8.15-5.3-12.67-.54-1.1,.24-3.02-1.52-3.29-1.59-.24-2.06,1.43-2.67,2.55-3.74,6.84-7.01,13.92-10.41,20.93-2.76,5.69-2.29,11.7-1.91,17.59,.28,4.3-1.41,6.94-4.66,9.09-3.02,2-6.11,3.89-9.2,5.84,7.86-2.16,15.88-3.15,23.88-4.2,4.38-.58,8.61,.43,12.58,2.32,8.45,4.03,10.33,11.09,5.03,18.77-.85,1.23-1.78,2.4-2.88,3.42-1.31,1.06-2.6,2.15-3.78,3.36-10.85,9.02-23.39,15.35-35.65,22.12-1.73,.96-3.55,1.75-5.21,2.84-7.36,3.74-13.9,8.81-20.96,13.03-3.97,2.44-7.22,6.27-12.39,6.42-4.94,.03-7.98,3.89-11.64,6.19-21.13,13.26-42.04,26.89-62.96,40.49-4.29,2.78-8.34,5.93-12.5,8.91-.48,.2-1,.26-1.44,.03-12.49-6.39-22.55-.94-31.92,6.81-4.23,3.49-8.5,6.95-12.74,10.42-1.79,1.47-4.03,3.61-6.15,1.95-2.47-1.93,.06-4.23,1.11-6.08,4.62-8.12,11.5-14.18,18.88-19.65,5.11-3.78,9.72-8.07,14.15-12.58,7.41-7.54,6.64-11.71-2.91-15.62,.59-3.79,4.13-4.41,6.69-5.79,6.87-3.7,13.91-7.07,20.68-10.97,7.2-4.14,8.01-6.08,7.17-14.37-.62-6.07,3.17-9.83,8.04-12.63,6.21-3.57,13.04-5.81,19.57-8.68,13.6-6,25.9-14.2,38.61-21.7,5-2.95,9.89-6.1,15.05-8.78,3.97-2.06,7.24-4.76,7.74-9.64-.01-1,.25-2.05-.03-2.99-2.57-8.77,.98-15.85,5.97-22.67,5.87-8.03,11.38-16.31,17.18-25.28-14.51,4.79-28.21,9.81-40.8,17.23-15.83,9.33-32.72,16.36-49.32,24.07-28.57,13.29-58.16,23.96-87.85,34.34-10.51,3.67-21.07,7.32-31.79,10.39-.64,.18-1.26,.44-1.9,.6-2.57,.66-5.78,1.94-6.99-1.34-1.28-3.46,2.22-4.33,4.58-5.25,30.39-11.78,58.43-28.28,86.5-44.45,18.85-10.86,37.15-22.67,56.48-32.8,13.28-6.96,25.01-16.44,36.56-26.01,3.96-3.29,6.71-7.39,7.35-12.63,.58-4.78-.51-6.13-5.28-6.09-9.37,.08-18.61,1.43-27.51,4.34-10.13,3.32-20.26,6.55-30.73,8.7-10.17,2.09-19.4,7.02-29.23,10.09-23.72,7.41-46.31,17.78-69.68,26.01-34.55,12.16-68.49,25.91-103.06,37.98-40.57,14.16-81.71,26.46-122.96,38.4-31.17,9.02-62.64,17.05-93.97,25.52-16.71,4.52-33.39,9.17-49.85,14.54-13.58,4.44-27.92,6.45-40.88,12.84-1.18,.58-2.57,.67-3.86,.99-9.15,2.25-17.89,.02-25.53-4.38-17.5-10.08-34.66-6.9-51.89-.15-13.07,5.12-26.27,9.51-40.29,11.18-4.63,.55-9.35,1.13-13.9,1.07-16.62-.21-33.14,2.08-49.84,.73-24.72-2-48.69-7.17-72.42-13.97-17.67-5.06-34.31-12.78-51.01-20.26-40.39-18.08-77.24-42.46-114.92-65.33-11.96-7.25-21.85-16.77-29.94-28.19-2.58-3.64-5.09-7.47-9.56-9.21-1.82-1.2-1.57-3.14-1.78-4.92-.88-7.42-3.89-10.92-11.1-12.92-2.74-.76-5.5-1.25-8.36-1.23-6.51,.06-12.35-2.38-18.12-4.99-2.08-.94-3.47-2.52-3.7-4.93-.34-3.54-2.47-6.06-4.84-8.47-5.13-5.21-10.35-10.31-15.25-15.74-2.28-2.53-3.28-4.47-.6-7.11,.47-.46,.84-1.03,1.17-1.61,3.41-5.96,4.3-6.23,10.62-2.99,9.09,4.67,16.71,11.42,24.78,17.54,9.67,7.34,19.35,14.78,30.43,19.81,11.68,5.3,23.95,8.93,37,8.88,2.84,0,5.63,.2,8.29,1.27Z"/>
      <path class="cls-35" d="M262.05,737.12c3.27-.74,4.96,1.87,6.18,3.78,15.01,23.54,38.45,36.75,61.61,50.24,21.98,12.81,43.32,26.77,66.1,38.17,36.08,18.06,73.2,33.4,113.31,40.15,18.71,3.15,37.49,5.12,56.57,3.81,12.93-.89,25.92-.53,38.84-2.13,12-1.48,23.37-4.87,34.53-9.32,11-4.39,22.18-7.99,34.23-8.09,6.74-.06,12.64,2.33,18.55,5.12,8.73,4.13,17.53,8.26,27.67,6.14,1.78-.37,3.6-.68,5.32-1.27,43.01-14.86,87-26.39,130.91-38.16,64.22-17.22,128.01-35.81,190.7-57.98,24.91-8.81,49.42-18.75,74.18-27.99,34.4-12.84,68.54-26.46,103.42-37.86,19.92-6.51,39.99-13.46,61.05-16.09,2.14-.27,4.31-.39,6.47-.47,7.55-.29,8.91,1.19,7.6,8.67-.96,5.51-4.25,9.68-8.46,13.14-17.16,14.07-35.22,26.7-55.62,35.81-14.05,6.28-25.48,16.98-39.03,24.06-28.41,14.85-55.58,32.2-85.85,43.41-1.53,.57-4.23,.93-3.23,3.45,.9,2.27,3.08,1.16,4.8,.62,41.58-13.06,82.67-27.41,122.37-45.52,17.1-7.8,34.38-15.18,50.63-24.73,13.36-7.85,28.01-12.67,43.88-18.17-6.66,9.76-12.44,18.45-18.45,26.97-5.14,7.29-10.38,14.43-6.79,24.16,.31,.85-.1,1.97-.18,2.96-2.49,2.36-5.71,1.41-8.58,1.71-12.26,1.26-23.58,5.59-34.84,10.17-15.1,6.14-29.74,13.36-45.07,18.95-19.06,6.95-39.21,8.81-58.99,12.42-26.18,4.78-52.47,9.09-77.88,17.32-8.86,2.87-17.5,6.38-26.23,9.61-22.58,8.37-46.06,13.01-69.72,16.97-4.92,.82-9.81,1.83-14.56,3.42-2.85,.96-5.64,2.05-8.16,3.69-2.06,1.34-5.02,2.54-5,5.11,.01,2.64,3.28,3.03,5.33,3.72,6.11,2.05,8.62,6.76,10.09,12.43,.59,2.26-1.44,2.71-2.63,3.67-11.69,9.41-25.15,14.7-39.88,16.97-8.07,1.24-16.06,2.65-23.3,6.82-1.6,.92-3.9,2.21-5.38,.12-1.33-1.88,.12-3.82,1.34-5.41,2.77-3.61,6.6-6.05,10.09-8.85,3.68-2.95,6.85-6.29,9.01-10.51,.68-1.33,1.49-2.82,.29-4.17-1.02-1.14-2.46-.66-3.76-.32-1.61,.42-3.18,1-4.89,.77-1.65-.4-3.32-.36-5.01-.35-15.16-2.95-30.15-1.1-45.09,1.61-6.25,1.13-12.51,1.72-18.86,1.57-24.45-.56-48.89,.38-73.32,1.17-22.75,.73-45.49,1.82-68.23,2.79-4.81,.21-9.64-.56-14.43,.24-4.93,.23-9.63-1.5-14.58-1.6-3.75-.07-7.48-.31-11.23-.02-20.62,.38-41.25,.49-61.85,1.31-6.3,.25-11.19,4.76-15.68,9.06-15.3,14.61-29.4,30.29-42.18,47.14-1.6,2.11-3.41,4.08-5.13,6.11-3.61,2.28-6.32,.68-8.66-2.09-1.19-1.41-1.7-3.22-2.49-4.87-3.53-7.37-8.69-12.59-17.01-14.84-8.81-2.38-17.43-5.38-26.47-7.06-6.91-1.29-12.44-5.13-16.68-10.97-4.59-6.32-9.02-12.76-13.82-18.93-5.51-7.08-12.86-11.89-19.94-17.15-20.16-14.98-40.04-30.33-60.36-45.09-18.44-13.4-37.02-26.63-54.15-41.68-14.09-12.38-28.68-24.26-41.08-38.44-5.66-6.47-9.79-13.81-12.3-22.04-.34-1.11-.85-2.21,0-3.31Z"/>
      <path class="cls-23" d="M1319.41,830.94c8.86-5.06,17.81-9.99,26.56-15.24,4.93-2.96,9.55-6.44,14.32-9.68,1.52-.9,2.95-1.93,4.51-2.75,6.14-3.83,12.77-6.45,19.91-7.57,4.82-.75,8.39-3.1,12.03-6.35,11.69-10.43,24.37-19.58,39.16-25.24,6.68-2.56,13.48-4.72,19.76-8.27,6.23-3.52,13.13-3.97,19.9-2.43,14.08,3.2,26.34,.05,37.07-9.42,4.45-3.93,9.57-6.55,15.24-8.22,2.6-.77,5.24-1.2,7.89-.66,6.2,1.28,12.15,.6,18.21-1.13,9.13-2.6,18.61-3.69,27.99-4.95,10.71-1.44,20.85-4.32,30.4-9.17,7.27-3.69,14.76-6.88,22.11-10.38,4.15-1.92,8.73-2.76,12.74-5.03,.74-.3,1.51-.48,2.3-.61,20.89-6.02,41.93-11.61,61.49-21.45,2.67-1.34,5.28-2.79,7.83-4.34,3.64-2.22,7.53-3.14,11.84-3.16,10.68-.04,21.06-2.71,31.5-4.49,7.85-1.34,15.46-1.56,23.21-.13,2.13,4.13,5.88,4.32,9.83,4.04-3.78,11.32-12.35,18.56-21.58,25.25-22.73,16.47-48.69,25.47-75.45,32.68-6.25,1.68-12.5,3.38-18.49,5.88-1.8,.75-2.97,1.25-1.01,3.4,4.59,5.02,3.94,10.06-1.67,14.15-4.89,3.56-10.53,5.71-16.18,7.63-20.43,6.95-41.23,12.63-62.19,17.71-13.38,3.24-26.18,8.41-39.64,11.48-31.67,7.22-62.8,16.85-95.21,20.68-.79,.09-1.54,.58-2.31,.88-3.36-.82-6.66-.03-9.98,.33-17.13,2.46-34.12,5.86-51.36,7.51-24.03,2.3-47.61,7.75-71.64,10.07-3.09,.3-6.27,1.31-9.08-1.02Z"/>
      <path class="cls-6" d="M528.03,972.62c-14.45,14.23-28.63,28.74-43.66,42.37-16.64,15.09-35.48,26.32-57.39,31.83-9.38,2.36-13.22-1.02-14.04-10.64-.89-10.51,2.4-20.07,6.51-29.33,7.71-17.37,13.84-35.16,17.24-53.9,1.67-9.24,.59-17.02-6.25-24.29-13.2-14.04-28.41-25.61-43.79-36.94-50.54-37.2-96.51-79.43-139.48-125.04-8.5-9.02-15.68-18.55-16.72-31.41-.18-2.23-1.32-2.27-2.98-2.1-4.66,.48-9.14,1.57-13.43,3.52-2.71,1.23-5.5,2.42-8.38,3.14-7.49,1.87-14.6-.97-15.77-8.2-4.02-24.7-20.6-42.79-32.16-63.5-4.21-7.54-8.76-14.9-13.46-22.14-4.79-7.38-2.94-15.42-2.75-23.27,.06-2.53,2.61-3.06,4.86-3.43,11.55-1.93,22.23,.64,31.93,6.83,11.91,7.61,23.4,15.88,34.35,24.8,18.44,15.02,37.62,29.05,56.6,43.35,.36,1.48-.78,1.66-1.73,2.01-6.48-.27-11.44-4.32-16.7-7.27-7.53-4.23-14.43-9.52-21.29-14.81-12.32-9.49-26.34-15.47-41.36-19.22-2.58-.64-5.16-1.33-7.76-1.88-2.14-.45-4.13-.02-4.92,2.27-.72,2.09,.63,3.55,2.24,4.53,2.55,1.55,5.35,2.67,7.34,5.06,2.7,3.23,2.6,4.94-.61,7.42-4.3,3.34-4.74,5.53-.81,9.75,5.22,5.61,9.8,11.76,15.07,17.3,2.1,2.21,3.49,4.24,1.84,7.46-1.64,3.19,.14,5.54,2.9,6.96,7.7,3.94,15.31,8.07,23.31,11.43,4.95,2.08,10.12,1.66,15.27,1.7,7.4,.05,8.5,.66,9.82,7.69,3.59,19.14,15.7,32.75,29.54,45.01,7.1,6.29,13.72,13.07,20.78,19.4,16.12,14.47,33.34,27.55,50.26,41.01,23.58,18.75,48.78,35.35,72.62,53.77,8.78,6.78,16.68,14.06,22.74,23.5,5.57,8.68,11.84,16.96,21.85,21.29,4.61,2,9.39,3.5,14.29,4.37,5.61,.99,10.91,2.85,16.33,4.48,7.69,2.31,13.15,6.82,16.89,13.74,1.94,3.6,4.6,6.48,8.44,8.19,1.32,.59,2.88,1.19,2.43,3.2Z"/>
      <path class="cls-23" d="M969.68,895.88c-1.08-.53-4.1,1.26-2.84-2.03,1.34-3.52-.47-5.48-3.02-6.94-3.45-1.98-7.12-3.57-10.69-5.33-2.1-1.04-2.6-1.76-.49-3.85,7.94-7.86,18.16-9.97,28.47-11.76,24.54-4.26,49.1-8.6,72.29-17.97,26.78-10.82,54.65-17.32,82.88-22.7,20.5-3.91,41.22-6.51,61.64-10.9,16.73-3.6,31.9-11.26,47.51-17.79,13.47-5.64,26.66-12.07,41.11-14.95,5.53-1.1,11.14-1.77,16.81-1.67-.51,5.02-3.88,7.75-7.9,10.09-13.89,8.07-27.75,16.2-41.6,24.35-8.03,4.73-16.68,8.08-25.22,11.7-4.1,1.74-8.45,3.2-11.48,6.75-2.42,2.84-3.88,5.74-2.4,9.89,1.6,4.5-.3,8.52-4.24,11.13-6.64,4.4-13.75,8.01-20.93,11.46-3.88,1.86-7.64,3.94-11.12,6.49-1.03,1.91-3.37,2.82-3.9,5.12-4.21,2.21-7.89,5.54-12.91,6.05-1.41,.12-2.74-1.28-4.21-.24-25.42,5.71-51.2,9.32-76.99,12.76-15.77,2.1-31.63,3.57-47.46,5.27-1.49,.16-3,.12-4.3,1.02-14.52,1.42-28.95,3.57-43.47,4.95-1.17,.11-2.33,.02-3.34-.67-.62-.63-.77-1.38-.59-2.24,1.08-5.41,.13-6.68-5.33-7.62-2.11-.36-4.26,.56-6.31-.36Z"/>
      <path class="cls-6" d="M1452.39,813.03c3.02,.38,6.5-3.32,9.07,1.02,.33,3.18-.21,6.23-.93,9.35-8.76,37.71-22.16,73.66-40.68,107.7-3.89,7.14-7.37,14.5-11.14,21.71-9.71,18.59-24.24,32.73-41.42,44.37-2.19,1.49-4.6,2.66-6.92,3.97-12.87,7.25-20.59-3.07-20.96-12.57-.18-4.51,.5-8.94,.86-13.4,.76-9.39,1.87-18.85,2.26-28.15,.75-17.65,.14-35.55-7.04-52.36-3.16-7.39-7.94-12.82-15.8-15.51-9-3.08-17.52-7.32-25.12-13.06-4.81-3.63-9.27-7.81-7.93-14.88,3.94-2.45,7.88-4.9,11.82-7.34,.98-.34,1.64,.19,2.06,.92,3.4,5.85,8.95,8.64,15.01,10.85,9.31,3.39,17.73,8.25,25.1,14.96,3.93,3.58,8.66,6.17,12.81,9.49,5.69,4.54,10.47,9.72,11.99,17.19,.33,1.62,.95,3.19,1.84,4.61,2.22,3.52,4.73,4.19,8.46,2.32,2.57-1.29,4.55-3.36,6.65-5.22,17.76-15.78,34.98-32.14,50.63-50.02,5.69-6.5,9.82-14.04,12.98-22.24,1.79-4.63,3.08-9.7,6.39-13.7Z"/>
      <path class="cls-28" d="M528.03,972.62c-8.28-3.71-12.42-11.32-17.33-18.23-1.83-2.57-4.91-3.29-7.64-4.48-8.12-3.56-16.8-5.16-25.36-7.16-10.28-2.4-19.31-7.32-24.69-16.45-13.06-22.13-33.98-35.69-53.95-50.14-34.62-25.05-68.94-50.47-100.85-78.94-9.55-8.52-18.88-17.32-27.8-26.49-10.25-10.53-17.98-22.67-20.02-37.63-.54-3.96-2.65-5.88-6.36-5.12-10.57,2.15-19.59-1.9-28.56-6.51-4.29-2.2-8.69-4.19-12.89-6.53-4.41-2.46-5.25-5.02-2.62-9.27,1.4-2.27-.1-2.95-1.09-4.09-5.03-5.76-10.14-11.45-15.13-17.23-1.29-1.5-2.47-3.15-3.37-4.91-1.89-3.68-.85-6.76,3.09-7.89,4.13-1.18,3.2-2.83,1.27-5.18-1.6-1.96-3.36-3.48-5.85-4.4-3.25-1.21-6.36-3.35-4.88-7.37,1.36-3.71,4.65-3.06,8.05-2.47,23.88,4.15,43.5,16.62,62.21,31.06,6.86,5.29,14.57,9.21,22.71,12.25,.8,.39,1.67,.34,2.53,.43,1.27,.24,2.47,1.13,3.85,.41,11.27,9.55,24.62,15.91,36.89,23.92-27.58,1.83-50.62-9.13-71.87-25.27-8.81-6.69-17.01-14.22-26.73-19.7-1.44-.81-2.85-1.75-4.39-2.33-2.78-1.05-6.24-3.27-6.17,2.59-7.53,6.17,.04,9.27,2.95,12.84,3.55,4.36,7.9,8.06,11.86,12.09,2.35,2.39,4.46,4.94,4.05,8.62-.22,1.94,1.17,2.7,2.51,3.24,6.12,2.5,12.18,4.86,19.05,5.07,12.66,.39,20.29,5.08,19.83,18.02-.02,.57,.49,1.17,.76,1.75,4.46,15.41,14.32,26.97,25.96,37.56,17.2,15.66,34.42,31.3,53.03,45.28,26.28,19.75,53.27,38.58,79.09,58.93,9.75,7.68,20.94,13.53,29.19,23.17,5.1,5.96,9.24,12.58,13.73,18.95,5.76,8.17,13.43,12.63,23.21,13.76,9.53,1.1,18.18,5.13,27.06,8.27,6.16,2.18,9.47,7.74,11.79,13.53,1.87,4.68,4.42,7.72,9.89,7.04-1.95,3.29-5.62,5.26-6.97,9.02Z"/>
      <path class="cls-6" d="M969.68,895.88c3.15-1.6,6.28-1.43,9.51-.15,5.56,2.22,6.1,4.12,2.36,8.91-.84,1.69-2.23,2.85-3.75,3.9-11.41,7.87-24.07,13.41-36.42,19.54-.79,.39-1.58,.85-1.98,.56,5.75-1.62,11.89-3.27,18.2-4.21,10.2-1.52,20.54-1.19,30.78-2.71,6.6-.98,12.61-2.65,18.21-6.14,3.11-1.93,6.22-3.86,9.44-5.6,1.77-.95,3.61-1.9,5.51-.2,.26,1.54-.67,2.52-1.71,3.37-7.85,6.37-13.38,14.73-19.51,22.58-5.9,7.57-13.37,13.42-21.43,18.48-5.73,3.59-11.74,3.04-17.62,.13-10.6-5.25-20.75-11.27-30.39-18.12-2.04-1.45-3.55-1.84-5.77-.43-14.19,9.02-30.28,13.38-46.06,18.49-2.86,.93-3.96-.35-4.75-2.74-.52-1.58-.16-3.16,.51-4.35,4.82-8.57,3.74-16.55-.97-24.96-3.87-6.9-1.74-11.44,5.98-16.44,.74-1.18,1.84-2,3.12-2.38,8.3-2.51,16.04-6.43,24.14-9.45,1.21-.04,2.4-.5,3.63-.18,1.9-.57,3.78-1.18,5.69-1.68,1.63-.43,3.38-.69,4.62,.78,1.26,1.49,.57,3.07-.11,4.64-3.11,7.16-9.19,11.54-15.01,16.17-3.05,2.43-6.44,4.61-7.02,8.84,.79,.88,1.53,.51,2.01,.23,10.27-5.91,21.86-7.06,33.17-9.29,13.44-2.65,24.93-9.36,35.63-17.62Z"/>
      <path class="cls-6" d="M659.85,899.98c2.47-1.93,5.08-2.25,8.25-1.73,5.63,.91,11.42,.75,16.95,2.47,7.71-.14,15.11,1.6,22.37,3.94,7.49,2.41,15.1,3.78,23,3.76,8.42-.02,16.48,2.39,24.26,5.18,6.47,2.32,12.76,3.11,19.52,2.3,7.38-.88,11.24,2.91,10.69,9.86-.32,4.56-2.7,8.25-5.56,11.46-13.54,15.18-28.95,27.86-48.31,35.09-11.16,4.17-16.85,.39-17.41-11.62-.06-1.32-.13-2.68,.1-3.98,2.23-12.79-3.63-22.67-11.83-31.38-10.67-11.34-23.46-19.51-38.71-23.46-1.31-.34-2.61-.56-3.31-1.89Z"/>
      <path class="cls-23" d="M784.89,925.75c-3.16-8.85-3.47-9.04-13.68-8.07-5.2,.49-10.09-.23-15.07-2.07-9.48-3.5-19.2-6.13-29.51-5.91-6.51,.14-12.82-1.42-18.94-3.52-7.38-2.54-15.18-3.28-22.64-5.46,1.04-1.18,2.46-.86,3.74-.83,24.26,.54,48.43-1.78,72.66-2.44,27.06-.74,54.1-1.84,81.17-1.49,9.4,.12,18.47-1.78,27.58-3.3,12.27-2.05,24.38-1.75,36.55,.24,.59,.49,1.62,.74,.99,1.87-9.01,4.4-18.41,7.83-27.9,11.03-1.01-1.22-2.42-.88-3.7-.89-15.09-.19-30.02,1.86-44.98,3.35-7.39,.73-14.78,2.45-22.14,2.28-9.39-.22-14.97,5.11-20.44,11.24-1.2,1.35-2.05,3.02-3.69,3.97Z"/>
      <path class="cls-33" d="M1054.72,614.44c-7.52-20.69-17.66-40.27-26.05-60.57-8.88-21.46,2.07-29.12,22.15-27.69,12.71,.91,24.11,6.83,35.78,11.49,3.49,16.46-5.27,31.92-21.04,35.92-8.48,2.15-11.28,5.48-10.38,15.56,.26,2.96,.82,5.91,1.57,8.8,.46,1.77,.96,3.54,.14,5.34-1.09,2.01-1.13,4.09-.4,6.23,.19,.74,.28,1.48,.27,2.24-.26,1.21-.09,2.75-2.03,2.69Z"/>
      <path class="cls-6" d="M1161.7,881.88c5.02-.42,8.32-4.6,12.95-5.87,2.14-2.18,4.61-2.9,6.99-.7,2.43,2.25,.76,4.61-.55,6.71-1.89,3.01-4.95,4.85-7.5,7.21-10.07,9.32-20.65,18.16-28.75,29.42-2.91,4.05-6.44,7.58-9.98,11.09-2.92,2.9-3.35,6.06-.8,8.63,2.41,2.43,4.66-.09,6.52-1.28,14.15-8.99,28.24-18.08,42.82-26.38,2.33-1.33,4.68-2.61,7.39-2.78,2.71-.17,3.18,.65,2.42,3.69-19.59,15.75-40.04,30.29-61.48,43.44-4.55,2.79-9.31,3.92-14.68,3.79-5.77-.14-9.39-3.97-13.4-6.98-1.83-1.37-1.6-4.24-.39-6.5,1.88-3.51,3.51-7.2,6.28-10.14,8.36-8.85,15.75-18.47,22.99-28.22,5.02-6.75,10.96-12.43,18.28-16.71,3.12-1.83,5.83-4.34,8.73-6.54,.66-.7,1.41-1.29,2.16-1.89Z"/>
      <path class="cls-6" d="M643.04,819.03c4.57-6.71,9.69-12.99,15.49-18.66,10.84-10.57,15.16-23.8,16.23-38.44,.04-.5,.02-1,.08-1.49,2.24-17.93,6.92-20,24.78-17.66,6.59,.86,13.15,3.31,19.24,6.42,.22,.98-.4,1.36-1.16,1.64-.49,.09-.99,.14-1.49,.05-11.33-2.18-18.9,2.55-22.29,13.92-1.86,6.25,.34,10.19,6.73,12,.96,.27,1.94,.46,2.86,.88,5.44,2.49,6.22,8.34,1.32,11.84-5.4,3.86-10.74,7.81-16.63,10.99-12.55,6.77-23.73,15.89-37.03,21.39-2.45,1.01-4.47,2.86-6.49,4.6-1.24,1.06-2.68,2.69-4.33,1.6-2.04-1.35-.43-3.29,.04-4.95,.47-1.63,1.28-3.06,2.65-4.12Z"/>
      <path class="cls-28" d="M1055.77,611.27l-.23-1.79c-.49-2.02-.81-4.03,.22-5.98,1.03-4.05-1.66-7.59-1.55-11.55,.06-2.12-.57-4.26-.69-6.4-.41-7.33,2.44-11.1,9.64-12.61,10.59-2.23,18.17-8.07,21.05-18.64,1.46-5.36,.62-11.21,2.38-16.62,4.34,2.32,8.68,4.64,13.02,6.96-.91,.68-1.01,1.66-.99,2.68,.22,17.82-12.67,33.12-30.63,37.2-1.98,.45-2.56,1.45-2.29,3.08,.4,2.43,.73,4.97,1.7,7.2,1.41,3.23,1.67,6.4,.71,9.68-.5,1.71-.6,3.18,.65,4.64,7.85,9.19,5.42,19.55,3.01,29.73-.78,3.3-2.21,6.58-4.37,9.43-1.27,1.68-2.58,3.01-4.8,3.1,.11-5.44,.44-10.9-1.88-16.06,1.97-3.56,2.3-7.02-.46-10.39-1.25-1.53-1.68-3.5-2.59-5.22-1.55-2.6-1.46-5.57-1.91-8.42Z"/>
      <path class="cls-28" d="M643.04,819.03c-.94,2.77-1.89,5.55-2.84,8.35,.88,.93,1.66,.13,2.09-.34,5.42-5.96,12.78-8.73,19.82-11.92,8.65-3.92,15.28-10.87,23.9-14.94,6.38-3.01,11.93-7.72,17.98-11.46,2.26-1.4,3.07-2.96,3.02-5.6-.06-2.99-2.37-3.25-4.15-4.26-.56-.32-1.25-.44-1.89-.61-8.51-2.26-11.04-6.76-7.95-15.02,1.95-5.21,5.55-9.47,9.77-13.01,4.86-4.08,10.04-1.75,15.08-.05,1.31,.54,2.93-.21,4.08,.98,5.73,1.81,10.76,5.03,15.94,7.95-9.43,3.23-18.73,3.56-27.77-1.34-1.28-.7-2.19-.22-2.95,.89-1.32,1.9-2.68,3.78-4.03,5.66-2.33,3.27-1.64,5.47,2.32,6.52,.16,.04,.32,.08,.48,.14,3.94,1.64,9.03,2.61,9.67,7.51,.71,5.43-2.51,9.85-6.85,12.99-5.09,3.68-10.54,6.88-15.61,10.6-.97,.71-6.81,1.5-1.02,4.61,1.39,.75-.81,2.48-1.98,3.15-5.96,3.4-12.46,5.68-19.1,6.96-5.22,1.01-9.97,2.68-14.02,5.84-5.27,4.11-11.19,7.09-16.81,10.59-1.55,.96-3.41,2.75-5.38,.85-1.82-1.77-.48-3.66,.25-5.5,.97-2.45,3.24-4.63,1.81-7.66,1.82-1.32,4.06-1.29,6.11-1.89Z"/>
      <path class="cls-28" d="M1193.22,911.63c.54-2.6-.63-3.51-2.99-2.69-2.02,.7-4,1.59-5.86,2.64-14.04,7.91-27.57,16.63-41.16,25.28-3.08,1.96-6.13,3.95-10.13,4.63-.89-2.26,.48-5.32-2.63-6.89-1.31-.66,.32-2.01,.98-2.75,13.66-15.09,26.11-31.32,42.13-44.17,2.32-1.86,4.45-4,6.48-6.17,1.33-1.42,2.9-3.13,1.53-5.26-1.27-1.97-3.19-1.16-4.96-.61-.63,.2-1.3,.27-1.95,.39-.49-3.01,1.87-3.4,3.83-4.17,3.82-.4,7.14,.61,8.56,4.4,1.46,3.89,.15,7.21-2.65,10.41-8.47,9.66-19.75,16.1-28.56,25.34-3.7,3.88-6.39,8.35-9.08,13.37,2.92,.57,4.38-1.04,6.05-2.29,6.62-4.94,12.38-10.92,19.39-15.39,9.77-6.24,18.91-6.59,27.36-.87-2.24,1.44-3.68,3.92-6.33,4.83Z"/>
      <path class="cls-21" d="M1021.54,909.8c-3.22-.74-5.54,1.35-7.62,3.01-11.26,9.02-24.77,11.04-38.35,11.68-11.69,.55-23.12,1.79-34.37,4.9-1.08,.3-2.28,.2-3.58-.08,14.49-8.54,30.16-14.93,43.93-24.66,4.34,1.8,8.64,.03,12.89-.36,9.52-.88,18.99-2.31,28.48-3.45,1.98-.24,4-.12,5.79,.98-.17,4.65-4.73,5.37-7.18,7.97Z"/>
      <path class="cls-17" d="M1058.47,619.53c1.3,2.09,2.59,4.19,3.92,6.26,2.17,3.39,1.5,7.28-1.66,9.51-1.07-4.53-2.13-9.05-3.2-13.58-.25-.97-.96-2.14,.94-2.19Z"/>
      <path class="cls-19" d="M1058.47,619.53c-.31,.73-.63,1.46-.94,2.19-1.3-2.29-2.34-4.67-2.81-7.28,1.18-.79,.77-2.09,1.04-3.17,.9,2.75,1.8,5.51,2.7,8.26Z"/>
      <path class="cls-4" d="M609.86,827.06c-2.26,.81-4.37,2.8-6.98,.88,2.23-1.04,4.56-1.3,6.98-.88Z"/>
      <path class="cls-15" d="M601.19,828.91c-1.84,1.69-4.1,.92-6.2,1.05-.34-.2-.46-.4-.34-.59,.12-.19,.23-.29,.35-.29,2.08,.48,4.08-1.69,6.19-.17Z"/>
      <path class="cls-32" d="M595,829.08c0,.29-.01,.59-.01,.88-1.98,.88-3.95,1.92-5.97,.1,1.99-.33,3.99-.65,5.98-.98Z"/>
      <path class="cls-1" d="M721.96,751.16c-1.44,.01-2.98,.45-4.08-.98,.33-.33,.66-.65,.99-.98,1.43,.02,2.62,.43,3.09,1.95Z"/>
      <path class="cls-10" d="M1161.7,881.88c-.16,1.27-.55,2.27-2.16,1.89-.69-.33-1.38-.67-2.07-1,1.2-1.31,2.75-.93,4.23-.89Z"/>
      <path class="cls-30" d="M273.33,696.27c-1.36,2.05-2.79,.97-4.22,.09,.42-.9,1.5-.48,2.09-1.04,.71,.31,1.42,.63,2.13,.94Z"/>
      <path class="cls-22" d="M271.2,695.32c-.42,.9-1.3,.88-2.09,1.04-.72-.31-1.44-.62-2.16-.93,.87-.18,1.8-.25,2.29-1.18,.65,.36,1.3,.72,1.96,1.07Z"/>
      <path class="cls-35" d="M1635.38,710.31c-14.49,6.44-28.03,15.36-43.8,18.49-12.31,2.44-24.9,3.56-37.12,6.5-6.38,1.53-12.46,2.15-19.09,1.16-7.33-1.1-14.17,2.12-19.63,6.92-9.22,8.11-19.49,13.13-31.95,12.74-5.44-.17-10.63-2.4-16.22-2.09-4.26,.24-8.2,1.19-11.86,3.26-4.93,2.8-10.13,4.99-15.49,6.76-17.04,5.65-31.16,15.89-44.12,27.93-2.24,2.08-4.46,3.92-7.65,4.26-8.55,.93-16.17,4.71-23.97,7.92-.99,.25-1.26-.14-.97-1.06,3.71-4.35,7.86-8.83,4.91-15.04-3.03-6.39-9.4-7.8-15.64-7.77-9.15,.04-18.12,2.04-27.01,4.18-1.11,.27-2.23,.47-3.77-.09,3.62-2.33,7.16-4.78,10.87-6.96,3.95-2.32,6.59-4.88,5.76-10.15-2.5-15.85,7.76-27.55,13.82-40.6,.5-1.08,1.48-2.57,3.09-1.72,2.09,1.09,2.07,3.21,1.97,5.25-1.7,.39-2.74,1.18-1.61,3.03,4.37,7.19,6.67,15.28,10.07,24.12-1.23-4.72-2.88-8.19-1.55-12.06,2.37-4.17,1.2-8.74,.99-13.03-.26-5.43,2.1-8.99,6.04-12.03,4.09,5.81,5.9,12.57,7.79,19.23,1.53,5.4,2.62,10.95,3.83,15.91,.13-3.74-3.31-7.82-.63-12.22,3.69-.99,2.83-4.08,2.79-6.53-.13-8.31,.74-16.23,7.2-22.41,1.42,1.25,1.34,2.98,1.34,4.62,.03,12.05,2.76,23.65,5.88,35.18-.73-4.43-1.9-8.76-2.9-13.13-.44-1.93-.98-3.93,.66-5.64,4.96-2.85,6.43-8.21,8.29-12.86,2.04-5.1,5.43-9.27,7.73-14.11,2.11,2.41,1.27,5.35,1.35,8.08,.33,11.5,.8,22.98,4.13,34.44-.33-5.12-3.27-9.66-1.42-14.67,3.05,.75,3.13-1.82,3.69-3.51,2.92-8.88,8.01-16.56,13.2-24.19,.73-1.07,1.36-2.34,3.03-2.08,.84,5.73-.57,11.41,.05,17.26,1.06,10.08,2.77,19.96,5.12,29.77,.17,.64,.81-.47,.28-.06-.13,.1-.25-.02-.3-.38-.97-6.22-2.06-12.42-3.01-18.65-.22-1.48-.37-3,.93-4.16,2.15,.01,2.67-1.9,3.39-3.23,8.08-14.89,20.77-23.64,36.83-28.2,14.99-4.26,30.22-7.52,45.32-11.36,20.9-5.3,42.4-7.3,63.46-11.8,10.82-2.31,21.87-3.59,32.81-5.34,.45,1.31-.55,1.76-1.39,2.25-13.69,7.95-13.62,24.92,.05,33.21,3.86,2.34,8.07,2.9,12.36,3.46,.84,.11,1.6,.44,2.13,1.16Z"/>
      <path class="cls-21" d="M1452.39,813.03c-5.66,20.44-16.87,37.27-32.25,51.84-13.37,12.66-26.21,25.86-40.19,37.89-7.4,6.36-12.94,5.26-15.31-4.07-2.16-8.48-7.12-14.37-13.98-19.16-5.03-3.51-9.94-7.16-14.61-11.17-6.24-5.34-13.53-9.03-21.28-11.66-7.03-2.38-12.77-6.17-16.31-12.84,6.96-4.35,13.47-9.43,20.95-12.93,14.73-.58,29.25-2.89,43.74-5.35,13.51-2.3,27.1-4.01,40.71-5.68,14.09-1.73,28.1-4.07,42.12-6.34,2.16-.35,4.26-.51,6.42-.54Z"/>
      <path class="cls-35" d="M1785.36,670.28c-.8,1.1-2.01,1.21-3.15,1.02-15.14-2.55-29.42,3.03-44.12,4.59-.66,.07-1.33,.46-1.94,.36-9.2-1.46-16.53,3.01-24.22,7.04-19.8,10.37-41.29,16.09-62.72,21.91-1.42-2.11,.52-3.26,1.39-4.67,1.13-1.82,2.02-3.72,2.65-5.76,.14-.44,.32-.86,.51-1.28,2.4-6.25,1.38-11.96-2.73-17.18-.31-.35-.58-.73-.84-1.12-4.33-6.11-10.25-7.65-17.28-5.97-1.29,.21-2.53,.19-3.52-.85,10.03-4.59,20.8-6.33,31.56-7.88,19.04-2.73,38.09-.77,57.1,.65,11.65,.87,23.17-1.29,34.81-.75,9.53,.44,18.77,1.8,27.8,4.86,2.63,.89,4.43,2.14,4.69,5.03Z"/>
      <path class="cls-8" d="M1629.39,668.37c1.28,0,2.56-.02,3.84-.03,7.4-1.27,13.44,.96,17.99,6.99,4.37,5.79,5.04,12.16,3,18.96h0c-1.33,4.28-4.13,7.65-6.91,11.02-3.31,3.25-8.03,3.15-11.93,5-7.98,.27-14.9-1.93-20.58-7.9-5.97-6.27-8.06-17.55-1.31-26.89,2.25-3.12,6.12-3.05,8.74-5.29,2.01-2.07,5.1,.02,7.16-1.86Z"/>
      <path class="cls-11" d="M1440.42,730.15c.98,6.35,2.03,12.68,2.9,19.04,.26,1.93,.04,3.93,.04,7.15-3.85-5.79-4.48-11.38-5.28-16.78-1.5-10.07-3.75-20.14-1.7-30.42,.19-.96,.64-1.86,.98-2.79,2.97,.63,2.02,2.98,1.94,4.76-.3,6.39-.26,12.75,1.12,19.03Z"/>
      <path class="cls-3" d="M1417.44,736.14c1.13,5.29,2.24,10.59,3.41,15.87,.21,.95,.89,2.14-.26,2.59-1.44,.56-1.94-.88-2.39-1.91-2.23-5.2-3.26-10.78-3.68-16.29-.7-9.34-1.75-18.71-1.14-28.12,.31-1,.84-2.01,1.99-1.83,1.63,.26,1.19,1.76,1.22,2.83,.3,8.95,.56,17.9,.83,26.84Z"/>
      <path class="cls-11" d="M1397.38,735.27c.05,6.17,2.64,11.85,3.57,17.85,.3,1.93,.64,3.71-.67,5.55-5.12-14.4-8.47-29.06-7.89-44.43,2.4-3.29,2.76-.58,2.94,1.15,.5,4.86,.8,9.75,1.1,14.63,.11,1.8,.1,3.6,.95,5.25Z"/>
      <path class="cls-3" d="M1382.41,743.17c-.4,5.46,2.91,10.54,1.63,16.84-3.22-4.32-3.48-9.03-4.42-13.31-1.76-7.97-4.28-15.62-7.45-23.1-.44-1.03-.5-2.23-.73-3.35,2.72-.94,3.31,1.01,4.2,2.88,3.04,6.42,4.49,13.38,6.79,20.04Z"/>
      <path class="cls-9" d="M1364.39,745.31c1.01,4.71,2.02,9.41,3.11,14.46-2.86-.52-2.68-2.45-3.26-3.85-3.19-7.75-5.51-15.87-9.95-23.09-.77-1.25-1.64-2.94-.18-4.01,1.33-.98,2.13,1.15,3.38,1.4,2.23,5.07,4,10.34,6.9,15.1Z"/>
      <path class="cls-7" d="M1363.49,803.11c.32,.35,.65,.71,.97,1.06-1.13,1.2-2.54,1.78-4.17,1.85,.81-1.26,1.75-2.36,3.2-2.91Z"/>
      <path class="cls-14" d="M907.73,894.77c-.33-.62-.66-1.25-.99-1.87,1.39,0,2.9-.49,3.98,.9-1,.32-1.99,.65-2.99,.97Z"/>
      <path class="cls-24" d="M1625.35,741.35c17.05-5.9,44-7.17,49.27-2.04-16.27,1-32.29,1.98-48.31,2.96-1.03,.44-1.18-.05-.96-.92Z"/>
      <path class="cls-25" d="M1647.31,705.31c1.55-4.15,4.95-7.13,6.91-11.02,.32,4.54-3.83,7.05-5,10.91-.64,.04-1.27,.08-1.91,.11Z"/>
      <path class="cls-37" d="M1625.35,741.35c.32,.31,.64,.61,.96,.92-1.48,1.44-3.34,.87-5.08,.94-.29-.24-.37-.46-.24-.66,.12-.19,.23-.28,.34-.28,1.34-.3,2.68-.61,4.02-.91Z"/>
      <path class="cls-12" d="M1621.33,742.26c-.06,.31-.09,.63-.1,.94-.82,1.07-1.85,1.21-3.52,.5,1.44-.58,2.53-1.01,3.62-1.45Z"/>
      <path class="cls-19" d="M1055.76,603.49c-.07,1.99-.15,3.99-.22,5.98-1.3-2.05-1.5-4.05,.22-5.98Z"/>
      <path class="cls-25" d="M1654.22,694.29c.28-6.52,.25-12.99-3-18.96,5.24,4.45,6.65,13.34,3,18.96Z"/>
      <path class="cls-25" d="M1651.22,675.33c-5.05-4.76-10.99-7.23-17.99-6.99,7.36-2.67,14.97,.28,17.99,6.99Z"/>
      <path class="cls-20" d="M1630.96,707.26c-10.32-.04-18.73-8.61-18.72-19.05,.02-11.56,7.84-17.94,21.9-17.87,10.89,.05,19.55,7.5,18.9,17.4-.69,10.36-8.1,19.62-22.08,19.52Z"/>
      <path class="cls-26" d="M1649.39,689.28c-1.65,8.11-7.17,12.4-14.79,13.79-7.28,1.33-13.25-1.44-17.33-7.8,1.18-4.63,4.67-3.61,7.9-3.24,1.38,.59,2.44,1.6,3.54,2.59,4.29,3.82,4.96,3.74,8.11-1.1,.63-.96,1.18-1.96,2.08-2.72,.39-.3,.8-.56,1.24-.78,2.84-.83,5.58-2.35,8.7-1.28,.18,.17,.36,.35,.54,.53Z"/>
      <path class="cls-27" d="M1639.26,691.3q-5.59,10.25-13.83,1.84c-1.29-1.4-3.1-2.43-3.17-4.66-.05-.73,.05-1.44,.24-2.14,.87-1.77,1.21-4.7,4.18-1.93,1.02,1,2.15,1.23,3.42,.46,2.31-1.17,3.76-4.7,7.23-2.6,1.32,.63,1.79,1.82,2.08,3.14,2.8,2.03,1.14,3.96-.14,5.89Z"/>
      <path class="cls-36" d="M1626.01,685.48c-2.09-3.19-1.67,1.04-2.72,.92-2.34-1.08-4.71,.87-7.05-.1-.44-9.89,17.77-17.69,26.17-11.86,1.06,.74,2.58,1.36,2.27,2.92-.3,1.49-2,.73-2.97,1.26-1.55,.84-3.73,.62-4.5,2.73-1.93,.46-3.31-1.05-5.01-1.39-2.27-.45-4.32-.52-4.39,2.66-.23,1.19-.52,2.34-1.81,2.86Z"/>
      <path class="cls-2" d="M1639.26,691.3c-.35-1.97,1.65-3.89,.14-5.89,1.3-.91,2.47-1.86,4.18-2.25,5.63-1.28,7.04,.1,5.81,6.12,0,0-.3,.04-.3,.04-3.62-2.32-6.26-.24-8.88,1.96-.32,.01-.63,.02-.95,.02Z"/>
      <path class="cls-29" d="M1627.23,682.35c-2.18-3.06-.06-3.69,2.35-4.04,3.1-.45,5.33,1.42,7.64,3.04,.01,.31,.05,.62,.1,.93-3.42-.52-4.62,2.83-7.05,4.04-1.3-1.1-1.81-2.81-3.04-3.97Z"/>
      <path class="cls-18" d="M1623.1,688.38c.78,1.59,1.55,3.18,2.33,4.76-3.07-.63-6-.71-8.16,2.14-1.91-1.72-.71-3.96-1.01-5.94,2.02-2.14,4.22-3.03,6.84-.96Z"/>
      <path class="cls-13" d="M1623.1,688.38c-2.39-.47-4.59,.39-6.84,.96,0-1.01,0-2.02-.01-3.03,2.35,.2,4.76-4.44,7.05,.1-.07,.66-.13,1.32-.2,1.98Z"/>
      <path class="cls-16" d="M1640.21,691.28c1.11-4.39,5.19-3.57,8.2-4.43,.76-.22,.72,1.53,.69,2.47-3.13-.11-6.01,.9-8.88,1.96Z"/>
      <path class="cls-5" d="M1627.23,682.35c3.36-.47,3.23,1.72,3.04,3.97-1.67,1-3.21,1.33-4.26-.83,.41-1.04,.81-2.09,1.22-3.13Z"/>
    </g>
  </g>
</svg>