<svg width="134" height="102" viewBox="0 0 134 102" fill="none" xmlns="http://www.w3.org/2000/svg">
<path d="M49.5999 1.91C49.5999 1.91 51.6 6.98002 53.48 20.81C21.94 21.76 -29.76 59.22 22.34 92.23C50.56 109.39 65.52 102.47 76.38 80.44L80.7299 81.76C80.7299 81.76 75.17 45.61 76.5 39.51C69.67 48.35 77.26 68.98 72.58 76.11C58.85 106.89 2.40995 87.28 14.48 57.32C22.84 45.05 54.36 46.63 54.36 46.63L63.37 67.88C63.37 67.88 63.7 74.15 79.42 52.55C99.94 56.46 132.57 60.46 133 36.77C133.43 13.08 80.42 16.24 80.42 16.24C80.42 16.24 50.7899 -4.27995 49.5999 1.90005V1.91Z" fill="#4E3100"/>
</svg>
