<svg width="1656" height="522" viewBox="0 0 1656 522" fill="none" xmlns="http://www.w3.org/2000/svg">
<path d="M169.209 194.176C182.899 200.596 196.449 207.436 209.629 214.716C249.959 236.986 293.469 252.306 334.479 273.036C365.989 288.956 399.669 299.336 433.459 309.246C435.589 309.866 437.249 310.266 438.569 307.996C440.689 304.326 445.339 306.536 448.009 304.056C450.239 305.296 452.199 303.486 454.309 303.496C456.309 303.696 458.229 303.186 460.179 302.906L461.869 301.936C464.279 302.316 466.519 301.346 468.849 301.056C477.869 299.006 486.889 296.966 495.919 294.916C499.089 296.206 496.969 298.296 496.649 300.056C496.259 302.216 493.319 304.616 495.449 306.336C497.659 308.116 499.949 305.256 502.009 304.096C506.789 301.406 511.459 298.546 515.859 295.256C519.769 292.326 524.209 290.576 529.039 289.656C534.939 288.526 540.579 286.536 546.009 283.996C547.609 283.246 549.279 282.726 548.079 279.986C547.019 277.566 549.519 276.166 551.309 275.086C556.299 272.076 560.829 268.416 565.709 265.266C568.699 263.336 571.039 260.826 572.369 257.426C574.109 252.956 573.429 250.836 569.249 248.296C567.389 247.166 565.309 246.546 563.329 245.676C559.859 244.146 559.039 241.976 560.669 238.496C561.809 236.076 563.529 234.026 565.299 232.036C566.519 230.656 568.079 230.086 569.789 230.846C577.659 234.326 585.679 235.376 594.029 232.706C594.899 232.426 596.019 232.416 596.889 233.096C603.419 236.066 609.479 239.916 615.349 243.946C624.009 249.906 633.119 250.566 643.309 249.126C671.179 245.186 697.989 237.216 724.849 229.256C767.859 216.496 809.989 201.146 852.499 186.886C863.979 183.036 875.539 179.096 887.369 176.786C896.649 174.976 901.079 169.226 905.319 162.026C912.169 150.396 917.479 138.146 921.599 125.346C931.279 115.946 933.279 103.866 930.479 91.7964C928.859 84.8164 925.079 78.2964 925.519 70.7164C925.579 69.6364 924.809 68.5264 924.489 67.4164C922.319 59.9064 922.999 59.0665 930.189 56.3665C944.599 50.9465 954.619 40.6765 956.309 23.2465C956.479 21.4965 955.699 19.0965 958.609 18.6365C973.279 26.2565 986.859 35.6564 998.979 46.7064C1020.6 66.4064 1044.57 82.3964 1070.62 95.4664C1080.82 100.586 1091.36 103.466 1103.06 103.686C1122.17 104.046 1140.99 102.576 1159.84 99.7264C1171.93 97.8964 1184.15 96.8865 1196.42 96.3065C1211.62 95.5865 1226.75 93.4865 1241.95 92.6965C1263.16 91.5865 1284.39 89.0464 1305.64 90.7064C1315.13 91.4464 1324.57 91.5065 1334.02 91.3765C1354.31 91.1065 1374.48 93.3864 1394.75 93.7964C1409.15 94.0864 1423.56 95.1965 1438 95.6265C1448.22 95.9365 1458.4 97.6764 1468.61 98.7264C1477.66 99.6564 1486.7 100.856 1495.77 101.356C1508.2 102.036 1520.68 102.006 1533.12 102.536C1550.74 103.296 1567.76 107.246 1584.71 111.966C1600.33 116.316 1616.28 119.486 1632.02 123.426C1639.16 125.216 1645.96 128.056 1651 133.746C1654.71 137.926 1656.42 142.746 1654.2 148.326C1649.15 150.506 1646.82 149.686 1643.05 144.416C1641.74 141.806 1639.26 140.856 1636.72 139.966C1623.08 135.156 1608.88 134.966 1594.83 136.226C1582.61 137.326 1570.63 135.916 1558.58 135.226C1535 133.866 1511.79 135.056 1489.38 143.296C1486.98 145.106 1483.92 144.326 1481.31 145.326C1453.73 149.946 1426.15 154.586 1398.7 159.866C1376 164.236 1353.32 169.226 1331.53 177.136C1320.13 181.276 1311.3 189.096 1305.08 199.706C1303.81 201.876 1303.11 205.436 1299.08 204.316C1296.87 201.676 1297.14 198.466 1296.95 195.346C1296.69 191.106 1297.68 186.786 1296.21 182.646C1293.98 182.406 1293.58 184.416 1292.69 185.646C1287.91 192.286 1284.17 199.486 1281.22 207.116C1280.33 209.416 1279.52 212.216 1275.98 210.206C1274.39 203.186 1274.59 195.996 1274.02 188.876C1273.88 187.176 1275.14 185.056 1272.89 183.826C1268.4 190.546 1265.58 198.086 1261.76 205.106C1260.6 207.236 1259.76 210.246 1256.16 209.506C1252.73 204.666 1254.1 198.906 1253.07 193.606C1252.83 192.376 1254.22 190.346 1251.61 190.076C1247.35 194.706 1245.75 200.236 1245.78 206.376C1245.79 208.996 1246.03 211.646 1245.37 214.216C1244.92 215.996 1244.22 217.716 1241.89 217.706C1239.1 216.636 1238.84 213.976 1238.26 211.636C1237.18 207.286 1235.75 203.066 1233.88 199.016C1233.24 197.626 1232.91 195.626 1230.53 196.196C1226.86 198.836 1225.82 202.456 1225.7 206.866C1225.58 211.086 1227.4 215.716 1223.97 219.516C1222.08 219.796 1221.28 218.476 1220.72 217.106C1219 212.866 1216.47 208.956 1215.42 204.436C1214.88 203.336 1215.66 201.416 1213.9 201.146C1212.31 200.906 1211.84 202.576 1211.23 203.696C1207.49 210.536 1204.22 217.616 1200.82 224.626C1198.06 230.316 1198.53 236.326 1198.91 242.216C1199.19 246.516 1197.5 249.156 1194.25 251.306C1191.23 253.306 1188.14 255.196 1185.05 257.146C1192.91 254.986 1200.93 253.996 1208.93 252.946C1213.31 252.366 1217.54 253.376 1221.51 255.266C1229.96 259.296 1231.84 266.356 1226.54 274.036C1225.69 275.266 1224.76 276.436 1223.66 277.456C1222.35 278.516 1221.06 279.606 1219.88 280.816C1209.03 289.836 1196.49 296.166 1184.23 302.936C1182.5 303.896 1180.68 304.686 1179.02 305.776C1171.66 309.516 1165.12 314.586 1158.06 318.806C1154.09 321.246 1150.84 325.076 1145.67 325.226C1140.73 325.256 1137.69 329.116 1134.03 331.416C1112.9 344.676 1091.99 358.306 1071.07 371.906C1066.78 374.686 1062.73 377.836 1058.57 380.816C1058.09 381.016 1057.57 381.076 1057.13 380.846C1044.64 374.456 1034.58 379.906 1025.21 387.656C1020.98 391.146 1016.71 394.606 1012.47 398.076C1010.68 399.546 1008.44 401.686 1006.32 400.026C1003.85 398.096 1006.38 395.796 1007.43 393.946C1012.05 385.826 1018.93 379.766 1026.31 374.296C1031.42 370.516 1036.03 366.226 1040.46 361.716C1047.87 354.176 1047.1 350.006 1037.55 346.096C1038.14 342.306 1041.68 341.686 1044.24 340.306C1051.11 336.606 1058.15 333.236 1064.92 329.336C1072.12 325.196 1072.93 323.256 1072.09 314.966C1071.47 308.896 1075.26 305.136 1080.13 302.336C1086.34 298.766 1093.17 296.526 1099.7 293.656C1113.3 287.656 1125.6 279.456 1138.31 271.956C1143.31 269.006 1148.2 265.856 1153.36 263.176C1157.33 261.116 1160.6 258.416 1161.1 253.536C1161.09 252.536 1161.35 251.486 1161.07 250.546C1158.5 241.776 1162.05 234.696 1167.04 227.876C1172.91 219.846 1178.42 211.566 1184.22 202.596C1169.71 207.386 1156.01 212.406 1143.42 219.826C1127.59 229.156 1110.7 236.186 1094.1 243.896C1065.53 257.186 1035.94 267.856 1006.25 278.236C995.739 281.906 985.179 285.556 974.459 288.626C973.819 288.806 973.199 289.066 972.559 289.226C969.989 289.886 966.779 291.166 965.569 287.886C964.289 284.426 967.789 283.556 970.149 282.636C1000.54 270.856 1028.58 254.356 1056.65 238.186C1075.5 227.326 1093.8 215.516 1113.13 205.386C1126.41 198.426 1138.14 188.946 1149.69 179.376C1153.65 176.086 1156.4 171.986 1157.04 166.746C1157.62 161.966 1156.53 160.616 1151.76 160.656C1142.39 160.736 1133.15 162.086 1124.25 164.996C1114.12 168.316 1103.99 171.546 1093.52 173.696C1083.35 175.786 1074.12 180.716 1064.29 183.786C1040.57 191.196 1017.98 201.566 994.609 209.796C960.059 221.956 926.119 235.706 891.549 247.776C850.979 261.936 809.839 274.236 768.589 286.176C737.419 295.196 705.949 303.226 674.619 311.696C657.909 316.216 641.229 320.866 624.769 326.236C611.189 330.676 596.849 332.686 583.889 339.076C582.709 339.656 581.319 339.746 580.029 340.066C570.879 342.316 562.139 340.086 554.499 335.686C536.999 325.606 519.839 328.786 502.609 335.536C489.539 340.656 476.339 345.046 462.319 346.716C457.689 347.266 452.969 347.846 448.419 347.786C431.799 347.576 415.279 349.866 398.579 348.516C373.859 346.516 349.889 341.346 326.159 334.546C308.489 329.486 291.849 321.766 275.149 314.286C234.759 296.206 197.909 271.826 160.229 248.956C148.269 241.706 138.379 232.186 130.289 220.766C127.709 217.126 125.199 213.296 120.729 211.556C118.909 210.356 119.159 208.416 118.949 206.636C118.069 199.216 115.059 195.716 107.849 193.716C105.109 192.956 102.349 192.466 99.4886 192.486C92.9786 192.546 87.1386 190.106 81.3686 187.496C79.2886 186.556 77.8986 184.976 77.6686 182.566C77.3286 179.026 75.1986 176.506 72.8286 174.096C67.6986 168.886 62.4786 163.786 57.5786 158.356C55.2986 155.826 54.2986 153.886 56.9786 151.246C57.4486 150.786 57.8186 150.216 58.1486 149.636C61.5586 143.676 62.4486 143.406 68.7686 146.646C77.8586 151.316 85.4786 158.066 93.5486 164.186C103.219 171.526 112.899 178.966 123.979 183.996C135.659 189.296 147.929 192.926 160.979 192.876C163.819 192.876 166.609 193.076 169.269 194.146L169.209 194.176Z" fill="#B2DCFA"/>
<path d="M121.039 211.107C124.309 210.367 125.999 212.977 127.219 214.887C142.229 238.427 165.669 251.637 188.829 265.127C210.809 277.937 232.149 291.897 254.929 303.297C291.009 321.357 328.129 336.697 368.239 343.447C386.949 346.597 405.729 348.567 424.809 347.257C437.739 346.367 450.729 346.727 463.649 345.127C475.649 343.647 487.019 340.257 498.179 335.807C509.179 331.417 520.359 327.817 532.409 327.717C539.149 327.657 545.049 330.047 550.959 332.837C559.689 336.967 568.489 341.097 578.629 338.977C580.409 338.607 582.229 338.297 583.949 337.707C626.959 322.847 670.949 311.317 714.859 299.547C779.079 282.327 842.869 263.737 905.559 241.567C930.469 232.757 954.979 222.817 979.739 213.577C1014.14 200.737 1048.28 187.117 1083.16 175.717C1103.08 169.207 1123.15 162.257 1144.21 159.627C1146.35 159.357 1148.52 159.237 1150.68 159.157C1158.23 158.867 1159.59 160.347 1158.28 167.827C1157.32 173.337 1154.03 177.507 1149.82 180.967C1132.66 195.037 1114.6 207.667 1094.2 216.777C1080.15 223.057 1068.72 233.757 1055.17 240.837C1026.76 255.687 999.589 273.037 969.319 284.247C967.789 284.817 965.089 285.177 966.089 287.697C966.989 289.967 969.169 288.857 970.889 288.317C1012.47 275.257 1053.56 260.907 1093.26 242.797C1110.36 234.997 1127.64 227.617 1143.89 218.067C1157.25 210.217 1171.9 205.397 1187.77 199.897C1181.11 209.657 1175.33 218.347 1169.32 226.867C1164.18 234.157 1158.94 241.297 1162.53 251.027C1162.84 251.877 1162.43 252.997 1162.35 253.987C1159.86 256.347 1156.64 255.397 1153.77 255.697C1141.51 256.957 1130.19 261.287 1118.93 265.867C1103.83 272.007 1089.19 279.227 1073.86 284.817C1054.8 291.767 1034.65 293.627 1014.87 297.237C988.689 302.017 962.399 306.327 936.989 314.557C928.129 317.427 919.489 320.937 910.759 324.167C888.179 332.537 864.699 337.177 841.039 341.137C836.119 341.957 831.229 342.967 826.479 344.557C823.629 345.517 820.839 346.607 818.319 348.247C816.259 349.587 813.299 350.787 813.319 353.357C813.329 355.997 816.599 356.387 818.649 357.077C824.759 359.127 827.269 363.837 828.739 369.507C829.329 371.767 827.299 372.217 826.109 373.177C814.419 382.587 800.959 387.877 786.229 390.147C778.159 391.387 770.169 392.797 762.929 396.967C761.329 397.887 759.029 399.177 757.549 397.087C756.219 395.207 757.669 393.267 758.889 391.677C761.659 388.067 765.489 385.627 768.979 382.827C772.659 379.877 775.829 376.537 777.989 372.317C778.669 370.987 779.479 369.497 778.279 368.147C777.259 367.007 775.819 367.487 774.519 367.827C772.909 368.247 771.339 368.827 769.629 368.597C767.979 368.197 766.309 368.237 764.619 368.247C749.459 365.297 734.469 367.147 719.529 369.857C713.279 370.987 707.019 371.577 700.669 371.427C676.219 370.867 651.779 371.807 627.349 372.597C604.599 373.327 581.859 374.417 559.119 375.387C554.309 375.597 549.479 374.827 544.689 375.627C539.759 375.857 535.059 374.127 530.109 374.027C526.359 373.957 522.629 373.717 518.879 374.007C498.259 374.387 477.629 374.497 457.029 375.317C450.729 375.567 445.839 380.077 441.349 384.377C426.049 398.987 411.949 414.667 399.169 431.517C397.569 433.627 395.759 435.597 394.039 437.627C390.429 439.907 387.719 438.307 385.379 435.537C384.189 434.127 383.679 432.317 382.889 430.667C379.359 423.297 374.199 418.077 365.879 415.827C357.069 413.447 348.449 410.447 339.409 408.767C332.499 407.477 326.969 403.637 322.729 397.797C318.139 391.477 313.709 385.037 308.909 378.867C303.399 371.787 296.049 366.977 288.969 361.717C268.809 346.737 248.929 331.387 228.609 316.627C210.169 303.227 191.589 289.997 174.459 274.947C160.369 262.567 145.779 250.687 133.379 236.507C127.719 230.037 123.589 222.697 121.079 214.467C120.739 213.357 120.229 212.257 121.079 211.157L121.039 211.107Z" fill="#47748E"/>
<path d="M1178.4 304.926C1187.26 299.866 1196.21 294.936 1204.96 289.686C1209.89 286.726 1214.51 283.246 1219.28 280.006C1220.8 279.106 1222.23 278.076 1223.79 277.256C1229.93 273.426 1236.56 270.806 1243.7 269.686C1248.52 268.936 1252.09 266.586 1255.73 263.336C1267.42 252.906 1280.1 243.756 1294.89 238.096C1301.57 235.536 1308.37 233.376 1314.65 229.826C1320.88 226.306 1327.78 225.856 1334.55 227.396C1348.63 230.596 1360.89 227.446 1371.62 217.976C1376.07 214.046 1381.19 211.426 1386.86 209.756C1389.46 208.986 1392.1 208.556 1394.75 209.096C1400.95 210.376 1406.9 209.696 1412.96 207.966C1422.09 205.366 1431.57 204.276 1440.95 203.016C1451.66 201.576 1461.8 198.696 1471.35 193.846C1478.62 190.156 1486.11 186.966 1493.46 183.466C1497.61 181.546 1502.19 180.706 1506.2 178.436C1506.94 178.136 1507.71 177.956 1508.5 177.826C1529.39 171.806 1550.43 166.216 1569.99 156.376C1572.66 155.036 1575.27 153.586 1577.82 152.036C1581.46 149.816 1585.35 148.896 1589.66 148.876C1600.34 148.836 1610.72 146.166 1621.16 144.386C1629.01 143.046 1636.62 142.826 1644.37 144.256C1646.5 148.386 1650.25 148.576 1654.2 148.296C1650.42 159.616 1641.85 166.856 1632.62 173.546C1609.89 190.016 1583.93 199.016 1557.17 206.226C1550.92 207.906 1544.67 209.606 1538.68 212.106C1536.88 212.856 1535.71 213.356 1537.67 215.506C1542.26 220.526 1541.61 225.566 1536 229.656C1531.11 233.216 1525.47 235.366 1519.82 237.286C1499.39 244.236 1478.59 249.916 1457.63 254.996C1444.25 258.236 1431.45 263.406 1417.99 266.476C1386.32 273.696 1355.19 283.326 1322.78 287.156C1321.99 287.246 1321.24 287.736 1320.47 288.036C1317.11 287.216 1313.81 288.006 1310.49 288.366C1293.36 290.826 1276.37 294.226 1259.13 295.876C1235.1 298.176 1211.52 303.626 1187.49 305.946C1184.4 306.246 1181.22 307.256 1178.41 304.926H1178.4Z" fill="#8DBEBE"/>
<path d="M387.019 446.607C372.569 460.837 358.389 475.347 343.359 488.977C326.719 504.067 307.879 515.296 285.969 520.806C276.589 523.166 272.749 519.787 271.929 510.167C271.039 499.657 274.329 490.097 278.439 480.837C286.149 463.467 292.279 445.677 295.679 426.937C297.349 417.697 296.269 409.917 289.429 402.647C276.229 388.607 261.019 377.037 245.639 365.707C195.099 328.507 149.129 286.277 106.159 240.667C97.6586 231.647 90.4786 222.117 89.4386 209.257C89.2586 207.027 88.1186 206.987 86.4586 207.157C81.7986 207.637 77.3186 208.727 73.0286 210.677C70.3186 211.907 67.5286 213.097 64.6486 213.817C57.1586 215.687 50.0486 212.847 48.8786 205.617C44.8586 180.917 28.2786 162.827 16.7186 142.117C12.5086 134.577 7.95862 127.217 3.25862 119.977C-1.53138 112.597 0.318616 104.556 0.508616 96.7065C0.568616 94.1765 3.11862 93.6465 5.36862 93.2765C16.9186 91.3465 27.5986 93.9165 37.2986 100.107C49.2086 107.717 60.6986 115.987 71.6486 124.907C90.0886 139.927 109.269 153.957 128.249 168.257C128.609 169.737 127.469 169.917 126.519 170.267C120.039 169.997 115.079 165.947 109.819 162.997C102.289 158.767 95.3886 153.477 88.5286 148.187C76.2086 138.697 62.1886 132.717 47.1686 128.967C44.5886 128.327 42.0086 127.637 39.4086 127.087C37.2686 126.637 35.2786 127.067 34.4886 129.357C33.7686 131.447 35.1186 132.907 36.7286 133.887C39.2786 135.437 42.0786 136.557 44.0686 138.947C46.7686 142.177 46.6686 143.887 43.4586 146.367C39.1586 149.707 38.7186 151.897 42.6486 156.117C47.8686 161.727 52.4486 167.877 57.7186 173.417C59.8186 175.627 61.2086 177.657 59.5586 180.877C57.9186 184.067 59.6986 186.417 62.4586 187.837C70.1586 191.777 77.7686 195.907 85.7686 199.267C90.7186 201.347 95.8886 200.927 101.039 200.967C108.439 201.017 109.539 201.627 110.859 208.657C114.449 227.797 126.559 241.407 140.399 253.667C147.499 259.957 154.119 266.737 161.179 273.067C177.299 287.537 194.519 300.617 211.439 314.077C235.019 332.827 260.219 349.427 284.059 367.847C292.839 374.627 300.739 381.907 306.799 391.347C312.369 400.027 318.639 408.307 328.649 412.637C333.259 414.637 338.039 416.137 342.939 417.007C348.549 417.997 353.849 419.857 359.269 421.487C366.959 423.797 372.419 428.307 376.159 435.227C378.099 438.827 380.759 441.707 384.599 443.417C385.919 444.007 387.479 444.607 387.029 446.617L387.019 446.607Z" fill="#465360"/>
<path d="M828.669 369.867C827.589 369.337 824.569 371.126 825.829 367.836C827.169 364.316 825.359 362.356 822.809 360.896C819.359 358.916 815.689 357.327 812.119 355.567C810.019 354.527 809.519 353.806 811.629 351.716C819.569 343.856 829.789 341.746 840.099 339.956C864.639 335.696 889.199 331.357 912.389 321.987C939.169 311.167 967.039 304.667 995.269 299.287C1015.77 295.377 1036.49 292.777 1056.91 288.387C1073.64 284.787 1088.81 277.127 1104.42 270.597C1117.89 264.957 1131.08 258.526 1145.53 255.646C1151.06 254.546 1156.67 253.877 1162.34 253.977C1161.83 258.997 1158.46 261.727 1154.44 264.067C1140.55 272.137 1126.69 280.267 1112.84 288.417C1104.81 293.147 1096.16 296.497 1087.62 300.117C1083.52 301.857 1079.17 303.317 1076.14 306.867C1073.72 309.707 1072.26 312.607 1073.74 316.757C1075.34 321.257 1073.44 325.277 1069.5 327.887C1062.86 332.287 1055.75 335.897 1048.57 339.347C1044.69 341.207 1040.93 343.286 1037.45 345.836C1036.42 347.746 1034.08 348.656 1033.55 350.956C1029.34 353.166 1025.66 356.497 1020.64 357.007C1019.23 357.127 1017.9 355.727 1016.43 356.767C991.008 362.477 965.229 366.086 939.439 369.526C923.669 371.626 907.809 373.097 891.979 374.797C890.489 374.957 888.978 374.917 887.678 375.817C873.158 377.237 858.729 379.387 844.209 380.767C843.039 380.877 841.879 380.787 840.869 380.097C840.249 379.467 840.099 378.717 840.279 377.857C841.359 372.447 840.409 371.177 834.949 370.237C832.839 369.877 830.689 370.797 828.639 369.877L828.669 369.867Z" fill="#8DBEBE"/>
<path d="M1311.38 287.017C1314.4 287.397 1317.88 283.697 1320.45 288.037C1320.78 291.217 1320.24 294.267 1319.52 297.387C1310.76 335.097 1297.36 371.047 1278.84 405.087C1274.95 412.227 1271.47 419.587 1267.7 426.797C1257.99 445.387 1243.46 459.527 1226.28 471.167C1224.09 472.657 1221.68 473.827 1219.36 475.137C1206.49 482.387 1198.77 472.067 1198.4 462.567C1198.22 458.057 1198.9 453.627 1199.26 449.167C1200.02 439.777 1201.13 430.317 1201.52 421.017C1202.27 403.367 1201.66 385.467 1194.48 368.657C1191.32 361.267 1186.54 355.837 1178.68 353.147C1169.68 350.067 1161.16 345.827 1153.56 340.087C1148.75 336.457 1144.29 332.277 1145.63 325.207C1149.57 322.757 1153.51 320.307 1157.45 317.867C1158.43 317.527 1159.09 318.057 1159.51 318.787C1162.91 324.637 1168.46 327.427 1174.52 329.637C1183.83 333.027 1192.25 337.887 1199.62 344.597C1203.55 348.177 1208.28 350.767 1212.43 354.087C1218.12 358.627 1222.9 363.807 1224.42 371.277C1224.75 372.897 1225.37 374.467 1226.26 375.887C1228.48 379.407 1230.99 380.077 1234.72 378.207C1237.29 376.917 1239.27 374.847 1241.37 372.987C1259.13 357.207 1276.35 340.847 1292 322.967C1297.69 316.467 1301.82 308.927 1304.98 300.727C1306.77 296.097 1308.06 291.027 1311.37 287.027L1311.38 287.017Z" fill="#465360"/>
<path d="M387.019 446.606C378.739 442.896 374.599 435.286 369.689 428.376C367.859 425.806 364.779 425.086 362.049 423.896C353.929 420.336 345.249 418.736 336.689 416.736C326.409 414.336 317.379 409.416 311.999 400.286C298.939 378.156 278.019 364.596 258.049 350.146C223.429 325.096 189.109 299.676 157.199 271.206C147.649 262.686 138.319 253.886 129.399 244.716C119.149 234.186 111.419 222.046 109.379 207.086C108.839 203.126 106.729 201.206 103.019 201.966C92.4486 204.116 83.4286 200.066 74.4586 195.456C70.1686 193.256 65.7686 191.266 61.5686 188.926C57.1586 186.466 56.3186 183.906 58.9486 179.656C60.3486 177.386 58.8486 176.706 57.8586 175.566C52.8286 169.806 47.7186 164.116 42.7286 158.336C41.4386 156.836 40.2586 155.186 39.3586 153.426C37.4686 149.746 38.5086 146.666 42.4486 145.536C46.5786 144.356 45.6486 142.706 43.7186 140.356C42.1186 138.396 40.3586 136.876 37.8686 135.956C34.6186 134.746 31.5086 132.606 32.9886 128.586C34.3486 124.876 37.6386 125.526 41.0386 126.116C64.9186 130.266 84.5386 142.736 103.249 157.176C110.109 162.466 117.819 166.386 125.959 169.426C126.759 169.816 127.629 169.766 128.489 169.856C129.759 170.096 130.959 170.986 132.339 170.266C143.609 179.816 156.959 186.176 169.229 194.186C141.649 196.016 118.609 185.056 97.3586 168.916C88.5486 162.226 80.3486 154.696 70.6286 149.216C69.1886 148.406 67.7786 147.466 66.2386 146.886C63.4586 145.836 59.9986 143.616 60.0686 149.476C52.5386 155.646 60.1086 158.746 63.0186 162.316C66.5686 166.676 70.9186 170.376 74.8786 174.406C77.2286 176.796 79.3386 179.346 78.9286 183.026C78.7086 184.966 80.0986 185.726 81.4386 186.266C87.5586 188.766 93.6186 191.126 100.489 191.336C113.149 191.726 120.779 196.416 120.319 209.356C120.299 209.926 120.809 210.526 121.079 211.106C125.539 226.516 135.399 238.076 147.039 248.666C164.239 264.326 181.459 279.966 200.069 293.946C226.349 313.696 253.339 332.526 279.159 352.876C288.909 360.556 300.099 366.406 308.349 376.046C313.449 382.006 317.589 388.626 322.079 394.996C327.839 403.166 335.509 407.627 345.289 408.757C354.819 409.857 363.469 413.886 372.349 417.026C378.509 419.206 381.819 424.766 384.139 430.556C386.009 435.236 388.559 438.276 394.029 437.596C392.079 440.886 388.409 442.856 387.059 446.616L387.019 446.606Z" fill="#D4E8F6"/>
<path d="M828.669 369.866C831.819 368.266 834.949 368.436 838.179 369.716C843.739 371.936 844.279 373.836 840.539 378.626C839.699 380.316 838.309 381.476 836.789 382.526C825.379 390.396 812.719 395.936 800.369 402.066C799.579 402.456 798.789 402.916 798.389 402.626C804.139 401.006 810.279 399.356 816.589 398.416C826.789 396.896 837.129 397.226 847.369 395.706C853.969 394.726 859.979 393.056 865.579 389.566C868.689 387.636 871.799 385.706 875.019 383.966C876.789 383.016 878.629 382.066 880.529 383.766C880.789 385.306 879.859 386.286 878.819 387.136C870.969 393.506 865.439 401.866 859.309 409.716C853.409 417.286 845.939 423.136 837.879 428.196C832.149 431.786 826.139 431.236 820.259 428.326C809.659 423.076 799.509 417.056 789.869 410.206C787.829 408.756 786.319 408.366 784.099 409.776C769.909 418.796 753.819 423.156 738.039 428.266C735.179 429.196 734.079 427.916 733.289 425.526C732.769 423.946 733.129 422.366 733.799 421.176C738.619 412.606 737.539 404.626 732.829 396.216C728.959 389.316 731.089 384.776 738.809 379.776C739.549 378.596 740.649 377.776 741.929 377.396C750.229 374.886 757.969 370.966 766.069 367.946C767.279 367.906 768.469 367.446 769.699 367.766C771.599 367.196 773.479 366.586 775.389 366.086C777.019 365.656 778.769 365.396 780.009 366.866C781.269 368.356 780.579 369.936 779.899 371.506C776.789 378.666 770.709 383.046 764.889 387.676C761.839 390.106 758.449 392.286 757.869 396.516C758.659 397.396 759.399 397.026 759.879 396.746C770.149 390.836 781.739 389.686 793.049 387.456C806.489 384.806 817.979 378.096 828.679 369.836L828.669 369.866Z" fill="#465360"/>
<path d="M518.839 373.967C521.309 372.037 523.919 371.717 527.089 372.237C532.719 373.147 538.509 372.987 544.039 374.707C551.749 374.567 559.149 376.307 566.409 378.647C573.899 381.057 581.509 382.427 589.409 382.407C597.829 382.387 605.889 384.797 613.669 387.587C620.139 389.907 626.429 390.697 633.189 389.887C640.569 389.007 644.429 392.797 643.879 399.747C643.559 404.307 641.179 407.997 638.319 411.207C624.779 426.387 609.369 439.067 590.009 446.297C578.849 450.467 573.159 446.687 572.599 434.677C572.539 433.357 572.469 431.997 572.699 430.697C574.929 417.907 569.069 408.027 560.869 399.317C550.199 387.977 537.409 379.807 522.159 375.857C520.849 375.517 519.549 375.297 518.849 373.967H518.839Z" fill="#465360"/>
<path d="M643.879 399.736C640.719 390.886 640.409 390.696 630.199 391.666C624.999 392.156 620.109 391.436 615.129 389.596C605.649 386.096 595.929 383.466 585.619 383.686C579.109 383.826 572.799 382.266 566.679 380.166C559.299 377.626 551.499 376.886 544.039 374.706C545.079 373.526 546.499 373.846 547.779 373.876C572.039 374.416 596.209 372.096 620.439 371.436C647.499 370.696 674.539 369.596 701.609 369.946C711.009 370.066 720.079 368.166 729.189 366.646C741.459 364.596 753.569 364.896 765.739 366.886C766.329 367.376 767.359 367.626 766.729 368.756C757.719 373.156 748.319 376.586 738.829 379.786C737.819 378.566 736.409 378.906 735.129 378.896C720.039 378.706 705.109 380.756 690.149 382.246C682.759 382.976 675.369 384.696 668.009 384.526C658.619 384.306 653.039 389.636 647.569 395.766C646.369 397.116 645.519 398.786 643.879 399.736V399.736Z" fill="#8DBEBE"/>
<path d="M913.709 88.4265C906.189 67.7365 896.049 48.1565 887.659 27.8565C878.779 6.3965 889.729 -1.2635 909.809 0.166496C922.519 1.0765 933.919 6.99649 945.589 11.6565C949.079 28.1165 940.319 43.5765 924.549 47.5765C916.069 49.7265 913.269 53.0565 914.169 63.1365C914.429 66.0965 914.989 69.0465 915.739 71.9365C916.199 73.7065 916.699 75.4765 915.879 77.2765C914.789 79.2865 914.749 81.3665 915.479 83.5065C915.669 84.2465 915.759 84.9865 915.749 85.7465C915.489 86.9565 915.659 88.4965 913.719 88.4365L913.709 88.4265Z" fill="#465B6B"/>
<path d="M1020.69 355.867C1025.71 355.447 1029.01 351.267 1033.64 349.997C1035.78 347.817 1038.25 347.097 1040.63 349.297C1043.06 351.547 1041.39 353.907 1040.08 356.007C1038.19 359.017 1035.13 360.857 1032.58 363.217C1022.51 372.537 1011.93 381.377 1003.83 392.637C1000.92 396.687 997.389 400.217 993.849 403.727C990.929 406.627 990.499 409.787 993.049 412.357C995.459 414.787 997.709 412.267 999.569 411.077C1013.72 402.087 1027.81 392.997 1042.39 384.697C1044.72 383.367 1047.07 382.087 1049.78 381.917C1052.49 381.747 1052.96 382.567 1052.2 385.607C1032.61 401.357 1012.16 415.897 990.719 429.047C986.169 431.837 981.409 432.967 976.039 432.837C970.269 432.697 966.649 428.867 962.639 425.857C960.809 424.487 961.039 421.617 962.249 419.357C964.129 415.847 965.759 412.157 968.529 409.217C976.889 400.367 984.279 390.747 991.519 380.997C996.539 374.247 1002.48 368.567 1009.8 364.287C1012.92 362.457 1015.63 359.947 1018.53 357.747C1019.19 357.047 1019.94 356.457 1020.69 355.857V355.867Z" fill="#465360"/>
<path d="M502.029 293.017C506.599 286.307 511.719 280.027 517.519 274.357C528.359 263.787 532.679 250.557 533.749 235.917C533.789 235.417 533.769 234.917 533.829 234.427C536.069 216.497 540.749 214.427 558.609 216.767C565.199 217.627 571.759 220.077 577.849 223.187C578.069 224.167 577.449 224.547 576.689 224.827C576.199 224.917 575.699 224.967 575.199 224.877C563.869 222.697 556.299 227.427 552.909 238.797C551.049 245.047 553.249 248.987 559.639 250.797C560.599 251.067 561.579 251.257 562.499 251.677C567.939 254.167 568.719 260.017 563.819 263.517C558.419 267.377 553.079 271.327 547.189 274.507C534.639 281.277 523.459 290.397 510.159 295.897C507.709 296.907 505.689 298.757 503.669 300.497C502.429 301.557 500.989 303.187 499.339 302.097C497.299 300.747 498.909 298.807 499.379 297.147C499.849 295.517 500.659 294.087 502.029 293.027V293.017Z" fill="#465360"/>
<path d="M914.759 85.2565L914.529 83.4665C914.039 81.4465 913.719 79.4365 914.749 77.4865C915.779 73.4365 913.089 69.8965 913.199 65.9365C913.259 63.8165 912.629 61.6765 912.509 59.5365C912.099 52.2065 914.949 48.4365 922.149 46.9265C932.739 44.6965 940.319 38.8565 943.199 28.2865C944.659 22.9265 943.819 17.0765 945.579 11.6665C949.919 13.9865 954.259 16.3065 958.599 18.6265C957.689 19.3065 957.589 20.2865 957.609 21.3065C957.829 39.1265 944.939 54.4265 926.979 58.5065C924.999 58.9565 924.419 59.9565 924.689 61.5865C925.089 64.0165 925.419 66.5565 926.389 68.7865C927.799 72.0165 928.059 75.1865 927.099 78.4665C926.599 80.1765 926.499 81.6465 927.749 83.1065C935.599 92.2965 933.169 102.656 930.759 112.836C929.979 116.136 928.549 119.417 926.389 122.267C925.119 123.947 923.809 125.277 921.589 125.367C921.699 119.927 922.029 114.467 919.709 109.307C921.679 105.747 922.009 102.287 919.249 98.9165C917.999 97.3865 917.569 95.4165 916.659 93.6965C915.109 91.0965 915.199 88.1265 914.749 85.2765L914.759 85.2565Z" fill="#D4E8F6"/>
<path d="M502.029 293.017C501.089 295.787 500.139 298.567 499.189 301.367C500.069 302.297 500.849 301.496 501.279 301.026C506.699 295.066 514.059 292.296 521.099 289.106C529.749 285.186 536.379 278.236 544.999 274.166C551.379 271.156 556.929 266.446 562.979 262.706C565.239 261.306 566.049 259.746 565.999 257.106C565.939 254.116 563.629 253.856 561.849 252.846C561.289 252.526 560.599 252.407 559.959 252.237C551.449 249.977 548.919 245.476 552.009 237.216C553.959 232.006 557.559 227.746 561.779 224.206C566.639 220.126 571.819 222.456 576.859 224.156C578.169 224.696 579.789 223.947 580.939 225.137C586.669 226.947 591.699 230.166 596.879 233.086C587.449 236.316 578.149 236.647 569.109 231.747C567.829 231.047 566.919 231.527 566.159 232.637C564.839 234.537 563.479 236.416 562.129 238.296C559.799 241.566 560.489 243.767 564.449 244.817C564.609 244.857 564.769 244.896 564.929 244.956C568.869 246.596 573.959 247.566 574.599 252.466C575.309 257.896 572.089 262.316 567.749 265.456C562.659 269.136 557.209 272.337 552.139 276.057C551.169 276.767 545.329 277.556 551.119 280.666C552.509 281.416 550.309 283.147 549.139 283.817C543.179 287.217 536.679 289.496 530.039 290.776C524.819 291.786 520.069 293.457 516.019 296.617C510.749 300.727 504.829 303.706 499.209 307.206C497.659 308.166 495.799 309.957 493.829 308.057C492.009 306.287 493.349 304.397 494.079 302.557C495.049 300.107 497.319 297.926 495.889 294.896C497.709 293.576 499.949 293.607 501.999 293.007L502.029 293.017Z" fill="#D4E8F6"/>
<path d="M1052.21 385.616C1052.75 383.016 1051.58 382.106 1049.22 382.926C1047.2 383.626 1045.22 384.516 1043.36 385.566C1029.32 393.476 1015.79 402.196 1002.2 410.846C999.119 412.806 996.069 414.796 992.069 415.476C991.179 413.216 992.549 410.156 989.439 408.586C988.129 407.926 989.759 406.576 990.419 405.836C1004.08 390.746 1016.53 374.516 1032.55 361.666C1034.87 359.806 1037 357.666 1039.03 355.496C1040.36 354.076 1041.93 352.366 1040.56 350.236C1039.29 348.266 1037.37 349.076 1035.6 349.626C1034.97 349.826 1034.3 349.896 1033.65 350.016C1033.16 347.006 1035.52 346.616 1037.48 345.846C1041.3 345.446 1044.62 346.456 1046.04 350.246C1047.5 354.136 1046.19 357.456 1043.39 360.656C1034.92 370.316 1023.64 376.756 1014.83 385.996C1011.13 389.876 1008.44 394.346 1005.75 399.366C1008.67 399.936 1010.13 398.326 1011.8 397.076C1018.42 392.136 1024.18 386.156 1031.19 381.686C1040.96 375.446 1050.1 375.096 1058.55 380.816C1056.31 382.256 1054.87 384.736 1052.22 385.646L1052.21 385.616Z" fill="#D4E8F6"/>
<path d="M880.529 383.787C877.309 383.047 874.989 385.137 872.909 386.797C861.649 395.817 848.139 397.837 834.559 398.477C822.869 399.027 811.439 400.267 800.189 403.377C799.109 403.677 797.909 403.577 796.609 403.297C811.099 394.757 826.769 388.367 840.539 378.637C844.879 380.437 849.179 378.667 853.429 378.277C862.949 377.397 872.419 375.967 881.909 374.827C883.889 374.587 885.909 374.707 887.699 375.807C887.529 380.457 882.969 381.177 880.519 383.777L880.529 383.787Z" fill="#80AAA5"/>
<path d="M917.459 93.5166C918.759 95.6066 920.049 97.7066 921.379 99.7766C923.549 103.167 922.879 107.057 919.719 109.287C918.649 104.757 917.589 100.237 916.519 95.7065C916.269 94.7365 915.559 93.5666 917.459 93.5166V93.5166Z" fill="#526676"/>
<path d="M917.459 93.5166C917.149 94.2466 916.829 94.9765 916.519 95.7065C915.219 93.4165 914.179 91.0366 913.709 88.4266C914.889 87.6366 914.479 86.3366 914.749 85.2566C915.649 88.0066 916.549 90.7666 917.449 93.5166H917.459Z" fill="#5D7180"/>
<path d="M468.849 301.046C466.589 301.856 464.479 303.846 461.869 301.926C464.099 300.886 466.429 300.626 468.849 301.046Z" fill="#8EB1C7"/>
<path d="M460.179 302.896C458.339 304.586 456.079 303.816 453.979 303.946C453.639 303.746 453.519 303.546 453.639 303.356C453.759 303.166 453.869 303.066 453.989 303.066C456.069 303.546 458.069 301.376 460.179 302.896Z" fill="#6E96AE"/>
<path d="M453.989 303.067C453.989 303.357 453.979 303.657 453.979 303.947C451.999 304.827 450.029 305.867 448.009 304.047C449.999 303.717 451.999 303.397 453.989 303.067Z" fill="#80A7BF"/>
<path d="M580.949 225.146C579.509 225.156 577.969 225.597 576.869 224.167C577.199 223.837 577.529 223.517 577.859 223.187C579.289 223.207 580.479 223.617 580.949 225.137V225.146Z" fill="#818E9A"/>
<path d="M1020.69 355.866C1020.53 357.136 1020.14 358.136 1018.53 357.756C1017.84 357.426 1017.15 357.086 1016.46 356.756C1017.66 355.446 1019.21 355.826 1020.69 355.866Z" fill="#E1E9EA"/>
<path d="M132.319 170.257C130.959 172.307 129.529 171.226 128.099 170.346C128.519 169.446 129.599 169.867 130.189 169.307C130.899 169.617 131.609 169.937 132.319 170.247V170.257Z" fill="#7D8A95"/>
<path d="M130.189 169.307C129.769 170.207 128.889 170.187 128.099 170.347C127.379 170.037 126.659 169.727 125.939 169.417C126.809 169.237 127.739 169.167 128.229 168.237C128.879 168.597 129.529 168.957 130.189 169.307V169.307Z" fill="#596673"/>
<path d="M1494.37 184.297C1479.88 190.737 1466.34 199.656 1450.57 202.786C1438.26 205.226 1425.67 206.346 1413.45 209.286C1407.07 210.816 1400.99 211.437 1394.36 210.447C1387.03 209.347 1380.19 212.567 1374.73 217.367C1365.51 225.477 1355.24 230.497 1342.78 230.107C1337.34 229.937 1332.15 227.707 1326.56 228.017C1322.3 228.257 1318.36 229.206 1314.7 231.276C1309.77 234.076 1304.57 236.266 1299.21 238.036C1282.17 243.686 1268.05 253.926 1255.09 265.966C1252.85 268.046 1250.63 269.887 1247.44 270.227C1238.89 271.157 1231.27 274.936 1223.47 278.146C1222.48 278.396 1222.21 278.006 1222.5 277.086C1226.21 272.736 1230.36 268.257 1227.41 262.047C1224.38 255.657 1218.01 254.246 1211.77 254.276C1202.62 254.316 1193.65 256.316 1184.76 258.456C1183.65 258.726 1182.53 258.927 1180.99 258.367C1184.61 256.037 1188.15 253.586 1191.86 251.406C1195.81 249.086 1198.45 246.527 1197.62 241.257C1195.12 225.407 1205.38 213.706 1211.44 200.656C1211.94 199.576 1212.92 198.087 1214.53 198.937C1216.62 200.027 1216.6 202.147 1216.5 204.187C1214.8 204.577 1213.76 205.366 1214.89 207.216C1219.26 214.406 1221.56 222.496 1224.96 231.336C1223.73 226.616 1222.08 223.146 1223.41 219.276C1225.78 215.106 1224.61 210.537 1224.4 206.247C1224.14 200.817 1226.5 197.256 1230.44 194.216C1234.53 200.026 1236.34 206.787 1238.23 213.447C1239.76 218.847 1240.85 224.397 1242.06 229.357C1242.19 225.617 1238.75 221.537 1241.43 217.137C1245.12 216.147 1244.26 213.057 1244.22 210.607C1244.09 202.297 1244.96 194.377 1251.42 188.197C1252.84 189.447 1252.76 191.177 1252.76 192.817C1252.79 204.867 1255.52 216.467 1258.64 227.997C1257.91 223.567 1256.74 219.237 1255.74 214.867C1255.3 212.937 1254.76 210.937 1256.4 209.227C1261.36 206.377 1262.83 201.017 1264.69 196.367C1266.73 191.267 1270.12 187.097 1272.42 182.257C1274.53 184.667 1273.69 187.606 1273.77 190.336C1274.1 201.836 1274.57 213.316 1277.9 224.776C1277.57 219.656 1274.63 215.117 1276.48 210.107C1279.53 210.857 1279.61 208.286 1280.17 206.596C1283.09 197.716 1288.18 190.036 1293.37 182.406C1294.1 181.336 1294.73 180.067 1296.4 180.327C1297.24 186.057 1295.83 191.736 1296.45 197.586C1297.51 207.666 1299.22 217.547 1301.57 227.357C1301.74 227.997 1302.38 226.887 1301.85 227.297C1301.72 227.397 1301.6 227.277 1301.55 226.917C1300.58 220.697 1299.49 214.497 1298.54 208.267C1298.32 206.787 1298.17 205.267 1299.47 204.107C1301.62 204.117 1302.14 202.207 1302.86 200.877C1310.94 185.987 1323.63 177.237 1339.69 172.677C1354.68 168.417 1369.91 165.157 1385.01 161.317C1405.91 156.017 1427.41 154.017 1448.47 149.517C1459.29 147.207 1470.34 145.927 1481.28 144.177C1481.73 145.487 1480.73 145.937 1479.89 146.427C1466.2 154.377 1466.27 171.347 1479.94 179.637C1483.8 181.977 1488.01 182.536 1492.3 183.096C1493.14 183.206 1493.9 183.537 1494.43 184.257L1494.37 184.297Z" fill="#47748E"/>
<path d="M1311.38 287.017C1305.72 307.457 1294.51 324.287 1279.13 338.857C1265.76 351.517 1252.92 364.717 1238.94 376.747C1231.54 383.107 1226 382.007 1223.63 372.677C1221.47 364.197 1216.51 358.307 1209.65 353.517C1204.62 350.007 1199.71 346.357 1195.04 342.347C1188.8 337.007 1181.51 333.317 1173.76 330.687C1166.73 328.307 1160.99 324.517 1157.45 317.847C1164.41 313.497 1170.92 308.417 1178.4 304.917C1193.13 304.337 1207.65 302.027 1222.14 299.567C1235.65 297.267 1249.24 295.557 1262.85 293.887C1276.94 292.157 1290.95 289.817 1304.97 287.547C1307.13 287.197 1309.23 287.037 1311.39 287.007L1311.38 287.017Z" fill="#80AAA5"/>
<path d="M1644.35 144.267C1643.55 145.367 1642.34 145.476 1641.2 145.286C1626.06 142.736 1611.78 148.317 1597.08 149.877C1596.42 149.947 1595.75 150.336 1595.14 150.236C1585.94 148.776 1578.61 153.246 1570.92 157.276C1551.12 167.646 1529.63 173.367 1508.2 179.187C1506.78 177.077 1508.72 175.927 1509.59 174.517C1510.72 172.697 1511.61 170.797 1512.24 168.757C1512.38 168.317 1512.56 167.896 1512.75 167.476C1515.15 161.226 1514.13 155.516 1510.02 150.296C1509.71 149.946 1509.44 149.567 1509.18 149.177C1504.85 143.067 1498.93 141.526 1491.9 143.206C1490.61 143.416 1489.37 143.396 1488.38 142.356C1498.41 137.766 1509.18 136.026 1519.94 134.476C1538.98 131.746 1558.03 133.707 1577.04 135.127C1588.69 135.997 1600.21 133.837 1611.85 134.377C1621.38 134.817 1630.62 136.176 1639.65 139.236C1642.28 140.126 1644.08 141.377 1644.34 144.267H1644.35Z" fill="#47748E"/>
<path d="M1488.38 142.356C1489.66 142.356 1490.94 142.337 1492.22 142.327C1499.62 141.057 1505.66 143.287 1510.21 149.317C1514.58 155.107 1515.25 161.476 1513.21 168.276C1511.88 172.556 1509.08 175.926 1506.3 179.296C1502.99 182.546 1498.27 182.446 1494.37 184.296C1486.39 184.566 1479.47 182.366 1473.79 176.396C1467.82 170.126 1465.73 158.847 1472.48 149.507C1474.73 146.387 1478.6 146.456 1481.22 144.216C1483.23 142.146 1486.32 144.236 1488.38 142.356V142.356Z" fill="#416981"/>
<path d="M1299.41 204.136C1300.39 210.486 1301.44 216.816 1302.31 223.176C1302.57 225.106 1302.35 227.106 1302.35 230.326C1298.5 224.536 1297.87 218.946 1297.07 213.546C1295.57 203.476 1293.32 193.406 1295.37 183.126C1295.56 182.166 1296.01 181.266 1296.35 180.336C1299.32 180.966 1298.37 183.316 1298.29 185.096C1297.99 191.486 1298.03 197.846 1299.41 204.126V204.136Z" fill="#475562"/>
<path d="M1276.43 210.127C1277.56 215.417 1278.67 220.716 1279.84 225.996C1280.05 226.946 1280.73 228.136 1279.58 228.586C1278.14 229.146 1277.64 227.706 1277.19 226.676C1274.96 221.476 1273.93 215.897 1273.51 210.387C1272.81 201.047 1271.76 191.677 1272.37 182.267C1272.68 181.267 1273.21 180.256 1274.36 180.436C1275.99 180.696 1275.55 182.197 1275.58 183.267C1275.88 192.217 1276.14 201.166 1276.41 210.106L1276.43 210.127Z" fill="#475563"/>
<path d="M1256.37 209.257C1256.42 215.427 1259.01 221.107 1259.94 227.107C1260.24 229.037 1260.58 230.817 1259.27 232.657C1254.15 218.257 1250.8 203.597 1251.38 188.227C1253.78 184.937 1254.14 187.647 1254.32 189.377C1254.82 194.237 1255.12 199.127 1255.42 204.007C1255.53 205.807 1255.52 207.607 1256.37 209.257V209.257Z" fill="#475562"/>
<path d="M1241.4 217.156C1241 222.616 1244.31 227.696 1243.03 233.996C1239.81 229.676 1239.55 224.966 1238.61 220.686C1236.85 212.716 1234.33 205.066 1231.16 197.586C1230.72 196.556 1230.66 195.356 1230.43 194.236C1233.15 193.296 1233.74 195.246 1234.63 197.116C1237.67 203.536 1239.12 210.496 1241.42 217.156H1241.4Z" fill="#475563"/>
<path d="M1223.38 219.296C1224.39 224.006 1225.4 228.706 1226.49 233.756C1223.63 233.236 1223.81 231.306 1223.23 229.906C1220.04 222.156 1217.72 214.036 1213.28 206.816C1212.51 205.566 1211.64 203.876 1213.1 202.806C1214.43 201.826 1215.23 203.956 1216.48 204.206C1218.71 209.276 1220.48 214.546 1223.38 219.306V219.296Z" fill="#465562"/>
<path d="M1222.48 277.096C1222.8 277.446 1223.13 277.806 1223.45 278.156C1222.32 279.356 1220.91 279.936 1219.28 280.006C1220.09 278.746 1221.03 277.646 1222.48 277.096Z" fill="#6C99B0"/>
<path d="M766.719 368.757C766.389 368.137 766.059 367.507 765.729 366.887C767.119 366.887 768.629 366.396 769.709 367.786C768.709 368.106 767.719 368.437 766.719 368.757Z" fill="#77A5AC"/>
<path d="M1484.34 215.337C1501.39 209.437 1528.34 208.167 1533.61 213.297C1517.34 214.297 1501.32 215.277 1485.3 216.257C1484.27 216.697 1484.12 216.207 1484.34 215.337V215.337Z" fill="#2D3939"/>
<path d="M1506.3 179.297C1507.85 175.147 1511.25 172.166 1513.21 168.276C1513.53 172.816 1509.38 175.327 1508.21 179.187C1507.57 179.227 1506.94 179.267 1506.3 179.297Z" fill="#446D87"/>
<path d="M1484.34 215.336C1484.66 215.646 1484.98 215.946 1485.3 216.256C1483.82 217.696 1481.96 217.126 1480.22 217.196C1479.93 216.956 1479.85 216.736 1479.98 216.536C1480.1 216.346 1480.21 216.256 1480.32 216.256C1481.66 215.956 1483 215.646 1484.34 215.346V215.336Z" fill="#4C6465"/>
<path d="M1480.32 216.247C1480.26 216.557 1480.23 216.877 1480.22 217.187C1479.4 218.257 1478.37 218.397 1476.7 217.687C1478.14 217.107 1479.23 216.677 1480.32 216.237V216.247Z" fill="#6F9393"/>
<path d="M914.749 77.4766C914.679 79.4666 914.599 81.4665 914.529 83.4565C913.229 81.4065 913.029 79.4066 914.749 77.4766Z" fill="#5D7180"/>
<path d="M1513.21 168.276C1513.49 161.756 1513.46 155.287 1510.21 149.317C1515.45 153.767 1516.86 162.656 1513.21 168.276Z" fill="#446D87"/>
<path d="M1510.21 149.317C1505.16 144.557 1499.22 142.087 1492.22 142.327C1499.58 139.657 1507.19 142.607 1510.21 149.317Z" fill="#446D87"/>
<path d="M1489.95 181.246C1479.63 181.206 1471.22 172.636 1471.23 162.196C1471.25 150.636 1479.07 144.256 1493.13 144.326C1504.02 144.376 1512.68 151.826 1512.03 161.726C1511.34 172.086 1503.93 181.346 1489.95 181.246V181.246Z" fill="#395B6F"/>
<path d="M1508.38 163.266C1506.73 171.376 1501.21 175.666 1493.59 177.056C1486.31 178.386 1480.34 175.616 1476.26 169.256C1477.44 164.626 1480.93 165.646 1484.16 166.016C1485.54 166.606 1486.6 167.616 1487.7 168.606C1491.99 172.426 1492.66 172.346 1495.81 167.506C1496.44 166.546 1496.99 165.546 1497.89 164.786C1498.28 164.486 1498.69 164.226 1499.13 164.006C1501.97 163.176 1504.71 161.656 1507.83 162.726C1508.01 162.896 1508.19 163.076 1508.37 163.256L1508.38 163.266Z" fill="#8FDED3"/>
<path d="M1498.25 165.286C1494.52 172.12 1489.91 172.733 1484.42 167.127C1483.13 165.727 1481.32 164.696 1481.25 162.466C1481.2 161.736 1481.3 161.027 1481.49 160.327C1482.36 158.557 1482.7 155.626 1485.67 158.396C1486.69 159.396 1487.82 159.627 1489.09 158.857C1491.4 157.687 1492.85 154.157 1496.32 156.257C1497.64 156.887 1498.11 158.076 1498.4 159.396C1501.2 161.426 1499.54 163.356 1498.26 165.286H1498.25Z" fill="#051D1B"/>
<path d="M1485 159.467C1482.91 156.277 1483.33 160.507 1482.28 160.387C1479.94 159.307 1477.57 161.257 1475.23 160.287C1474.79 150.397 1493 142.597 1501.4 148.427C1502.46 149.167 1503.98 149.787 1503.67 151.347C1503.37 152.837 1501.67 152.077 1500.7 152.607C1499.15 153.447 1496.97 153.227 1496.2 155.337C1494.27 155.797 1492.89 154.287 1491.19 153.947C1488.92 153.497 1486.87 153.427 1486.8 156.607C1486.57 157.797 1486.28 158.947 1484.99 159.467H1485Z" fill="#385658"/>
<path d="M1498.25 165.287C1497.9 163.317 1499.9 161.397 1498.39 159.397C1499.69 158.487 1500.86 157.537 1502.57 157.147C1508.2 155.867 1509.61 157.247 1508.38 163.267L1508.08 163.307C1504.46 160.987 1501.82 163.067 1499.2 165.267C1498.88 165.277 1498.57 165.287 1498.25 165.287Z" fill="#7CC1B9"/>
<path d="M1486.22 156.337C1484.04 153.277 1486.16 152.647 1488.57 152.297C1491.67 151.847 1493.9 153.717 1496.21 155.337C1496.22 155.647 1496.26 155.957 1496.31 156.267C1492.89 155.747 1491.69 159.097 1489.26 160.307C1487.96 159.207 1487.45 157.497 1486.22 156.337V156.337Z" fill="#0F1F22"/>
<path d="M1482.09 162.366C1482.87 163.956 1483.64 165.546 1484.42 167.126C1481.35 166.496 1478.42 166.416 1476.26 169.266C1474.35 167.546 1475.55 165.306 1475.25 163.326C1477.27 161.186 1479.47 160.296 1482.09 162.366V162.366Z" fill="#5D908D"/>
<path d="M1482.09 162.367C1479.7 161.897 1477.5 162.757 1475.25 163.327C1475.25 162.317 1475.25 161.307 1475.24 160.297C1477.59 160.497 1480 155.857 1482.29 160.397C1482.22 161.057 1482.16 161.717 1482.09 162.377V162.367Z" fill="#416465"/>
<path d="M1499.2 165.267C1500.31 160.877 1504.39 161.697 1507.4 160.837C1508.16 160.617 1508.12 162.367 1508.09 163.307C1504.96 163.197 1502.08 164.207 1499.21 165.267H1499.2Z" fill="#86D1C8"/>
<path d="M1486.22 156.336C1489.58 155.866 1489.45 158.056 1489.26 160.306C1487.59 161.306 1486.05 161.636 1485 159.476C1485.41 158.436 1485.81 157.386 1486.22 156.346V156.336Z" fill="#6A7175"/>
</svg>
