<svg width="175" height="76" viewBox="0 0 175 76" fill="none" xmlns="http://www.w3.org/2000/svg">
<path d="M92.7801 1.74999C92.7801 1.74999 94.5501 6.90999 95.8001 20.81C64.2501 20.32 47.66 29.28 43.32 45.88C38.98 62.48 -5.23996 81.2 6.61004 59.69L10.8901 61.2C10.8901 61.2 6.97002 24.83 8.59002 18.8C1.36002 27.32 8.01006 48.28 3.01006 55.19C-12.0999 85.32 43.58 80.21 55.19 55.52C66.8 30.82 95.5101 46.65 95.5101 46.65L103.54 68.29C103.54 68.29 103.58 74.57 120.27 53.71C140.59 58.55 173.01 64.03 174.52 40.38C176.03 16.73 122.93 17.48 122.93 17.48C122.93 17.48 94.2601 -4.37 92.7901 1.76L92.7801 1.74999Z" fill="#4E3100"/>
</svg>
