<svg width="111" height="109" viewBox="0 0 111 109" fill="none" xmlns="http://www.w3.org/2000/svg">
<path d="M18.7399 92.26C18.7399 92.26 22.1399 88 33.2099 79.49C49.7199 106.38 107.93 132.6 110.66 70.98C111.51 37.96 98.0599 28.43 73.5499 29.96L72.5299 25.5301C72.5299 25.5301 43.9299 48.34 37.9799 50.21C49.0399 51.74 63.1699 34.89 71.6799 35.4C105.21 32 116.28 90.72 84.2799 95.14C69.4799 93.99 55.1699 65.86 55.1699 65.86L69.1299 47.48C69.1299 47.48 74.4099 44.08 47.8499 41.18C41.0399 21.44 28.2799 -8.86 7.50992 2.54C-13.2601 13.94 15.8499 58.37 15.8499 58.37C15.8499 58.37 12.7899 94.28 18.7399 92.24V92.26Z" fill="#4E3100"/>
</svg>
