<svg width="288" height="230" viewBox="0 0 288 230" fill="none" xmlns="http://www.w3.org/2000/svg">
<path fill-rule="evenodd" clip-rule="evenodd" d="M115.068 0.663271C115.068 1.77365 107.603 57.7006 107.433 57.863C107.351 57.9421 105.549 58.7717 103.43 59.7062C91.4618 64.986 68.5674 79.925 53.4726 92.3036C50.6805 94.5934 47.9954 96.7018 47.506 96.9887C46.9076 97.3406 45.3908 96.1571 42.8681 93.3707C33.0136 82.4848 19.8167 75.5499 2.19982 72.0002L0 71.557V129.397V187.237L5.9226 185.961C16.8845 183.599 26.3336 179.393 34.5277 173.229C38.9287 169.918 44.4865 164.398 47.1053 160.736L48.4915 158.798L55.5506 163.507C78.1702 178.594 101.624 189.082 127.082 195.495L129.959 196.22V213.11C129.959 226.797 130.131 230 130.868 230C132.418 230 139.111 227.511 144.988 224.749C154.855 220.11 165.881 212.285 173.25 204.691C175.719 202.146 176.705 201.581 178.669 201.581C184.132 201.581 199.191 199.396 206.657 197.52C229.172 191.862 249.641 179.837 265.795 162.778C274.281 153.816 281.145 144.155 286.346 133.855C288.868 128.862 288.847 128.738 283.875 118.768C268.813 88.5638 247.88 67.0911 221.142 54.4161C213.89 50.9781 202.966 47.2119 197.415 46.2355C195.318 45.8667 193.812 44.732 189.631 40.3696C173.877 23.9338 150.538 10.2575 124.232 2.04498C117.052 -0.196748 115.068 -0.495826 115.068 0.663271ZM186.314 73.3183C199.255 75.6365 212.69 81.3149 223.563 89.0618C234.565 96.9008 246.226 110.051 253.515 122.837L256.467 128.016L254.349 131.135C248.836 139.255 237.012 151.059 229.12 156.323C219.439 162.778 207.084 167.905 194.727 170.594C188.779 171.887 185.739 172.097 172.601 172.12C156.606 172.148 151.684 171.655 138.081 168.661C120.254 164.739 102.602 157.719 83.9317 147.126C71.9998 140.357 57.7775 130.171 57.3659 128.1C56.8495 125.497 80.0552 107.025 97.6085 96.0678C116.379 84.351 141.773 74.5592 159.741 72.1105C164.135 71.5116 180.341 72.2478 186.314 73.3183ZM201.073 102.244C196.592 103.964 191.384 108.943 189.344 113.458C187.258 118.077 187.287 126.219 189.406 130.938C194.223 141.662 206.996 146.458 218.239 141.762C221.895 140.235 227.085 134.985 228.861 131.016C231.144 125.913 231.121 117.98 228.811 113.278C223.687 102.855 211.799 98.1262 201.073 102.244Z" fill="black"/>
</svg>
